%TF.GenerationSoftware,KiCad,Pcbnew,9.0.7*%
%TF.CreationDate,2026-02-04T13:10:33-07:00*%
%TF.ProjectId,Uno_Shield_DSP_Class_v1,556e6f5f-5368-4696-956c-645f4453505f,rev?*%
%TF.SameCoordinates,Original*%
%TF.FileFunction,Legend,Top*%
%TF.FilePolarity,Positive*%
%FSLAX46Y46*%
G04 Gerber Fmt 4.6, Leading zero omitted, Abs format (unit mm)*
G04 Created by KiCad (PCBNEW 9.0.7) date 2026-02-04 13:10:33*
%MOMM*%
%LPD*%
G01*
G04 APERTURE LIST*
%ADD10C,0.150000*%
%ADD11C,0.120000*%
G04 APERTURE END LIST*
D10*
X86060000Y-70860000D02*
X113360000Y-70860000D01*
X113360000Y-98660000D01*
X86060000Y-98660000D01*
X86060000Y-70860000D01*
X87940000Y-52820000D02*
X109270000Y-52820000D01*
X109270000Y-69360000D01*
X87940000Y-69360000D01*
X87940000Y-52820000D01*
G36*
X145180542Y-83479077D02*
G01*
X145252484Y-83551019D01*
X145292826Y-83712386D01*
X145292826Y-84027251D01*
X145252484Y-84188617D01*
X145180541Y-84260561D01*
X145112026Y-84294819D01*
X144956960Y-84294819D01*
X144888444Y-84260561D01*
X144816501Y-84188617D01*
X144776160Y-84027251D01*
X144776160Y-83712386D01*
X144816501Y-83551019D01*
X144888444Y-83479077D01*
X144956960Y-83444819D01*
X145112026Y-83444819D01*
X145180542Y-83479077D01*
G37*
G36*
X144180542Y-83479077D02*
G01*
X144210949Y-83509484D01*
X144245207Y-83578000D01*
X144245207Y-83685447D01*
X144210949Y-83753963D01*
X144180542Y-83784370D01*
X144112026Y-83818628D01*
X143823779Y-83818628D01*
X143823779Y-83444819D01*
X144112026Y-83444819D01*
X144180542Y-83479077D01*
G37*
G36*
X148030128Y-84555930D02*
G01*
X143562668Y-84555930D01*
X143562668Y-83369819D01*
X143673779Y-83369819D01*
X143673779Y-84369819D01*
X143675220Y-84384451D01*
X143686419Y-84411487D01*
X143707111Y-84432179D01*
X143734147Y-84443378D01*
X143763411Y-84443378D01*
X143790447Y-84432179D01*
X143811139Y-84411487D01*
X143822338Y-84384451D01*
X143823779Y-84369819D01*
X143823779Y-83968628D01*
X144129731Y-83968628D01*
X144144363Y-83967187D01*
X144146852Y-83966155D01*
X144149540Y-83965965D01*
X144163272Y-83960710D01*
X144258510Y-83913091D01*
X144264809Y-83909126D01*
X144266637Y-83908369D01*
X144268693Y-83906680D01*
X144270953Y-83905259D01*
X144272252Y-83903760D01*
X144278002Y-83899042D01*
X144325621Y-83851423D01*
X144330339Y-83845673D01*
X144331838Y-83844374D01*
X144333259Y-83842114D01*
X144334948Y-83840058D01*
X144335705Y-83838230D01*
X144339670Y-83831931D01*
X144387289Y-83736693D01*
X144392544Y-83722962D01*
X144392735Y-83720272D01*
X144393766Y-83717784D01*
X144395207Y-83703152D01*
X144626160Y-83703152D01*
X144626160Y-84036485D01*
X144626411Y-84039038D01*
X144626249Y-84040131D01*
X144627058Y-84045604D01*
X144627601Y-84051117D01*
X144628023Y-84052138D01*
X144628399Y-84054675D01*
X144676018Y-84245151D01*
X144680965Y-84258997D01*
X144684284Y-84263476D01*
X144686418Y-84268628D01*
X144695746Y-84279994D01*
X144790984Y-84375233D01*
X144796734Y-84379953D01*
X144798033Y-84381450D01*
X144800287Y-84382869D01*
X144802349Y-84384561D01*
X144804181Y-84385319D01*
X144810476Y-84389282D01*
X144905714Y-84436901D01*
X144919445Y-84442156D01*
X144922134Y-84442347D01*
X144924623Y-84443378D01*
X144939255Y-84444819D01*
X145129731Y-84444819D01*
X145144363Y-84443378D01*
X145146852Y-84442346D01*
X145149540Y-84442156D01*
X145163272Y-84436901D01*
X145258510Y-84389282D01*
X145264809Y-84385317D01*
X145266637Y-84384560D01*
X145268693Y-84382871D01*
X145270953Y-84381450D01*
X145272252Y-84379951D01*
X145278002Y-84375233D01*
X145373241Y-84279993D01*
X145382568Y-84268628D01*
X145384701Y-84263476D01*
X145388021Y-84258997D01*
X145392968Y-84245151D01*
X145440587Y-84054675D01*
X145440962Y-84052138D01*
X145441385Y-84051117D01*
X145441927Y-84045604D01*
X145442737Y-84040131D01*
X145442574Y-84039038D01*
X145442826Y-84036485D01*
X145442826Y-83703152D01*
X145442574Y-83700598D01*
X145442737Y-83699506D01*
X145441927Y-83694032D01*
X145441385Y-83688520D01*
X145440962Y-83687498D01*
X145440587Y-83684962D01*
X145392968Y-83494486D01*
X145388021Y-83480640D01*
X145384702Y-83476161D01*
X145382568Y-83471008D01*
X145373240Y-83459643D01*
X145278002Y-83364405D01*
X145272252Y-83359686D01*
X145270953Y-83358188D01*
X145268693Y-83356766D01*
X145266770Y-83355187D01*
X145579982Y-83355187D01*
X145579982Y-83384451D01*
X145591181Y-83411487D01*
X145611873Y-83432179D01*
X145638909Y-83443378D01*
X145653541Y-83444819D01*
X145864255Y-83444819D01*
X145864255Y-84369819D01*
X145865696Y-84384451D01*
X145876895Y-84411487D01*
X145897587Y-84432179D01*
X145924623Y-84443378D01*
X145953887Y-84443378D01*
X145980923Y-84432179D01*
X146001615Y-84411487D01*
X146012814Y-84384451D01*
X146014255Y-84369819D01*
X146014255Y-84355187D01*
X147151411Y-84355187D01*
X147151411Y-84384451D01*
X147162610Y-84411487D01*
X147183302Y-84432179D01*
X147210338Y-84443378D01*
X147224970Y-84444819D01*
X147844017Y-84444819D01*
X147858649Y-84443378D01*
X147885685Y-84432179D01*
X147906377Y-84411487D01*
X147917576Y-84384451D01*
X147917576Y-84355187D01*
X147906377Y-84328151D01*
X147885685Y-84307459D01*
X147858649Y-84296260D01*
X147844017Y-84294819D01*
X147406036Y-84294819D01*
X147849431Y-83851423D01*
X147858759Y-83840058D01*
X147859790Y-83837567D01*
X147861555Y-83835533D01*
X147867549Y-83822107D01*
X147915168Y-83679251D01*
X147916817Y-83671995D01*
X147917576Y-83670165D01*
X147917837Y-83667511D01*
X147918428Y-83664914D01*
X147918287Y-83662939D01*
X147919017Y-83655533D01*
X147919017Y-83560295D01*
X147917576Y-83545663D01*
X147916545Y-83543174D01*
X147916354Y-83540485D01*
X147911099Y-83526754D01*
X147863480Y-83431516D01*
X147859515Y-83425216D01*
X147858758Y-83423389D01*
X147857069Y-83421332D01*
X147855648Y-83419073D01*
X147854149Y-83417773D01*
X147849431Y-83412024D01*
X147801812Y-83364405D01*
X147796062Y-83359686D01*
X147794763Y-83358188D01*
X147792503Y-83356766D01*
X147790447Y-83355078D01*
X147788619Y-83354320D01*
X147782320Y-83350356D01*
X147687082Y-83302737D01*
X147673350Y-83297482D01*
X147670662Y-83297291D01*
X147668173Y-83296260D01*
X147653541Y-83294819D01*
X147415446Y-83294819D01*
X147400814Y-83296260D01*
X147398325Y-83297290D01*
X147395636Y-83297482D01*
X147381905Y-83302737D01*
X147286667Y-83350356D01*
X147280367Y-83354320D01*
X147278540Y-83355078D01*
X147276483Y-83356766D01*
X147274224Y-83358188D01*
X147272924Y-83359686D01*
X147267175Y-83364405D01*
X147219556Y-83412024D01*
X147210229Y-83423389D01*
X147199030Y-83450426D01*
X147199030Y-83479688D01*
X147210229Y-83506725D01*
X147230921Y-83527417D01*
X147257958Y-83538616D01*
X147287220Y-83538616D01*
X147314257Y-83527417D01*
X147325622Y-83518090D01*
X147364635Y-83479077D01*
X147433151Y-83444819D01*
X147635836Y-83444819D01*
X147704352Y-83479077D01*
X147734759Y-83509484D01*
X147769017Y-83578000D01*
X147769017Y-83643363D01*
X147730845Y-83757876D01*
X147171937Y-84316786D01*
X147162610Y-84328151D01*
X147151411Y-84355187D01*
X146014255Y-84355187D01*
X146014255Y-83444819D01*
X146224969Y-83444819D01*
X146239601Y-83443378D01*
X146266637Y-83432179D01*
X146287329Y-83411487D01*
X146298528Y-83384451D01*
X146298528Y-83355187D01*
X146287329Y-83328151D01*
X146266637Y-83307459D01*
X146239601Y-83296260D01*
X146224969Y-83294819D01*
X145653541Y-83294819D01*
X145638909Y-83296260D01*
X145611873Y-83307459D01*
X145591181Y-83328151D01*
X145579982Y-83355187D01*
X145266770Y-83355187D01*
X145266637Y-83355078D01*
X145264809Y-83354320D01*
X145258510Y-83350356D01*
X145163272Y-83302737D01*
X145149540Y-83297482D01*
X145146852Y-83297291D01*
X145144363Y-83296260D01*
X145129731Y-83294819D01*
X144939255Y-83294819D01*
X144924623Y-83296260D01*
X144922134Y-83297290D01*
X144919445Y-83297482D01*
X144905714Y-83302737D01*
X144810476Y-83350356D01*
X144804181Y-83354318D01*
X144802349Y-83355077D01*
X144800287Y-83356768D01*
X144798033Y-83358188D01*
X144796734Y-83359684D01*
X144790984Y-83364405D01*
X144695746Y-83459643D01*
X144686419Y-83471008D01*
X144684285Y-83476158D01*
X144680965Y-83480640D01*
X144676018Y-83494486D01*
X144628399Y-83684962D01*
X144628023Y-83687498D01*
X144627601Y-83688520D01*
X144627058Y-83694032D01*
X144626249Y-83699506D01*
X144626411Y-83700598D01*
X144626160Y-83703152D01*
X144395207Y-83703152D01*
X144395207Y-83560295D01*
X144393766Y-83545663D01*
X144392735Y-83543174D01*
X144392544Y-83540485D01*
X144387289Y-83526754D01*
X144339670Y-83431516D01*
X144335705Y-83425216D01*
X144334948Y-83423389D01*
X144333259Y-83421332D01*
X144331838Y-83419073D01*
X144330339Y-83417773D01*
X144325621Y-83412024D01*
X144278002Y-83364405D01*
X144272252Y-83359686D01*
X144270953Y-83358188D01*
X144268693Y-83356766D01*
X144266637Y-83355078D01*
X144264809Y-83354320D01*
X144258510Y-83350356D01*
X144163272Y-83302737D01*
X144149540Y-83297482D01*
X144146852Y-83297291D01*
X144144363Y-83296260D01*
X144129731Y-83294819D01*
X143748779Y-83294819D01*
X143734147Y-83296260D01*
X143707111Y-83307459D01*
X143686419Y-83328151D01*
X143675220Y-83355187D01*
X143673779Y-83369819D01*
X143562668Y-83369819D01*
X143562668Y-83183708D01*
X148030128Y-83183708D01*
X148030128Y-84555930D01*
G37*
G36*
X86088265Y-47478228D02*
G01*
X86257616Y-47647579D01*
X86343728Y-47819804D01*
X86434731Y-48183814D01*
X86434731Y-48451061D01*
X86343728Y-48815071D01*
X86257615Y-48987296D01*
X86088264Y-49156648D01*
X85830894Y-49242438D01*
X85441874Y-49242438D01*
X85441874Y-47392438D01*
X85830894Y-47392438D01*
X86088265Y-47478228D01*
G37*
G36*
X101897790Y-47478228D02*
G01*
X102067141Y-47647579D01*
X102153253Y-47819804D01*
X102244256Y-48183814D01*
X102244256Y-48451061D01*
X102153253Y-48815071D01*
X102067140Y-48987296D01*
X101897789Y-49156648D01*
X101640419Y-49242438D01*
X101251399Y-49242438D01*
X101251399Y-47392438D01*
X101640419Y-47392438D01*
X101897790Y-47478228D01*
G37*
G36*
X90179590Y-47474315D02*
G01*
X90257616Y-47552341D01*
X90339493Y-47716095D01*
X90339493Y-47966399D01*
X90257615Y-48130153D01*
X90179589Y-48208180D01*
X90015836Y-48290057D01*
X89346636Y-48290057D01*
X89346636Y-47392438D01*
X90015836Y-47392438D01*
X90179590Y-47474315D01*
G37*
G36*
X102616478Y-49614660D02*
G01*
X85069652Y-49614660D01*
X85069652Y-47317438D01*
X85291874Y-47317438D01*
X85291874Y-49317438D01*
X85293315Y-49332070D01*
X85304514Y-49359106D01*
X85325206Y-49379798D01*
X85352242Y-49390997D01*
X85366874Y-49392438D01*
X85843064Y-49392438D01*
X85850469Y-49391708D01*
X85852444Y-49391849D01*
X85855041Y-49391258D01*
X85857696Y-49390997D01*
X85859527Y-49390238D01*
X85866781Y-49388589D01*
X86152496Y-49293351D01*
X86165922Y-49287357D01*
X86167958Y-49285590D01*
X86170447Y-49284560D01*
X86181812Y-49275233D01*
X86372288Y-49084756D01*
X86377006Y-49079006D01*
X86378505Y-49077707D01*
X86379926Y-49075447D01*
X86381615Y-49073391D01*
X86382372Y-49071563D01*
X86386337Y-49065264D01*
X86481575Y-48874788D01*
X86481984Y-48873718D01*
X86482307Y-48873283D01*
X86484502Y-48867137D01*
X86486830Y-48861056D01*
X86486868Y-48860516D01*
X86487254Y-48859437D01*
X86582492Y-48478485D01*
X86582867Y-48475948D01*
X86583290Y-48474927D01*
X86583832Y-48469414D01*
X86584642Y-48463941D01*
X86584479Y-48462848D01*
X86584731Y-48460295D01*
X86584731Y-48174580D01*
X86584479Y-48172026D01*
X86584642Y-48170934D01*
X86583832Y-48165460D01*
X86583290Y-48159948D01*
X86582867Y-48158926D01*
X86582492Y-48156390D01*
X86487254Y-47775438D01*
X86486868Y-47774358D01*
X86486830Y-47773819D01*
X86484502Y-47767737D01*
X86482307Y-47761592D01*
X86481984Y-47761156D01*
X86481575Y-47760087D01*
X86450726Y-47698390D01*
X87196636Y-47698390D01*
X87196636Y-47888866D01*
X87198077Y-47903498D01*
X87199108Y-47905987D01*
X87199299Y-47908675D01*
X87204554Y-47922407D01*
X87299792Y-48112883D01*
X87303755Y-48119179D01*
X87304514Y-48121010D01*
X87306205Y-48123071D01*
X87307625Y-48125326D01*
X87309120Y-48126623D01*
X87313841Y-48132375D01*
X87409079Y-48227613D01*
X87414832Y-48232335D01*
X87416128Y-48233829D01*
X87418378Y-48235245D01*
X87420444Y-48236941D01*
X87422278Y-48237700D01*
X87428571Y-48241662D01*
X87619047Y-48336901D01*
X87620116Y-48337310D01*
X87620552Y-48337633D01*
X87626688Y-48339825D01*
X87632778Y-48342156D01*
X87633318Y-48342194D01*
X87634398Y-48342580D01*
X88007365Y-48435821D01*
X88179590Y-48521934D01*
X88257616Y-48599960D01*
X88339493Y-48763714D01*
X88339493Y-48918780D01*
X88257615Y-49082534D01*
X88179589Y-49160561D01*
X88015836Y-49242438D01*
X87569520Y-49242438D01*
X87295353Y-49151049D01*
X87281016Y-49147789D01*
X87251826Y-49149864D01*
X87225653Y-49162950D01*
X87206479Y-49185057D01*
X87197225Y-49212820D01*
X87199300Y-49242010D01*
X87212386Y-49268183D01*
X87234493Y-49287357D01*
X87247919Y-49293351D01*
X87533633Y-49388589D01*
X87540886Y-49390238D01*
X87542718Y-49390997D01*
X87545372Y-49391258D01*
X87547970Y-49391849D01*
X87549944Y-49391708D01*
X87557350Y-49392438D01*
X88033541Y-49392438D01*
X88048173Y-49390997D01*
X88050662Y-49389965D01*
X88053350Y-49389775D01*
X88067082Y-49384520D01*
X88257558Y-49289282D01*
X88263854Y-49285318D01*
X88265685Y-49284560D01*
X88267746Y-49282868D01*
X88270001Y-49281449D01*
X88271298Y-49279953D01*
X88277050Y-49275233D01*
X88372289Y-49179993D01*
X88377006Y-49174244D01*
X88378505Y-49172945D01*
X88379926Y-49170686D01*
X88381616Y-49168628D01*
X88382373Y-49166798D01*
X88386337Y-49160502D01*
X88481575Y-48970026D01*
X88486830Y-48956294D01*
X88487020Y-48953606D01*
X88488052Y-48951117D01*
X88489493Y-48936485D01*
X88489493Y-48746009D01*
X88488052Y-48731377D01*
X88487020Y-48728887D01*
X88486830Y-48726200D01*
X88481575Y-48712468D01*
X88386337Y-48521992D01*
X88382374Y-48515697D01*
X88381616Y-48513865D01*
X88379924Y-48511803D01*
X88378505Y-48509549D01*
X88377008Y-48508250D01*
X88372288Y-48502500D01*
X88277050Y-48407262D01*
X88271298Y-48402541D01*
X88270001Y-48401046D01*
X88267746Y-48399626D01*
X88265685Y-48397935D01*
X88263854Y-48397176D01*
X88257558Y-48393213D01*
X88067082Y-48297975D01*
X88066010Y-48297564D01*
X88065576Y-48297243D01*
X88059439Y-48295050D01*
X88053350Y-48292720D01*
X88052810Y-48292681D01*
X88051731Y-48292296D01*
X87678764Y-48199054D01*
X87506539Y-48112941D01*
X87428513Y-48034915D01*
X87346636Y-47871161D01*
X87346636Y-47716095D01*
X87428513Y-47552341D01*
X87506539Y-47474315D01*
X87670293Y-47392438D01*
X88116609Y-47392438D01*
X88390776Y-47483827D01*
X88405113Y-47487087D01*
X88434303Y-47485012D01*
X88460476Y-47471926D01*
X88479650Y-47449819D01*
X88488904Y-47422056D01*
X88486829Y-47392866D01*
X88473743Y-47366693D01*
X88451636Y-47347519D01*
X88438210Y-47341525D01*
X88365949Y-47317438D01*
X89196636Y-47317438D01*
X89196636Y-49317438D01*
X89198077Y-49332070D01*
X89209276Y-49359106D01*
X89229968Y-49379798D01*
X89257004Y-49390997D01*
X89286268Y-49390997D01*
X89313304Y-49379798D01*
X89333996Y-49359106D01*
X89345195Y-49332070D01*
X89346636Y-49317438D01*
X89346636Y-48440057D01*
X90033541Y-48440057D01*
X90048173Y-48438616D01*
X90050662Y-48437584D01*
X90053350Y-48437394D01*
X90067082Y-48432139D01*
X90257558Y-48336901D01*
X90263854Y-48332937D01*
X90265685Y-48332179D01*
X90267746Y-48330487D01*
X90270001Y-48329068D01*
X90271298Y-48327572D01*
X90277050Y-48322852D01*
X90372289Y-48227612D01*
X90377006Y-48221863D01*
X90378505Y-48220564D01*
X90379926Y-48218305D01*
X90381616Y-48216247D01*
X90382373Y-48214417D01*
X90386337Y-48208121D01*
X90481575Y-48017645D01*
X90486830Y-48003913D01*
X90487020Y-48001225D01*
X90488052Y-47998736D01*
X90489493Y-47984104D01*
X90489493Y-47698390D01*
X92625208Y-47698390D01*
X92625208Y-47888866D01*
X92626649Y-47903498D01*
X92627680Y-47905987D01*
X92627871Y-47908675D01*
X92633126Y-47922407D01*
X92728364Y-48112883D01*
X92732327Y-48119179D01*
X92733086Y-48121010D01*
X92734777Y-48123071D01*
X92736197Y-48125326D01*
X92737692Y-48126623D01*
X92742413Y-48132375D01*
X92837651Y-48227613D01*
X92843404Y-48232335D01*
X92844700Y-48233829D01*
X92846950Y-48235245D01*
X92849016Y-48236941D01*
X92850850Y-48237700D01*
X92857143Y-48241662D01*
X93047619Y-48336901D01*
X93048688Y-48337310D01*
X93049124Y-48337633D01*
X93055260Y-48339825D01*
X93061350Y-48342156D01*
X93061890Y-48342194D01*
X93062970Y-48342580D01*
X93435937Y-48435821D01*
X93608162Y-48521934D01*
X93686188Y-48599960D01*
X93768065Y-48763714D01*
X93768065Y-48918780D01*
X93686187Y-49082534D01*
X93608161Y-49160561D01*
X93444408Y-49242438D01*
X92998092Y-49242438D01*
X92723925Y-49151049D01*
X92709588Y-49147789D01*
X92680398Y-49149864D01*
X92654225Y-49162950D01*
X92635051Y-49185057D01*
X92625797Y-49212820D01*
X92627872Y-49242010D01*
X92640958Y-49268183D01*
X92663065Y-49287357D01*
X92676491Y-49293351D01*
X92962205Y-49388589D01*
X92969458Y-49390238D01*
X92971290Y-49390997D01*
X92973944Y-49391258D01*
X92976542Y-49391849D01*
X92978516Y-49391708D01*
X92985922Y-49392438D01*
X93462113Y-49392438D01*
X93476745Y-49390997D01*
X93479234Y-49389965D01*
X93481922Y-49389775D01*
X93495654Y-49384520D01*
X93686130Y-49289282D01*
X93692426Y-49285318D01*
X93694257Y-49284560D01*
X93696318Y-49282868D01*
X93698573Y-49281449D01*
X93699870Y-49279953D01*
X93705622Y-49275233D01*
X93800861Y-49179993D01*
X93805578Y-49174244D01*
X93807077Y-49172945D01*
X93808498Y-49170686D01*
X93810188Y-49168628D01*
X93810945Y-49166798D01*
X93814909Y-49160502D01*
X93910147Y-48970026D01*
X93915402Y-48956294D01*
X93915592Y-48953606D01*
X93916624Y-48951117D01*
X93918065Y-48936485D01*
X93918065Y-48746009D01*
X93916624Y-48731377D01*
X93915592Y-48728887D01*
X93915402Y-48726200D01*
X93910147Y-48712468D01*
X93814909Y-48521992D01*
X93810946Y-48515697D01*
X93810188Y-48513865D01*
X93808496Y-48511803D01*
X93807077Y-48509549D01*
X93805580Y-48508250D01*
X93800860Y-48502500D01*
X93705622Y-48407262D01*
X93699870Y-48402541D01*
X93698573Y-48401046D01*
X93696318Y-48399626D01*
X93694257Y-48397935D01*
X93692426Y-48397176D01*
X93686130Y-48393213D01*
X93495654Y-48297975D01*
X93494582Y-48297564D01*
X93494148Y-48297243D01*
X93488011Y-48295050D01*
X93481922Y-48292720D01*
X93481382Y-48292681D01*
X93480303Y-48292296D01*
X93107336Y-48199054D01*
X92935111Y-48112941D01*
X92857085Y-48034915D01*
X92775208Y-47871161D01*
X92775208Y-47716095D01*
X92857085Y-47552341D01*
X92935111Y-47474315D01*
X93098865Y-47392438D01*
X93545181Y-47392438D01*
X93819348Y-47483827D01*
X93833685Y-47487087D01*
X93862875Y-47485012D01*
X93889048Y-47471926D01*
X93908222Y-47449819D01*
X93917476Y-47422056D01*
X93915401Y-47392866D01*
X93902315Y-47366693D01*
X93880208Y-47347519D01*
X93866782Y-47341525D01*
X93794521Y-47317438D01*
X94625208Y-47317438D01*
X94625208Y-49317438D01*
X94626649Y-49332070D01*
X94637848Y-49359106D01*
X94658540Y-49379798D01*
X94685576Y-49390997D01*
X94714840Y-49390997D01*
X94741876Y-49379798D01*
X94762568Y-49359106D01*
X94773767Y-49332070D01*
X94775208Y-49317438D01*
X94775208Y-48344819D01*
X95768065Y-48344819D01*
X95768065Y-49317438D01*
X95769506Y-49332070D01*
X95780705Y-49359106D01*
X95801397Y-49379798D01*
X95828433Y-49390997D01*
X95857697Y-49390997D01*
X95884733Y-49379798D01*
X95905425Y-49359106D01*
X95916624Y-49332070D01*
X95918065Y-49317438D01*
X95918065Y-47317438D01*
X96720446Y-47317438D01*
X96720446Y-49317438D01*
X96721887Y-49332070D01*
X96733086Y-49359106D01*
X96753778Y-49379798D01*
X96780814Y-49390997D01*
X96810078Y-49390997D01*
X96837114Y-49379798D01*
X96857806Y-49359106D01*
X96869005Y-49332070D01*
X96870446Y-49317438D01*
X96870446Y-47317438D01*
X97672827Y-47317438D01*
X97672827Y-49317438D01*
X97674268Y-49332070D01*
X97685467Y-49359106D01*
X97706159Y-49379798D01*
X97733195Y-49390997D01*
X97747827Y-49392438D01*
X98700208Y-49392438D01*
X98714840Y-49390997D01*
X98741876Y-49379798D01*
X98762568Y-49359106D01*
X98773767Y-49332070D01*
X98773767Y-49302806D01*
X98762568Y-49275770D01*
X98741876Y-49255078D01*
X98714840Y-49243879D01*
X98700208Y-49242438D01*
X97822827Y-49242438D01*
X97822827Y-48344819D01*
X98414494Y-48344819D01*
X98429126Y-48343378D01*
X98456162Y-48332179D01*
X98476854Y-48311487D01*
X98488053Y-48284451D01*
X98488053Y-48255187D01*
X98476854Y-48228151D01*
X98456162Y-48207459D01*
X98429126Y-48196260D01*
X98414494Y-48194819D01*
X97822827Y-48194819D01*
X97822827Y-47392438D01*
X98700208Y-47392438D01*
X98714840Y-47390997D01*
X98741876Y-47379798D01*
X98762568Y-47359106D01*
X98773767Y-47332070D01*
X98773767Y-47317438D01*
X99482351Y-47317438D01*
X99482351Y-49317438D01*
X99483792Y-49332070D01*
X99494991Y-49359106D01*
X99515683Y-49379798D01*
X99542719Y-49390997D01*
X99557351Y-49392438D01*
X100509732Y-49392438D01*
X100524364Y-49390997D01*
X100551400Y-49379798D01*
X100572092Y-49359106D01*
X100583291Y-49332070D01*
X100583291Y-49302806D01*
X100572092Y-49275770D01*
X100551400Y-49255078D01*
X100524364Y-49243879D01*
X100509732Y-49242438D01*
X99632351Y-49242438D01*
X99632351Y-47317438D01*
X101101399Y-47317438D01*
X101101399Y-49317438D01*
X101102840Y-49332070D01*
X101114039Y-49359106D01*
X101134731Y-49379798D01*
X101161767Y-49390997D01*
X101176399Y-49392438D01*
X101652589Y-49392438D01*
X101659994Y-49391708D01*
X101661969Y-49391849D01*
X101664566Y-49391258D01*
X101667221Y-49390997D01*
X101669052Y-49390238D01*
X101676306Y-49388589D01*
X101962021Y-49293351D01*
X101975447Y-49287357D01*
X101977483Y-49285590D01*
X101979972Y-49284560D01*
X101991337Y-49275233D01*
X102181813Y-49084756D01*
X102186531Y-49079006D01*
X102188030Y-49077707D01*
X102189451Y-49075447D01*
X102191140Y-49073391D01*
X102191897Y-49071563D01*
X102195862Y-49065264D01*
X102291100Y-48874788D01*
X102291509Y-48873718D01*
X102291832Y-48873283D01*
X102294027Y-48867137D01*
X102296355Y-48861056D01*
X102296393Y-48860516D01*
X102296779Y-48859437D01*
X102392017Y-48478485D01*
X102392392Y-48475948D01*
X102392815Y-48474927D01*
X102393357Y-48469414D01*
X102394167Y-48463941D01*
X102394004Y-48462848D01*
X102394256Y-48460295D01*
X102394256Y-48174580D01*
X102394004Y-48172026D01*
X102394167Y-48170934D01*
X102393357Y-48165460D01*
X102392815Y-48159948D01*
X102392392Y-48158926D01*
X102392017Y-48156390D01*
X102296779Y-47775438D01*
X102296393Y-47774358D01*
X102296355Y-47773819D01*
X102294027Y-47767737D01*
X102291832Y-47761592D01*
X102291509Y-47761156D01*
X102291100Y-47760087D01*
X102195862Y-47569611D01*
X102191898Y-47563314D01*
X102191141Y-47561485D01*
X102189451Y-47559426D01*
X102188030Y-47557168D01*
X102186531Y-47555868D01*
X102181813Y-47550119D01*
X101991337Y-47359643D01*
X101979972Y-47350316D01*
X101977483Y-47349285D01*
X101975447Y-47347519D01*
X101962021Y-47341525D01*
X101676306Y-47246287D01*
X101669052Y-47244637D01*
X101667221Y-47243879D01*
X101664566Y-47243617D01*
X101661969Y-47243027D01*
X101659994Y-47243167D01*
X101652589Y-47242438D01*
X101176399Y-47242438D01*
X101161767Y-47243879D01*
X101134731Y-47255078D01*
X101114039Y-47275770D01*
X101102840Y-47302806D01*
X101101399Y-47317438D01*
X99632351Y-47317438D01*
X99630910Y-47302806D01*
X99619711Y-47275770D01*
X99599019Y-47255078D01*
X99571983Y-47243879D01*
X99542719Y-47243879D01*
X99515683Y-47255078D01*
X99494991Y-47275770D01*
X99483792Y-47302806D01*
X99482351Y-47317438D01*
X98773767Y-47317438D01*
X98773767Y-47302806D01*
X98762568Y-47275770D01*
X98741876Y-47255078D01*
X98714840Y-47243879D01*
X98700208Y-47242438D01*
X97747827Y-47242438D01*
X97733195Y-47243879D01*
X97706159Y-47255078D01*
X97685467Y-47275770D01*
X97674268Y-47302806D01*
X97672827Y-47317438D01*
X96870446Y-47317438D01*
X96869005Y-47302806D01*
X96857806Y-47275770D01*
X96837114Y-47255078D01*
X96810078Y-47243879D01*
X96780814Y-47243879D01*
X96753778Y-47255078D01*
X96733086Y-47275770D01*
X96721887Y-47302806D01*
X96720446Y-47317438D01*
X95918065Y-47317438D01*
X95916624Y-47302806D01*
X95905425Y-47275770D01*
X95884733Y-47255078D01*
X95857697Y-47243879D01*
X95828433Y-47243879D01*
X95801397Y-47255078D01*
X95780705Y-47275770D01*
X95769506Y-47302806D01*
X95768065Y-47317438D01*
X95768065Y-48194819D01*
X94775208Y-48194819D01*
X94775208Y-47317438D01*
X94773767Y-47302806D01*
X94762568Y-47275770D01*
X94741876Y-47255078D01*
X94714840Y-47243879D01*
X94685576Y-47243879D01*
X94658540Y-47255078D01*
X94637848Y-47275770D01*
X94626649Y-47302806D01*
X94625208Y-47317438D01*
X93794521Y-47317438D01*
X93581068Y-47246287D01*
X93573814Y-47244637D01*
X93571983Y-47243879D01*
X93569328Y-47243617D01*
X93566731Y-47243027D01*
X93564756Y-47243167D01*
X93557351Y-47242438D01*
X93081160Y-47242438D01*
X93066528Y-47243879D01*
X93064038Y-47244910D01*
X93061351Y-47245101D01*
X93047619Y-47250356D01*
X92857143Y-47345594D01*
X92850848Y-47349556D01*
X92849016Y-47350315D01*
X92846954Y-47352006D01*
X92844700Y-47353426D01*
X92843401Y-47354922D01*
X92837651Y-47359643D01*
X92742413Y-47454881D01*
X92737692Y-47460632D01*
X92736197Y-47461930D01*
X92734777Y-47464184D01*
X92733086Y-47466246D01*
X92732327Y-47468076D01*
X92728364Y-47474373D01*
X92633126Y-47664849D01*
X92627871Y-47678581D01*
X92627680Y-47681268D01*
X92626649Y-47683758D01*
X92625208Y-47698390D01*
X90489493Y-47698390D01*
X90488052Y-47683758D01*
X90487020Y-47681268D01*
X90486830Y-47678581D01*
X90481575Y-47664849D01*
X90386337Y-47474373D01*
X90382374Y-47468078D01*
X90381616Y-47466246D01*
X90379924Y-47464184D01*
X90378505Y-47461930D01*
X90377008Y-47460631D01*
X90372288Y-47454881D01*
X90277050Y-47359643D01*
X90271298Y-47354922D01*
X90270001Y-47353427D01*
X90267746Y-47352007D01*
X90265685Y-47350316D01*
X90263854Y-47349557D01*
X90257558Y-47345594D01*
X90067082Y-47250356D01*
X90053350Y-47245101D01*
X90050662Y-47244910D01*
X90048173Y-47243879D01*
X90033541Y-47242438D01*
X89271636Y-47242438D01*
X89257004Y-47243879D01*
X89229968Y-47255078D01*
X89209276Y-47275770D01*
X89198077Y-47302806D01*
X89196636Y-47317438D01*
X88365949Y-47317438D01*
X88152496Y-47246287D01*
X88145242Y-47244637D01*
X88143411Y-47243879D01*
X88140756Y-47243617D01*
X88138159Y-47243027D01*
X88136184Y-47243167D01*
X88128779Y-47242438D01*
X87652588Y-47242438D01*
X87637956Y-47243879D01*
X87635466Y-47244910D01*
X87632779Y-47245101D01*
X87619047Y-47250356D01*
X87428571Y-47345594D01*
X87422276Y-47349556D01*
X87420444Y-47350315D01*
X87418382Y-47352006D01*
X87416128Y-47353426D01*
X87414829Y-47354922D01*
X87409079Y-47359643D01*
X87313841Y-47454881D01*
X87309120Y-47460632D01*
X87307625Y-47461930D01*
X87306205Y-47464184D01*
X87304514Y-47466246D01*
X87303755Y-47468076D01*
X87299792Y-47474373D01*
X87204554Y-47664849D01*
X87199299Y-47678581D01*
X87199108Y-47681268D01*
X87198077Y-47683758D01*
X87196636Y-47698390D01*
X86450726Y-47698390D01*
X86386337Y-47569611D01*
X86382373Y-47563314D01*
X86381616Y-47561485D01*
X86379926Y-47559426D01*
X86378505Y-47557168D01*
X86377006Y-47555868D01*
X86372288Y-47550119D01*
X86181812Y-47359643D01*
X86170447Y-47350316D01*
X86167958Y-47349285D01*
X86165922Y-47347519D01*
X86152496Y-47341525D01*
X85866781Y-47246287D01*
X85859527Y-47244637D01*
X85857696Y-47243879D01*
X85855041Y-47243617D01*
X85852444Y-47243027D01*
X85850469Y-47243167D01*
X85843064Y-47242438D01*
X85366874Y-47242438D01*
X85352242Y-47243879D01*
X85325206Y-47255078D01*
X85304514Y-47275770D01*
X85293315Y-47302806D01*
X85291874Y-47317438D01*
X85069652Y-47317438D01*
X85069652Y-47020216D01*
X102616478Y-47020216D01*
X102616478Y-49614660D01*
G37*
G36*
X114055963Y-85181050D02*
G01*
X114086370Y-85211457D01*
X114120628Y-85279973D01*
X114120628Y-85568220D01*
X113746819Y-85568220D01*
X113746819Y-85279973D01*
X113781077Y-85211457D01*
X113811484Y-85181050D01*
X113880000Y-85146792D01*
X113987447Y-85146792D01*
X114055963Y-85181050D01*
G37*
G36*
X114490617Y-84139514D02*
G01*
X114562561Y-84211457D01*
X114596819Y-84279973D01*
X114596819Y-84435039D01*
X114562561Y-84503554D01*
X114490617Y-84575497D01*
X114329251Y-84615839D01*
X114014386Y-84615839D01*
X113853019Y-84575497D01*
X113781077Y-84503555D01*
X113746819Y-84435039D01*
X113746819Y-84279973D01*
X113781077Y-84211457D01*
X113853019Y-84139514D01*
X114014386Y-84099173D01*
X114329251Y-84099173D01*
X114490617Y-84139514D01*
G37*
G36*
X114857930Y-85829331D02*
G01*
X113485708Y-85829331D01*
X113485708Y-85262268D01*
X113596819Y-85262268D01*
X113596819Y-85643220D01*
X113598260Y-85657852D01*
X113609459Y-85684888D01*
X113630151Y-85705580D01*
X113657187Y-85716779D01*
X113671819Y-85718220D01*
X114671819Y-85718220D01*
X114686451Y-85716779D01*
X114713487Y-85705580D01*
X114734179Y-85684888D01*
X114745378Y-85657852D01*
X114745378Y-85628588D01*
X114734179Y-85601552D01*
X114713487Y-85580860D01*
X114686451Y-85569661D01*
X114671819Y-85568220D01*
X114270628Y-85568220D01*
X114270628Y-85262268D01*
X114269187Y-85247636D01*
X114268156Y-85245147D01*
X114267965Y-85242458D01*
X114262710Y-85228727D01*
X114215091Y-85133489D01*
X114211126Y-85127189D01*
X114210369Y-85125362D01*
X114208680Y-85123305D01*
X114207259Y-85121046D01*
X114205760Y-85119746D01*
X114201042Y-85113997D01*
X114153423Y-85066378D01*
X114147673Y-85061659D01*
X114146374Y-85060161D01*
X114144114Y-85058739D01*
X114142058Y-85057051D01*
X114140230Y-85056293D01*
X114133931Y-85052329D01*
X114038693Y-85004710D01*
X114024961Y-84999455D01*
X114022273Y-84999264D01*
X114019784Y-84998233D01*
X114005152Y-84996792D01*
X113862295Y-84996792D01*
X113847663Y-84998233D01*
X113845174Y-84999263D01*
X113842485Y-84999455D01*
X113828754Y-85004710D01*
X113733516Y-85052329D01*
X113727216Y-85056293D01*
X113725389Y-85057051D01*
X113723332Y-85058739D01*
X113721073Y-85060161D01*
X113719773Y-85061659D01*
X113714024Y-85066378D01*
X113666405Y-85113997D01*
X113661686Y-85119746D01*
X113660188Y-85121046D01*
X113658766Y-85123305D01*
X113657078Y-85125362D01*
X113656320Y-85127189D01*
X113652356Y-85133489D01*
X113604737Y-85228727D01*
X113599482Y-85242459D01*
X113599291Y-85245146D01*
X113598260Y-85247636D01*
X113596819Y-85262268D01*
X113485708Y-85262268D01*
X113485708Y-84262268D01*
X113596819Y-84262268D01*
X113596819Y-84452744D01*
X113598260Y-84467376D01*
X113599291Y-84469865D01*
X113599482Y-84472553D01*
X113604737Y-84486285D01*
X113652356Y-84581523D01*
X113656320Y-84587822D01*
X113657078Y-84589650D01*
X113658766Y-84591706D01*
X113660188Y-84593966D01*
X113661686Y-84595265D01*
X113666405Y-84601015D01*
X113761643Y-84696253D01*
X113773008Y-84705581D01*
X113778161Y-84707715D01*
X113782640Y-84711034D01*
X113796486Y-84715981D01*
X113986962Y-84763600D01*
X113989498Y-84763975D01*
X113990520Y-84764398D01*
X113996032Y-84764940D01*
X114001506Y-84765750D01*
X114002598Y-84765587D01*
X114005152Y-84765839D01*
X114338485Y-84765839D01*
X114341038Y-84765587D01*
X114342131Y-84765750D01*
X114347604Y-84764940D01*
X114353117Y-84764398D01*
X114354138Y-84763975D01*
X114356675Y-84763600D01*
X114547151Y-84715981D01*
X114560997Y-84711034D01*
X114565476Y-84707714D01*
X114570628Y-84705581D01*
X114581994Y-84696253D01*
X114677233Y-84601015D01*
X114681953Y-84595264D01*
X114683450Y-84593966D01*
X114684869Y-84591711D01*
X114686561Y-84589650D01*
X114687319Y-84587817D01*
X114691282Y-84581523D01*
X114738901Y-84486285D01*
X114744156Y-84472554D01*
X114744347Y-84469864D01*
X114745378Y-84467376D01*
X114746819Y-84452744D01*
X114746819Y-84262268D01*
X114745378Y-84247636D01*
X114744347Y-84245147D01*
X114744156Y-84242458D01*
X114738901Y-84228727D01*
X114691282Y-84133489D01*
X114687319Y-84127194D01*
X114686561Y-84125362D01*
X114684869Y-84123300D01*
X114683450Y-84121046D01*
X114681953Y-84119747D01*
X114677233Y-84113997D01*
X114581994Y-84018759D01*
X114570628Y-84009431D01*
X114565476Y-84007297D01*
X114560997Y-84003978D01*
X114547151Y-83999031D01*
X114356675Y-83951412D01*
X114354138Y-83951036D01*
X114353117Y-83950614D01*
X114347604Y-83950071D01*
X114342131Y-83949262D01*
X114341038Y-83949424D01*
X114338485Y-83949173D01*
X114005152Y-83949173D01*
X114002598Y-83949424D01*
X114001506Y-83949262D01*
X113996032Y-83950071D01*
X113990520Y-83950614D01*
X113989498Y-83951036D01*
X113986962Y-83951412D01*
X113796486Y-83999031D01*
X113782640Y-84003978D01*
X113778161Y-84007296D01*
X113773008Y-84009431D01*
X113761643Y-84018759D01*
X113666405Y-84113997D01*
X113661686Y-84119746D01*
X113660188Y-84121046D01*
X113658766Y-84123305D01*
X113657078Y-84125362D01*
X113656320Y-84127189D01*
X113652356Y-84133489D01*
X113604737Y-84228727D01*
X113599482Y-84242459D01*
X113599291Y-84245146D01*
X113598260Y-84247636D01*
X113596819Y-84262268D01*
X113485708Y-84262268D01*
X113485708Y-83167030D01*
X113596819Y-83167030D01*
X113596819Y-83738458D01*
X113598260Y-83753090D01*
X113609459Y-83780126D01*
X113630151Y-83800818D01*
X113657187Y-83812017D01*
X113686451Y-83812017D01*
X113713487Y-83800818D01*
X113734179Y-83780126D01*
X113745378Y-83753090D01*
X113746819Y-83738458D01*
X113746819Y-83527744D01*
X114671819Y-83527744D01*
X114686451Y-83526303D01*
X114713487Y-83515104D01*
X114734179Y-83494412D01*
X114745378Y-83467376D01*
X114745378Y-83438112D01*
X114734179Y-83411076D01*
X114713487Y-83390384D01*
X114686451Y-83379185D01*
X114671819Y-83377744D01*
X113746819Y-83377744D01*
X113746819Y-83167030D01*
X113745378Y-83152398D01*
X113734179Y-83125362D01*
X113713487Y-83104670D01*
X113686451Y-83093471D01*
X113657187Y-83093471D01*
X113630151Y-83104670D01*
X113609459Y-83125362D01*
X113598260Y-83152398D01*
X113596819Y-83167030D01*
X113485708Y-83167030D01*
X113485708Y-81547982D01*
X113596819Y-81547982D01*
X113596819Y-82167029D01*
X113598260Y-82181661D01*
X113609459Y-82208697D01*
X113630151Y-82229389D01*
X113657187Y-82240588D01*
X113686451Y-82240588D01*
X113713487Y-82229389D01*
X113734179Y-82208697D01*
X113745378Y-82181661D01*
X113746819Y-82167029D01*
X113746819Y-81713264D01*
X114003383Y-81937758D01*
X114009707Y-81942279D01*
X114011103Y-81943675D01*
X114012426Y-81944223D01*
X114015344Y-81946309D01*
X114026881Y-81950210D01*
X114038139Y-81954874D01*
X114040670Y-81954874D01*
X114043065Y-81955684D01*
X114055218Y-81954874D01*
X114067403Y-81954874D01*
X114069739Y-81953906D01*
X114072263Y-81953738D01*
X114083188Y-81948335D01*
X114094439Y-81943675D01*
X114096225Y-81941888D01*
X114098495Y-81940766D01*
X114106520Y-81931593D01*
X114115131Y-81922983D01*
X114116099Y-81920646D01*
X114117765Y-81918742D01*
X114121666Y-81907204D01*
X114126330Y-81895947D01*
X114126681Y-81892376D01*
X114127140Y-81891021D01*
X114127008Y-81889053D01*
X114127771Y-81881315D01*
X114127771Y-81756163D01*
X114162029Y-81687647D01*
X114192436Y-81657240D01*
X114260952Y-81622982D01*
X114463637Y-81622982D01*
X114532153Y-81657240D01*
X114562561Y-81687647D01*
X114596819Y-81756163D01*
X114596819Y-82006467D01*
X114562561Y-82074982D01*
X114523548Y-82113995D01*
X114514220Y-82125361D01*
X114503021Y-82152397D01*
X114503021Y-82181660D01*
X114514219Y-82208696D01*
X114534912Y-82229389D01*
X114561948Y-82240588D01*
X114591211Y-82240588D01*
X114618247Y-82229390D01*
X114629612Y-82220063D01*
X114677232Y-82172444D01*
X114681950Y-82166694D01*
X114683450Y-82165394D01*
X114684872Y-82163134D01*
X114686560Y-82161078D01*
X114687317Y-82159250D01*
X114691282Y-82152951D01*
X114738901Y-82057713D01*
X114744156Y-82043982D01*
X114744347Y-82041292D01*
X114745378Y-82038804D01*
X114746819Y-82024172D01*
X114746819Y-81738458D01*
X114745378Y-81723826D01*
X114744347Y-81721337D01*
X114744156Y-81718648D01*
X114738901Y-81704917D01*
X114691282Y-81609679D01*
X114687317Y-81603379D01*
X114686560Y-81601552D01*
X114684872Y-81599495D01*
X114683450Y-81597236D01*
X114681950Y-81595935D01*
X114677232Y-81590186D01*
X114629612Y-81542567D01*
X114623863Y-81537849D01*
X114622564Y-81536351D01*
X114620305Y-81534929D01*
X114618247Y-81533240D01*
X114616417Y-81532482D01*
X114610121Y-81528519D01*
X114514883Y-81480900D01*
X114501151Y-81475645D01*
X114498463Y-81475454D01*
X114495974Y-81474423D01*
X114481342Y-81472982D01*
X114243247Y-81472982D01*
X114228615Y-81474423D01*
X114226126Y-81475453D01*
X114223437Y-81475645D01*
X114209706Y-81480900D01*
X114114468Y-81528519D01*
X114108168Y-81532483D01*
X114106341Y-81533241D01*
X114104284Y-81534929D01*
X114102025Y-81536351D01*
X114100725Y-81537849D01*
X114094976Y-81542568D01*
X114047357Y-81590187D01*
X114042638Y-81595936D01*
X114041140Y-81597236D01*
X114039718Y-81599495D01*
X114038030Y-81601552D01*
X114037272Y-81603379D01*
X114033308Y-81609679D01*
X113985689Y-81704917D01*
X113980516Y-81718434D01*
X113721207Y-81491539D01*
X113714882Y-81487017D01*
X113713487Y-81485622D01*
X113712163Y-81485073D01*
X113709246Y-81482988D01*
X113697708Y-81479086D01*
X113686451Y-81474423D01*
X113683920Y-81474423D01*
X113681525Y-81473613D01*
X113669372Y-81474423D01*
X113657187Y-81474423D01*
X113654850Y-81475390D01*
X113652327Y-81475559D01*
X113641401Y-81480961D01*
X113630151Y-81485622D01*
X113628364Y-81487408D01*
X113626095Y-81488531D01*
X113618069Y-81497703D01*
X113609459Y-81506314D01*
X113608490Y-81508650D01*
X113606825Y-81510555D01*
X113602923Y-81522092D01*
X113598260Y-81533350D01*
X113597908Y-81536920D01*
X113597450Y-81538276D01*
X113597581Y-81540243D01*
X113596819Y-81547982D01*
X113485708Y-81547982D01*
X113485708Y-81361871D01*
X114857930Y-81361871D01*
X114857930Y-85829331D01*
G37*
X91889438Y-64929411D02*
X91841819Y-65024649D01*
X91841819Y-65024649D02*
X91841819Y-65167506D01*
X91841819Y-65167506D02*
X91889438Y-65310363D01*
X91889438Y-65310363D02*
X91984676Y-65405601D01*
X91984676Y-65405601D02*
X92079914Y-65453220D01*
X92079914Y-65453220D02*
X92270390Y-65500839D01*
X92270390Y-65500839D02*
X92413247Y-65500839D01*
X92413247Y-65500839D02*
X92603723Y-65453220D01*
X92603723Y-65453220D02*
X92698961Y-65405601D01*
X92698961Y-65405601D02*
X92794200Y-65310363D01*
X92794200Y-65310363D02*
X92841819Y-65167506D01*
X92841819Y-65167506D02*
X92841819Y-65072268D01*
X92841819Y-65072268D02*
X92794200Y-64929411D01*
X92794200Y-64929411D02*
X92746580Y-64881792D01*
X92746580Y-64881792D02*
X92413247Y-64881792D01*
X92413247Y-64881792D02*
X92413247Y-65072268D01*
X92841819Y-64453220D02*
X91841819Y-64453220D01*
X91841819Y-64453220D02*
X92841819Y-63881792D01*
X92841819Y-63881792D02*
X91841819Y-63881792D01*
X92841819Y-63405601D02*
X91841819Y-63405601D01*
X91841819Y-63405601D02*
X91841819Y-63167506D01*
X91841819Y-63167506D02*
X91889438Y-63024649D01*
X91889438Y-63024649D02*
X91984676Y-62929411D01*
X91984676Y-62929411D02*
X92079914Y-62881792D01*
X92079914Y-62881792D02*
X92270390Y-62834173D01*
X92270390Y-62834173D02*
X92413247Y-62834173D01*
X92413247Y-62834173D02*
X92603723Y-62881792D01*
X92603723Y-62881792D02*
X92698961Y-62929411D01*
X92698961Y-62929411D02*
X92794200Y-63024649D01*
X92794200Y-63024649D02*
X92841819Y-63167506D01*
X92841819Y-63167506D02*
X92841819Y-63405601D01*
X98580866Y-76923220D02*
X98580866Y-76161316D01*
X98961819Y-76542268D02*
X98199914Y-76542268D01*
X97961819Y-75208935D02*
X97961819Y-75685125D01*
X97961819Y-75685125D02*
X98438009Y-75732744D01*
X98438009Y-75732744D02*
X98390390Y-75685125D01*
X98390390Y-75685125D02*
X98342771Y-75589887D01*
X98342771Y-75589887D02*
X98342771Y-75351792D01*
X98342771Y-75351792D02*
X98390390Y-75256554D01*
X98390390Y-75256554D02*
X98438009Y-75208935D01*
X98438009Y-75208935D02*
X98533247Y-75161316D01*
X98533247Y-75161316D02*
X98771342Y-75161316D01*
X98771342Y-75161316D02*
X98866580Y-75208935D01*
X98866580Y-75208935D02*
X98914200Y-75256554D01*
X98914200Y-75256554D02*
X98961819Y-75351792D01*
X98961819Y-75351792D02*
X98961819Y-75589887D01*
X98961819Y-75589887D02*
X98914200Y-75685125D01*
X98914200Y-75685125D02*
X98866580Y-75732744D01*
X97961819Y-74875601D02*
X98961819Y-74542268D01*
X98961819Y-74542268D02*
X97961819Y-74208935D01*
X101324200Y-76660839D02*
X101371819Y-76517982D01*
X101371819Y-76517982D02*
X101371819Y-76279887D01*
X101371819Y-76279887D02*
X101324200Y-76184649D01*
X101324200Y-76184649D02*
X101276580Y-76137030D01*
X101276580Y-76137030D02*
X101181342Y-76089411D01*
X101181342Y-76089411D02*
X101086104Y-76089411D01*
X101086104Y-76089411D02*
X100990866Y-76137030D01*
X100990866Y-76137030D02*
X100943247Y-76184649D01*
X100943247Y-76184649D02*
X100895628Y-76279887D01*
X100895628Y-76279887D02*
X100848009Y-76470363D01*
X100848009Y-76470363D02*
X100800390Y-76565601D01*
X100800390Y-76565601D02*
X100752771Y-76613220D01*
X100752771Y-76613220D02*
X100657533Y-76660839D01*
X100657533Y-76660839D02*
X100562295Y-76660839D01*
X100562295Y-76660839D02*
X100467057Y-76613220D01*
X100467057Y-76613220D02*
X100419438Y-76565601D01*
X100419438Y-76565601D02*
X100371819Y-76470363D01*
X100371819Y-76470363D02*
X100371819Y-76232268D01*
X100371819Y-76232268D02*
X100419438Y-76089411D01*
X101276580Y-75089411D02*
X101324200Y-75137030D01*
X101324200Y-75137030D02*
X101371819Y-75279887D01*
X101371819Y-75279887D02*
X101371819Y-75375125D01*
X101371819Y-75375125D02*
X101324200Y-75517982D01*
X101324200Y-75517982D02*
X101228961Y-75613220D01*
X101228961Y-75613220D02*
X101133723Y-75660839D01*
X101133723Y-75660839D02*
X100943247Y-75708458D01*
X100943247Y-75708458D02*
X100800390Y-75708458D01*
X100800390Y-75708458D02*
X100609914Y-75660839D01*
X100609914Y-75660839D02*
X100514676Y-75613220D01*
X100514676Y-75613220D02*
X100419438Y-75517982D01*
X100419438Y-75517982D02*
X100371819Y-75375125D01*
X100371819Y-75375125D02*
X100371819Y-75279887D01*
X100371819Y-75279887D02*
X100419438Y-75137030D01*
X100419438Y-75137030D02*
X100467057Y-75089411D01*
X101371819Y-74184649D02*
X101371819Y-74660839D01*
X101371819Y-74660839D02*
X100371819Y-74660839D01*
G36*
X134281210Y-83514077D02*
G01*
X134353152Y-83586019D01*
X134393494Y-83747386D01*
X134393494Y-84062251D01*
X134353152Y-84223617D01*
X134281209Y-84295561D01*
X134212694Y-84329819D01*
X134057628Y-84329819D01*
X133989112Y-84295561D01*
X133917169Y-84223617D01*
X133876828Y-84062251D01*
X133876828Y-83747386D01*
X133917169Y-83586019D01*
X133989112Y-83514077D01*
X134057628Y-83479819D01*
X134212694Y-83479819D01*
X134281210Y-83514077D01*
G37*
G36*
X133281210Y-83514077D02*
G01*
X133311617Y-83544484D01*
X133345875Y-83613000D01*
X133345875Y-83720447D01*
X133311617Y-83788963D01*
X133281210Y-83819370D01*
X133212694Y-83853628D01*
X132924447Y-83853628D01*
X132924447Y-83479819D01*
X133212694Y-83479819D01*
X133281210Y-83514077D01*
G37*
G36*
X137129355Y-84590930D02*
G01*
X132663336Y-84590930D01*
X132663336Y-83404819D01*
X132774447Y-83404819D01*
X132774447Y-84404819D01*
X132775888Y-84419451D01*
X132787087Y-84446487D01*
X132807779Y-84467179D01*
X132834815Y-84478378D01*
X132864079Y-84478378D01*
X132891115Y-84467179D01*
X132911807Y-84446487D01*
X132923006Y-84419451D01*
X132924447Y-84404819D01*
X132924447Y-84003628D01*
X133230399Y-84003628D01*
X133245031Y-84002187D01*
X133247520Y-84001155D01*
X133250208Y-84000965D01*
X133263940Y-83995710D01*
X133359178Y-83948091D01*
X133365477Y-83944126D01*
X133367305Y-83943369D01*
X133369361Y-83941680D01*
X133371621Y-83940259D01*
X133372920Y-83938760D01*
X133378670Y-83934042D01*
X133426289Y-83886423D01*
X133431007Y-83880673D01*
X133432506Y-83879374D01*
X133433927Y-83877114D01*
X133435616Y-83875058D01*
X133436373Y-83873230D01*
X133440338Y-83866931D01*
X133487957Y-83771693D01*
X133493212Y-83757962D01*
X133493403Y-83755272D01*
X133494434Y-83752784D01*
X133495875Y-83738152D01*
X133726828Y-83738152D01*
X133726828Y-84071485D01*
X133727079Y-84074038D01*
X133726917Y-84075131D01*
X133727726Y-84080604D01*
X133728269Y-84086117D01*
X133728691Y-84087138D01*
X133729067Y-84089675D01*
X133776686Y-84280151D01*
X133781633Y-84293997D01*
X133784952Y-84298476D01*
X133787086Y-84303628D01*
X133796414Y-84314994D01*
X133891652Y-84410233D01*
X133897402Y-84414953D01*
X133898701Y-84416450D01*
X133900955Y-84417869D01*
X133903017Y-84419561D01*
X133904849Y-84420319D01*
X133911144Y-84424282D01*
X134006382Y-84471901D01*
X134020113Y-84477156D01*
X134022802Y-84477347D01*
X134025291Y-84478378D01*
X134039923Y-84479819D01*
X134230399Y-84479819D01*
X134245031Y-84478378D01*
X134247520Y-84477346D01*
X134250208Y-84477156D01*
X134263940Y-84471901D01*
X134359178Y-84424282D01*
X134365477Y-84420317D01*
X134367305Y-84419560D01*
X134369361Y-84417871D01*
X134371621Y-84416450D01*
X134372920Y-84414951D01*
X134378670Y-84410233D01*
X134473909Y-84314993D01*
X134483236Y-84303628D01*
X134485369Y-84298476D01*
X134488689Y-84293997D01*
X134493636Y-84280151D01*
X134541255Y-84089675D01*
X134541630Y-84087138D01*
X134542053Y-84086117D01*
X134542595Y-84080604D01*
X134543405Y-84075131D01*
X134543242Y-84074038D01*
X134543494Y-84071485D01*
X134543494Y-83738152D01*
X134543242Y-83735598D01*
X134543405Y-83734506D01*
X134542595Y-83729032D01*
X134542053Y-83723520D01*
X134541630Y-83722498D01*
X134541255Y-83719962D01*
X134493636Y-83529486D01*
X134488689Y-83515640D01*
X134485370Y-83511161D01*
X134483236Y-83506008D01*
X134473908Y-83494643D01*
X134378670Y-83399405D01*
X134372920Y-83394686D01*
X134371621Y-83393188D01*
X134369361Y-83391766D01*
X134367438Y-83390187D01*
X134680650Y-83390187D01*
X134680650Y-83419451D01*
X134691849Y-83446487D01*
X134712541Y-83467179D01*
X134739577Y-83478378D01*
X134754209Y-83479819D01*
X134964923Y-83479819D01*
X134964923Y-84404819D01*
X134966364Y-84419451D01*
X134977563Y-84446487D01*
X134998255Y-84467179D01*
X135025291Y-84478378D01*
X135054555Y-84478378D01*
X135081591Y-84467179D01*
X135102283Y-84446487D01*
X135113482Y-84419451D01*
X135114923Y-84404819D01*
X135114923Y-83681152D01*
X136298846Y-83681152D01*
X136300920Y-83710342D01*
X136314007Y-83736517D01*
X136336115Y-83755690D01*
X136363876Y-83764944D01*
X136393066Y-83762870D01*
X136406798Y-83757615D01*
X136502036Y-83709996D01*
X136508335Y-83706031D01*
X136510163Y-83705274D01*
X136512219Y-83703585D01*
X136514479Y-83702164D01*
X136515778Y-83700665D01*
X136521528Y-83695947D01*
X136583971Y-83633504D01*
X136583971Y-84329819D01*
X136373257Y-84329819D01*
X136358625Y-84331260D01*
X136331589Y-84342459D01*
X136310897Y-84363151D01*
X136299698Y-84390187D01*
X136299698Y-84419451D01*
X136310897Y-84446487D01*
X136331589Y-84467179D01*
X136358625Y-84478378D01*
X136373257Y-84479819D01*
X136944685Y-84479819D01*
X136959317Y-84478378D01*
X136986353Y-84467179D01*
X137007045Y-84446487D01*
X137018244Y-84419451D01*
X137018244Y-84390187D01*
X137007045Y-84363151D01*
X136986353Y-84342459D01*
X136959317Y-84331260D01*
X136944685Y-84329819D01*
X136733971Y-84329819D01*
X136733971Y-83404819D01*
X136733965Y-83404766D01*
X136733971Y-83404740D01*
X136733955Y-83404663D01*
X136732530Y-83390187D01*
X136729688Y-83383326D01*
X136728232Y-83376045D01*
X136724142Y-83369938D01*
X136721331Y-83363151D01*
X136716082Y-83357902D01*
X136711949Y-83351730D01*
X136705832Y-83347652D01*
X136700639Y-83342459D01*
X136693779Y-83339617D01*
X136687600Y-83335498D01*
X136680391Y-83334072D01*
X136673603Y-83331260D01*
X136666176Y-83331260D01*
X136658892Y-83329819D01*
X136651687Y-83331260D01*
X136644339Y-83331260D01*
X136637478Y-83334101D01*
X136630198Y-83335558D01*
X136624092Y-83339646D01*
X136617303Y-83342459D01*
X136612052Y-83347709D01*
X136605883Y-83351841D01*
X136596662Y-83363099D01*
X136596611Y-83363151D01*
X136596601Y-83363173D01*
X136596567Y-83363216D01*
X136505447Y-83499896D01*
X136424068Y-83581275D01*
X136339716Y-83623451D01*
X136327273Y-83631283D01*
X136308100Y-83653391D01*
X136298846Y-83681152D01*
X135114923Y-83681152D01*
X135114923Y-83479819D01*
X135325637Y-83479819D01*
X135340269Y-83478378D01*
X135367305Y-83467179D01*
X135387997Y-83446487D01*
X135399196Y-83419451D01*
X135399196Y-83390187D01*
X135387997Y-83363151D01*
X135367305Y-83342459D01*
X135340269Y-83331260D01*
X135325637Y-83329819D01*
X134754209Y-83329819D01*
X134739577Y-83331260D01*
X134712541Y-83342459D01*
X134691849Y-83363151D01*
X134680650Y-83390187D01*
X134367438Y-83390187D01*
X134367305Y-83390078D01*
X134365477Y-83389320D01*
X134359178Y-83385356D01*
X134263940Y-83337737D01*
X134250208Y-83332482D01*
X134247520Y-83332291D01*
X134245031Y-83331260D01*
X134230399Y-83329819D01*
X134039923Y-83329819D01*
X134025291Y-83331260D01*
X134022802Y-83332290D01*
X134020113Y-83332482D01*
X134006382Y-83337737D01*
X133911144Y-83385356D01*
X133904849Y-83389318D01*
X133903017Y-83390077D01*
X133900955Y-83391768D01*
X133898701Y-83393188D01*
X133897402Y-83394684D01*
X133891652Y-83399405D01*
X133796414Y-83494643D01*
X133787087Y-83506008D01*
X133784953Y-83511158D01*
X133781633Y-83515640D01*
X133776686Y-83529486D01*
X133729067Y-83719962D01*
X133728691Y-83722498D01*
X133728269Y-83723520D01*
X133727726Y-83729032D01*
X133726917Y-83734506D01*
X133727079Y-83735598D01*
X133726828Y-83738152D01*
X133495875Y-83738152D01*
X133495875Y-83595295D01*
X133494434Y-83580663D01*
X133493403Y-83578174D01*
X133493212Y-83575485D01*
X133487957Y-83561754D01*
X133440338Y-83466516D01*
X133436373Y-83460216D01*
X133435616Y-83458389D01*
X133433927Y-83456332D01*
X133432506Y-83454073D01*
X133431007Y-83452773D01*
X133426289Y-83447024D01*
X133378670Y-83399405D01*
X133372920Y-83394686D01*
X133371621Y-83393188D01*
X133369361Y-83391766D01*
X133367305Y-83390078D01*
X133365477Y-83389320D01*
X133359178Y-83385356D01*
X133263940Y-83337737D01*
X133250208Y-83332482D01*
X133247520Y-83332291D01*
X133245031Y-83331260D01*
X133230399Y-83329819D01*
X132849447Y-83329819D01*
X132834815Y-83331260D01*
X132807779Y-83342459D01*
X132787087Y-83363151D01*
X132775888Y-83390187D01*
X132774447Y-83404819D01*
X132663336Y-83404819D01*
X132663336Y-83218708D01*
X137129355Y-83218708D01*
X137129355Y-84590930D01*
G37*
G36*
X166758344Y-58618669D02*
G01*
X166788751Y-58649076D01*
X166823009Y-58717592D01*
X166823009Y-58958220D01*
X166496819Y-58958220D01*
X166496819Y-58717592D01*
X166531077Y-58649076D01*
X166561484Y-58618669D01*
X166630000Y-58584411D01*
X166689828Y-58584411D01*
X166758344Y-58618669D01*
G37*
G36*
X167282153Y-58571050D02*
G01*
X167312561Y-58601457D01*
X167346819Y-58669973D01*
X167346819Y-58958220D01*
X166973009Y-58958220D01*
X166973009Y-58712057D01*
X167011180Y-58597543D01*
X167037674Y-58571050D01*
X167106190Y-58536792D01*
X167213637Y-58536792D01*
X167282153Y-58571050D01*
G37*
G36*
X167240617Y-54958085D02*
G01*
X167312561Y-55030028D01*
X167346819Y-55098544D01*
X167346819Y-55253610D01*
X167312561Y-55322125D01*
X167240617Y-55394068D01*
X167079251Y-55434410D01*
X166764386Y-55434410D01*
X166603019Y-55394068D01*
X166531077Y-55322126D01*
X166496819Y-55253610D01*
X166496819Y-55098544D01*
X166531077Y-55030028D01*
X166603019Y-54958085D01*
X166764386Y-54917744D01*
X167079251Y-54917744D01*
X167240617Y-54958085D01*
G37*
G36*
X167607930Y-59219331D02*
G01*
X166235708Y-59219331D01*
X166235708Y-58699887D01*
X166346819Y-58699887D01*
X166346819Y-59033220D01*
X166348260Y-59047852D01*
X166359459Y-59074888D01*
X166380151Y-59095580D01*
X166407187Y-59106779D01*
X166421819Y-59108220D01*
X167421819Y-59108220D01*
X167436451Y-59106779D01*
X167463487Y-59095580D01*
X167484179Y-59074888D01*
X167495378Y-59047852D01*
X167496819Y-59033220D01*
X167496819Y-58652268D01*
X167495378Y-58637636D01*
X167494347Y-58635147D01*
X167494156Y-58632458D01*
X167488901Y-58618727D01*
X167441282Y-58523489D01*
X167437317Y-58517189D01*
X167436560Y-58515362D01*
X167434872Y-58513305D01*
X167433450Y-58511046D01*
X167431950Y-58509745D01*
X167427232Y-58503996D01*
X167379612Y-58456377D01*
X167373863Y-58451659D01*
X167372564Y-58450161D01*
X167370305Y-58448739D01*
X167368247Y-58447050D01*
X167366417Y-58446292D01*
X167360121Y-58442329D01*
X167264883Y-58394710D01*
X167251151Y-58389455D01*
X167248463Y-58389264D01*
X167245974Y-58388233D01*
X167231342Y-58386792D01*
X167088485Y-58386792D01*
X167073853Y-58388233D01*
X167071364Y-58389263D01*
X167068675Y-58389455D01*
X167054944Y-58394710D01*
X166959706Y-58442329D01*
X166953406Y-58446293D01*
X166951579Y-58447051D01*
X166949522Y-58448739D01*
X166947263Y-58450161D01*
X166945963Y-58451659D01*
X166940214Y-58456378D01*
X166892595Y-58503997D01*
X166883268Y-58515362D01*
X166882236Y-58517852D01*
X166880471Y-58519888D01*
X166877762Y-58525955D01*
X166855804Y-58503997D01*
X166850054Y-58499278D01*
X166848755Y-58497780D01*
X166846495Y-58496358D01*
X166844439Y-58494670D01*
X166842611Y-58493912D01*
X166836312Y-58489948D01*
X166741074Y-58442329D01*
X166727342Y-58437074D01*
X166724654Y-58436883D01*
X166722165Y-58435852D01*
X166707533Y-58434411D01*
X166612295Y-58434411D01*
X166597663Y-58435852D01*
X166595174Y-58436882D01*
X166592485Y-58437074D01*
X166578754Y-58442329D01*
X166483516Y-58489948D01*
X166477216Y-58493912D01*
X166475389Y-58494670D01*
X166473332Y-58496358D01*
X166471073Y-58497780D01*
X166469773Y-58499278D01*
X166464024Y-58503997D01*
X166416405Y-58551616D01*
X166411686Y-58557365D01*
X166410188Y-58558665D01*
X166408766Y-58560924D01*
X166407078Y-58562981D01*
X166406320Y-58564808D01*
X166402356Y-58571108D01*
X166354737Y-58666346D01*
X166349482Y-58680078D01*
X166349291Y-58682765D01*
X166348260Y-58685255D01*
X166346819Y-58699887D01*
X166235708Y-58699887D01*
X166235708Y-57447160D01*
X166348260Y-57447160D01*
X166348260Y-57476424D01*
X166359459Y-57503460D01*
X166380151Y-57524152D01*
X166407187Y-57535351D01*
X166421819Y-57536792D01*
X167213637Y-57536792D01*
X167282153Y-57571050D01*
X167312561Y-57601457D01*
X167346819Y-57669973D01*
X167346819Y-57825039D01*
X167312561Y-57893554D01*
X167282153Y-57923961D01*
X167213637Y-57958220D01*
X166421819Y-57958220D01*
X166407187Y-57959661D01*
X166380151Y-57970860D01*
X166359459Y-57991552D01*
X166348260Y-58018588D01*
X166348260Y-58047852D01*
X166359459Y-58074888D01*
X166380151Y-58095580D01*
X166407187Y-58106779D01*
X166421819Y-58108220D01*
X167231342Y-58108220D01*
X167245974Y-58106779D01*
X167248463Y-58105747D01*
X167251151Y-58105557D01*
X167264883Y-58100302D01*
X167360121Y-58052683D01*
X167366417Y-58048719D01*
X167368247Y-58047962D01*
X167370305Y-58046272D01*
X167372564Y-58044851D01*
X167373863Y-58043352D01*
X167379612Y-58038635D01*
X167427232Y-57991016D01*
X167431950Y-57985266D01*
X167433450Y-57983966D01*
X167434872Y-57981706D01*
X167436560Y-57979650D01*
X167437317Y-57977822D01*
X167441282Y-57971523D01*
X167488901Y-57876285D01*
X167494156Y-57862554D01*
X167494347Y-57859864D01*
X167495378Y-57857376D01*
X167496819Y-57842744D01*
X167496819Y-57652268D01*
X167495378Y-57637636D01*
X167494347Y-57635147D01*
X167494156Y-57632458D01*
X167488901Y-57618727D01*
X167441282Y-57523489D01*
X167437317Y-57517189D01*
X167436560Y-57515362D01*
X167434872Y-57513305D01*
X167433450Y-57511046D01*
X167431950Y-57509745D01*
X167427232Y-57503996D01*
X167379612Y-57456377D01*
X167373863Y-57451659D01*
X167372564Y-57450161D01*
X167370305Y-57448739D01*
X167368247Y-57447050D01*
X167366417Y-57446292D01*
X167360121Y-57442329D01*
X167264883Y-57394710D01*
X167251151Y-57389455D01*
X167248463Y-57389264D01*
X167245974Y-57388233D01*
X167231342Y-57386792D01*
X166421819Y-57386792D01*
X166407187Y-57388233D01*
X166380151Y-57399432D01*
X166359459Y-57420124D01*
X166348260Y-57447160D01*
X166235708Y-57447160D01*
X166235708Y-56557030D01*
X166346819Y-56557030D01*
X166346819Y-57128458D01*
X166348260Y-57143090D01*
X166359459Y-57170126D01*
X166380151Y-57190818D01*
X166407187Y-57202017D01*
X166436451Y-57202017D01*
X166463487Y-57190818D01*
X166484179Y-57170126D01*
X166495378Y-57143090D01*
X166496819Y-57128458D01*
X166496819Y-56917744D01*
X167421819Y-56917744D01*
X167436451Y-56916303D01*
X167463487Y-56905104D01*
X167484179Y-56884412D01*
X167495378Y-56857376D01*
X167495378Y-56828112D01*
X167484179Y-56801076D01*
X167463487Y-56780384D01*
X167436451Y-56769185D01*
X167421819Y-56767744D01*
X166496819Y-56767744D01*
X166496819Y-56557030D01*
X166495378Y-56542398D01*
X166484179Y-56515362D01*
X166463487Y-56494670D01*
X166436451Y-56483471D01*
X166407187Y-56483471D01*
X166380151Y-56494670D01*
X166359459Y-56515362D01*
X166348260Y-56542398D01*
X166346819Y-56557030D01*
X166235708Y-56557030D01*
X166235708Y-55795125D01*
X166346819Y-55795125D01*
X166346819Y-56366553D01*
X166348260Y-56381185D01*
X166359459Y-56408221D01*
X166380151Y-56428913D01*
X166407187Y-56440112D01*
X166436451Y-56440112D01*
X166463487Y-56428913D01*
X166484179Y-56408221D01*
X166495378Y-56381185D01*
X166496819Y-56366553D01*
X166496819Y-56155839D01*
X167421819Y-56155839D01*
X167436451Y-56154398D01*
X167463487Y-56143199D01*
X167484179Y-56122507D01*
X167495378Y-56095471D01*
X167495378Y-56066207D01*
X167484179Y-56039171D01*
X167463487Y-56018479D01*
X167436451Y-56007280D01*
X167421819Y-56005839D01*
X166496819Y-56005839D01*
X166496819Y-55795125D01*
X166495378Y-55780493D01*
X166484179Y-55753457D01*
X166463487Y-55732765D01*
X166436451Y-55721566D01*
X166407187Y-55721566D01*
X166380151Y-55732765D01*
X166359459Y-55753457D01*
X166348260Y-55780493D01*
X166346819Y-55795125D01*
X166235708Y-55795125D01*
X166235708Y-55080839D01*
X166346819Y-55080839D01*
X166346819Y-55271315D01*
X166348260Y-55285947D01*
X166349291Y-55288436D01*
X166349482Y-55291124D01*
X166354737Y-55304856D01*
X166402356Y-55400094D01*
X166406320Y-55406393D01*
X166407078Y-55408221D01*
X166408766Y-55410277D01*
X166410188Y-55412537D01*
X166411686Y-55413836D01*
X166416405Y-55419586D01*
X166511643Y-55514824D01*
X166523008Y-55524152D01*
X166528161Y-55526286D01*
X166532640Y-55529605D01*
X166546486Y-55534552D01*
X166736962Y-55582171D01*
X166739498Y-55582546D01*
X166740520Y-55582969D01*
X166746032Y-55583511D01*
X166751506Y-55584321D01*
X166752598Y-55584158D01*
X166755152Y-55584410D01*
X167088485Y-55584410D01*
X167091038Y-55584158D01*
X167092131Y-55584321D01*
X167097604Y-55583511D01*
X167103117Y-55582969D01*
X167104138Y-55582546D01*
X167106675Y-55582171D01*
X167297151Y-55534552D01*
X167310997Y-55529605D01*
X167315476Y-55526285D01*
X167320628Y-55524152D01*
X167331994Y-55514824D01*
X167427233Y-55419586D01*
X167431953Y-55413835D01*
X167433450Y-55412537D01*
X167434869Y-55410282D01*
X167436561Y-55408221D01*
X167437319Y-55406388D01*
X167441282Y-55400094D01*
X167488901Y-55304856D01*
X167494156Y-55291125D01*
X167494347Y-55288435D01*
X167495378Y-55285947D01*
X167496819Y-55271315D01*
X167496819Y-55080839D01*
X167495378Y-55066207D01*
X167494347Y-55063718D01*
X167494156Y-55061029D01*
X167488901Y-55047298D01*
X167441282Y-54952060D01*
X167437319Y-54945765D01*
X167436561Y-54943933D01*
X167434869Y-54941871D01*
X167433450Y-54939617D01*
X167431953Y-54938318D01*
X167427233Y-54932568D01*
X167331994Y-54837330D01*
X167320628Y-54828002D01*
X167315476Y-54825868D01*
X167310997Y-54822549D01*
X167297151Y-54817602D01*
X167106675Y-54769983D01*
X167104138Y-54769607D01*
X167103117Y-54769185D01*
X167097604Y-54768642D01*
X167092131Y-54767833D01*
X167091038Y-54767995D01*
X167088485Y-54767744D01*
X166755152Y-54767744D01*
X166752598Y-54767995D01*
X166751506Y-54767833D01*
X166746032Y-54768642D01*
X166740520Y-54769185D01*
X166739498Y-54769607D01*
X166736962Y-54769983D01*
X166546486Y-54817602D01*
X166532640Y-54822549D01*
X166528161Y-54825867D01*
X166523008Y-54828002D01*
X166511643Y-54837330D01*
X166416405Y-54932568D01*
X166411686Y-54938317D01*
X166410188Y-54939617D01*
X166408766Y-54941876D01*
X166407078Y-54943933D01*
X166406320Y-54945760D01*
X166402356Y-54952060D01*
X166354737Y-55047298D01*
X166349482Y-55061030D01*
X166349291Y-55063717D01*
X166348260Y-55066207D01*
X166346819Y-55080839D01*
X166235708Y-55080839D01*
X166235708Y-54408933D01*
X166347002Y-54408933D01*
X166348260Y-54418829D01*
X166348260Y-54428804D01*
X166350089Y-54433219D01*
X166350692Y-54437963D01*
X166355642Y-54446627D01*
X166359459Y-54455840D01*
X166362837Y-54459218D01*
X166365211Y-54463372D01*
X166373100Y-54469481D01*
X166380151Y-54476532D01*
X166384567Y-54478361D01*
X166388348Y-54481289D01*
X166397971Y-54483913D01*
X166407187Y-54487731D01*
X166414669Y-54488467D01*
X166416580Y-54488989D01*
X166418055Y-54488801D01*
X166421819Y-54489172D01*
X167421819Y-54489172D01*
X167436451Y-54487731D01*
X167463487Y-54476532D01*
X167484179Y-54455840D01*
X167495378Y-54428804D01*
X167495378Y-54399540D01*
X167484179Y-54372504D01*
X167463487Y-54351812D01*
X167436451Y-54340613D01*
X167421819Y-54339172D01*
X166704236Y-54339172D01*
X167459030Y-53907862D01*
X167462114Y-53905672D01*
X167463487Y-53905104D01*
X167464884Y-53903706D01*
X167471019Y-53899352D01*
X167477127Y-53891463D01*
X167484179Y-53884412D01*
X167486009Y-53879993D01*
X167488936Y-53876214D01*
X167491560Y-53866592D01*
X167495378Y-53857376D01*
X167495378Y-53852595D01*
X167496636Y-53847983D01*
X167495378Y-53838086D01*
X167495378Y-53828112D01*
X167493548Y-53823696D01*
X167492946Y-53818953D01*
X167487995Y-53810288D01*
X167484179Y-53801076D01*
X167480800Y-53797697D01*
X167478427Y-53793544D01*
X167470537Y-53787434D01*
X167463487Y-53780384D01*
X167459070Y-53778554D01*
X167455290Y-53775627D01*
X167445666Y-53773002D01*
X167436451Y-53769185D01*
X167428968Y-53768448D01*
X167427058Y-53767927D01*
X167425582Y-53768114D01*
X167421819Y-53767744D01*
X166421819Y-53767744D01*
X166407187Y-53769185D01*
X166380151Y-53780384D01*
X166359459Y-53801076D01*
X166348260Y-53828112D01*
X166348260Y-53857376D01*
X166359459Y-53884412D01*
X166380151Y-53905104D01*
X166407187Y-53916303D01*
X166421819Y-53917744D01*
X167139402Y-53917744D01*
X166384609Y-54349054D01*
X166381525Y-54351242D01*
X166380151Y-54351812D01*
X166378751Y-54353211D01*
X166372619Y-54357564D01*
X166366509Y-54365453D01*
X166359459Y-54372504D01*
X166357629Y-54376920D01*
X166354702Y-54380701D01*
X166352077Y-54390324D01*
X166348260Y-54399540D01*
X166348260Y-54404320D01*
X166347002Y-54408933D01*
X166235708Y-54408933D01*
X166235708Y-52271315D01*
X166346819Y-52271315D01*
X166346819Y-52509410D01*
X166348260Y-52524042D01*
X166349291Y-52526531D01*
X166349482Y-52529219D01*
X166354737Y-52542951D01*
X166402356Y-52638189D01*
X166406320Y-52644488D01*
X166407078Y-52646316D01*
X166408766Y-52648372D01*
X166410188Y-52650632D01*
X166411686Y-52651931D01*
X166416405Y-52657681D01*
X166464024Y-52705300D01*
X166475389Y-52714627D01*
X166502425Y-52725826D01*
X166531688Y-52725826D01*
X166558724Y-52714627D01*
X166579417Y-52693934D01*
X166590616Y-52666898D01*
X166590616Y-52637635D01*
X166579417Y-52610599D01*
X166570090Y-52599234D01*
X166531077Y-52560221D01*
X166496819Y-52491705D01*
X166496819Y-52289020D01*
X166531077Y-52220504D01*
X166561484Y-52190097D01*
X166630000Y-52155839D01*
X166695363Y-52155839D01*
X166809876Y-52194010D01*
X167368786Y-52752919D01*
X167380151Y-52762247D01*
X167399268Y-52770165D01*
X167407187Y-52773445D01*
X167407188Y-52773445D01*
X167436451Y-52773445D01*
X167463487Y-52762246D01*
X167484180Y-52741554D01*
X167492098Y-52722436D01*
X167495378Y-52714518D01*
X167496819Y-52699886D01*
X167496819Y-52080839D01*
X167495378Y-52066207D01*
X167484179Y-52039171D01*
X167463487Y-52018479D01*
X167436451Y-52007280D01*
X167407187Y-52007280D01*
X167380151Y-52018479D01*
X167359459Y-52039171D01*
X167348260Y-52066207D01*
X167346819Y-52080839D01*
X167346819Y-52518820D01*
X166903423Y-52075425D01*
X166892058Y-52066098D01*
X166889567Y-52065066D01*
X166887532Y-52063301D01*
X166874107Y-52057307D01*
X166731250Y-52009688D01*
X166723996Y-52008038D01*
X166722165Y-52007280D01*
X166719510Y-52007018D01*
X166716913Y-52006428D01*
X166714938Y-52006568D01*
X166707533Y-52005839D01*
X166612295Y-52005839D01*
X166597663Y-52007280D01*
X166595174Y-52008310D01*
X166592485Y-52008502D01*
X166578754Y-52013757D01*
X166483516Y-52061376D01*
X166477216Y-52065340D01*
X166475389Y-52066098D01*
X166473332Y-52067786D01*
X166471073Y-52069208D01*
X166469773Y-52070706D01*
X166464024Y-52075425D01*
X166416405Y-52123044D01*
X166411686Y-52128793D01*
X166410188Y-52130093D01*
X166408766Y-52132352D01*
X166407078Y-52134409D01*
X166406320Y-52136236D01*
X166402356Y-52142536D01*
X166354737Y-52237774D01*
X166349482Y-52251506D01*
X166349291Y-52254193D01*
X166348260Y-52256683D01*
X166346819Y-52271315D01*
X166235708Y-52271315D01*
X166235708Y-51894728D01*
X167607930Y-51894728D01*
X167607930Y-59219331D01*
G37*
X95319438Y-76229411D02*
X95271819Y-76324649D01*
X95271819Y-76324649D02*
X95271819Y-76467506D01*
X95271819Y-76467506D02*
X95319438Y-76610363D01*
X95319438Y-76610363D02*
X95414676Y-76705601D01*
X95414676Y-76705601D02*
X95509914Y-76753220D01*
X95509914Y-76753220D02*
X95700390Y-76800839D01*
X95700390Y-76800839D02*
X95843247Y-76800839D01*
X95843247Y-76800839D02*
X96033723Y-76753220D01*
X96033723Y-76753220D02*
X96128961Y-76705601D01*
X96128961Y-76705601D02*
X96224200Y-76610363D01*
X96224200Y-76610363D02*
X96271819Y-76467506D01*
X96271819Y-76467506D02*
X96271819Y-76372268D01*
X96271819Y-76372268D02*
X96224200Y-76229411D01*
X96224200Y-76229411D02*
X96176580Y-76181792D01*
X96176580Y-76181792D02*
X95843247Y-76181792D01*
X95843247Y-76181792D02*
X95843247Y-76372268D01*
X96271819Y-75753220D02*
X95271819Y-75753220D01*
X95271819Y-75753220D02*
X96271819Y-75181792D01*
X96271819Y-75181792D02*
X95271819Y-75181792D01*
X96271819Y-74705601D02*
X95271819Y-74705601D01*
X95271819Y-74705601D02*
X95271819Y-74467506D01*
X95271819Y-74467506D02*
X95319438Y-74324649D01*
X95319438Y-74324649D02*
X95414676Y-74229411D01*
X95414676Y-74229411D02*
X95509914Y-74181792D01*
X95509914Y-74181792D02*
X95700390Y-74134173D01*
X95700390Y-74134173D02*
X95843247Y-74134173D01*
X95843247Y-74134173D02*
X96033723Y-74181792D01*
X96033723Y-74181792D02*
X96128961Y-74229411D01*
X96128961Y-74229411D02*
X96224200Y-74324649D01*
X96224200Y-74324649D02*
X96271819Y-74467506D01*
X96271819Y-74467506D02*
X96271819Y-74705601D01*
X89770866Y-65743220D02*
X89770866Y-64981316D01*
X90151819Y-65362268D02*
X89389914Y-65362268D01*
X89151819Y-64028935D02*
X89151819Y-64505125D01*
X89151819Y-64505125D02*
X89628009Y-64552744D01*
X89628009Y-64552744D02*
X89580390Y-64505125D01*
X89580390Y-64505125D02*
X89532771Y-64409887D01*
X89532771Y-64409887D02*
X89532771Y-64171792D01*
X89532771Y-64171792D02*
X89580390Y-64076554D01*
X89580390Y-64076554D02*
X89628009Y-64028935D01*
X89628009Y-64028935D02*
X89723247Y-63981316D01*
X89723247Y-63981316D02*
X89961342Y-63981316D01*
X89961342Y-63981316D02*
X90056580Y-64028935D01*
X90056580Y-64028935D02*
X90104200Y-64076554D01*
X90104200Y-64076554D02*
X90151819Y-64171792D01*
X90151819Y-64171792D02*
X90151819Y-64409887D01*
X90151819Y-64409887D02*
X90104200Y-64505125D01*
X90104200Y-64505125D02*
X90056580Y-64552744D01*
X89151819Y-63695601D02*
X90151819Y-63362268D01*
X90151819Y-63362268D02*
X89151819Y-63028935D01*
G36*
X166798344Y-66488669D02*
G01*
X166828751Y-66519076D01*
X166863009Y-66587592D01*
X166863009Y-66828220D01*
X166536819Y-66828220D01*
X166536819Y-66587592D01*
X166571077Y-66519076D01*
X166601484Y-66488669D01*
X166670000Y-66454411D01*
X166729828Y-66454411D01*
X166798344Y-66488669D01*
G37*
G36*
X167322153Y-66441050D02*
G01*
X167352561Y-66471457D01*
X167386819Y-66539973D01*
X167386819Y-66828220D01*
X167013009Y-66828220D01*
X167013009Y-66582057D01*
X167051180Y-66467543D01*
X167077674Y-66441050D01*
X167146190Y-66406792D01*
X167253637Y-66406792D01*
X167322153Y-66441050D01*
G37*
G36*
X167280617Y-62828085D02*
G01*
X167352561Y-62900028D01*
X167386819Y-62968544D01*
X167386819Y-63123610D01*
X167352561Y-63192125D01*
X167280617Y-63264068D01*
X167119251Y-63304410D01*
X166804386Y-63304410D01*
X166643019Y-63264068D01*
X166571077Y-63192126D01*
X166536819Y-63123610D01*
X166536819Y-62968544D01*
X166571077Y-62900028D01*
X166643019Y-62828085D01*
X166804386Y-62787744D01*
X167119251Y-62787744D01*
X167280617Y-62828085D01*
G37*
G36*
X167647930Y-67089331D02*
G01*
X166275708Y-67089331D01*
X166275708Y-66569887D01*
X166386819Y-66569887D01*
X166386819Y-66903220D01*
X166388260Y-66917852D01*
X166399459Y-66944888D01*
X166420151Y-66965580D01*
X166447187Y-66976779D01*
X166461819Y-66978220D01*
X167461819Y-66978220D01*
X167476451Y-66976779D01*
X167503487Y-66965580D01*
X167524179Y-66944888D01*
X167535378Y-66917852D01*
X167536819Y-66903220D01*
X167536819Y-66522268D01*
X167535378Y-66507636D01*
X167534347Y-66505147D01*
X167534156Y-66502458D01*
X167528901Y-66488727D01*
X167481282Y-66393489D01*
X167477317Y-66387189D01*
X167476560Y-66385362D01*
X167474872Y-66383305D01*
X167473450Y-66381046D01*
X167471950Y-66379745D01*
X167467232Y-66373996D01*
X167419612Y-66326377D01*
X167413863Y-66321659D01*
X167412564Y-66320161D01*
X167410305Y-66318739D01*
X167408247Y-66317050D01*
X167406417Y-66316292D01*
X167400121Y-66312329D01*
X167304883Y-66264710D01*
X167291151Y-66259455D01*
X167288463Y-66259264D01*
X167285974Y-66258233D01*
X167271342Y-66256792D01*
X167128485Y-66256792D01*
X167113853Y-66258233D01*
X167111364Y-66259263D01*
X167108675Y-66259455D01*
X167094944Y-66264710D01*
X166999706Y-66312329D01*
X166993406Y-66316293D01*
X166991579Y-66317051D01*
X166989522Y-66318739D01*
X166987263Y-66320161D01*
X166985963Y-66321659D01*
X166980214Y-66326378D01*
X166932595Y-66373997D01*
X166923268Y-66385362D01*
X166922236Y-66387852D01*
X166920471Y-66389888D01*
X166917762Y-66395955D01*
X166895804Y-66373997D01*
X166890054Y-66369278D01*
X166888755Y-66367780D01*
X166886495Y-66366358D01*
X166884439Y-66364670D01*
X166882611Y-66363912D01*
X166876312Y-66359948D01*
X166781074Y-66312329D01*
X166767342Y-66307074D01*
X166764654Y-66306883D01*
X166762165Y-66305852D01*
X166747533Y-66304411D01*
X166652295Y-66304411D01*
X166637663Y-66305852D01*
X166635174Y-66306882D01*
X166632485Y-66307074D01*
X166618754Y-66312329D01*
X166523516Y-66359948D01*
X166517216Y-66363912D01*
X166515389Y-66364670D01*
X166513332Y-66366358D01*
X166511073Y-66367780D01*
X166509773Y-66369278D01*
X166504024Y-66373997D01*
X166456405Y-66421616D01*
X166451686Y-66427365D01*
X166450188Y-66428665D01*
X166448766Y-66430924D01*
X166447078Y-66432981D01*
X166446320Y-66434808D01*
X166442356Y-66441108D01*
X166394737Y-66536346D01*
X166389482Y-66550078D01*
X166389291Y-66552765D01*
X166388260Y-66555255D01*
X166386819Y-66569887D01*
X166275708Y-66569887D01*
X166275708Y-65317160D01*
X166388260Y-65317160D01*
X166388260Y-65346424D01*
X166399459Y-65373460D01*
X166420151Y-65394152D01*
X166447187Y-65405351D01*
X166461819Y-65406792D01*
X167253637Y-65406792D01*
X167322153Y-65441050D01*
X167352561Y-65471457D01*
X167386819Y-65539973D01*
X167386819Y-65695039D01*
X167352561Y-65763554D01*
X167322153Y-65793961D01*
X167253637Y-65828220D01*
X166461819Y-65828220D01*
X166447187Y-65829661D01*
X166420151Y-65840860D01*
X166399459Y-65861552D01*
X166388260Y-65888588D01*
X166388260Y-65917852D01*
X166399459Y-65944888D01*
X166420151Y-65965580D01*
X166447187Y-65976779D01*
X166461819Y-65978220D01*
X167271342Y-65978220D01*
X167285974Y-65976779D01*
X167288463Y-65975747D01*
X167291151Y-65975557D01*
X167304883Y-65970302D01*
X167400121Y-65922683D01*
X167406417Y-65918719D01*
X167408247Y-65917962D01*
X167410305Y-65916272D01*
X167412564Y-65914851D01*
X167413863Y-65913352D01*
X167419612Y-65908635D01*
X167467232Y-65861016D01*
X167471950Y-65855266D01*
X167473450Y-65853966D01*
X167474872Y-65851706D01*
X167476560Y-65849650D01*
X167477317Y-65847822D01*
X167481282Y-65841523D01*
X167528901Y-65746285D01*
X167534156Y-65732554D01*
X167534347Y-65729864D01*
X167535378Y-65727376D01*
X167536819Y-65712744D01*
X167536819Y-65522268D01*
X167535378Y-65507636D01*
X167534347Y-65505147D01*
X167534156Y-65502458D01*
X167528901Y-65488727D01*
X167481282Y-65393489D01*
X167477317Y-65387189D01*
X167476560Y-65385362D01*
X167474872Y-65383305D01*
X167473450Y-65381046D01*
X167471950Y-65379745D01*
X167467232Y-65373996D01*
X167419612Y-65326377D01*
X167413863Y-65321659D01*
X167412564Y-65320161D01*
X167410305Y-65318739D01*
X167408247Y-65317050D01*
X167406417Y-65316292D01*
X167400121Y-65312329D01*
X167304883Y-65264710D01*
X167291151Y-65259455D01*
X167288463Y-65259264D01*
X167285974Y-65258233D01*
X167271342Y-65256792D01*
X166461819Y-65256792D01*
X166447187Y-65258233D01*
X166420151Y-65269432D01*
X166399459Y-65290124D01*
X166388260Y-65317160D01*
X166275708Y-65317160D01*
X166275708Y-64427030D01*
X166386819Y-64427030D01*
X166386819Y-64998458D01*
X166388260Y-65013090D01*
X166399459Y-65040126D01*
X166420151Y-65060818D01*
X166447187Y-65072017D01*
X166476451Y-65072017D01*
X166503487Y-65060818D01*
X166524179Y-65040126D01*
X166535378Y-65013090D01*
X166536819Y-64998458D01*
X166536819Y-64787744D01*
X167461819Y-64787744D01*
X167476451Y-64786303D01*
X167503487Y-64775104D01*
X167524179Y-64754412D01*
X167535378Y-64727376D01*
X167535378Y-64698112D01*
X167524179Y-64671076D01*
X167503487Y-64650384D01*
X167476451Y-64639185D01*
X167461819Y-64637744D01*
X166536819Y-64637744D01*
X166536819Y-64427030D01*
X166535378Y-64412398D01*
X166524179Y-64385362D01*
X166503487Y-64364670D01*
X166476451Y-64353471D01*
X166447187Y-64353471D01*
X166420151Y-64364670D01*
X166399459Y-64385362D01*
X166388260Y-64412398D01*
X166386819Y-64427030D01*
X166275708Y-64427030D01*
X166275708Y-63665125D01*
X166386819Y-63665125D01*
X166386819Y-64236553D01*
X166388260Y-64251185D01*
X166399459Y-64278221D01*
X166420151Y-64298913D01*
X166447187Y-64310112D01*
X166476451Y-64310112D01*
X166503487Y-64298913D01*
X166524179Y-64278221D01*
X166535378Y-64251185D01*
X166536819Y-64236553D01*
X166536819Y-64025839D01*
X167461819Y-64025839D01*
X167476451Y-64024398D01*
X167503487Y-64013199D01*
X167524179Y-63992507D01*
X167535378Y-63965471D01*
X167535378Y-63936207D01*
X167524179Y-63909171D01*
X167503487Y-63888479D01*
X167476451Y-63877280D01*
X167461819Y-63875839D01*
X166536819Y-63875839D01*
X166536819Y-63665125D01*
X166535378Y-63650493D01*
X166524179Y-63623457D01*
X166503487Y-63602765D01*
X166476451Y-63591566D01*
X166447187Y-63591566D01*
X166420151Y-63602765D01*
X166399459Y-63623457D01*
X166388260Y-63650493D01*
X166386819Y-63665125D01*
X166275708Y-63665125D01*
X166275708Y-62950839D01*
X166386819Y-62950839D01*
X166386819Y-63141315D01*
X166388260Y-63155947D01*
X166389291Y-63158436D01*
X166389482Y-63161124D01*
X166394737Y-63174856D01*
X166442356Y-63270094D01*
X166446320Y-63276393D01*
X166447078Y-63278221D01*
X166448766Y-63280277D01*
X166450188Y-63282537D01*
X166451686Y-63283836D01*
X166456405Y-63289586D01*
X166551643Y-63384824D01*
X166563008Y-63394152D01*
X166568161Y-63396286D01*
X166572640Y-63399605D01*
X166586486Y-63404552D01*
X166776962Y-63452171D01*
X166779498Y-63452546D01*
X166780520Y-63452969D01*
X166786032Y-63453511D01*
X166791506Y-63454321D01*
X166792598Y-63454158D01*
X166795152Y-63454410D01*
X167128485Y-63454410D01*
X167131038Y-63454158D01*
X167132131Y-63454321D01*
X167137604Y-63453511D01*
X167143117Y-63452969D01*
X167144138Y-63452546D01*
X167146675Y-63452171D01*
X167337151Y-63404552D01*
X167350997Y-63399605D01*
X167355476Y-63396285D01*
X167360628Y-63394152D01*
X167371994Y-63384824D01*
X167467233Y-63289586D01*
X167471953Y-63283835D01*
X167473450Y-63282537D01*
X167474869Y-63280282D01*
X167476561Y-63278221D01*
X167477319Y-63276388D01*
X167481282Y-63270094D01*
X167528901Y-63174856D01*
X167534156Y-63161125D01*
X167534347Y-63158435D01*
X167535378Y-63155947D01*
X167536819Y-63141315D01*
X167536819Y-62950839D01*
X167535378Y-62936207D01*
X167534347Y-62933718D01*
X167534156Y-62931029D01*
X167528901Y-62917298D01*
X167481282Y-62822060D01*
X167477319Y-62815765D01*
X167476561Y-62813933D01*
X167474869Y-62811871D01*
X167473450Y-62809617D01*
X167471953Y-62808318D01*
X167467233Y-62802568D01*
X167371994Y-62707330D01*
X167360628Y-62698002D01*
X167355476Y-62695868D01*
X167350997Y-62692549D01*
X167337151Y-62687602D01*
X167146675Y-62639983D01*
X167144138Y-62639607D01*
X167143117Y-62639185D01*
X167137604Y-62638642D01*
X167132131Y-62637833D01*
X167131038Y-62637995D01*
X167128485Y-62637744D01*
X166795152Y-62637744D01*
X166792598Y-62637995D01*
X166791506Y-62637833D01*
X166786032Y-62638642D01*
X166780520Y-62639185D01*
X166779498Y-62639607D01*
X166776962Y-62639983D01*
X166586486Y-62687602D01*
X166572640Y-62692549D01*
X166568161Y-62695867D01*
X166563008Y-62698002D01*
X166551643Y-62707330D01*
X166456405Y-62802568D01*
X166451686Y-62808317D01*
X166450188Y-62809617D01*
X166448766Y-62811876D01*
X166447078Y-62813933D01*
X166446320Y-62815760D01*
X166442356Y-62822060D01*
X166394737Y-62917298D01*
X166389482Y-62931030D01*
X166389291Y-62933717D01*
X166388260Y-62936207D01*
X166386819Y-62950839D01*
X166275708Y-62950839D01*
X166275708Y-62278933D01*
X166387002Y-62278933D01*
X166388260Y-62288829D01*
X166388260Y-62298804D01*
X166390089Y-62303219D01*
X166390692Y-62307963D01*
X166395642Y-62316627D01*
X166399459Y-62325840D01*
X166402837Y-62329218D01*
X166405211Y-62333372D01*
X166413100Y-62339481D01*
X166420151Y-62346532D01*
X166424567Y-62348361D01*
X166428348Y-62351289D01*
X166437971Y-62353913D01*
X166447187Y-62357731D01*
X166454669Y-62358467D01*
X166456580Y-62358989D01*
X166458055Y-62358801D01*
X166461819Y-62359172D01*
X167461819Y-62359172D01*
X167476451Y-62357731D01*
X167503487Y-62346532D01*
X167524179Y-62325840D01*
X167535378Y-62298804D01*
X167535378Y-62269540D01*
X167524179Y-62242504D01*
X167503487Y-62221812D01*
X167476451Y-62210613D01*
X167461819Y-62209172D01*
X166744236Y-62209172D01*
X167499030Y-61777862D01*
X167502114Y-61775672D01*
X167503487Y-61775104D01*
X167504884Y-61773706D01*
X167511019Y-61769352D01*
X167517127Y-61761463D01*
X167524179Y-61754412D01*
X167526009Y-61749993D01*
X167528936Y-61746214D01*
X167531560Y-61736592D01*
X167535378Y-61727376D01*
X167535378Y-61722595D01*
X167536636Y-61717983D01*
X167535378Y-61708086D01*
X167535378Y-61698112D01*
X167533548Y-61693696D01*
X167532946Y-61688953D01*
X167527995Y-61680288D01*
X167524179Y-61671076D01*
X167520800Y-61667697D01*
X167518427Y-61663544D01*
X167510537Y-61657434D01*
X167503487Y-61650384D01*
X167499070Y-61648554D01*
X167495290Y-61645627D01*
X167485666Y-61643002D01*
X167476451Y-61639185D01*
X167468968Y-61638448D01*
X167467058Y-61637927D01*
X167465582Y-61638114D01*
X167461819Y-61637744D01*
X166461819Y-61637744D01*
X166447187Y-61639185D01*
X166420151Y-61650384D01*
X166399459Y-61671076D01*
X166388260Y-61698112D01*
X166388260Y-61727376D01*
X166399459Y-61754412D01*
X166420151Y-61775104D01*
X166447187Y-61786303D01*
X166461819Y-61787744D01*
X167179402Y-61787744D01*
X166424609Y-62219054D01*
X166421525Y-62221242D01*
X166420151Y-62221812D01*
X166418751Y-62223211D01*
X166412619Y-62227564D01*
X166406509Y-62235453D01*
X166399459Y-62242504D01*
X166397629Y-62246920D01*
X166394702Y-62250701D01*
X166392077Y-62260324D01*
X166388260Y-62269540D01*
X166388260Y-62274320D01*
X166387002Y-62278933D01*
X166275708Y-62278933D01*
X166275708Y-60236632D01*
X166386819Y-60236632D01*
X166388260Y-60243836D01*
X166388260Y-60251185D01*
X166391101Y-60258045D01*
X166392558Y-60265326D01*
X166396646Y-60271431D01*
X166399459Y-60278221D01*
X166404709Y-60283471D01*
X166408841Y-60289641D01*
X166420099Y-60298861D01*
X166420151Y-60298913D01*
X166420173Y-60298922D01*
X166420216Y-60298957D01*
X166556894Y-60390075D01*
X166638275Y-60471456D01*
X166680451Y-60555808D01*
X166688283Y-60568251D01*
X166710391Y-60587424D01*
X166738152Y-60596678D01*
X166767342Y-60594604D01*
X166793517Y-60581516D01*
X166812690Y-60559409D01*
X166821944Y-60531647D01*
X166819870Y-60502457D01*
X166814615Y-60488726D01*
X166766996Y-60393488D01*
X166763033Y-60387193D01*
X166762275Y-60385361D01*
X166760583Y-60383299D01*
X166759164Y-60381045D01*
X166757667Y-60379746D01*
X166752947Y-60373996D01*
X166690504Y-60311553D01*
X167386819Y-60311553D01*
X167386819Y-60522267D01*
X167388260Y-60536899D01*
X167399459Y-60563935D01*
X167420151Y-60584627D01*
X167447187Y-60595826D01*
X167476451Y-60595826D01*
X167503487Y-60584627D01*
X167524179Y-60563935D01*
X167535378Y-60536899D01*
X167536819Y-60522267D01*
X167536819Y-59950839D01*
X167535378Y-59936207D01*
X167524179Y-59909171D01*
X167503487Y-59888479D01*
X167476451Y-59877280D01*
X167447187Y-59877280D01*
X167420151Y-59888479D01*
X167399459Y-59909171D01*
X167388260Y-59936207D01*
X167386819Y-59950839D01*
X167386819Y-60161553D01*
X166461819Y-60161553D01*
X166461766Y-60161558D01*
X166461740Y-60161553D01*
X166461663Y-60161568D01*
X166447187Y-60162994D01*
X166440326Y-60165835D01*
X166433046Y-60167292D01*
X166426940Y-60171380D01*
X166420151Y-60174193D01*
X166414900Y-60179443D01*
X166408731Y-60183575D01*
X166404654Y-60189689D01*
X166399459Y-60194885D01*
X166396617Y-60201745D01*
X166392498Y-60207924D01*
X166391072Y-60215132D01*
X166388260Y-60221921D01*
X166388260Y-60229347D01*
X166386819Y-60236632D01*
X166275708Y-60236632D01*
X166275708Y-59766169D01*
X167647930Y-59766169D01*
X167647930Y-67089331D01*
G37*
X95104200Y-65540839D02*
X95151819Y-65397982D01*
X95151819Y-65397982D02*
X95151819Y-65159887D01*
X95151819Y-65159887D02*
X95104200Y-65064649D01*
X95104200Y-65064649D02*
X95056580Y-65017030D01*
X95056580Y-65017030D02*
X94961342Y-64969411D01*
X94961342Y-64969411D02*
X94866104Y-64969411D01*
X94866104Y-64969411D02*
X94770866Y-65017030D01*
X94770866Y-65017030D02*
X94723247Y-65064649D01*
X94723247Y-65064649D02*
X94675628Y-65159887D01*
X94675628Y-65159887D02*
X94628009Y-65350363D01*
X94628009Y-65350363D02*
X94580390Y-65445601D01*
X94580390Y-65445601D02*
X94532771Y-65493220D01*
X94532771Y-65493220D02*
X94437533Y-65540839D01*
X94437533Y-65540839D02*
X94342295Y-65540839D01*
X94342295Y-65540839D02*
X94247057Y-65493220D01*
X94247057Y-65493220D02*
X94199438Y-65445601D01*
X94199438Y-65445601D02*
X94151819Y-65350363D01*
X94151819Y-65350363D02*
X94151819Y-65112268D01*
X94151819Y-65112268D02*
X94199438Y-64969411D01*
X95056580Y-63969411D02*
X95104200Y-64017030D01*
X95104200Y-64017030D02*
X95151819Y-64159887D01*
X95151819Y-64159887D02*
X95151819Y-64255125D01*
X95151819Y-64255125D02*
X95104200Y-64397982D01*
X95104200Y-64397982D02*
X95008961Y-64493220D01*
X95008961Y-64493220D02*
X94913723Y-64540839D01*
X94913723Y-64540839D02*
X94723247Y-64588458D01*
X94723247Y-64588458D02*
X94580390Y-64588458D01*
X94580390Y-64588458D02*
X94389914Y-64540839D01*
X94389914Y-64540839D02*
X94294676Y-64493220D01*
X94294676Y-64493220D02*
X94199438Y-64397982D01*
X94199438Y-64397982D02*
X94151819Y-64255125D01*
X94151819Y-64255125D02*
X94151819Y-64159887D01*
X94151819Y-64159887D02*
X94199438Y-64017030D01*
X94199438Y-64017030D02*
X94247057Y-63969411D01*
X95151819Y-63064649D02*
X95151819Y-63540839D01*
X95151819Y-63540839D02*
X94151819Y-63540839D01*
X103924200Y-76680839D02*
X103971819Y-76537982D01*
X103971819Y-76537982D02*
X103971819Y-76299887D01*
X103971819Y-76299887D02*
X103924200Y-76204649D01*
X103924200Y-76204649D02*
X103876580Y-76157030D01*
X103876580Y-76157030D02*
X103781342Y-76109411D01*
X103781342Y-76109411D02*
X103686104Y-76109411D01*
X103686104Y-76109411D02*
X103590866Y-76157030D01*
X103590866Y-76157030D02*
X103543247Y-76204649D01*
X103543247Y-76204649D02*
X103495628Y-76299887D01*
X103495628Y-76299887D02*
X103448009Y-76490363D01*
X103448009Y-76490363D02*
X103400390Y-76585601D01*
X103400390Y-76585601D02*
X103352771Y-76633220D01*
X103352771Y-76633220D02*
X103257533Y-76680839D01*
X103257533Y-76680839D02*
X103162295Y-76680839D01*
X103162295Y-76680839D02*
X103067057Y-76633220D01*
X103067057Y-76633220D02*
X103019438Y-76585601D01*
X103019438Y-76585601D02*
X102971819Y-76490363D01*
X102971819Y-76490363D02*
X102971819Y-76252268D01*
X102971819Y-76252268D02*
X103019438Y-76109411D01*
X103971819Y-75680839D02*
X102971819Y-75680839D01*
X102971819Y-75680839D02*
X102971819Y-75442744D01*
X102971819Y-75442744D02*
X103019438Y-75299887D01*
X103019438Y-75299887D02*
X103114676Y-75204649D01*
X103114676Y-75204649D02*
X103209914Y-75157030D01*
X103209914Y-75157030D02*
X103400390Y-75109411D01*
X103400390Y-75109411D02*
X103543247Y-75109411D01*
X103543247Y-75109411D02*
X103733723Y-75157030D01*
X103733723Y-75157030D02*
X103828961Y-75204649D01*
X103828961Y-75204649D02*
X103924200Y-75299887D01*
X103924200Y-75299887D02*
X103971819Y-75442744D01*
X103971819Y-75442744D02*
X103971819Y-75680839D01*
X103686104Y-74728458D02*
X103686104Y-74252268D01*
X103971819Y-74823696D02*
X102971819Y-74490363D01*
X102971819Y-74490363D02*
X103971819Y-74157030D01*
X97714200Y-65420839D02*
X97761819Y-65277982D01*
X97761819Y-65277982D02*
X97761819Y-65039887D01*
X97761819Y-65039887D02*
X97714200Y-64944649D01*
X97714200Y-64944649D02*
X97666580Y-64897030D01*
X97666580Y-64897030D02*
X97571342Y-64849411D01*
X97571342Y-64849411D02*
X97476104Y-64849411D01*
X97476104Y-64849411D02*
X97380866Y-64897030D01*
X97380866Y-64897030D02*
X97333247Y-64944649D01*
X97333247Y-64944649D02*
X97285628Y-65039887D01*
X97285628Y-65039887D02*
X97238009Y-65230363D01*
X97238009Y-65230363D02*
X97190390Y-65325601D01*
X97190390Y-65325601D02*
X97142771Y-65373220D01*
X97142771Y-65373220D02*
X97047533Y-65420839D01*
X97047533Y-65420839D02*
X96952295Y-65420839D01*
X96952295Y-65420839D02*
X96857057Y-65373220D01*
X96857057Y-65373220D02*
X96809438Y-65325601D01*
X96809438Y-65325601D02*
X96761819Y-65230363D01*
X96761819Y-65230363D02*
X96761819Y-64992268D01*
X96761819Y-64992268D02*
X96809438Y-64849411D01*
X97761819Y-64420839D02*
X96761819Y-64420839D01*
X96761819Y-64420839D02*
X96761819Y-64182744D01*
X96761819Y-64182744D02*
X96809438Y-64039887D01*
X96809438Y-64039887D02*
X96904676Y-63944649D01*
X96904676Y-63944649D02*
X96999914Y-63897030D01*
X96999914Y-63897030D02*
X97190390Y-63849411D01*
X97190390Y-63849411D02*
X97333247Y-63849411D01*
X97333247Y-63849411D02*
X97523723Y-63897030D01*
X97523723Y-63897030D02*
X97618961Y-63944649D01*
X97618961Y-63944649D02*
X97714200Y-64039887D01*
X97714200Y-64039887D02*
X97761819Y-64182744D01*
X97761819Y-64182744D02*
X97761819Y-64420839D01*
X97476104Y-63468458D02*
X97476104Y-62992268D01*
X97761819Y-63563696D02*
X96761819Y-63230363D01*
X96761819Y-63230363D02*
X97761819Y-62897030D01*
X136513333Y-67784819D02*
X136180000Y-67308628D01*
X135941905Y-67784819D02*
X135941905Y-66784819D01*
X135941905Y-66784819D02*
X136322857Y-66784819D01*
X136322857Y-66784819D02*
X136418095Y-66832438D01*
X136418095Y-66832438D02*
X136465714Y-66880057D01*
X136465714Y-66880057D02*
X136513333Y-66975295D01*
X136513333Y-66975295D02*
X136513333Y-67118152D01*
X136513333Y-67118152D02*
X136465714Y-67213390D01*
X136465714Y-67213390D02*
X136418095Y-67261009D01*
X136418095Y-67261009D02*
X136322857Y-67308628D01*
X136322857Y-67308628D02*
X135941905Y-67308628D01*
X136989524Y-67784819D02*
X137180000Y-67784819D01*
X137180000Y-67784819D02*
X137275238Y-67737200D01*
X137275238Y-67737200D02*
X137322857Y-67689580D01*
X137322857Y-67689580D02*
X137418095Y-67546723D01*
X137418095Y-67546723D02*
X137465714Y-67356247D01*
X137465714Y-67356247D02*
X137465714Y-66975295D01*
X137465714Y-66975295D02*
X137418095Y-66880057D01*
X137418095Y-66880057D02*
X137370476Y-66832438D01*
X137370476Y-66832438D02*
X137275238Y-66784819D01*
X137275238Y-66784819D02*
X137084762Y-66784819D01*
X137084762Y-66784819D02*
X136989524Y-66832438D01*
X136989524Y-66832438D02*
X136941905Y-66880057D01*
X136941905Y-66880057D02*
X136894286Y-66975295D01*
X136894286Y-66975295D02*
X136894286Y-67213390D01*
X136894286Y-67213390D02*
X136941905Y-67308628D01*
X136941905Y-67308628D02*
X136989524Y-67356247D01*
X136989524Y-67356247D02*
X137084762Y-67403866D01*
X137084762Y-67403866D02*
X137275238Y-67403866D01*
X137275238Y-67403866D02*
X137370476Y-67356247D01*
X137370476Y-67356247D02*
X137418095Y-67308628D01*
X137418095Y-67308628D02*
X137465714Y-67213390D01*
X127487142Y-67714819D02*
X127153809Y-67238628D01*
X126915714Y-67714819D02*
X126915714Y-66714819D01*
X126915714Y-66714819D02*
X127296666Y-66714819D01*
X127296666Y-66714819D02*
X127391904Y-66762438D01*
X127391904Y-66762438D02*
X127439523Y-66810057D01*
X127439523Y-66810057D02*
X127487142Y-66905295D01*
X127487142Y-66905295D02*
X127487142Y-67048152D01*
X127487142Y-67048152D02*
X127439523Y-67143390D01*
X127439523Y-67143390D02*
X127391904Y-67191009D01*
X127391904Y-67191009D02*
X127296666Y-67238628D01*
X127296666Y-67238628D02*
X126915714Y-67238628D01*
X128439523Y-67714819D02*
X127868095Y-67714819D01*
X128153809Y-67714819D02*
X128153809Y-66714819D01*
X128153809Y-66714819D02*
X128058571Y-66857676D01*
X128058571Y-66857676D02*
X127963333Y-66952914D01*
X127963333Y-66952914D02*
X127868095Y-67000533D01*
X128772857Y-66714819D02*
X129391904Y-66714819D01*
X129391904Y-66714819D02*
X129058571Y-67095771D01*
X129058571Y-67095771D02*
X129201428Y-67095771D01*
X129201428Y-67095771D02*
X129296666Y-67143390D01*
X129296666Y-67143390D02*
X129344285Y-67191009D01*
X129344285Y-67191009D02*
X129391904Y-67286247D01*
X129391904Y-67286247D02*
X129391904Y-67524342D01*
X129391904Y-67524342D02*
X129344285Y-67619580D01*
X129344285Y-67619580D02*
X129296666Y-67667200D01*
X129296666Y-67667200D02*
X129201428Y-67714819D01*
X129201428Y-67714819D02*
X128915714Y-67714819D01*
X128915714Y-67714819D02*
X128820476Y-67667200D01*
X128820476Y-67667200D02*
X128772857Y-67619580D01*
X127487142Y-54744819D02*
X127153809Y-54268628D01*
X126915714Y-54744819D02*
X126915714Y-53744819D01*
X126915714Y-53744819D02*
X127296666Y-53744819D01*
X127296666Y-53744819D02*
X127391904Y-53792438D01*
X127391904Y-53792438D02*
X127439523Y-53840057D01*
X127439523Y-53840057D02*
X127487142Y-53935295D01*
X127487142Y-53935295D02*
X127487142Y-54078152D01*
X127487142Y-54078152D02*
X127439523Y-54173390D01*
X127439523Y-54173390D02*
X127391904Y-54221009D01*
X127391904Y-54221009D02*
X127296666Y-54268628D01*
X127296666Y-54268628D02*
X126915714Y-54268628D01*
X128439523Y-54744819D02*
X127868095Y-54744819D01*
X128153809Y-54744819D02*
X128153809Y-53744819D01*
X128153809Y-53744819D02*
X128058571Y-53887676D01*
X128058571Y-53887676D02*
X127963333Y-53982914D01*
X127963333Y-53982914D02*
X127868095Y-54030533D01*
X129296666Y-54078152D02*
X129296666Y-54744819D01*
X129058571Y-53697200D02*
X128820476Y-54411485D01*
X128820476Y-54411485D02*
X129439523Y-54411485D01*
X119647142Y-54764819D02*
X119313809Y-54288628D01*
X119075714Y-54764819D02*
X119075714Y-53764819D01*
X119075714Y-53764819D02*
X119456666Y-53764819D01*
X119456666Y-53764819D02*
X119551904Y-53812438D01*
X119551904Y-53812438D02*
X119599523Y-53860057D01*
X119599523Y-53860057D02*
X119647142Y-53955295D01*
X119647142Y-53955295D02*
X119647142Y-54098152D01*
X119647142Y-54098152D02*
X119599523Y-54193390D01*
X119599523Y-54193390D02*
X119551904Y-54241009D01*
X119551904Y-54241009D02*
X119456666Y-54288628D01*
X119456666Y-54288628D02*
X119075714Y-54288628D01*
X120599523Y-54764819D02*
X120028095Y-54764819D01*
X120313809Y-54764819D02*
X120313809Y-53764819D01*
X120313809Y-53764819D02*
X120218571Y-53907676D01*
X120218571Y-53907676D02*
X120123333Y-54002914D01*
X120123333Y-54002914D02*
X120028095Y-54050533D01*
X121170952Y-54193390D02*
X121075714Y-54145771D01*
X121075714Y-54145771D02*
X121028095Y-54098152D01*
X121028095Y-54098152D02*
X120980476Y-54002914D01*
X120980476Y-54002914D02*
X120980476Y-53955295D01*
X120980476Y-53955295D02*
X121028095Y-53860057D01*
X121028095Y-53860057D02*
X121075714Y-53812438D01*
X121075714Y-53812438D02*
X121170952Y-53764819D01*
X121170952Y-53764819D02*
X121361428Y-53764819D01*
X121361428Y-53764819D02*
X121456666Y-53812438D01*
X121456666Y-53812438D02*
X121504285Y-53860057D01*
X121504285Y-53860057D02*
X121551904Y-53955295D01*
X121551904Y-53955295D02*
X121551904Y-54002914D01*
X121551904Y-54002914D02*
X121504285Y-54098152D01*
X121504285Y-54098152D02*
X121456666Y-54145771D01*
X121456666Y-54145771D02*
X121361428Y-54193390D01*
X121361428Y-54193390D02*
X121170952Y-54193390D01*
X121170952Y-54193390D02*
X121075714Y-54241009D01*
X121075714Y-54241009D02*
X121028095Y-54288628D01*
X121028095Y-54288628D02*
X120980476Y-54383866D01*
X120980476Y-54383866D02*
X120980476Y-54574342D01*
X120980476Y-54574342D02*
X121028095Y-54669580D01*
X121028095Y-54669580D02*
X121075714Y-54717200D01*
X121075714Y-54717200D02*
X121170952Y-54764819D01*
X121170952Y-54764819D02*
X121361428Y-54764819D01*
X121361428Y-54764819D02*
X121456666Y-54717200D01*
X121456666Y-54717200D02*
X121504285Y-54669580D01*
X121504285Y-54669580D02*
X121551904Y-54574342D01*
X121551904Y-54574342D02*
X121551904Y-54383866D01*
X121551904Y-54383866D02*
X121504285Y-54288628D01*
X121504285Y-54288628D02*
X121456666Y-54241009D01*
X121456666Y-54241009D02*
X121361428Y-54193390D01*
X148183333Y-54764819D02*
X147850000Y-54288628D01*
X147611905Y-54764819D02*
X147611905Y-53764819D01*
X147611905Y-53764819D02*
X147992857Y-53764819D01*
X147992857Y-53764819D02*
X148088095Y-53812438D01*
X148088095Y-53812438D02*
X148135714Y-53860057D01*
X148135714Y-53860057D02*
X148183333Y-53955295D01*
X148183333Y-53955295D02*
X148183333Y-54098152D01*
X148183333Y-54098152D02*
X148135714Y-54193390D01*
X148135714Y-54193390D02*
X148088095Y-54241009D01*
X148088095Y-54241009D02*
X147992857Y-54288628D01*
X147992857Y-54288628D02*
X147611905Y-54288628D01*
X149040476Y-54098152D02*
X149040476Y-54764819D01*
X148802381Y-53717200D02*
X148564286Y-54431485D01*
X148564286Y-54431485D02*
X149183333Y-54431485D01*
X123427142Y-67784819D02*
X123093809Y-67308628D01*
X122855714Y-67784819D02*
X122855714Y-66784819D01*
X122855714Y-66784819D02*
X123236666Y-66784819D01*
X123236666Y-66784819D02*
X123331904Y-66832438D01*
X123331904Y-66832438D02*
X123379523Y-66880057D01*
X123379523Y-66880057D02*
X123427142Y-66975295D01*
X123427142Y-66975295D02*
X123427142Y-67118152D01*
X123427142Y-67118152D02*
X123379523Y-67213390D01*
X123379523Y-67213390D02*
X123331904Y-67261009D01*
X123331904Y-67261009D02*
X123236666Y-67308628D01*
X123236666Y-67308628D02*
X122855714Y-67308628D01*
X124379523Y-67784819D02*
X123808095Y-67784819D01*
X124093809Y-67784819D02*
X124093809Y-66784819D01*
X124093809Y-66784819D02*
X123998571Y-66927676D01*
X123998571Y-66927676D02*
X123903333Y-67022914D01*
X123903333Y-67022914D02*
X123808095Y-67070533D01*
X125284285Y-66784819D02*
X124808095Y-66784819D01*
X124808095Y-66784819D02*
X124760476Y-67261009D01*
X124760476Y-67261009D02*
X124808095Y-67213390D01*
X124808095Y-67213390D02*
X124903333Y-67165771D01*
X124903333Y-67165771D02*
X125141428Y-67165771D01*
X125141428Y-67165771D02*
X125236666Y-67213390D01*
X125236666Y-67213390D02*
X125284285Y-67261009D01*
X125284285Y-67261009D02*
X125331904Y-67356247D01*
X125331904Y-67356247D02*
X125331904Y-67594342D01*
X125331904Y-67594342D02*
X125284285Y-67689580D01*
X125284285Y-67689580D02*
X125236666Y-67737200D01*
X125236666Y-67737200D02*
X125141428Y-67784819D01*
X125141428Y-67784819D02*
X124903333Y-67784819D01*
X124903333Y-67784819D02*
X124808095Y-67737200D01*
X124808095Y-67737200D02*
X124760476Y-67689580D01*
X115517142Y-67874819D02*
X115183809Y-67398628D01*
X114945714Y-67874819D02*
X114945714Y-66874819D01*
X114945714Y-66874819D02*
X115326666Y-66874819D01*
X115326666Y-66874819D02*
X115421904Y-66922438D01*
X115421904Y-66922438D02*
X115469523Y-66970057D01*
X115469523Y-66970057D02*
X115517142Y-67065295D01*
X115517142Y-67065295D02*
X115517142Y-67208152D01*
X115517142Y-67208152D02*
X115469523Y-67303390D01*
X115469523Y-67303390D02*
X115421904Y-67351009D01*
X115421904Y-67351009D02*
X115326666Y-67398628D01*
X115326666Y-67398628D02*
X114945714Y-67398628D01*
X116469523Y-67874819D02*
X115898095Y-67874819D01*
X116183809Y-67874819D02*
X116183809Y-66874819D01*
X116183809Y-66874819D02*
X116088571Y-67017676D01*
X116088571Y-67017676D02*
X115993333Y-67112914D01*
X115993333Y-67112914D02*
X115898095Y-67160533D01*
X116945714Y-67874819D02*
X117136190Y-67874819D01*
X117136190Y-67874819D02*
X117231428Y-67827200D01*
X117231428Y-67827200D02*
X117279047Y-67779580D01*
X117279047Y-67779580D02*
X117374285Y-67636723D01*
X117374285Y-67636723D02*
X117421904Y-67446247D01*
X117421904Y-67446247D02*
X117421904Y-67065295D01*
X117421904Y-67065295D02*
X117374285Y-66970057D01*
X117374285Y-66970057D02*
X117326666Y-66922438D01*
X117326666Y-66922438D02*
X117231428Y-66874819D01*
X117231428Y-66874819D02*
X117040952Y-66874819D01*
X117040952Y-66874819D02*
X116945714Y-66922438D01*
X116945714Y-66922438D02*
X116898095Y-66970057D01*
X116898095Y-66970057D02*
X116850476Y-67065295D01*
X116850476Y-67065295D02*
X116850476Y-67303390D01*
X116850476Y-67303390D02*
X116898095Y-67398628D01*
X116898095Y-67398628D02*
X116945714Y-67446247D01*
X116945714Y-67446247D02*
X117040952Y-67493866D01*
X117040952Y-67493866D02*
X117231428Y-67493866D01*
X117231428Y-67493866D02*
X117326666Y-67446247D01*
X117326666Y-67446247D02*
X117374285Y-67398628D01*
X117374285Y-67398628D02*
X117421904Y-67303390D01*
X129723333Y-72149580D02*
X129675714Y-72197200D01*
X129675714Y-72197200D02*
X129532857Y-72244819D01*
X129532857Y-72244819D02*
X129437619Y-72244819D01*
X129437619Y-72244819D02*
X129294762Y-72197200D01*
X129294762Y-72197200D02*
X129199524Y-72101961D01*
X129199524Y-72101961D02*
X129151905Y-72006723D01*
X129151905Y-72006723D02*
X129104286Y-71816247D01*
X129104286Y-71816247D02*
X129104286Y-71673390D01*
X129104286Y-71673390D02*
X129151905Y-71482914D01*
X129151905Y-71482914D02*
X129199524Y-71387676D01*
X129199524Y-71387676D02*
X129294762Y-71292438D01*
X129294762Y-71292438D02*
X129437619Y-71244819D01*
X129437619Y-71244819D02*
X129532857Y-71244819D01*
X129532857Y-71244819D02*
X129675714Y-71292438D01*
X129675714Y-71292438D02*
X129723333Y-71340057D01*
X130104286Y-71340057D02*
X130151905Y-71292438D01*
X130151905Y-71292438D02*
X130247143Y-71244819D01*
X130247143Y-71244819D02*
X130485238Y-71244819D01*
X130485238Y-71244819D02*
X130580476Y-71292438D01*
X130580476Y-71292438D02*
X130628095Y-71340057D01*
X130628095Y-71340057D02*
X130675714Y-71435295D01*
X130675714Y-71435295D02*
X130675714Y-71530533D01*
X130675714Y-71530533D02*
X130628095Y-71673390D01*
X130628095Y-71673390D02*
X130056667Y-72244819D01*
X130056667Y-72244819D02*
X130675714Y-72244819D01*
X140363333Y-67784819D02*
X140030000Y-67308628D01*
X139791905Y-67784819D02*
X139791905Y-66784819D01*
X139791905Y-66784819D02*
X140172857Y-66784819D01*
X140172857Y-66784819D02*
X140268095Y-66832438D01*
X140268095Y-66832438D02*
X140315714Y-66880057D01*
X140315714Y-66880057D02*
X140363333Y-66975295D01*
X140363333Y-66975295D02*
X140363333Y-67118152D01*
X140363333Y-67118152D02*
X140315714Y-67213390D01*
X140315714Y-67213390D02*
X140268095Y-67261009D01*
X140268095Y-67261009D02*
X140172857Y-67308628D01*
X140172857Y-67308628D02*
X139791905Y-67308628D01*
X140696667Y-66784819D02*
X141363333Y-66784819D01*
X141363333Y-66784819D02*
X140934762Y-67784819D01*
X111547142Y-67874819D02*
X111213809Y-67398628D01*
X110975714Y-67874819D02*
X110975714Y-66874819D01*
X110975714Y-66874819D02*
X111356666Y-66874819D01*
X111356666Y-66874819D02*
X111451904Y-66922438D01*
X111451904Y-66922438D02*
X111499523Y-66970057D01*
X111499523Y-66970057D02*
X111547142Y-67065295D01*
X111547142Y-67065295D02*
X111547142Y-67208152D01*
X111547142Y-67208152D02*
X111499523Y-67303390D01*
X111499523Y-67303390D02*
X111451904Y-67351009D01*
X111451904Y-67351009D02*
X111356666Y-67398628D01*
X111356666Y-67398628D02*
X110975714Y-67398628D01*
X111928095Y-66970057D02*
X111975714Y-66922438D01*
X111975714Y-66922438D02*
X112070952Y-66874819D01*
X112070952Y-66874819D02*
X112309047Y-66874819D01*
X112309047Y-66874819D02*
X112404285Y-66922438D01*
X112404285Y-66922438D02*
X112451904Y-66970057D01*
X112451904Y-66970057D02*
X112499523Y-67065295D01*
X112499523Y-67065295D02*
X112499523Y-67160533D01*
X112499523Y-67160533D02*
X112451904Y-67303390D01*
X112451904Y-67303390D02*
X111880476Y-67874819D01*
X111880476Y-67874819D02*
X112499523Y-67874819D01*
X113451904Y-67874819D02*
X112880476Y-67874819D01*
X113166190Y-67874819D02*
X113166190Y-66874819D01*
X113166190Y-66874819D02*
X113070952Y-67017676D01*
X113070952Y-67017676D02*
X112975714Y-67112914D01*
X112975714Y-67112914D02*
X112880476Y-67160533D01*
X159126667Y-64207200D02*
X159269524Y-64254819D01*
X159269524Y-64254819D02*
X159507619Y-64254819D01*
X159507619Y-64254819D02*
X159602857Y-64207200D01*
X159602857Y-64207200D02*
X159650476Y-64159580D01*
X159650476Y-64159580D02*
X159698095Y-64064342D01*
X159698095Y-64064342D02*
X159698095Y-63969104D01*
X159698095Y-63969104D02*
X159650476Y-63873866D01*
X159650476Y-63873866D02*
X159602857Y-63826247D01*
X159602857Y-63826247D02*
X159507619Y-63778628D01*
X159507619Y-63778628D02*
X159317143Y-63731009D01*
X159317143Y-63731009D02*
X159221905Y-63683390D01*
X159221905Y-63683390D02*
X159174286Y-63635771D01*
X159174286Y-63635771D02*
X159126667Y-63540533D01*
X159126667Y-63540533D02*
X159126667Y-63445295D01*
X159126667Y-63445295D02*
X159174286Y-63350057D01*
X159174286Y-63350057D02*
X159221905Y-63302438D01*
X159221905Y-63302438D02*
X159317143Y-63254819D01*
X159317143Y-63254819D02*
X159555238Y-63254819D01*
X159555238Y-63254819D02*
X159698095Y-63302438D01*
X160031429Y-63254819D02*
X160269524Y-64254819D01*
X160269524Y-64254819D02*
X160460000Y-63540533D01*
X160460000Y-63540533D02*
X160650476Y-64254819D01*
X160650476Y-64254819D02*
X160888572Y-63254819D01*
X161221905Y-63350057D02*
X161269524Y-63302438D01*
X161269524Y-63302438D02*
X161364762Y-63254819D01*
X161364762Y-63254819D02*
X161602857Y-63254819D01*
X161602857Y-63254819D02*
X161698095Y-63302438D01*
X161698095Y-63302438D02*
X161745714Y-63350057D01*
X161745714Y-63350057D02*
X161793333Y-63445295D01*
X161793333Y-63445295D02*
X161793333Y-63540533D01*
X161793333Y-63540533D02*
X161745714Y-63683390D01*
X161745714Y-63683390D02*
X161174286Y-64254819D01*
X161174286Y-64254819D02*
X161793333Y-64254819D01*
X115537142Y-54684819D02*
X115203809Y-54208628D01*
X114965714Y-54684819D02*
X114965714Y-53684819D01*
X114965714Y-53684819D02*
X115346666Y-53684819D01*
X115346666Y-53684819D02*
X115441904Y-53732438D01*
X115441904Y-53732438D02*
X115489523Y-53780057D01*
X115489523Y-53780057D02*
X115537142Y-53875295D01*
X115537142Y-53875295D02*
X115537142Y-54018152D01*
X115537142Y-54018152D02*
X115489523Y-54113390D01*
X115489523Y-54113390D02*
X115441904Y-54161009D01*
X115441904Y-54161009D02*
X115346666Y-54208628D01*
X115346666Y-54208628D02*
X114965714Y-54208628D01*
X115918095Y-53780057D02*
X115965714Y-53732438D01*
X115965714Y-53732438D02*
X116060952Y-53684819D01*
X116060952Y-53684819D02*
X116299047Y-53684819D01*
X116299047Y-53684819D02*
X116394285Y-53732438D01*
X116394285Y-53732438D02*
X116441904Y-53780057D01*
X116441904Y-53780057D02*
X116489523Y-53875295D01*
X116489523Y-53875295D02*
X116489523Y-53970533D01*
X116489523Y-53970533D02*
X116441904Y-54113390D01*
X116441904Y-54113390D02*
X115870476Y-54684819D01*
X115870476Y-54684819D02*
X116489523Y-54684819D01*
X117108571Y-53684819D02*
X117203809Y-53684819D01*
X117203809Y-53684819D02*
X117299047Y-53732438D01*
X117299047Y-53732438D02*
X117346666Y-53780057D01*
X117346666Y-53780057D02*
X117394285Y-53875295D01*
X117394285Y-53875295D02*
X117441904Y-54065771D01*
X117441904Y-54065771D02*
X117441904Y-54303866D01*
X117441904Y-54303866D02*
X117394285Y-54494342D01*
X117394285Y-54494342D02*
X117346666Y-54589580D01*
X117346666Y-54589580D02*
X117299047Y-54637200D01*
X117299047Y-54637200D02*
X117203809Y-54684819D01*
X117203809Y-54684819D02*
X117108571Y-54684819D01*
X117108571Y-54684819D02*
X117013333Y-54637200D01*
X117013333Y-54637200D02*
X116965714Y-54589580D01*
X116965714Y-54589580D02*
X116918095Y-54494342D01*
X116918095Y-54494342D02*
X116870476Y-54303866D01*
X116870476Y-54303866D02*
X116870476Y-54065771D01*
X116870476Y-54065771D02*
X116918095Y-53875295D01*
X116918095Y-53875295D02*
X116965714Y-53780057D01*
X116965714Y-53780057D02*
X117013333Y-53732438D01*
X117013333Y-53732438D02*
X117108571Y-53684819D01*
X144143333Y-54834819D02*
X143810000Y-54358628D01*
X143571905Y-54834819D02*
X143571905Y-53834819D01*
X143571905Y-53834819D02*
X143952857Y-53834819D01*
X143952857Y-53834819D02*
X144048095Y-53882438D01*
X144048095Y-53882438D02*
X144095714Y-53930057D01*
X144095714Y-53930057D02*
X144143333Y-54025295D01*
X144143333Y-54025295D02*
X144143333Y-54168152D01*
X144143333Y-54168152D02*
X144095714Y-54263390D01*
X144095714Y-54263390D02*
X144048095Y-54311009D01*
X144048095Y-54311009D02*
X143952857Y-54358628D01*
X143952857Y-54358628D02*
X143571905Y-54358628D01*
X145000476Y-53834819D02*
X144810000Y-53834819D01*
X144810000Y-53834819D02*
X144714762Y-53882438D01*
X144714762Y-53882438D02*
X144667143Y-53930057D01*
X144667143Y-53930057D02*
X144571905Y-54072914D01*
X144571905Y-54072914D02*
X144524286Y-54263390D01*
X144524286Y-54263390D02*
X144524286Y-54644342D01*
X144524286Y-54644342D02*
X144571905Y-54739580D01*
X144571905Y-54739580D02*
X144619524Y-54787200D01*
X144619524Y-54787200D02*
X144714762Y-54834819D01*
X144714762Y-54834819D02*
X144905238Y-54834819D01*
X144905238Y-54834819D02*
X145000476Y-54787200D01*
X145000476Y-54787200D02*
X145048095Y-54739580D01*
X145048095Y-54739580D02*
X145095714Y-54644342D01*
X145095714Y-54644342D02*
X145095714Y-54406247D01*
X145095714Y-54406247D02*
X145048095Y-54311009D01*
X145048095Y-54311009D02*
X145000476Y-54263390D01*
X145000476Y-54263390D02*
X144905238Y-54215771D01*
X144905238Y-54215771D02*
X144714762Y-54215771D01*
X144714762Y-54215771D02*
X144619524Y-54263390D01*
X144619524Y-54263390D02*
X144571905Y-54311009D01*
X144571905Y-54311009D02*
X144524286Y-54406247D01*
X152976666Y-68994819D02*
X152976666Y-69709104D01*
X152976666Y-69709104D02*
X152929047Y-69851961D01*
X152929047Y-69851961D02*
X152833809Y-69947200D01*
X152833809Y-69947200D02*
X152690952Y-69994819D01*
X152690952Y-69994819D02*
X152595714Y-69994819D01*
X153357619Y-68994819D02*
X154024285Y-68994819D01*
X154024285Y-68994819D02*
X153595714Y-69994819D01*
X135857142Y-54674819D02*
X135523809Y-54198628D01*
X135285714Y-54674819D02*
X135285714Y-53674819D01*
X135285714Y-53674819D02*
X135666666Y-53674819D01*
X135666666Y-53674819D02*
X135761904Y-53722438D01*
X135761904Y-53722438D02*
X135809523Y-53770057D01*
X135809523Y-53770057D02*
X135857142Y-53865295D01*
X135857142Y-53865295D02*
X135857142Y-54008152D01*
X135857142Y-54008152D02*
X135809523Y-54103390D01*
X135809523Y-54103390D02*
X135761904Y-54151009D01*
X135761904Y-54151009D02*
X135666666Y-54198628D01*
X135666666Y-54198628D02*
X135285714Y-54198628D01*
X136809523Y-54674819D02*
X136238095Y-54674819D01*
X136523809Y-54674819D02*
X136523809Y-53674819D01*
X136523809Y-53674819D02*
X136428571Y-53817676D01*
X136428571Y-53817676D02*
X136333333Y-53912914D01*
X136333333Y-53912914D02*
X136238095Y-53960533D01*
X137428571Y-53674819D02*
X137523809Y-53674819D01*
X137523809Y-53674819D02*
X137619047Y-53722438D01*
X137619047Y-53722438D02*
X137666666Y-53770057D01*
X137666666Y-53770057D02*
X137714285Y-53865295D01*
X137714285Y-53865295D02*
X137761904Y-54055771D01*
X137761904Y-54055771D02*
X137761904Y-54293866D01*
X137761904Y-54293866D02*
X137714285Y-54484342D01*
X137714285Y-54484342D02*
X137666666Y-54579580D01*
X137666666Y-54579580D02*
X137619047Y-54627200D01*
X137619047Y-54627200D02*
X137523809Y-54674819D01*
X137523809Y-54674819D02*
X137428571Y-54674819D01*
X137428571Y-54674819D02*
X137333333Y-54627200D01*
X137333333Y-54627200D02*
X137285714Y-54579580D01*
X137285714Y-54579580D02*
X137238095Y-54484342D01*
X137238095Y-54484342D02*
X137190476Y-54293866D01*
X137190476Y-54293866D02*
X137190476Y-54055771D01*
X137190476Y-54055771D02*
X137238095Y-53865295D01*
X137238095Y-53865295D02*
X137285714Y-53770057D01*
X137285714Y-53770057D02*
X137333333Y-53722438D01*
X137333333Y-53722438D02*
X137428571Y-53674819D01*
X107198666Y-60224819D02*
X107198666Y-60939104D01*
X107198666Y-60939104D02*
X107151047Y-61081961D01*
X107151047Y-61081961D02*
X107055809Y-61177200D01*
X107055809Y-61177200D02*
X106912952Y-61224819D01*
X106912952Y-61224819D02*
X106817714Y-61224819D01*
X108151047Y-60224819D02*
X107674857Y-60224819D01*
X107674857Y-60224819D02*
X107627238Y-60701009D01*
X107627238Y-60701009D02*
X107674857Y-60653390D01*
X107674857Y-60653390D02*
X107770095Y-60605771D01*
X107770095Y-60605771D02*
X108008190Y-60605771D01*
X108008190Y-60605771D02*
X108103428Y-60653390D01*
X108103428Y-60653390D02*
X108151047Y-60701009D01*
X108151047Y-60701009D02*
X108198666Y-60796247D01*
X108198666Y-60796247D02*
X108198666Y-61034342D01*
X108198666Y-61034342D02*
X108151047Y-61129580D01*
X108151047Y-61129580D02*
X108103428Y-61177200D01*
X108103428Y-61177200D02*
X108008190Y-61224819D01*
X108008190Y-61224819D02*
X107770095Y-61224819D01*
X107770095Y-61224819D02*
X107674857Y-61177200D01*
X107674857Y-61177200D02*
X107627238Y-61129580D01*
X116784819Y-91432857D02*
X116308628Y-91766190D01*
X116784819Y-92004285D02*
X115784819Y-92004285D01*
X115784819Y-92004285D02*
X115784819Y-91623333D01*
X115784819Y-91623333D02*
X115832438Y-91528095D01*
X115832438Y-91528095D02*
X115880057Y-91480476D01*
X115880057Y-91480476D02*
X115975295Y-91432857D01*
X115975295Y-91432857D02*
X116118152Y-91432857D01*
X116118152Y-91432857D02*
X116213390Y-91480476D01*
X116213390Y-91480476D02*
X116261009Y-91528095D01*
X116261009Y-91528095D02*
X116308628Y-91623333D01*
X116308628Y-91623333D02*
X116308628Y-92004285D01*
X115880057Y-91051904D02*
X115832438Y-91004285D01*
X115832438Y-91004285D02*
X115784819Y-90909047D01*
X115784819Y-90909047D02*
X115784819Y-90670952D01*
X115784819Y-90670952D02*
X115832438Y-90575714D01*
X115832438Y-90575714D02*
X115880057Y-90528095D01*
X115880057Y-90528095D02*
X115975295Y-90480476D01*
X115975295Y-90480476D02*
X116070533Y-90480476D01*
X116070533Y-90480476D02*
X116213390Y-90528095D01*
X116213390Y-90528095D02*
X116784819Y-91099523D01*
X116784819Y-91099523D02*
X116784819Y-90480476D01*
X115784819Y-89623333D02*
X115784819Y-89813809D01*
X115784819Y-89813809D02*
X115832438Y-89909047D01*
X115832438Y-89909047D02*
X115880057Y-89956666D01*
X115880057Y-89956666D02*
X116022914Y-90051904D01*
X116022914Y-90051904D02*
X116213390Y-90099523D01*
X116213390Y-90099523D02*
X116594342Y-90099523D01*
X116594342Y-90099523D02*
X116689580Y-90051904D01*
X116689580Y-90051904D02*
X116737200Y-90004285D01*
X116737200Y-90004285D02*
X116784819Y-89909047D01*
X116784819Y-89909047D02*
X116784819Y-89718571D01*
X116784819Y-89718571D02*
X116737200Y-89623333D01*
X116737200Y-89623333D02*
X116689580Y-89575714D01*
X116689580Y-89575714D02*
X116594342Y-89528095D01*
X116594342Y-89528095D02*
X116356247Y-89528095D01*
X116356247Y-89528095D02*
X116261009Y-89575714D01*
X116261009Y-89575714D02*
X116213390Y-89623333D01*
X116213390Y-89623333D02*
X116165771Y-89718571D01*
X116165771Y-89718571D02*
X116165771Y-89909047D01*
X116165771Y-89909047D02*
X116213390Y-90004285D01*
X116213390Y-90004285D02*
X116261009Y-90051904D01*
X116261009Y-90051904D02*
X116356247Y-90099523D01*
X161144819Y-75329523D02*
X161859104Y-75329523D01*
X161859104Y-75329523D02*
X162001961Y-75377142D01*
X162001961Y-75377142D02*
X162097200Y-75472380D01*
X162097200Y-75472380D02*
X162144819Y-75615237D01*
X162144819Y-75615237D02*
X162144819Y-75710475D01*
X162144819Y-74329523D02*
X162144819Y-74900951D01*
X162144819Y-74615237D02*
X161144819Y-74615237D01*
X161144819Y-74615237D02*
X161287676Y-74710475D01*
X161287676Y-74710475D02*
X161382914Y-74805713D01*
X161382914Y-74805713D02*
X161430533Y-74900951D01*
X162144819Y-73377142D02*
X162144819Y-73948570D01*
X162144819Y-73662856D02*
X161144819Y-73662856D01*
X161144819Y-73662856D02*
X161287676Y-73758094D01*
X161287676Y-73758094D02*
X161382914Y-73853332D01*
X161382914Y-73853332D02*
X161430533Y-73948570D01*
X144143333Y-67734819D02*
X143810000Y-67258628D01*
X143571905Y-67734819D02*
X143571905Y-66734819D01*
X143571905Y-66734819D02*
X143952857Y-66734819D01*
X143952857Y-66734819D02*
X144048095Y-66782438D01*
X144048095Y-66782438D02*
X144095714Y-66830057D01*
X144095714Y-66830057D02*
X144143333Y-66925295D01*
X144143333Y-66925295D02*
X144143333Y-67068152D01*
X144143333Y-67068152D02*
X144095714Y-67163390D01*
X144095714Y-67163390D02*
X144048095Y-67211009D01*
X144048095Y-67211009D02*
X143952857Y-67258628D01*
X143952857Y-67258628D02*
X143571905Y-67258628D01*
X145048095Y-66734819D02*
X144571905Y-66734819D01*
X144571905Y-66734819D02*
X144524286Y-67211009D01*
X144524286Y-67211009D02*
X144571905Y-67163390D01*
X144571905Y-67163390D02*
X144667143Y-67115771D01*
X144667143Y-67115771D02*
X144905238Y-67115771D01*
X144905238Y-67115771D02*
X145000476Y-67163390D01*
X145000476Y-67163390D02*
X145048095Y-67211009D01*
X145048095Y-67211009D02*
X145095714Y-67306247D01*
X145095714Y-67306247D02*
X145095714Y-67544342D01*
X145095714Y-67544342D02*
X145048095Y-67639580D01*
X145048095Y-67639580D02*
X145000476Y-67687200D01*
X145000476Y-67687200D02*
X144905238Y-67734819D01*
X144905238Y-67734819D02*
X144667143Y-67734819D01*
X144667143Y-67734819D02*
X144571905Y-67687200D01*
X144571905Y-67687200D02*
X144524286Y-67639580D01*
X148362835Y-74387271D02*
X148410455Y-74434890D01*
X148410455Y-74434890D02*
X148458074Y-74577747D01*
X148458074Y-74577747D02*
X148458074Y-74672985D01*
X148458074Y-74672985D02*
X148410455Y-74815842D01*
X148410455Y-74815842D02*
X148315216Y-74911080D01*
X148315216Y-74911080D02*
X148219978Y-74958699D01*
X148219978Y-74958699D02*
X148029502Y-75006318D01*
X148029502Y-75006318D02*
X147886645Y-75006318D01*
X147886645Y-75006318D02*
X147696169Y-74958699D01*
X147696169Y-74958699D02*
X147600931Y-74911080D01*
X147600931Y-74911080D02*
X147505693Y-74815842D01*
X147505693Y-74815842D02*
X147458074Y-74672985D01*
X147458074Y-74672985D02*
X147458074Y-74577747D01*
X147458074Y-74577747D02*
X147505693Y-74434890D01*
X147505693Y-74434890D02*
X147553312Y-74387271D01*
X148458074Y-73434890D02*
X148458074Y-74006318D01*
X148458074Y-73720604D02*
X147458074Y-73720604D01*
X147458074Y-73720604D02*
X147600931Y-73815842D01*
X147600931Y-73815842D02*
X147696169Y-73911080D01*
X147696169Y-73911080D02*
X147743788Y-74006318D01*
X125717142Y-71954819D02*
X125383809Y-71478628D01*
X125145714Y-71954819D02*
X125145714Y-70954819D01*
X125145714Y-70954819D02*
X125526666Y-70954819D01*
X125526666Y-70954819D02*
X125621904Y-71002438D01*
X125621904Y-71002438D02*
X125669523Y-71050057D01*
X125669523Y-71050057D02*
X125717142Y-71145295D01*
X125717142Y-71145295D02*
X125717142Y-71288152D01*
X125717142Y-71288152D02*
X125669523Y-71383390D01*
X125669523Y-71383390D02*
X125621904Y-71431009D01*
X125621904Y-71431009D02*
X125526666Y-71478628D01*
X125526666Y-71478628D02*
X125145714Y-71478628D01*
X126098095Y-71050057D02*
X126145714Y-71002438D01*
X126145714Y-71002438D02*
X126240952Y-70954819D01*
X126240952Y-70954819D02*
X126479047Y-70954819D01*
X126479047Y-70954819D02*
X126574285Y-71002438D01*
X126574285Y-71002438D02*
X126621904Y-71050057D01*
X126621904Y-71050057D02*
X126669523Y-71145295D01*
X126669523Y-71145295D02*
X126669523Y-71240533D01*
X126669523Y-71240533D02*
X126621904Y-71383390D01*
X126621904Y-71383390D02*
X126050476Y-71954819D01*
X126050476Y-71954819D02*
X126669523Y-71954819D01*
X127526666Y-71288152D02*
X127526666Y-71954819D01*
X127288571Y-70907200D02*
X127050476Y-71621485D01*
X127050476Y-71621485D02*
X127669523Y-71621485D01*
X131647142Y-54544819D02*
X131313809Y-54068628D01*
X131075714Y-54544819D02*
X131075714Y-53544819D01*
X131075714Y-53544819D02*
X131456666Y-53544819D01*
X131456666Y-53544819D02*
X131551904Y-53592438D01*
X131551904Y-53592438D02*
X131599523Y-53640057D01*
X131599523Y-53640057D02*
X131647142Y-53735295D01*
X131647142Y-53735295D02*
X131647142Y-53878152D01*
X131647142Y-53878152D02*
X131599523Y-53973390D01*
X131599523Y-53973390D02*
X131551904Y-54021009D01*
X131551904Y-54021009D02*
X131456666Y-54068628D01*
X131456666Y-54068628D02*
X131075714Y-54068628D01*
X132599523Y-54544819D02*
X132028095Y-54544819D01*
X132313809Y-54544819D02*
X132313809Y-53544819D01*
X132313809Y-53544819D02*
X132218571Y-53687676D01*
X132218571Y-53687676D02*
X132123333Y-53782914D01*
X132123333Y-53782914D02*
X132028095Y-53830533D01*
X132980476Y-53640057D02*
X133028095Y-53592438D01*
X133028095Y-53592438D02*
X133123333Y-53544819D01*
X133123333Y-53544819D02*
X133361428Y-53544819D01*
X133361428Y-53544819D02*
X133456666Y-53592438D01*
X133456666Y-53592438D02*
X133504285Y-53640057D01*
X133504285Y-53640057D02*
X133551904Y-53735295D01*
X133551904Y-53735295D02*
X133551904Y-53830533D01*
X133551904Y-53830533D02*
X133504285Y-53973390D01*
X133504285Y-53973390D02*
X132932857Y-54544819D01*
X132932857Y-54544819D02*
X133551904Y-54544819D01*
X159126667Y-56027200D02*
X159269524Y-56074819D01*
X159269524Y-56074819D02*
X159507619Y-56074819D01*
X159507619Y-56074819D02*
X159602857Y-56027200D01*
X159602857Y-56027200D02*
X159650476Y-55979580D01*
X159650476Y-55979580D02*
X159698095Y-55884342D01*
X159698095Y-55884342D02*
X159698095Y-55789104D01*
X159698095Y-55789104D02*
X159650476Y-55693866D01*
X159650476Y-55693866D02*
X159602857Y-55646247D01*
X159602857Y-55646247D02*
X159507619Y-55598628D01*
X159507619Y-55598628D02*
X159317143Y-55551009D01*
X159317143Y-55551009D02*
X159221905Y-55503390D01*
X159221905Y-55503390D02*
X159174286Y-55455771D01*
X159174286Y-55455771D02*
X159126667Y-55360533D01*
X159126667Y-55360533D02*
X159126667Y-55265295D01*
X159126667Y-55265295D02*
X159174286Y-55170057D01*
X159174286Y-55170057D02*
X159221905Y-55122438D01*
X159221905Y-55122438D02*
X159317143Y-55074819D01*
X159317143Y-55074819D02*
X159555238Y-55074819D01*
X159555238Y-55074819D02*
X159698095Y-55122438D01*
X160031429Y-55074819D02*
X160269524Y-56074819D01*
X160269524Y-56074819D02*
X160460000Y-55360533D01*
X160460000Y-55360533D02*
X160650476Y-56074819D01*
X160650476Y-56074819D02*
X160888572Y-55074819D01*
X161793333Y-56074819D02*
X161221905Y-56074819D01*
X161507619Y-56074819D02*
X161507619Y-55074819D01*
X161507619Y-55074819D02*
X161412381Y-55217676D01*
X161412381Y-55217676D02*
X161317143Y-55312914D01*
X161317143Y-55312914D02*
X161221905Y-55360533D01*
X131627142Y-67674819D02*
X131293809Y-67198628D01*
X131055714Y-67674819D02*
X131055714Y-66674819D01*
X131055714Y-66674819D02*
X131436666Y-66674819D01*
X131436666Y-66674819D02*
X131531904Y-66722438D01*
X131531904Y-66722438D02*
X131579523Y-66770057D01*
X131579523Y-66770057D02*
X131627142Y-66865295D01*
X131627142Y-66865295D02*
X131627142Y-67008152D01*
X131627142Y-67008152D02*
X131579523Y-67103390D01*
X131579523Y-67103390D02*
X131531904Y-67151009D01*
X131531904Y-67151009D02*
X131436666Y-67198628D01*
X131436666Y-67198628D02*
X131055714Y-67198628D01*
X132579523Y-67674819D02*
X132008095Y-67674819D01*
X132293809Y-67674819D02*
X132293809Y-66674819D01*
X132293809Y-66674819D02*
X132198571Y-66817676D01*
X132198571Y-66817676D02*
X132103333Y-66912914D01*
X132103333Y-66912914D02*
X132008095Y-66960533D01*
X133531904Y-67674819D02*
X132960476Y-67674819D01*
X133246190Y-67674819D02*
X133246190Y-66674819D01*
X133246190Y-66674819D02*
X133150952Y-66817676D01*
X133150952Y-66817676D02*
X133055714Y-66912914D01*
X133055714Y-66912914D02*
X132960476Y-66960533D01*
X111527142Y-54704819D02*
X111193809Y-54228628D01*
X110955714Y-54704819D02*
X110955714Y-53704819D01*
X110955714Y-53704819D02*
X111336666Y-53704819D01*
X111336666Y-53704819D02*
X111431904Y-53752438D01*
X111431904Y-53752438D02*
X111479523Y-53800057D01*
X111479523Y-53800057D02*
X111527142Y-53895295D01*
X111527142Y-53895295D02*
X111527142Y-54038152D01*
X111527142Y-54038152D02*
X111479523Y-54133390D01*
X111479523Y-54133390D02*
X111431904Y-54181009D01*
X111431904Y-54181009D02*
X111336666Y-54228628D01*
X111336666Y-54228628D02*
X110955714Y-54228628D01*
X111908095Y-53800057D02*
X111955714Y-53752438D01*
X111955714Y-53752438D02*
X112050952Y-53704819D01*
X112050952Y-53704819D02*
X112289047Y-53704819D01*
X112289047Y-53704819D02*
X112384285Y-53752438D01*
X112384285Y-53752438D02*
X112431904Y-53800057D01*
X112431904Y-53800057D02*
X112479523Y-53895295D01*
X112479523Y-53895295D02*
X112479523Y-53990533D01*
X112479523Y-53990533D02*
X112431904Y-54133390D01*
X112431904Y-54133390D02*
X111860476Y-54704819D01*
X111860476Y-54704819D02*
X112479523Y-54704819D01*
X112860476Y-53800057D02*
X112908095Y-53752438D01*
X112908095Y-53752438D02*
X113003333Y-53704819D01*
X113003333Y-53704819D02*
X113241428Y-53704819D01*
X113241428Y-53704819D02*
X113336666Y-53752438D01*
X113336666Y-53752438D02*
X113384285Y-53800057D01*
X113384285Y-53800057D02*
X113431904Y-53895295D01*
X113431904Y-53895295D02*
X113431904Y-53990533D01*
X113431904Y-53990533D02*
X113384285Y-54133390D01*
X113384285Y-54133390D02*
X112812857Y-54704819D01*
X112812857Y-54704819D02*
X113431904Y-54704819D01*
X152940476Y-91874819D02*
X152940476Y-92589104D01*
X152940476Y-92589104D02*
X152892857Y-92731961D01*
X152892857Y-92731961D02*
X152797619Y-92827200D01*
X152797619Y-92827200D02*
X152654762Y-92874819D01*
X152654762Y-92874819D02*
X152559524Y-92874819D01*
X153940476Y-92874819D02*
X153369048Y-92874819D01*
X153654762Y-92874819D02*
X153654762Y-91874819D01*
X153654762Y-91874819D02*
X153559524Y-92017676D01*
X153559524Y-92017676D02*
X153464286Y-92112914D01*
X153464286Y-92112914D02*
X153369048Y-92160533D01*
X154321429Y-91970057D02*
X154369048Y-91922438D01*
X154369048Y-91922438D02*
X154464286Y-91874819D01*
X154464286Y-91874819D02*
X154702381Y-91874819D01*
X154702381Y-91874819D02*
X154797619Y-91922438D01*
X154797619Y-91922438D02*
X154845238Y-91970057D01*
X154845238Y-91970057D02*
X154892857Y-92065295D01*
X154892857Y-92065295D02*
X154892857Y-92160533D01*
X154892857Y-92160533D02*
X154845238Y-92303390D01*
X154845238Y-92303390D02*
X154273810Y-92874819D01*
X154273810Y-92874819D02*
X154892857Y-92874819D01*
X152033333Y-59604819D02*
X151700000Y-59128628D01*
X151461905Y-59604819D02*
X151461905Y-58604819D01*
X151461905Y-58604819D02*
X151842857Y-58604819D01*
X151842857Y-58604819D02*
X151938095Y-58652438D01*
X151938095Y-58652438D02*
X151985714Y-58700057D01*
X151985714Y-58700057D02*
X152033333Y-58795295D01*
X152033333Y-58795295D02*
X152033333Y-58938152D01*
X152033333Y-58938152D02*
X151985714Y-59033390D01*
X151985714Y-59033390D02*
X151938095Y-59081009D01*
X151938095Y-59081009D02*
X151842857Y-59128628D01*
X151842857Y-59128628D02*
X151461905Y-59128628D01*
X152985714Y-59604819D02*
X152414286Y-59604819D01*
X152700000Y-59604819D02*
X152700000Y-58604819D01*
X152700000Y-58604819D02*
X152604762Y-58747676D01*
X152604762Y-58747676D02*
X152509524Y-58842914D01*
X152509524Y-58842914D02*
X152414286Y-58890533D01*
X141634819Y-70802857D02*
X141158628Y-71136190D01*
X141634819Y-71374285D02*
X140634819Y-71374285D01*
X140634819Y-71374285D02*
X140634819Y-70993333D01*
X140634819Y-70993333D02*
X140682438Y-70898095D01*
X140682438Y-70898095D02*
X140730057Y-70850476D01*
X140730057Y-70850476D02*
X140825295Y-70802857D01*
X140825295Y-70802857D02*
X140968152Y-70802857D01*
X140968152Y-70802857D02*
X141063390Y-70850476D01*
X141063390Y-70850476D02*
X141111009Y-70898095D01*
X141111009Y-70898095D02*
X141158628Y-70993333D01*
X141158628Y-70993333D02*
X141158628Y-71374285D01*
X140730057Y-70421904D02*
X140682438Y-70374285D01*
X140682438Y-70374285D02*
X140634819Y-70279047D01*
X140634819Y-70279047D02*
X140634819Y-70040952D01*
X140634819Y-70040952D02*
X140682438Y-69945714D01*
X140682438Y-69945714D02*
X140730057Y-69898095D01*
X140730057Y-69898095D02*
X140825295Y-69850476D01*
X140825295Y-69850476D02*
X140920533Y-69850476D01*
X140920533Y-69850476D02*
X141063390Y-69898095D01*
X141063390Y-69898095D02*
X141634819Y-70469523D01*
X141634819Y-70469523D02*
X141634819Y-69850476D01*
X140634819Y-69517142D02*
X140634819Y-68850476D01*
X140634819Y-68850476D02*
X141634819Y-69279047D01*
X119457142Y-67784819D02*
X119123809Y-67308628D01*
X118885714Y-67784819D02*
X118885714Y-66784819D01*
X118885714Y-66784819D02*
X119266666Y-66784819D01*
X119266666Y-66784819D02*
X119361904Y-66832438D01*
X119361904Y-66832438D02*
X119409523Y-66880057D01*
X119409523Y-66880057D02*
X119457142Y-66975295D01*
X119457142Y-66975295D02*
X119457142Y-67118152D01*
X119457142Y-67118152D02*
X119409523Y-67213390D01*
X119409523Y-67213390D02*
X119361904Y-67261009D01*
X119361904Y-67261009D02*
X119266666Y-67308628D01*
X119266666Y-67308628D02*
X118885714Y-67308628D01*
X120409523Y-67784819D02*
X119838095Y-67784819D01*
X120123809Y-67784819D02*
X120123809Y-66784819D01*
X120123809Y-66784819D02*
X120028571Y-66927676D01*
X120028571Y-66927676D02*
X119933333Y-67022914D01*
X119933333Y-67022914D02*
X119838095Y-67070533D01*
X120742857Y-66784819D02*
X121409523Y-66784819D01*
X121409523Y-66784819D02*
X120980952Y-67784819D01*
X122144819Y-77152857D02*
X121668628Y-77486190D01*
X122144819Y-77724285D02*
X121144819Y-77724285D01*
X121144819Y-77724285D02*
X121144819Y-77343333D01*
X121144819Y-77343333D02*
X121192438Y-77248095D01*
X121192438Y-77248095D02*
X121240057Y-77200476D01*
X121240057Y-77200476D02*
X121335295Y-77152857D01*
X121335295Y-77152857D02*
X121478152Y-77152857D01*
X121478152Y-77152857D02*
X121573390Y-77200476D01*
X121573390Y-77200476D02*
X121621009Y-77248095D01*
X121621009Y-77248095D02*
X121668628Y-77343333D01*
X121668628Y-77343333D02*
X121668628Y-77724285D01*
X121240057Y-76771904D02*
X121192438Y-76724285D01*
X121192438Y-76724285D02*
X121144819Y-76629047D01*
X121144819Y-76629047D02*
X121144819Y-76390952D01*
X121144819Y-76390952D02*
X121192438Y-76295714D01*
X121192438Y-76295714D02*
X121240057Y-76248095D01*
X121240057Y-76248095D02*
X121335295Y-76200476D01*
X121335295Y-76200476D02*
X121430533Y-76200476D01*
X121430533Y-76200476D02*
X121573390Y-76248095D01*
X121573390Y-76248095D02*
X122144819Y-76819523D01*
X122144819Y-76819523D02*
X122144819Y-76200476D01*
X121144819Y-75295714D02*
X121144819Y-75771904D01*
X121144819Y-75771904D02*
X121621009Y-75819523D01*
X121621009Y-75819523D02*
X121573390Y-75771904D01*
X121573390Y-75771904D02*
X121525771Y-75676666D01*
X121525771Y-75676666D02*
X121525771Y-75438571D01*
X121525771Y-75438571D02*
X121573390Y-75343333D01*
X121573390Y-75343333D02*
X121621009Y-75295714D01*
X121621009Y-75295714D02*
X121716247Y-75248095D01*
X121716247Y-75248095D02*
X121954342Y-75248095D01*
X121954342Y-75248095D02*
X122049580Y-75295714D01*
X122049580Y-75295714D02*
X122097200Y-75343333D01*
X122097200Y-75343333D02*
X122144819Y-75438571D01*
X122144819Y-75438571D02*
X122144819Y-75676666D01*
X122144819Y-75676666D02*
X122097200Y-75771904D01*
X122097200Y-75771904D02*
X122049580Y-75819523D01*
X123577142Y-54574819D02*
X123243809Y-54098628D01*
X123005714Y-54574819D02*
X123005714Y-53574819D01*
X123005714Y-53574819D02*
X123386666Y-53574819D01*
X123386666Y-53574819D02*
X123481904Y-53622438D01*
X123481904Y-53622438D02*
X123529523Y-53670057D01*
X123529523Y-53670057D02*
X123577142Y-53765295D01*
X123577142Y-53765295D02*
X123577142Y-53908152D01*
X123577142Y-53908152D02*
X123529523Y-54003390D01*
X123529523Y-54003390D02*
X123481904Y-54051009D01*
X123481904Y-54051009D02*
X123386666Y-54098628D01*
X123386666Y-54098628D02*
X123005714Y-54098628D01*
X124529523Y-54574819D02*
X123958095Y-54574819D01*
X124243809Y-54574819D02*
X124243809Y-53574819D01*
X124243809Y-53574819D02*
X124148571Y-53717676D01*
X124148571Y-53717676D02*
X124053333Y-53812914D01*
X124053333Y-53812914D02*
X123958095Y-53860533D01*
X125386666Y-53574819D02*
X125196190Y-53574819D01*
X125196190Y-53574819D02*
X125100952Y-53622438D01*
X125100952Y-53622438D02*
X125053333Y-53670057D01*
X125053333Y-53670057D02*
X124958095Y-53812914D01*
X124958095Y-53812914D02*
X124910476Y-54003390D01*
X124910476Y-54003390D02*
X124910476Y-54384342D01*
X124910476Y-54384342D02*
X124958095Y-54479580D01*
X124958095Y-54479580D02*
X125005714Y-54527200D01*
X125005714Y-54527200D02*
X125100952Y-54574819D01*
X125100952Y-54574819D02*
X125291428Y-54574819D01*
X125291428Y-54574819D02*
X125386666Y-54527200D01*
X125386666Y-54527200D02*
X125434285Y-54479580D01*
X125434285Y-54479580D02*
X125481904Y-54384342D01*
X125481904Y-54384342D02*
X125481904Y-54146247D01*
X125481904Y-54146247D02*
X125434285Y-54051009D01*
X125434285Y-54051009D02*
X125386666Y-54003390D01*
X125386666Y-54003390D02*
X125291428Y-53955771D01*
X125291428Y-53955771D02*
X125100952Y-53955771D01*
X125100952Y-53955771D02*
X125005714Y-54003390D01*
X125005714Y-54003390D02*
X124958095Y-54051009D01*
X124958095Y-54051009D02*
X124910476Y-54146247D01*
X131744819Y-89825238D02*
X131268628Y-90158571D01*
X131744819Y-90396666D02*
X130744819Y-90396666D01*
X130744819Y-90396666D02*
X130744819Y-90015714D01*
X130744819Y-90015714D02*
X130792438Y-89920476D01*
X130792438Y-89920476D02*
X130840057Y-89872857D01*
X130840057Y-89872857D02*
X130935295Y-89825238D01*
X130935295Y-89825238D02*
X131078152Y-89825238D01*
X131078152Y-89825238D02*
X131173390Y-89872857D01*
X131173390Y-89872857D02*
X131221009Y-89920476D01*
X131221009Y-89920476D02*
X131268628Y-90015714D01*
X131268628Y-90015714D02*
X131268628Y-90396666D01*
X130744819Y-89539523D02*
X131744819Y-89206190D01*
X131744819Y-89206190D02*
X130744819Y-88872857D01*
X131744819Y-88015714D02*
X131744819Y-88587142D01*
X131744819Y-88301428D02*
X130744819Y-88301428D01*
X130744819Y-88301428D02*
X130887676Y-88396666D01*
X130887676Y-88396666D02*
X130982914Y-88491904D01*
X130982914Y-88491904D02*
X131030533Y-88587142D01*
X152023333Y-67764819D02*
X151690000Y-67288628D01*
X151451905Y-67764819D02*
X151451905Y-66764819D01*
X151451905Y-66764819D02*
X151832857Y-66764819D01*
X151832857Y-66764819D02*
X151928095Y-66812438D01*
X151928095Y-66812438D02*
X151975714Y-66860057D01*
X151975714Y-66860057D02*
X152023333Y-66955295D01*
X152023333Y-66955295D02*
X152023333Y-67098152D01*
X152023333Y-67098152D02*
X151975714Y-67193390D01*
X151975714Y-67193390D02*
X151928095Y-67241009D01*
X151928095Y-67241009D02*
X151832857Y-67288628D01*
X151832857Y-67288628D02*
X151451905Y-67288628D01*
X152404286Y-66860057D02*
X152451905Y-66812438D01*
X152451905Y-66812438D02*
X152547143Y-66764819D01*
X152547143Y-66764819D02*
X152785238Y-66764819D01*
X152785238Y-66764819D02*
X152880476Y-66812438D01*
X152880476Y-66812438D02*
X152928095Y-66860057D01*
X152928095Y-66860057D02*
X152975714Y-66955295D01*
X152975714Y-66955295D02*
X152975714Y-67050533D01*
X152975714Y-67050533D02*
X152928095Y-67193390D01*
X152928095Y-67193390D02*
X152356667Y-67764819D01*
X152356667Y-67764819D02*
X152975714Y-67764819D01*
X136458095Y-74774819D02*
X136458095Y-75584342D01*
X136458095Y-75584342D02*
X136505714Y-75679580D01*
X136505714Y-75679580D02*
X136553333Y-75727200D01*
X136553333Y-75727200D02*
X136648571Y-75774819D01*
X136648571Y-75774819D02*
X136839047Y-75774819D01*
X136839047Y-75774819D02*
X136934285Y-75727200D01*
X136934285Y-75727200D02*
X136981904Y-75679580D01*
X136981904Y-75679580D02*
X137029523Y-75584342D01*
X137029523Y-75584342D02*
X137029523Y-74774819D01*
X138029523Y-75774819D02*
X137458095Y-75774819D01*
X137743809Y-75774819D02*
X137743809Y-74774819D01*
X137743809Y-74774819D02*
X137648571Y-74917676D01*
X137648571Y-74917676D02*
X137553333Y-75012914D01*
X137553333Y-75012914D02*
X137458095Y-75060533D01*
X126706666Y-88004819D02*
X126706666Y-88719104D01*
X126706666Y-88719104D02*
X126659047Y-88861961D01*
X126659047Y-88861961D02*
X126563809Y-88957200D01*
X126563809Y-88957200D02*
X126420952Y-89004819D01*
X126420952Y-89004819D02*
X126325714Y-89004819D01*
X127230476Y-89004819D02*
X127420952Y-89004819D01*
X127420952Y-89004819D02*
X127516190Y-88957200D01*
X127516190Y-88957200D02*
X127563809Y-88909580D01*
X127563809Y-88909580D02*
X127659047Y-88766723D01*
X127659047Y-88766723D02*
X127706666Y-88576247D01*
X127706666Y-88576247D02*
X127706666Y-88195295D01*
X127706666Y-88195295D02*
X127659047Y-88100057D01*
X127659047Y-88100057D02*
X127611428Y-88052438D01*
X127611428Y-88052438D02*
X127516190Y-88004819D01*
X127516190Y-88004819D02*
X127325714Y-88004819D01*
X127325714Y-88004819D02*
X127230476Y-88052438D01*
X127230476Y-88052438D02*
X127182857Y-88100057D01*
X127182857Y-88100057D02*
X127135238Y-88195295D01*
X127135238Y-88195295D02*
X127135238Y-88433390D01*
X127135238Y-88433390D02*
X127182857Y-88528628D01*
X127182857Y-88528628D02*
X127230476Y-88576247D01*
X127230476Y-88576247D02*
X127325714Y-88623866D01*
X127325714Y-88623866D02*
X127516190Y-88623866D01*
X127516190Y-88623866D02*
X127611428Y-88576247D01*
X127611428Y-88576247D02*
X127659047Y-88528628D01*
X127659047Y-88528628D02*
X127706666Y-88433390D01*
X148183333Y-67874819D02*
X147850000Y-67398628D01*
X147611905Y-67874819D02*
X147611905Y-66874819D01*
X147611905Y-66874819D02*
X147992857Y-66874819D01*
X147992857Y-66874819D02*
X148088095Y-66922438D01*
X148088095Y-66922438D02*
X148135714Y-66970057D01*
X148135714Y-66970057D02*
X148183333Y-67065295D01*
X148183333Y-67065295D02*
X148183333Y-67208152D01*
X148183333Y-67208152D02*
X148135714Y-67303390D01*
X148135714Y-67303390D02*
X148088095Y-67351009D01*
X148088095Y-67351009D02*
X147992857Y-67398628D01*
X147992857Y-67398628D02*
X147611905Y-67398628D01*
X148516667Y-66874819D02*
X149135714Y-66874819D01*
X149135714Y-66874819D02*
X148802381Y-67255771D01*
X148802381Y-67255771D02*
X148945238Y-67255771D01*
X148945238Y-67255771D02*
X149040476Y-67303390D01*
X149040476Y-67303390D02*
X149088095Y-67351009D01*
X149088095Y-67351009D02*
X149135714Y-67446247D01*
X149135714Y-67446247D02*
X149135714Y-67684342D01*
X149135714Y-67684342D02*
X149088095Y-67779580D01*
X149088095Y-67779580D02*
X149040476Y-67827200D01*
X149040476Y-67827200D02*
X148945238Y-67874819D01*
X148945238Y-67874819D02*
X148659524Y-67874819D01*
X148659524Y-67874819D02*
X148564286Y-67827200D01*
X148564286Y-67827200D02*
X148516667Y-67779580D01*
X161054819Y-88289523D02*
X161769104Y-88289523D01*
X161769104Y-88289523D02*
X161911961Y-88337142D01*
X161911961Y-88337142D02*
X162007200Y-88432380D01*
X162007200Y-88432380D02*
X162054819Y-88575237D01*
X162054819Y-88575237D02*
X162054819Y-88670475D01*
X162054819Y-87289523D02*
X162054819Y-87860951D01*
X162054819Y-87575237D02*
X161054819Y-87575237D01*
X161054819Y-87575237D02*
X161197676Y-87670475D01*
X161197676Y-87670475D02*
X161292914Y-87765713D01*
X161292914Y-87765713D02*
X161340533Y-87860951D01*
X161054819Y-86670475D02*
X161054819Y-86575237D01*
X161054819Y-86575237D02*
X161102438Y-86479999D01*
X161102438Y-86479999D02*
X161150057Y-86432380D01*
X161150057Y-86432380D02*
X161245295Y-86384761D01*
X161245295Y-86384761D02*
X161435771Y-86337142D01*
X161435771Y-86337142D02*
X161673866Y-86337142D01*
X161673866Y-86337142D02*
X161864342Y-86384761D01*
X161864342Y-86384761D02*
X161959580Y-86432380D01*
X161959580Y-86432380D02*
X162007200Y-86479999D01*
X162007200Y-86479999D02*
X162054819Y-86575237D01*
X162054819Y-86575237D02*
X162054819Y-86670475D01*
X162054819Y-86670475D02*
X162007200Y-86765713D01*
X162007200Y-86765713D02*
X161959580Y-86813332D01*
X161959580Y-86813332D02*
X161864342Y-86860951D01*
X161864342Y-86860951D02*
X161673866Y-86908570D01*
X161673866Y-86908570D02*
X161435771Y-86908570D01*
X161435771Y-86908570D02*
X161245295Y-86860951D01*
X161245295Y-86860951D02*
X161150057Y-86813332D01*
X161150057Y-86813332D02*
X161102438Y-86765713D01*
X161102438Y-86765713D02*
X161054819Y-86670475D01*
X122809819Y-84285238D02*
X122333628Y-84618571D01*
X122809819Y-84856666D02*
X121809819Y-84856666D01*
X121809819Y-84856666D02*
X121809819Y-84475714D01*
X121809819Y-84475714D02*
X121857438Y-84380476D01*
X121857438Y-84380476D02*
X121905057Y-84332857D01*
X121905057Y-84332857D02*
X122000295Y-84285238D01*
X122000295Y-84285238D02*
X122143152Y-84285238D01*
X122143152Y-84285238D02*
X122238390Y-84332857D01*
X122238390Y-84332857D02*
X122286009Y-84380476D01*
X122286009Y-84380476D02*
X122333628Y-84475714D01*
X122333628Y-84475714D02*
X122333628Y-84856666D01*
X121809819Y-83999523D02*
X122809819Y-83666190D01*
X122809819Y-83666190D02*
X121809819Y-83332857D01*
X121809819Y-83094761D02*
X121809819Y-82475714D01*
X121809819Y-82475714D02*
X122190771Y-82809047D01*
X122190771Y-82809047D02*
X122190771Y-82666190D01*
X122190771Y-82666190D02*
X122238390Y-82570952D01*
X122238390Y-82570952D02*
X122286009Y-82523333D01*
X122286009Y-82523333D02*
X122381247Y-82475714D01*
X122381247Y-82475714D02*
X122619342Y-82475714D01*
X122619342Y-82475714D02*
X122714580Y-82523333D01*
X122714580Y-82523333D02*
X122762200Y-82570952D01*
X122762200Y-82570952D02*
X122809819Y-82666190D01*
X122809819Y-82666190D02*
X122809819Y-82951904D01*
X122809819Y-82951904D02*
X122762200Y-83047142D01*
X122762200Y-83047142D02*
X122714580Y-83094761D01*
X142934819Y-89865238D02*
X142458628Y-90198571D01*
X142934819Y-90436666D02*
X141934819Y-90436666D01*
X141934819Y-90436666D02*
X141934819Y-90055714D01*
X141934819Y-90055714D02*
X141982438Y-89960476D01*
X141982438Y-89960476D02*
X142030057Y-89912857D01*
X142030057Y-89912857D02*
X142125295Y-89865238D01*
X142125295Y-89865238D02*
X142268152Y-89865238D01*
X142268152Y-89865238D02*
X142363390Y-89912857D01*
X142363390Y-89912857D02*
X142411009Y-89960476D01*
X142411009Y-89960476D02*
X142458628Y-90055714D01*
X142458628Y-90055714D02*
X142458628Y-90436666D01*
X141934819Y-89579523D02*
X142934819Y-89246190D01*
X142934819Y-89246190D02*
X141934819Y-88912857D01*
X142030057Y-88627142D02*
X141982438Y-88579523D01*
X141982438Y-88579523D02*
X141934819Y-88484285D01*
X141934819Y-88484285D02*
X141934819Y-88246190D01*
X141934819Y-88246190D02*
X141982438Y-88150952D01*
X141982438Y-88150952D02*
X142030057Y-88103333D01*
X142030057Y-88103333D02*
X142125295Y-88055714D01*
X142125295Y-88055714D02*
X142220533Y-88055714D01*
X142220533Y-88055714D02*
X142363390Y-88103333D01*
X142363390Y-88103333D02*
X142934819Y-88674761D01*
X142934819Y-88674761D02*
X142934819Y-88055714D01*
X140403333Y-54674819D02*
X140070000Y-54198628D01*
X139831905Y-54674819D02*
X139831905Y-53674819D01*
X139831905Y-53674819D02*
X140212857Y-53674819D01*
X140212857Y-53674819D02*
X140308095Y-53722438D01*
X140308095Y-53722438D02*
X140355714Y-53770057D01*
X140355714Y-53770057D02*
X140403333Y-53865295D01*
X140403333Y-53865295D02*
X140403333Y-54008152D01*
X140403333Y-54008152D02*
X140355714Y-54103390D01*
X140355714Y-54103390D02*
X140308095Y-54151009D01*
X140308095Y-54151009D02*
X140212857Y-54198628D01*
X140212857Y-54198628D02*
X139831905Y-54198628D01*
X140974762Y-54103390D02*
X140879524Y-54055771D01*
X140879524Y-54055771D02*
X140831905Y-54008152D01*
X140831905Y-54008152D02*
X140784286Y-53912914D01*
X140784286Y-53912914D02*
X140784286Y-53865295D01*
X140784286Y-53865295D02*
X140831905Y-53770057D01*
X140831905Y-53770057D02*
X140879524Y-53722438D01*
X140879524Y-53722438D02*
X140974762Y-53674819D01*
X140974762Y-53674819D02*
X141165238Y-53674819D01*
X141165238Y-53674819D02*
X141260476Y-53722438D01*
X141260476Y-53722438D02*
X141308095Y-53770057D01*
X141308095Y-53770057D02*
X141355714Y-53865295D01*
X141355714Y-53865295D02*
X141355714Y-53912914D01*
X141355714Y-53912914D02*
X141308095Y-54008152D01*
X141308095Y-54008152D02*
X141260476Y-54055771D01*
X141260476Y-54055771D02*
X141165238Y-54103390D01*
X141165238Y-54103390D02*
X140974762Y-54103390D01*
X140974762Y-54103390D02*
X140879524Y-54151009D01*
X140879524Y-54151009D02*
X140831905Y-54198628D01*
X140831905Y-54198628D02*
X140784286Y-54293866D01*
X140784286Y-54293866D02*
X140784286Y-54484342D01*
X140784286Y-54484342D02*
X140831905Y-54579580D01*
X140831905Y-54579580D02*
X140879524Y-54627200D01*
X140879524Y-54627200D02*
X140974762Y-54674819D01*
X140974762Y-54674819D02*
X141165238Y-54674819D01*
X141165238Y-54674819D02*
X141260476Y-54627200D01*
X141260476Y-54627200D02*
X141308095Y-54579580D01*
X141308095Y-54579580D02*
X141355714Y-54484342D01*
X141355714Y-54484342D02*
X141355714Y-54293866D01*
X141355714Y-54293866D02*
X141308095Y-54198628D01*
X141308095Y-54198628D02*
X141260476Y-54151009D01*
X141260476Y-54151009D02*
X141165238Y-54103390D01*
X106166666Y-71744819D02*
X106166666Y-72459104D01*
X106166666Y-72459104D02*
X106119047Y-72601961D01*
X106119047Y-72601961D02*
X106023809Y-72697200D01*
X106023809Y-72697200D02*
X105880952Y-72744819D01*
X105880952Y-72744819D02*
X105785714Y-72744819D01*
X107071428Y-71744819D02*
X106880952Y-71744819D01*
X106880952Y-71744819D02*
X106785714Y-71792438D01*
X106785714Y-71792438D02*
X106738095Y-71840057D01*
X106738095Y-71840057D02*
X106642857Y-71982914D01*
X106642857Y-71982914D02*
X106595238Y-72173390D01*
X106595238Y-72173390D02*
X106595238Y-72554342D01*
X106595238Y-72554342D02*
X106642857Y-72649580D01*
X106642857Y-72649580D02*
X106690476Y-72697200D01*
X106690476Y-72697200D02*
X106785714Y-72744819D01*
X106785714Y-72744819D02*
X106976190Y-72744819D01*
X106976190Y-72744819D02*
X107071428Y-72697200D01*
X107071428Y-72697200D02*
X107119047Y-72649580D01*
X107119047Y-72649580D02*
X107166666Y-72554342D01*
X107166666Y-72554342D02*
X107166666Y-72316247D01*
X107166666Y-72316247D02*
X107119047Y-72221009D01*
X107119047Y-72221009D02*
X107071428Y-72173390D01*
X107071428Y-72173390D02*
X106976190Y-72125771D01*
X106976190Y-72125771D02*
X106785714Y-72125771D01*
X106785714Y-72125771D02*
X106690476Y-72173390D01*
X106690476Y-72173390D02*
X106642857Y-72221009D01*
X106642857Y-72221009D02*
X106595238Y-72316247D01*
X124514819Y-70762857D02*
X124038628Y-71096190D01*
X124514819Y-71334285D02*
X123514819Y-71334285D01*
X123514819Y-71334285D02*
X123514819Y-70953333D01*
X123514819Y-70953333D02*
X123562438Y-70858095D01*
X123562438Y-70858095D02*
X123610057Y-70810476D01*
X123610057Y-70810476D02*
X123705295Y-70762857D01*
X123705295Y-70762857D02*
X123848152Y-70762857D01*
X123848152Y-70762857D02*
X123943390Y-70810476D01*
X123943390Y-70810476D02*
X123991009Y-70858095D01*
X123991009Y-70858095D02*
X124038628Y-70953333D01*
X124038628Y-70953333D02*
X124038628Y-71334285D01*
X123610057Y-70381904D02*
X123562438Y-70334285D01*
X123562438Y-70334285D02*
X123514819Y-70239047D01*
X123514819Y-70239047D02*
X123514819Y-70000952D01*
X123514819Y-70000952D02*
X123562438Y-69905714D01*
X123562438Y-69905714D02*
X123610057Y-69858095D01*
X123610057Y-69858095D02*
X123705295Y-69810476D01*
X123705295Y-69810476D02*
X123800533Y-69810476D01*
X123800533Y-69810476D02*
X123943390Y-69858095D01*
X123943390Y-69858095D02*
X124514819Y-70429523D01*
X124514819Y-70429523D02*
X124514819Y-69810476D01*
X123514819Y-69477142D02*
X123514819Y-68858095D01*
X123514819Y-68858095D02*
X123895771Y-69191428D01*
X123895771Y-69191428D02*
X123895771Y-69048571D01*
X123895771Y-69048571D02*
X123943390Y-68953333D01*
X123943390Y-68953333D02*
X123991009Y-68905714D01*
X123991009Y-68905714D02*
X124086247Y-68858095D01*
X124086247Y-68858095D02*
X124324342Y-68858095D01*
X124324342Y-68858095D02*
X124419580Y-68905714D01*
X124419580Y-68905714D02*
X124467200Y-68953333D01*
X124467200Y-68953333D02*
X124514819Y-69048571D01*
X124514819Y-69048571D02*
X124514819Y-69334285D01*
X124514819Y-69334285D02*
X124467200Y-69429523D01*
X124467200Y-69429523D02*
X124419580Y-69477142D01*
D11*
%TO.C,J1*%
X126610000Y-96130000D02*
X127940000Y-96130000D01*
X126610000Y-97460000D02*
X126610000Y-96130000D01*
X129210000Y-96130000D02*
X147050000Y-96130000D01*
X129210000Y-98790000D02*
X129210000Y-96130000D01*
X129210000Y-98790000D02*
X147050000Y-98790000D01*
X147050000Y-98790000D02*
X147050000Y-96130000D01*
%TO.C,J3*%
X149470000Y-96130000D02*
X150800000Y-96130000D01*
X149470000Y-97460000D02*
X149470000Y-96130000D01*
X152070000Y-96130000D02*
X164830000Y-96130000D01*
X152070000Y-98790000D02*
X152070000Y-96130000D01*
X152070000Y-98790000D02*
X164830000Y-98790000D01*
X164830000Y-98790000D02*
X164830000Y-96130000D01*
%TO.C,J2*%
X117466000Y-47870000D02*
X118796000Y-47870000D01*
X117466000Y-49200000D02*
X117466000Y-47870000D01*
X120066000Y-47870000D02*
X142986000Y-47870000D01*
X120066000Y-50530000D02*
X120066000Y-47870000D01*
X120066000Y-50530000D02*
X142986000Y-50530000D01*
X142986000Y-50530000D02*
X142986000Y-47870000D01*
%TO.C,J4*%
X144390000Y-47870000D02*
X145720000Y-47870000D01*
X144390000Y-49200000D02*
X144390000Y-47870000D01*
X146990000Y-47870000D02*
X164830000Y-47870000D01*
X146990000Y-50530000D02*
X146990000Y-47870000D01*
X146990000Y-50530000D02*
X164830000Y-50530000D01*
X164830000Y-50530000D02*
X164830000Y-47870000D01*
%TO.C,R9*%
X135430000Y-64263272D02*
G75*
G02*
X137270000Y-64263272I920000J1453272D01*
G01*
%TO.C,R13*%
X127230000Y-64273272D02*
G75*
G02*
X129070000Y-64273272I920000J1453272D01*
G01*
%TO.C,R14*%
X129050000Y-57166728D02*
G75*
G02*
X127210000Y-57166728I-920000J-1453272D01*
G01*
%TO.C,R18*%
X120970000Y-57216728D02*
G75*
G02*
X119130000Y-57216728I-920000J-1453272D01*
G01*
%TO.C,R4*%
X149240000Y-57236728D02*
G75*
G02*
X147400000Y-57236728I-920000J-1453272D01*
G01*
%TO.C,R15*%
X123150000Y-64263272D02*
G75*
G02*
X124990000Y-64263272I920000J1453272D01*
G01*
%TO.C,R19*%
X115160000Y-64293272D02*
G75*
G02*
X117000000Y-64293272I920000J1453272D01*
G01*
%TO.C,C2*%
X128520000Y-72730000D02*
X131260000Y-72730000D01*
X128520000Y-77970000D02*
X128520000Y-72730000D01*
X131260000Y-72730000D02*
X131260000Y-77970000D01*
X131260000Y-77970000D02*
X128520000Y-77970000D01*
%TO.C,R7*%
X139430000Y-64273272D02*
G75*
G02*
X141270000Y-64273272I920000J1453272D01*
G01*
%TO.C,R21*%
X111170000Y-64293272D02*
G75*
G02*
X113010000Y-64293272I920000J1453272D01*
G01*
%TO.C,SW2*%
X156960000Y-63050000D02*
X156960000Y-64550000D01*
X158210000Y-67050000D02*
X162710000Y-67050000D01*
X162710000Y-60550000D02*
X158210000Y-60550000D01*
X163960000Y-64550000D02*
X163960000Y-63050000D01*
%TO.C,R20*%
X117010000Y-57216728D02*
G75*
G02*
X115170000Y-57216728I-920000J-1453272D01*
G01*
%TO.C,R6*%
X145230000Y-57226728D02*
G75*
G02*
X143390000Y-57226728I-920000J-1453272D01*
G01*
%TO.C,J7*%
X151930000Y-70540000D02*
X153310000Y-70540000D01*
X151930000Y-71920000D02*
X151930000Y-70540000D01*
X151930000Y-73190000D02*
X151930000Y-78380000D01*
X151930000Y-73190000D02*
X154690000Y-73190000D01*
X151930000Y-78380000D02*
X154690000Y-78380000D01*
X154690000Y-73190000D02*
X154690000Y-78380000D01*
%TO.C,R10*%
X137190000Y-57196728D02*
G75*
G02*
X135350000Y-57196728I-920000J-1453272D01*
G01*
%TO.C,J5*%
X88350000Y-66400000D02*
X88350000Y-69060000D01*
X106190000Y-66400000D02*
X88350000Y-66400000D01*
X106190000Y-66400000D02*
X106190000Y-69060000D01*
X106190000Y-69060000D02*
X88350000Y-69060000D01*
X108790000Y-67730000D02*
X108790000Y-69060000D01*
X108790000Y-69060000D02*
X107460000Y-69060000D01*
%TO.C,R26*%
X120713272Y-91710000D02*
G75*
G02*
X120713272Y-89870000I-1453272J920000D01*
G01*
%TO.C,J11*%
X156390000Y-68330000D02*
X167390000Y-68330000D01*
X156390000Y-80330000D02*
X156390000Y-68330000D01*
X167390000Y-68330000D02*
X167390000Y-69830000D01*
X167390000Y-69830000D02*
X168590000Y-69830000D01*
X167390000Y-72330000D02*
X167390000Y-76330000D01*
X167390000Y-76330000D02*
X170390000Y-76330000D01*
X167390000Y-78830000D02*
X167390000Y-80330000D01*
X167390000Y-80330000D02*
X156390000Y-80330000D01*
X168590000Y-69830000D02*
X168590000Y-71330000D01*
X168590000Y-71330000D02*
X170390000Y-71330000D01*
X168590000Y-77330000D02*
X168590000Y-78830000D01*
X168590000Y-78830000D02*
X167390000Y-78830000D01*
X170390000Y-71330000D02*
X170390000Y-77330000D01*
X170390000Y-72330000D02*
X167390000Y-72330000D01*
X170390000Y-77330000D02*
X168590000Y-77330000D01*
%TO.C,R5*%
X143450000Y-64303272D02*
G75*
G02*
X145290000Y-64303272I920000J1453272D01*
G01*
%TO.C,C1*%
X145170000Y-75597620D02*
X142989000Y-75597620D01*
X145170000Y-75637620D02*
X142992000Y-75637620D01*
X145170000Y-75677620D02*
X142996000Y-75677620D01*
X145170000Y-75717620D02*
X143000000Y-75717620D01*
X145170000Y-75757620D02*
X143005000Y-75757620D01*
X145170000Y-75797620D02*
X143010000Y-75797620D01*
X145170000Y-75837620D02*
X143015000Y-75837620D01*
X145170000Y-75877620D02*
X143022000Y-75877620D01*
X145170000Y-75917620D02*
X143028000Y-75917620D01*
X145170000Y-75957620D02*
X143036000Y-75957620D01*
X145170000Y-75997620D02*
X143043000Y-75997620D01*
X145170000Y-76037620D02*
X143051000Y-76037620D01*
X145170000Y-76077620D02*
X143060000Y-76077620D01*
X145170000Y-76117620D02*
X143070000Y-76117620D01*
X145170000Y-76157620D02*
X143079000Y-76157620D01*
X145170000Y-76197620D02*
X143090000Y-76197620D01*
X145170000Y-76237620D02*
X143101000Y-76237620D01*
X145170000Y-76277620D02*
X143112000Y-76277620D01*
X145170000Y-76317620D02*
X143124000Y-76317620D01*
X145170000Y-76357620D02*
X143137000Y-76357620D01*
X145170000Y-76397620D02*
X143150000Y-76397620D01*
X145170000Y-76437620D02*
X143163000Y-76437620D01*
X145170000Y-76477620D02*
X143178000Y-76477620D01*
X145170000Y-76517620D02*
X143193000Y-76517620D01*
X145170000Y-76557620D02*
X143208000Y-76557620D01*
X145170000Y-76597620D02*
X143224000Y-76597620D01*
X145170000Y-76637620D02*
X143241000Y-76637620D01*
X145170000Y-76677620D02*
X143258000Y-76677620D01*
X145170000Y-76717620D02*
X143276000Y-76717620D01*
X145170000Y-76757620D02*
X143295000Y-76757620D01*
X145170000Y-76797620D02*
X143314000Y-76797620D01*
X145170000Y-76837620D02*
X143334000Y-76837620D01*
X145170000Y-76877620D02*
X143355000Y-76877620D01*
X145170000Y-76917620D02*
X143376000Y-76917620D01*
X145170000Y-76957620D02*
X143398000Y-76957620D01*
X145170000Y-76997620D02*
X143421000Y-76997620D01*
X145170000Y-77037620D02*
X143445000Y-77037620D01*
X145170000Y-77077620D02*
X143469000Y-77077620D01*
X145170000Y-77117620D02*
X143494000Y-77117620D01*
X145170000Y-77157620D02*
X143520000Y-77157620D01*
X145170000Y-77197620D02*
X143547000Y-77197620D01*
X145170000Y-77237620D02*
X143574000Y-77237620D01*
X145170000Y-77277620D02*
X143603000Y-77277620D01*
X145170000Y-77317620D02*
X143633000Y-77317620D01*
X145170000Y-77357620D02*
X143663000Y-77357620D01*
X145170000Y-77397620D02*
X143694000Y-77397620D01*
X145170000Y-77437620D02*
X143727000Y-77437620D01*
X145170000Y-77477620D02*
X143760000Y-77477620D01*
X145170000Y-77517620D02*
X143795000Y-77517620D01*
X145170000Y-77557620D02*
X143831000Y-77557620D01*
X145170000Y-77597620D02*
X143868000Y-77597620D01*
X145170000Y-77637620D02*
X143906000Y-77637620D01*
X146612000Y-78597620D02*
X145808000Y-78597620D01*
X146843000Y-78557620D02*
X145577000Y-78557620D01*
X147011000Y-78517620D02*
X145409000Y-78517620D01*
X147149000Y-78477620D02*
X145271000Y-78477620D01*
X147268000Y-78437620D02*
X145152000Y-78437620D01*
X147375000Y-78397620D02*
X145045000Y-78397620D01*
X147471000Y-78357620D02*
X144949000Y-78357620D01*
X147560000Y-78317620D02*
X144860000Y-78317620D01*
X147642000Y-78277620D02*
X144778000Y-78277620D01*
X147719000Y-78237620D02*
X144701000Y-78237620D01*
X147791000Y-78197620D02*
X144629000Y-78197620D01*
X147859000Y-78157620D02*
X144561000Y-78157620D01*
X147924000Y-78117620D02*
X144496000Y-78117620D01*
X147985000Y-78077620D02*
X144435000Y-78077620D01*
X148044000Y-78037620D02*
X144376000Y-78037620D01*
X148049000Y-71857379D02*
X148049000Y-72487379D01*
X148100000Y-77997620D02*
X144320000Y-77997620D01*
X148153000Y-77957620D02*
X144267000Y-77957620D01*
X148205000Y-77917620D02*
X144215000Y-77917620D01*
X148254000Y-77877620D02*
X144166000Y-77877620D01*
X148301000Y-77837620D02*
X144119000Y-77837620D01*
X148347000Y-77797620D02*
X144073000Y-77797620D01*
X148364000Y-72172379D02*
X147734000Y-72172379D01*
X148391000Y-77757620D02*
X144029000Y-77757620D01*
X148433000Y-77717620D02*
X143987000Y-77717620D01*
X148474000Y-77677620D02*
X143946000Y-77677620D01*
X148514000Y-77637620D02*
X147250000Y-77637620D01*
X148552000Y-77597620D02*
X147250000Y-77597620D01*
X148589000Y-77557620D02*
X147250000Y-77557620D01*
X148625000Y-77517620D02*
X147250000Y-77517620D01*
X148660000Y-77477620D02*
X147250000Y-77477620D01*
X148693000Y-77437620D02*
X147250000Y-77437620D01*
X148726000Y-77397620D02*
X147250000Y-77397620D01*
X148757000Y-77357620D02*
X147250000Y-77357620D01*
X148787000Y-77317620D02*
X147250000Y-77317620D01*
X148817000Y-77277620D02*
X147250000Y-77277620D01*
X148846000Y-77237620D02*
X147250000Y-77237620D01*
X148873000Y-77197620D02*
X147250000Y-77197620D01*
X148900000Y-77157620D02*
X147250000Y-77157620D01*
X148926000Y-77117620D02*
X147250000Y-77117620D01*
X148951000Y-77077620D02*
X147250000Y-77077620D01*
X148975000Y-77037620D02*
X147250000Y-77037620D01*
X148999000Y-76997620D02*
X147250000Y-76997620D01*
X149022000Y-76957620D02*
X147250000Y-76957620D01*
X149044000Y-76917620D02*
X147250000Y-76917620D01*
X149065000Y-76877620D02*
X147250000Y-76877620D01*
X149086000Y-76837620D02*
X147250000Y-76837620D01*
X149106000Y-76797620D02*
X147250000Y-76797620D01*
X149125000Y-76757620D02*
X147250000Y-76757620D01*
X149144000Y-76717620D02*
X147250000Y-76717620D01*
X149162000Y-76677620D02*
X147250000Y-76677620D01*
X149179000Y-76637620D02*
X147250000Y-76637620D01*
X149196000Y-76597620D02*
X147250000Y-76597620D01*
X149212000Y-76557620D02*
X147250000Y-76557620D01*
X149227000Y-76517620D02*
X147250000Y-76517620D01*
X149242000Y-76477620D02*
X147250000Y-76477620D01*
X149257000Y-76437620D02*
X147250000Y-76437620D01*
X149270000Y-76397620D02*
X147250000Y-76397620D01*
X149283000Y-76357620D02*
X147250000Y-76357620D01*
X149296000Y-76317620D02*
X147250000Y-76317620D01*
X149308000Y-76277620D02*
X147250000Y-76277620D01*
X149319000Y-76237620D02*
X147250000Y-76237620D01*
X149330000Y-76197620D02*
X147250000Y-76197620D01*
X149341000Y-76157620D02*
X147250000Y-76157620D01*
X149350000Y-76117620D02*
X147250000Y-76117620D01*
X149360000Y-76077620D02*
X147250000Y-76077620D01*
X149369000Y-76037620D02*
X147250000Y-76037620D01*
X149377000Y-75997620D02*
X147250000Y-75997620D01*
X149384000Y-75957620D02*
X147250000Y-75957620D01*
X149392000Y-75917620D02*
X147250000Y-75917620D01*
X149398000Y-75877620D02*
X147250000Y-75877620D01*
X149405000Y-75837620D02*
X147250000Y-75837620D01*
X149410000Y-75797620D02*
X147250000Y-75797620D01*
X149415000Y-75757620D02*
X147250000Y-75757620D01*
X149420000Y-75717620D02*
X147250000Y-75717620D01*
X149424000Y-75677620D02*
X147250000Y-75677620D01*
X149428000Y-75637620D02*
X147250000Y-75637620D01*
X149431000Y-75597620D02*
X147250000Y-75597620D01*
X149434000Y-75557620D02*
X142986000Y-75557620D01*
X149436000Y-75517620D02*
X142984000Y-75517620D01*
X149438000Y-75477620D02*
X142982000Y-75477620D01*
X149439000Y-75437620D02*
X142981000Y-75437620D01*
X149440000Y-75357620D02*
X142980000Y-75357620D01*
X149440000Y-75397620D02*
X142980000Y-75397620D01*
X149480000Y-75357620D02*
G75*
G02*
X142940000Y-75357620I-3270000J0D01*
G01*
X142940000Y-75357620D02*
G75*
G02*
X149480000Y-75357620I3270000J0D01*
G01*
%TO.C,R24*%
X125440000Y-75693272D02*
G75*
G02*
X127280000Y-75693272I920000J1453272D01*
G01*
%TO.C,R12*%
X133100000Y-57166728D02*
G75*
G02*
X131260000Y-57166728I-920000J-1453272D01*
G01*
%TO.C,SW1*%
X156960000Y-54870000D02*
X156960000Y-56370000D01*
X158210000Y-58870000D02*
X162710000Y-58870000D01*
X162710000Y-52370000D02*
X158210000Y-52370000D01*
X163960000Y-56370000D02*
X163960000Y-54870000D01*
%TO.C,R11*%
X131260000Y-64223272D02*
G75*
G02*
X133100000Y-64223272I920000J1453272D01*
G01*
%TO.C,R22*%
X113050000Y-57196728D02*
G75*
G02*
X111210000Y-57196728I-920000J-1453272D01*
G01*
%TO.C,J12*%
X152240000Y-88510000D02*
X152240000Y-83320000D01*
X155000000Y-83320000D02*
X152240000Y-83320000D01*
X155000000Y-88510000D02*
X152240000Y-88510000D01*
X155000000Y-88510000D02*
X155000000Y-83320000D01*
X155000000Y-89780000D02*
X155000000Y-91160000D01*
X155000000Y-91160000D02*
X153620000Y-91160000D01*
%TO.C,R1*%
X152300000Y-56123272D02*
G75*
G02*
X154140000Y-56123272I920000J1453272D01*
G01*
%TO.C,R27*%
X136726728Y-69260000D02*
G75*
G02*
X136726728Y-71100000I1453272J-920000D01*
G01*
%TO.C,R17*%
X119110000Y-64253272D02*
G75*
G02*
X120950000Y-64253272I920000J1453272D01*
G01*
%TO.C,R25*%
X118633272Y-77280000D02*
G75*
G02*
X118633272Y-75440000I-1453272J920000D01*
G01*
%TO.C,R16*%
X124990000Y-57196728D02*
G75*
G02*
X123150000Y-57196728I-920000J-1453272D01*
G01*
%TO.C,RV1*%
X129720000Y-84535000D02*
X139470000Y-84535000D01*
X129720000Y-94285000D02*
X129720000Y-84535000D01*
X139470000Y-84535000D02*
X139470000Y-94285000D01*
X139470000Y-94285000D02*
X129720000Y-94285000D01*
%TO.C,R2*%
X152340000Y-64263272D02*
G75*
G02*
X154180000Y-64263272I920000J1453272D01*
G01*
%TO.C,U1*%
X134860000Y-72840000D02*
X134860000Y-83120000D01*
X134860000Y-83120000D02*
X139360000Y-83120000D01*
X136110000Y-72840000D02*
X134860000Y-72840000D01*
X139360000Y-72840000D02*
X138110000Y-72840000D01*
X139360000Y-83120000D02*
X139360000Y-72840000D01*
X131860000Y-72780000D02*
X142360000Y-72780000D01*
X142360000Y-83180000D01*
X131860000Y-83180000D01*
X131860000Y-72780000D01*
X138110000Y-72840000D02*
G75*
G02*
X136110000Y-72840000I-1000000J0D01*
G01*
%TO.C,J9*%
X125660000Y-84900000D02*
X125660000Y-79710000D01*
X128420000Y-79710000D02*
X125660000Y-79710000D01*
X128420000Y-84900000D02*
X125660000Y-84900000D01*
X128420000Y-84900000D02*
X128420000Y-79710000D01*
X128420000Y-86170000D02*
X128420000Y-87550000D01*
X128420000Y-87550000D02*
X127040000Y-87550000D01*
%TO.C,R3*%
X149260000Y-63156728D02*
G75*
G02*
X147420000Y-63156728I-920000J-1453272D01*
G01*
%TO.C,J10*%
X156390000Y-81540000D02*
X167390000Y-81540000D01*
X156390000Y-93540000D02*
X156390000Y-81540000D01*
X167390000Y-81540000D02*
X167390000Y-83040000D01*
X167390000Y-83040000D02*
X168590000Y-83040000D01*
X167390000Y-85540000D02*
X167390000Y-89540000D01*
X167390000Y-89540000D02*
X170390000Y-89540000D01*
X167390000Y-92040000D02*
X167390000Y-93540000D01*
X167390000Y-93540000D02*
X156390000Y-93540000D01*
X168590000Y-83040000D02*
X168590000Y-84540000D01*
X168590000Y-84540000D02*
X170390000Y-84540000D01*
X168590000Y-90540000D02*
X168590000Y-92040000D01*
X168590000Y-92040000D02*
X167390000Y-92040000D01*
X170390000Y-84540000D02*
X170390000Y-90540000D01*
X170390000Y-85540000D02*
X167390000Y-85540000D01*
X170390000Y-90540000D02*
X168590000Y-90540000D01*
%TO.C,RV3*%
X114845000Y-78665000D02*
X124595000Y-78665000D01*
X114845000Y-88415000D02*
X114845000Y-78665000D01*
X124595000Y-78665000D02*
X124595000Y-88415000D01*
X124595000Y-88415000D02*
X114845000Y-88415000D01*
%TO.C,RV2*%
X140920000Y-84535000D02*
X150670000Y-84535000D01*
X140920000Y-94285000D02*
X140920000Y-84535000D01*
X150670000Y-84535000D02*
X150670000Y-94285000D01*
X150670000Y-94285000D02*
X140920000Y-94285000D01*
%TO.C,R8*%
X141290000Y-57236728D02*
G75*
G02*
X139450000Y-57236728I-920000J-1453272D01*
G01*
%TO.C,J6*%
X94520000Y-73620000D02*
X94520000Y-72240000D01*
X95900000Y-73620000D02*
X94520000Y-73620000D01*
X97170000Y-70860000D02*
X104900000Y-70860000D01*
X97170000Y-73620000D02*
X97170000Y-70860000D01*
X97170000Y-73620000D02*
X104900000Y-73620000D01*
X104900000Y-73620000D02*
X104900000Y-70860000D01*
%TO.C,R23*%
X119916728Y-69120000D02*
G75*
G02*
X119916728Y-70960000I1453272J-920000D01*
G01*
%TD*%
M02*
