%TF.GenerationSoftware,KiCad,Pcbnew,9.0.7*%
%TF.CreationDate,2026-02-04T17:11:30-07:00*%
%TF.ProjectId,Uno_Shield_DSP_Class_v2,556e6f5f-5368-4696-956c-645f4453505f,rev?*%
%TF.SameCoordinates,Original*%
%TF.FileFunction,Legend,Bot*%
%TF.FilePolarity,Positive*%
%FSLAX46Y46*%
G04 Gerber Fmt 4.6, Leading zero omitted, Abs format (unit mm)*
G04 Created by KiCad (PCBNEW 9.0.7) date 2026-02-04 17:11:30*
%MOMM*%
%LPD*%
G01*
G04 APERTURE LIST*
%ADD10C,0.150000*%
%ADD11C,0.000000*%
G04 APERTURE END LIST*
D10*
G36*
X87039589Y-97476218D02*
G01*
X87117615Y-97554245D01*
X87199493Y-97718000D01*
X87199493Y-98158780D01*
X87117615Y-98322534D01*
X87039589Y-98400561D01*
X86875836Y-98482438D01*
X86530293Y-98482438D01*
X86366539Y-98400561D01*
X86288513Y-98322534D01*
X86206636Y-98158780D01*
X86206636Y-97718000D01*
X86288513Y-97554245D01*
X86366539Y-97476218D01*
X86530293Y-97394342D01*
X86875836Y-97394342D01*
X87039589Y-97476218D01*
G37*
G36*
X90753876Y-96714315D02*
G01*
X90831902Y-96792341D01*
X90918014Y-96964566D01*
X91009017Y-97328576D01*
X91009017Y-97786299D01*
X90918014Y-98150309D01*
X90831901Y-98322534D01*
X90753875Y-98400561D01*
X90590122Y-98482438D01*
X90435055Y-98482438D01*
X90271301Y-98400561D01*
X90193275Y-98322534D01*
X90107162Y-98150309D01*
X90016160Y-97786299D01*
X90016160Y-97328576D01*
X90107162Y-96964566D01*
X90193275Y-96792341D01*
X90271301Y-96714315D01*
X90435055Y-96632438D01*
X90590122Y-96632438D01*
X90753876Y-96714315D01*
G37*
G36*
X96342351Y-97530057D02*
G01*
X95673151Y-97530057D01*
X95509397Y-97448180D01*
X95431371Y-97370153D01*
X95349494Y-97206399D01*
X95349494Y-96956095D01*
X95431371Y-96792341D01*
X95509397Y-96714315D01*
X95673151Y-96632438D01*
X96342351Y-96632438D01*
X96342351Y-97530057D01*
G37*
G36*
X89009017Y-95262550D02*
G01*
X88619997Y-95262550D01*
X88362626Y-95176760D01*
X88193275Y-95007408D01*
X88107162Y-94835183D01*
X88016160Y-94471173D01*
X88016160Y-94203926D01*
X88107162Y-93839916D01*
X88193275Y-93667691D01*
X88362625Y-93498340D01*
X88619997Y-93412550D01*
X89009017Y-93412550D01*
X89009017Y-95262550D01*
G37*
G36*
X90944352Y-93494427D02*
G01*
X91111532Y-93661607D01*
X91199493Y-94013450D01*
X91199493Y-94661649D01*
X91111532Y-95013491D01*
X90944351Y-95180673D01*
X90780598Y-95262550D01*
X90435055Y-95262550D01*
X90271301Y-95180673D01*
X90104120Y-95013491D01*
X90016160Y-94661649D01*
X90016160Y-94013450D01*
X90104120Y-93661607D01*
X90271301Y-93494427D01*
X90435055Y-93412550D01*
X90780598Y-93412550D01*
X90944352Y-93494427D01*
G37*
G36*
X93104255Y-94310169D02*
G01*
X92435055Y-94310169D01*
X92271301Y-94228292D01*
X92193275Y-94150265D01*
X92111398Y-93986511D01*
X92111398Y-93736207D01*
X92193275Y-93572453D01*
X92271301Y-93494427D01*
X92435055Y-93412550D01*
X93104255Y-93412550D01*
X93104255Y-94310169D01*
G37*
G36*
X106151876Y-94310169D02*
G01*
X105482676Y-94310169D01*
X105318922Y-94228292D01*
X105240896Y-94150265D01*
X105159019Y-93986511D01*
X105159019Y-93736207D01*
X105240896Y-93572453D01*
X105318922Y-93494427D01*
X105482676Y-93412550D01*
X106151876Y-93412550D01*
X106151876Y-94310169D01*
G37*
G36*
X106524098Y-98854660D02*
G01*
X85834414Y-98854660D01*
X85834414Y-97700295D01*
X86056636Y-97700295D01*
X86056636Y-98176485D01*
X86058077Y-98191117D01*
X86059108Y-98193606D01*
X86059299Y-98196294D01*
X86064554Y-98210026D01*
X86159792Y-98400502D01*
X86163754Y-98406796D01*
X86164513Y-98408628D01*
X86166206Y-98410690D01*
X86167625Y-98412945D01*
X86169120Y-98414241D01*
X86173841Y-98419994D01*
X86269079Y-98515233D01*
X86274829Y-98519953D01*
X86276128Y-98521450D01*
X86278382Y-98522869D01*
X86280444Y-98524561D01*
X86282276Y-98525319D01*
X86288571Y-98529282D01*
X86479047Y-98624520D01*
X86492779Y-98629775D01*
X86495466Y-98629965D01*
X86497956Y-98630997D01*
X86512588Y-98632438D01*
X86893541Y-98632438D01*
X86908173Y-98630997D01*
X86910662Y-98629965D01*
X86913350Y-98629775D01*
X86927082Y-98624520D01*
X87117558Y-98529282D01*
X87123854Y-98525318D01*
X87125685Y-98524560D01*
X87127746Y-98522868D01*
X87130001Y-98521449D01*
X87131298Y-98519953D01*
X87137050Y-98515233D01*
X87232289Y-98419993D01*
X87237006Y-98414244D01*
X87238505Y-98412945D01*
X87239926Y-98410686D01*
X87241616Y-98408628D01*
X87242373Y-98406798D01*
X87246337Y-98400502D01*
X87341575Y-98210026D01*
X87346830Y-98196294D01*
X87347020Y-98193606D01*
X87348052Y-98191117D01*
X87349493Y-98176485D01*
X87349493Y-97414580D01*
X87349241Y-97412026D01*
X87349404Y-97410934D01*
X87348594Y-97405460D01*
X87348052Y-97399948D01*
X87347629Y-97398926D01*
X87347254Y-97396390D01*
X87252016Y-97015438D01*
X87248935Y-97006815D01*
X87248576Y-97004999D01*
X87247697Y-97003352D01*
X87247069Y-97001592D01*
X87245964Y-97000101D01*
X87241658Y-96992025D01*
X87205902Y-96938390D01*
X87961398Y-96938390D01*
X87961398Y-97128866D01*
X87962127Y-97136271D01*
X87961987Y-97138246D01*
X87962577Y-97140843D01*
X87962839Y-97143498D01*
X87963597Y-97145329D01*
X87965247Y-97152583D01*
X88060485Y-97438297D01*
X88066479Y-97451723D01*
X88068245Y-97453759D01*
X88069276Y-97456248D01*
X88078603Y-97467613D01*
X89093427Y-98482438D01*
X88036398Y-98482438D01*
X88021766Y-98483879D01*
X87994730Y-98495078D01*
X87974038Y-98515770D01*
X87962839Y-98542806D01*
X87962839Y-98572070D01*
X87974038Y-98599106D01*
X87994730Y-98619798D01*
X88021766Y-98630997D01*
X88036398Y-98632438D01*
X89274493Y-98632438D01*
X89289125Y-98630997D01*
X89316161Y-98619799D01*
X89336854Y-98599106D01*
X89348052Y-98572070D01*
X89348052Y-98542807D01*
X89336854Y-98515771D01*
X89327526Y-98504405D01*
X88197188Y-97374066D01*
X88178947Y-97319342D01*
X89866160Y-97319342D01*
X89866160Y-97795533D01*
X89866411Y-97798086D01*
X89866249Y-97799179D01*
X89867058Y-97804652D01*
X89867601Y-97810165D01*
X89868023Y-97811186D01*
X89868399Y-97813723D01*
X89963637Y-98194675D01*
X89964022Y-98195754D01*
X89964061Y-98196294D01*
X89966391Y-98202383D01*
X89968584Y-98208520D01*
X89968905Y-98208954D01*
X89969316Y-98210026D01*
X90064554Y-98400502D01*
X90068516Y-98406796D01*
X90069275Y-98408628D01*
X90070968Y-98410690D01*
X90072387Y-98412945D01*
X90073882Y-98414241D01*
X90078603Y-98419994D01*
X90173841Y-98515233D01*
X90179591Y-98519953D01*
X90180890Y-98521450D01*
X90183144Y-98522869D01*
X90185206Y-98524561D01*
X90187038Y-98525319D01*
X90193333Y-98529282D01*
X90383809Y-98624520D01*
X90397541Y-98629775D01*
X90400228Y-98629965D01*
X90402718Y-98630997D01*
X90417350Y-98632438D01*
X90607827Y-98632438D01*
X90622459Y-98630997D01*
X90624948Y-98629965D01*
X90627636Y-98629775D01*
X90641368Y-98624520D01*
X90831844Y-98529282D01*
X90838140Y-98525318D01*
X90839971Y-98524560D01*
X90842032Y-98522868D01*
X90844287Y-98521449D01*
X90845584Y-98519953D01*
X90851336Y-98515233D01*
X90946575Y-98419993D01*
X90951292Y-98414244D01*
X90952791Y-98412945D01*
X90954212Y-98410686D01*
X90955902Y-98408628D01*
X90956659Y-98406798D01*
X90960623Y-98400502D01*
X91055861Y-98210026D01*
X91056270Y-98208956D01*
X91056593Y-98208521D01*
X91058788Y-98202375D01*
X91061116Y-98196294D01*
X91061154Y-98195754D01*
X91061540Y-98194675D01*
X91156778Y-97813723D01*
X91157153Y-97811186D01*
X91157576Y-97810165D01*
X91158118Y-97804652D01*
X91158928Y-97799179D01*
X91158765Y-97798086D01*
X91159017Y-97795533D01*
X91159017Y-97319342D01*
X91158765Y-97316788D01*
X91158928Y-97315696D01*
X91158118Y-97310222D01*
X91157576Y-97304710D01*
X91157153Y-97303688D01*
X91156778Y-97301152D01*
X91066087Y-96938390D01*
X91770922Y-96938390D01*
X91770922Y-97128866D01*
X91771651Y-97136271D01*
X91771511Y-97138246D01*
X91772101Y-97140843D01*
X91772363Y-97143498D01*
X91773121Y-97145329D01*
X91774771Y-97152583D01*
X91870009Y-97438297D01*
X91876003Y-97451723D01*
X91877769Y-97453759D01*
X91878800Y-97456248D01*
X91888127Y-97467613D01*
X92902951Y-98482438D01*
X91845922Y-98482438D01*
X91831290Y-98483879D01*
X91804254Y-98495078D01*
X91783562Y-98515770D01*
X91772363Y-98542806D01*
X91772363Y-98572070D01*
X91783562Y-98599106D01*
X91804254Y-98619798D01*
X91831290Y-98630997D01*
X91845922Y-98632438D01*
X93084017Y-98632438D01*
X93098649Y-98630997D01*
X93125685Y-98619799D01*
X93146378Y-98599106D01*
X93157576Y-98572070D01*
X93157576Y-98542807D01*
X93146378Y-98515771D01*
X93137050Y-98504405D01*
X92006712Y-97374066D01*
X91920922Y-97116696D01*
X91920922Y-96956095D01*
X91929775Y-96938390D01*
X95199494Y-96938390D01*
X95199494Y-97224104D01*
X95200935Y-97238736D01*
X95201966Y-97241225D01*
X95202157Y-97243913D01*
X95207412Y-97257645D01*
X95302650Y-97448121D01*
X95306612Y-97454415D01*
X95307371Y-97456247D01*
X95309064Y-97458309D01*
X95310483Y-97460564D01*
X95311978Y-97461860D01*
X95316699Y-97467613D01*
X95411937Y-97562852D01*
X95417687Y-97567572D01*
X95418986Y-97569069D01*
X95421240Y-97570488D01*
X95423302Y-97572180D01*
X95425134Y-97572938D01*
X95431429Y-97576901D01*
X95621905Y-97672139D01*
X95635637Y-97677394D01*
X95638324Y-97677584D01*
X95640814Y-97678616D01*
X95655446Y-97680057D01*
X95797112Y-97680057D01*
X95213052Y-98514428D01*
X95205841Y-98527242D01*
X95199512Y-98555813D01*
X95204597Y-98584630D01*
X95220324Y-98609309D01*
X95244298Y-98626091D01*
X95272869Y-98632420D01*
X95301686Y-98627335D01*
X95326365Y-98611608D01*
X95335936Y-98600448D01*
X95980210Y-97680057D01*
X96342351Y-97680057D01*
X96342351Y-98557438D01*
X96343792Y-98572070D01*
X96354991Y-98599106D01*
X96375683Y-98619798D01*
X96402719Y-98630997D01*
X96431983Y-98630997D01*
X96459019Y-98619798D01*
X96479711Y-98599106D01*
X96490910Y-98572070D01*
X96492351Y-98557438D01*
X96492351Y-96557438D01*
X96490910Y-96542806D01*
X97200935Y-96542806D01*
X97200935Y-96572070D01*
X97212134Y-96599106D01*
X97232826Y-96619798D01*
X97259862Y-96630997D01*
X97274494Y-96632438D01*
X98151875Y-96632438D01*
X98151875Y-97434819D01*
X97560208Y-97434819D01*
X97545576Y-97436260D01*
X97518540Y-97447459D01*
X97497848Y-97468151D01*
X97486649Y-97495187D01*
X97486649Y-97524451D01*
X97497848Y-97551487D01*
X97518540Y-97572179D01*
X97545576Y-97583378D01*
X97560208Y-97584819D01*
X98151875Y-97584819D01*
X98151875Y-98482438D01*
X97274494Y-98482438D01*
X97259862Y-98483879D01*
X97232826Y-98495078D01*
X97212134Y-98515770D01*
X97200935Y-98542806D01*
X97200935Y-98572070D01*
X97212134Y-98599106D01*
X97232826Y-98619798D01*
X97259862Y-98630997D01*
X97274494Y-98632438D01*
X98226875Y-98632438D01*
X98241507Y-98630997D01*
X98268543Y-98619798D01*
X98289235Y-98599106D01*
X98300434Y-98572070D01*
X98301875Y-98557438D01*
X98301875Y-96557438D01*
X98300434Y-96542806D01*
X98819983Y-96542806D01*
X98819983Y-96572070D01*
X98831182Y-96599106D01*
X98851874Y-96619798D01*
X98878910Y-96630997D01*
X98893542Y-96632438D01*
X99389971Y-96632438D01*
X99389971Y-98557438D01*
X99391412Y-98572070D01*
X99402611Y-98599106D01*
X99423303Y-98619798D01*
X99450339Y-98630997D01*
X99479603Y-98630997D01*
X99506639Y-98619798D01*
X99527331Y-98599106D01*
X99538530Y-98572070D01*
X99539971Y-98557438D01*
X99539971Y-96632438D01*
X100036399Y-96632438D01*
X100051031Y-96630997D01*
X100078067Y-96619798D01*
X100098759Y-96599106D01*
X100109958Y-96572070D01*
X100109958Y-96557438D01*
X100628066Y-96557438D01*
X100628066Y-98557438D01*
X100628436Y-98561201D01*
X100628249Y-98562677D01*
X100628770Y-98564587D01*
X100629507Y-98572070D01*
X100633324Y-98581285D01*
X100635949Y-98590909D01*
X100638876Y-98594689D01*
X100640706Y-98599106D01*
X100647756Y-98606156D01*
X100653866Y-98614046D01*
X100658019Y-98616419D01*
X100661398Y-98619798D01*
X100670610Y-98623614D01*
X100679275Y-98628565D01*
X100684018Y-98629167D01*
X100688434Y-98630997D01*
X100698408Y-98630997D01*
X100708305Y-98632255D01*
X100712917Y-98630997D01*
X100717698Y-98630997D01*
X100726913Y-98627179D01*
X100736537Y-98624555D01*
X100740317Y-98621627D01*
X100744734Y-98619798D01*
X100751784Y-98612747D01*
X100759674Y-98606638D01*
X100764026Y-98600505D01*
X100765426Y-98599106D01*
X100765995Y-98597731D01*
X100768184Y-98594648D01*
X101770923Y-96839855D01*
X101770923Y-98557438D01*
X101772364Y-98572070D01*
X101783563Y-98599106D01*
X101804255Y-98619798D01*
X101831291Y-98630997D01*
X101860555Y-98630997D01*
X101887591Y-98619798D01*
X101908283Y-98599106D01*
X101919482Y-98572070D01*
X101920923Y-98557438D01*
X101920923Y-96557438D01*
X102723304Y-96557438D01*
X102723304Y-98557438D01*
X102724745Y-98572070D01*
X102735944Y-98599106D01*
X102756636Y-98619798D01*
X102783672Y-98630997D01*
X102812936Y-98630997D01*
X102839972Y-98619798D01*
X102860664Y-98599106D01*
X102871863Y-98572070D01*
X102873304Y-98557438D01*
X102873304Y-96560242D01*
X103485261Y-96560242D01*
X103487249Y-96574810D01*
X103963439Y-98574810D01*
X103965168Y-98579829D01*
X103965408Y-98581631D01*
X103966350Y-98583259D01*
X103968229Y-98588710D01*
X103974615Y-98597534D01*
X103980070Y-98606956D01*
X103983127Y-98609296D01*
X103985386Y-98612417D01*
X103994664Y-98618126D01*
X104003308Y-98624743D01*
X104007026Y-98625734D01*
X104010308Y-98627754D01*
X104021068Y-98629478D01*
X104031584Y-98632283D01*
X104035398Y-98631776D01*
X104039203Y-98632386D01*
X104049801Y-98629862D01*
X104060592Y-98628429D01*
X104063923Y-98626500D01*
X104067671Y-98625608D01*
X104076495Y-98619221D01*
X104085917Y-98613767D01*
X104088257Y-98610709D01*
X104091378Y-98608451D01*
X104097085Y-98599175D01*
X104103704Y-98590529D01*
X104105729Y-98585129D01*
X104106714Y-98583529D01*
X104107001Y-98581737D01*
X104108867Y-98576763D01*
X104417351Y-97419945D01*
X104725837Y-98576763D01*
X104727701Y-98581735D01*
X104727989Y-98583529D01*
X104728974Y-98585130D01*
X104730999Y-98590530D01*
X104737619Y-98599178D01*
X104743325Y-98608451D01*
X104746445Y-98610709D01*
X104748786Y-98613767D01*
X104758207Y-98619221D01*
X104767032Y-98625608D01*
X104770779Y-98626500D01*
X104774111Y-98628429D01*
X104784904Y-98629863D01*
X104795500Y-98632386D01*
X104799301Y-98631776D01*
X104803120Y-98632284D01*
X104813651Y-98629475D01*
X104824395Y-98627753D01*
X104827671Y-98625737D01*
X104831395Y-98624744D01*
X104840047Y-98618120D01*
X104849317Y-98612417D01*
X104851573Y-98609298D01*
X104854633Y-98606957D01*
X104860090Y-98597530D01*
X104866474Y-98588710D01*
X104868351Y-98583261D01*
X104869295Y-98581632D01*
X104869534Y-98579828D01*
X104871264Y-98574810D01*
X105347455Y-96574809D01*
X105349442Y-96560241D01*
X105344809Y-96531347D01*
X105329473Y-96506425D01*
X105305766Y-96489268D01*
X105277298Y-96482490D01*
X105248403Y-96487122D01*
X105223481Y-96502459D01*
X105206324Y-96526166D01*
X105201534Y-96540066D01*
X104794187Y-98250922D01*
X104489819Y-97109541D01*
X104488533Y-97106112D01*
X104488342Y-97104673D01*
X104487351Y-97102962D01*
X104484656Y-97095775D01*
X104478640Y-97087915D01*
X104473680Y-97079348D01*
X104469822Y-97076394D01*
X104466869Y-97072537D01*
X104458301Y-97067576D01*
X104450442Y-97061561D01*
X104445749Y-97060309D01*
X104441544Y-97057875D01*
X104431728Y-97056570D01*
X104422166Y-97054021D01*
X104417351Y-97054660D01*
X104412536Y-97054021D01*
X104402968Y-97056572D01*
X104393158Y-97057876D01*
X104388955Y-97060308D01*
X104384260Y-97061561D01*
X104376399Y-97067578D01*
X104367833Y-97072537D01*
X104364879Y-97076394D01*
X104361022Y-97079348D01*
X104356061Y-97087915D01*
X104350046Y-97095775D01*
X104347350Y-97102961D01*
X104346360Y-97104673D01*
X104346168Y-97106114D01*
X104344883Y-97109542D01*
X104040515Y-98250920D01*
X103633169Y-96540066D01*
X103628379Y-96526166D01*
X103611222Y-96502459D01*
X103586300Y-96487123D01*
X103557405Y-96482490D01*
X103528937Y-96489268D01*
X103505230Y-96506425D01*
X103489894Y-96531347D01*
X103485261Y-96560242D01*
X102873304Y-96560242D01*
X102873304Y-96557438D01*
X102871863Y-96542806D01*
X102860664Y-96515770D01*
X102839972Y-96495078D01*
X102812936Y-96483879D01*
X102783672Y-96483879D01*
X102756636Y-96495078D01*
X102735944Y-96515770D01*
X102724745Y-96542806D01*
X102723304Y-96557438D01*
X101920923Y-96557438D01*
X101920552Y-96553674D01*
X101920740Y-96552199D01*
X101920218Y-96550288D01*
X101919482Y-96542806D01*
X101915664Y-96533589D01*
X101913040Y-96523968D01*
X101910113Y-96520188D01*
X101908283Y-96515770D01*
X101901229Y-96508716D01*
X101895123Y-96500831D01*
X101890972Y-96498459D01*
X101887591Y-96495078D01*
X101878371Y-96491259D01*
X101869714Y-96486312D01*
X101864973Y-96485709D01*
X101860555Y-96483879D01*
X101850578Y-96483879D01*
X101840684Y-96482621D01*
X101836072Y-96483879D01*
X101831291Y-96483879D01*
X101822075Y-96487696D01*
X101812452Y-96490321D01*
X101808671Y-96493248D01*
X101804255Y-96495078D01*
X101797201Y-96502131D01*
X101789315Y-96508239D01*
X101784963Y-96514369D01*
X101783563Y-96515770D01*
X101782993Y-96517144D01*
X101780805Y-96520228D01*
X100778066Y-98275021D01*
X100778066Y-96557438D01*
X100776625Y-96542806D01*
X100765426Y-96515770D01*
X100744734Y-96495078D01*
X100717698Y-96483879D01*
X100688434Y-96483879D01*
X100661398Y-96495078D01*
X100640706Y-96515770D01*
X100629507Y-96542806D01*
X100628066Y-96557438D01*
X100109958Y-96557438D01*
X100109958Y-96542806D01*
X100098759Y-96515770D01*
X100078067Y-96495078D01*
X100051031Y-96483879D01*
X100036399Y-96482438D01*
X98893542Y-96482438D01*
X98878910Y-96483879D01*
X98851874Y-96495078D01*
X98831182Y-96515770D01*
X98819983Y-96542806D01*
X98300434Y-96542806D01*
X98289235Y-96515770D01*
X98268543Y-96495078D01*
X98241507Y-96483879D01*
X98226875Y-96482438D01*
X97274494Y-96482438D01*
X97259862Y-96483879D01*
X97232826Y-96495078D01*
X97212134Y-96515770D01*
X97200935Y-96542806D01*
X96490910Y-96542806D01*
X96479711Y-96515770D01*
X96459019Y-96495078D01*
X96431983Y-96483879D01*
X96417351Y-96482438D01*
X95655446Y-96482438D01*
X95640814Y-96483879D01*
X95638324Y-96484910D01*
X95635637Y-96485101D01*
X95621905Y-96490356D01*
X95431429Y-96585594D01*
X95425134Y-96589556D01*
X95423302Y-96590315D01*
X95421240Y-96592006D01*
X95418986Y-96593426D01*
X95417687Y-96594922D01*
X95411937Y-96599643D01*
X95316699Y-96694881D01*
X95311978Y-96700632D01*
X95310483Y-96701930D01*
X95309063Y-96704184D01*
X95307372Y-96706246D01*
X95306613Y-96708076D01*
X95302650Y-96714373D01*
X95207412Y-96904849D01*
X95202157Y-96918581D01*
X95201966Y-96921268D01*
X95200935Y-96923758D01*
X95199494Y-96938390D01*
X91929775Y-96938390D01*
X92002799Y-96792341D01*
X92080825Y-96714315D01*
X92244579Y-96632438D01*
X92685360Y-96632438D01*
X92849114Y-96714315D01*
X92935746Y-96800947D01*
X92947111Y-96810275D01*
X92974148Y-96821473D01*
X93003411Y-96821473D01*
X93030447Y-96810275D01*
X93051140Y-96789582D01*
X93062338Y-96762546D01*
X93062338Y-96733283D01*
X93051140Y-96706246D01*
X93041812Y-96694881D01*
X92946574Y-96599643D01*
X92940822Y-96594922D01*
X92939525Y-96593427D01*
X92937270Y-96592007D01*
X92935209Y-96590316D01*
X92933378Y-96589557D01*
X92927082Y-96585594D01*
X92736606Y-96490356D01*
X92722874Y-96485101D01*
X92720186Y-96484910D01*
X92717697Y-96483879D01*
X92703065Y-96482438D01*
X92226874Y-96482438D01*
X92212242Y-96483879D01*
X92209752Y-96484910D01*
X92207065Y-96485101D01*
X92193333Y-96490356D01*
X92002857Y-96585594D01*
X91996562Y-96589556D01*
X91994730Y-96590315D01*
X91992668Y-96592006D01*
X91990414Y-96593426D01*
X91989115Y-96594922D01*
X91983365Y-96599643D01*
X91888127Y-96694881D01*
X91883406Y-96700632D01*
X91881911Y-96701930D01*
X91880491Y-96704184D01*
X91878800Y-96706246D01*
X91878041Y-96708076D01*
X91874078Y-96714373D01*
X91778840Y-96904849D01*
X91773585Y-96918581D01*
X91773394Y-96921268D01*
X91772363Y-96923758D01*
X91770922Y-96938390D01*
X91066087Y-96938390D01*
X91061540Y-96920200D01*
X91061154Y-96919120D01*
X91061116Y-96918581D01*
X91058788Y-96912499D01*
X91056593Y-96906354D01*
X91056270Y-96905918D01*
X91055861Y-96904849D01*
X90960623Y-96714373D01*
X90956660Y-96708078D01*
X90955902Y-96706246D01*
X90954210Y-96704184D01*
X90952791Y-96701930D01*
X90951294Y-96700631D01*
X90946574Y-96694881D01*
X90851336Y-96599643D01*
X90845584Y-96594922D01*
X90844287Y-96593427D01*
X90842032Y-96592007D01*
X90839971Y-96590316D01*
X90838140Y-96589557D01*
X90831844Y-96585594D01*
X90641368Y-96490356D01*
X90627636Y-96485101D01*
X90624948Y-96484910D01*
X90622459Y-96483879D01*
X90607827Y-96482438D01*
X90417350Y-96482438D01*
X90402718Y-96483879D01*
X90400228Y-96484910D01*
X90397541Y-96485101D01*
X90383809Y-96490356D01*
X90193333Y-96585594D01*
X90187038Y-96589556D01*
X90185206Y-96590315D01*
X90183144Y-96592006D01*
X90180890Y-96593426D01*
X90179591Y-96594922D01*
X90173841Y-96599643D01*
X90078603Y-96694881D01*
X90073882Y-96700632D01*
X90072387Y-96701930D01*
X90070967Y-96704184D01*
X90069276Y-96706246D01*
X90068517Y-96708076D01*
X90064554Y-96714373D01*
X89969316Y-96904849D01*
X89968905Y-96905920D01*
X89968584Y-96906355D01*
X89966391Y-96912491D01*
X89964061Y-96918581D01*
X89964022Y-96919120D01*
X89963637Y-96920200D01*
X89868399Y-97301152D01*
X89868023Y-97303688D01*
X89867601Y-97304710D01*
X89867058Y-97310222D01*
X89866249Y-97315696D01*
X89866411Y-97316788D01*
X89866160Y-97319342D01*
X88178947Y-97319342D01*
X88111398Y-97116696D01*
X88111398Y-96956095D01*
X88193275Y-96792341D01*
X88271301Y-96714315D01*
X88435055Y-96632438D01*
X88875836Y-96632438D01*
X89039590Y-96714315D01*
X89126222Y-96800947D01*
X89137587Y-96810275D01*
X89164624Y-96821473D01*
X89193887Y-96821473D01*
X89220923Y-96810275D01*
X89241616Y-96789582D01*
X89252814Y-96762546D01*
X89252814Y-96733283D01*
X89241616Y-96706246D01*
X89232288Y-96694881D01*
X89137050Y-96599643D01*
X89131298Y-96594922D01*
X89130001Y-96593427D01*
X89127746Y-96592007D01*
X89125685Y-96590316D01*
X89123854Y-96589557D01*
X89117558Y-96585594D01*
X88927082Y-96490356D01*
X88913350Y-96485101D01*
X88910662Y-96484910D01*
X88908173Y-96483879D01*
X88893541Y-96482438D01*
X88417350Y-96482438D01*
X88402718Y-96483879D01*
X88400228Y-96484910D01*
X88397541Y-96485101D01*
X88383809Y-96490356D01*
X88193333Y-96585594D01*
X88187038Y-96589556D01*
X88185206Y-96590315D01*
X88183144Y-96592006D01*
X88180890Y-96593426D01*
X88179591Y-96594922D01*
X88173841Y-96599643D01*
X88078603Y-96694881D01*
X88073882Y-96700632D01*
X88072387Y-96701930D01*
X88070967Y-96704184D01*
X88069276Y-96706246D01*
X88068517Y-96708076D01*
X88064554Y-96714373D01*
X87969316Y-96904849D01*
X87964061Y-96918581D01*
X87963870Y-96921268D01*
X87962839Y-96923758D01*
X87961398Y-96938390D01*
X87205902Y-96938390D01*
X87051183Y-96706311D01*
X87051150Y-96706271D01*
X87051140Y-96706246D01*
X87046411Y-96700485D01*
X87041867Y-96694936D01*
X87041845Y-96694921D01*
X87041812Y-96694881D01*
X86946574Y-96599643D01*
X86940822Y-96594922D01*
X86939525Y-96593427D01*
X86937270Y-96592007D01*
X86935209Y-96590316D01*
X86933378Y-96589557D01*
X86927082Y-96585594D01*
X86736606Y-96490356D01*
X86722874Y-96485101D01*
X86720186Y-96484910D01*
X86717697Y-96483879D01*
X86703065Y-96482438D01*
X86322112Y-96482438D01*
X86307480Y-96483879D01*
X86280444Y-96495078D01*
X86259752Y-96515770D01*
X86248553Y-96542806D01*
X86248553Y-96572070D01*
X86259752Y-96599106D01*
X86280444Y-96619798D01*
X86307480Y-96630997D01*
X86322112Y-96632438D01*
X86685360Y-96632438D01*
X86849114Y-96714315D01*
X86930493Y-96795694D01*
X87109644Y-97064420D01*
X87199493Y-97423814D01*
X87199493Y-97423990D01*
X87137050Y-97361547D01*
X87131298Y-97356826D01*
X87130001Y-97355331D01*
X87127746Y-97353911D01*
X87125685Y-97352220D01*
X87123854Y-97351461D01*
X87117558Y-97347498D01*
X86927082Y-97252260D01*
X86913350Y-97247005D01*
X86910662Y-97246814D01*
X86908173Y-97245783D01*
X86893541Y-97244342D01*
X86512588Y-97244342D01*
X86497956Y-97245783D01*
X86495466Y-97246814D01*
X86492779Y-97247005D01*
X86479047Y-97252260D01*
X86288571Y-97347498D01*
X86282276Y-97351460D01*
X86280444Y-97352219D01*
X86278382Y-97353910D01*
X86276128Y-97355330D01*
X86274829Y-97356826D01*
X86269079Y-97361547D01*
X86173841Y-97456786D01*
X86169120Y-97462538D01*
X86167625Y-97463835D01*
X86166206Y-97466089D01*
X86164513Y-97468152D01*
X86163754Y-97469983D01*
X86159792Y-97476278D01*
X86064554Y-97666754D01*
X86059299Y-97680486D01*
X86059108Y-97683173D01*
X86058077Y-97685663D01*
X86056636Y-97700295D01*
X85834414Y-97700295D01*
X85834414Y-93322918D01*
X86058077Y-93322918D01*
X86058077Y-93352182D01*
X86069276Y-93379218D01*
X86089968Y-93399910D01*
X86117004Y-93411109D01*
X86131636Y-93412550D01*
X87009017Y-93412550D01*
X87009017Y-94214931D01*
X86417350Y-94214931D01*
X86402718Y-94216372D01*
X86375682Y-94227571D01*
X86354990Y-94248263D01*
X86343791Y-94275299D01*
X86343791Y-94304563D01*
X86354990Y-94331599D01*
X86375682Y-94352291D01*
X86402718Y-94363490D01*
X86417350Y-94364931D01*
X87009017Y-94364931D01*
X87009017Y-95262550D01*
X86131636Y-95262550D01*
X86117004Y-95263991D01*
X86089968Y-95275190D01*
X86069276Y-95295882D01*
X86058077Y-95322918D01*
X86058077Y-95352182D01*
X86069276Y-95379218D01*
X86089968Y-95399910D01*
X86117004Y-95411109D01*
X86131636Y-95412550D01*
X87084017Y-95412550D01*
X87098649Y-95411109D01*
X87125685Y-95399910D01*
X87146377Y-95379218D01*
X87157576Y-95352182D01*
X87159017Y-95337550D01*
X87159017Y-94194692D01*
X87866160Y-94194692D01*
X87866160Y-94480407D01*
X87866411Y-94482960D01*
X87866249Y-94484053D01*
X87867058Y-94489526D01*
X87867601Y-94495039D01*
X87868023Y-94496060D01*
X87868399Y-94498597D01*
X87963637Y-94879549D01*
X87964022Y-94880628D01*
X87964061Y-94881168D01*
X87966391Y-94887257D01*
X87968584Y-94893394D01*
X87968905Y-94893828D01*
X87969316Y-94894900D01*
X88064554Y-95085376D01*
X88068515Y-95091668D01*
X88069275Y-95093503D01*
X88070970Y-95095568D01*
X88072387Y-95097819D01*
X88073880Y-95099114D01*
X88078603Y-95104868D01*
X88269079Y-95295345D01*
X88280444Y-95304672D01*
X88282934Y-95305703D01*
X88284970Y-95307469D01*
X88298395Y-95313463D01*
X88584110Y-95408701D01*
X88591363Y-95410350D01*
X88593195Y-95411109D01*
X88595849Y-95411370D01*
X88598447Y-95411961D01*
X88600421Y-95411820D01*
X88607827Y-95412550D01*
X89084017Y-95412550D01*
X89098649Y-95411109D01*
X89125685Y-95399910D01*
X89146377Y-95379218D01*
X89157576Y-95352182D01*
X89159017Y-95337550D01*
X89159017Y-94004216D01*
X89866160Y-94004216D01*
X89866160Y-94670883D01*
X89866411Y-94673436D01*
X89866249Y-94674529D01*
X89867058Y-94680002D01*
X89867601Y-94685515D01*
X89868023Y-94686536D01*
X89868399Y-94689073D01*
X89963637Y-95070025D01*
X89968584Y-95083870D01*
X89971901Y-95088347D01*
X89974037Y-95093503D01*
X89983365Y-95104868D01*
X90173841Y-95295345D01*
X90179590Y-95300063D01*
X90180890Y-95301562D01*
X90183149Y-95302983D01*
X90185206Y-95304672D01*
X90187033Y-95305429D01*
X90193333Y-95309394D01*
X90383809Y-95404632D01*
X90397541Y-95409887D01*
X90400228Y-95410077D01*
X90402718Y-95411109D01*
X90417350Y-95412550D01*
X90798303Y-95412550D01*
X90812935Y-95411109D01*
X90815424Y-95410077D01*
X90818112Y-95409887D01*
X90831844Y-95404632D01*
X91022320Y-95309394D01*
X91028616Y-95305430D01*
X91030447Y-95304672D01*
X91032508Y-95302980D01*
X91034763Y-95301561D01*
X91036060Y-95300065D01*
X91041812Y-95295345D01*
X91232288Y-95104868D01*
X91241615Y-95093503D01*
X91243748Y-95088351D01*
X91247069Y-95083871D01*
X91252016Y-95070025D01*
X91347254Y-94689073D01*
X91347629Y-94686536D01*
X91348052Y-94685515D01*
X91348594Y-94680002D01*
X91349404Y-94674529D01*
X91349241Y-94673436D01*
X91349493Y-94670883D01*
X91349493Y-94004216D01*
X91349241Y-94001662D01*
X91349404Y-94000570D01*
X91348594Y-93995096D01*
X91348052Y-93989584D01*
X91347629Y-93988562D01*
X91347254Y-93986026D01*
X91280373Y-93718502D01*
X91961398Y-93718502D01*
X91961398Y-94004216D01*
X91962839Y-94018848D01*
X91963870Y-94021337D01*
X91964061Y-94024025D01*
X91969316Y-94037757D01*
X92064554Y-94228233D01*
X92068516Y-94234527D01*
X92069275Y-94236359D01*
X92070968Y-94238421D01*
X92072387Y-94240676D01*
X92073882Y-94241972D01*
X92078603Y-94247725D01*
X92173841Y-94342964D01*
X92179591Y-94347684D01*
X92180890Y-94349181D01*
X92183144Y-94350600D01*
X92185206Y-94352292D01*
X92187038Y-94353050D01*
X92193333Y-94357013D01*
X92383809Y-94452251D01*
X92397541Y-94457506D01*
X92400228Y-94457696D01*
X92402718Y-94458728D01*
X92417350Y-94460169D01*
X92559016Y-94460169D01*
X91974956Y-95294540D01*
X91967745Y-95307354D01*
X91961416Y-95335925D01*
X91966501Y-95364742D01*
X91982228Y-95389421D01*
X92006202Y-95406203D01*
X92034773Y-95412532D01*
X92063590Y-95407447D01*
X92088269Y-95391720D01*
X92097840Y-95380560D01*
X92742114Y-94460169D01*
X93104255Y-94460169D01*
X93104255Y-95337550D01*
X93105696Y-95352182D01*
X93116895Y-95379218D01*
X93137587Y-95399910D01*
X93164623Y-95411109D01*
X93193887Y-95411109D01*
X93220923Y-95399910D01*
X93241615Y-95379218D01*
X93252814Y-95352182D01*
X93254255Y-95337550D01*
X93254255Y-93337550D01*
X93252814Y-93322918D01*
X93772363Y-93322918D01*
X93772363Y-93352182D01*
X93783562Y-93379218D01*
X93804254Y-93399910D01*
X93831290Y-93411109D01*
X93845922Y-93412550D01*
X94342351Y-93412550D01*
X94342351Y-95337550D01*
X94343792Y-95352182D01*
X94354991Y-95379218D01*
X94375683Y-95399910D01*
X94402719Y-95411109D01*
X94431983Y-95411109D01*
X94459019Y-95399910D01*
X94479711Y-95379218D01*
X94490910Y-95352182D01*
X94492351Y-95337550D01*
X94492351Y-94766121D01*
X95485208Y-94766121D01*
X95485208Y-94956597D01*
X95486649Y-94971229D01*
X95487680Y-94973718D01*
X95487871Y-94976406D01*
X95493126Y-94990138D01*
X95588364Y-95180614D01*
X95592326Y-95186908D01*
X95593085Y-95188740D01*
X95594778Y-95190802D01*
X95596197Y-95193057D01*
X95597692Y-95194353D01*
X95602413Y-95200106D01*
X95697651Y-95295345D01*
X95703401Y-95300065D01*
X95704700Y-95301562D01*
X95706954Y-95302981D01*
X95709016Y-95304673D01*
X95710848Y-95305431D01*
X95717143Y-95309394D01*
X95907619Y-95404632D01*
X95921351Y-95409887D01*
X95924038Y-95410077D01*
X95926528Y-95411109D01*
X95941160Y-95412550D01*
X96417351Y-95412550D01*
X96424756Y-95411820D01*
X96426731Y-95411961D01*
X96429328Y-95411370D01*
X96431983Y-95411109D01*
X96433814Y-95410350D01*
X96441068Y-95408701D01*
X96726782Y-95313463D01*
X96740208Y-95307469D01*
X96762315Y-95288295D01*
X96775401Y-95262122D01*
X96777476Y-95232932D01*
X96768222Y-95205169D01*
X96749048Y-95183062D01*
X96722875Y-95169976D01*
X96693685Y-95167901D01*
X96679348Y-95171161D01*
X96405181Y-95262550D01*
X95958865Y-95262550D01*
X95795111Y-95180673D01*
X95717085Y-95102646D01*
X95635208Y-94938892D01*
X95635208Y-94783826D01*
X95717085Y-94620072D01*
X95795111Y-94542046D01*
X95967335Y-94455933D01*
X96340303Y-94362692D01*
X96341382Y-94362306D01*
X96341923Y-94362268D01*
X96348019Y-94359934D01*
X96354148Y-94357745D01*
X96354582Y-94357423D01*
X96355654Y-94357013D01*
X96546130Y-94261774D01*
X96552426Y-94257810D01*
X96554257Y-94257052D01*
X96556318Y-94255360D01*
X96558573Y-94253941D01*
X96559869Y-94252445D01*
X96565622Y-94247725D01*
X96660860Y-94152487D01*
X96665580Y-94146736D01*
X96667077Y-94145438D01*
X96668496Y-94143183D01*
X96670188Y-94141122D01*
X96670946Y-94139289D01*
X96674909Y-94132995D01*
X96770147Y-93942519D01*
X96775402Y-93928787D01*
X96775592Y-93926099D01*
X96776624Y-93923610D01*
X96778065Y-93908978D01*
X96778065Y-93718502D01*
X96776624Y-93703870D01*
X96775592Y-93701380D01*
X96775402Y-93698693D01*
X96770147Y-93684961D01*
X96674909Y-93494485D01*
X96670946Y-93488190D01*
X96670188Y-93486358D01*
X96668496Y-93484296D01*
X96667077Y-93482042D01*
X96665580Y-93480743D01*
X96660860Y-93474993D01*
X96565622Y-93379755D01*
X96559870Y-93375034D01*
X96558573Y-93373539D01*
X96556318Y-93372119D01*
X96554257Y-93370428D01*
X96552426Y-93369669D01*
X96546130Y-93365706D01*
X96486470Y-93335876D01*
X98723323Y-93335876D01*
X98728390Y-93364698D01*
X98735029Y-93377816D01*
X99389971Y-94407010D01*
X99389971Y-95337550D01*
X99391412Y-95352182D01*
X99402611Y-95379218D01*
X99423303Y-95399910D01*
X99450339Y-95411109D01*
X99479603Y-95411109D01*
X99506639Y-95399910D01*
X99527331Y-95379218D01*
X99538530Y-95352182D01*
X99539971Y-95337550D01*
X99539971Y-94407009D01*
X100194911Y-93377816D01*
X100201551Y-93364698D01*
X100206618Y-93335876D01*
X100203738Y-93322918D01*
X100629507Y-93322918D01*
X100629507Y-93352182D01*
X100640706Y-93379218D01*
X100661398Y-93399910D01*
X100688434Y-93411109D01*
X100703066Y-93412550D01*
X101580447Y-93412550D01*
X101580447Y-94214931D01*
X100988780Y-94214931D01*
X100974148Y-94216372D01*
X100947112Y-94227571D01*
X100926420Y-94248263D01*
X100915221Y-94275299D01*
X100915221Y-94304563D01*
X100926420Y-94331599D01*
X100947112Y-94352291D01*
X100974148Y-94363490D01*
X100988780Y-94364931D01*
X101580447Y-94364931D01*
X101580447Y-95262550D01*
X100703066Y-95262550D01*
X100688434Y-95263991D01*
X100661398Y-95275190D01*
X100640706Y-95295882D01*
X100629507Y-95322918D01*
X100629507Y-95352182D01*
X100640706Y-95379218D01*
X100661398Y-95399910D01*
X100688434Y-95411109D01*
X100703066Y-95412550D01*
X101655447Y-95412550D01*
X101670079Y-95411109D01*
X101697115Y-95399910D01*
X101717807Y-95379218D01*
X101729006Y-95352182D01*
X101730447Y-95337550D01*
X101730447Y-95322918D01*
X102248555Y-95322918D01*
X102248555Y-95352182D01*
X102259754Y-95379218D01*
X102280446Y-95399910D01*
X102307482Y-95411109D01*
X102322114Y-95412550D01*
X103274495Y-95412550D01*
X103289127Y-95411109D01*
X103316163Y-95399910D01*
X103336855Y-95379218D01*
X103348054Y-95352182D01*
X103349495Y-95337550D01*
X103349495Y-93337550D01*
X104151876Y-93337550D01*
X104151876Y-95337550D01*
X104153317Y-95352182D01*
X104164516Y-95379218D01*
X104185208Y-95399910D01*
X104212244Y-95411109D01*
X104241508Y-95411109D01*
X104268544Y-95399910D01*
X104289236Y-95379218D01*
X104300435Y-95352182D01*
X104301876Y-95337550D01*
X104301876Y-93718502D01*
X105009019Y-93718502D01*
X105009019Y-94004216D01*
X105010460Y-94018848D01*
X105011491Y-94021337D01*
X105011682Y-94024025D01*
X105016937Y-94037757D01*
X105112175Y-94228233D01*
X105116137Y-94234527D01*
X105116896Y-94236359D01*
X105118589Y-94238421D01*
X105120008Y-94240676D01*
X105121503Y-94241972D01*
X105126224Y-94247725D01*
X105221462Y-94342964D01*
X105227212Y-94347684D01*
X105228511Y-94349181D01*
X105230765Y-94350600D01*
X105232827Y-94352292D01*
X105234659Y-94353050D01*
X105240954Y-94357013D01*
X105431430Y-94452251D01*
X105445162Y-94457506D01*
X105447849Y-94457696D01*
X105450339Y-94458728D01*
X105464971Y-94460169D01*
X105606637Y-94460169D01*
X105022577Y-95294540D01*
X105015366Y-95307354D01*
X105009037Y-95335925D01*
X105014122Y-95364742D01*
X105029849Y-95389421D01*
X105053823Y-95406203D01*
X105082394Y-95412532D01*
X105111211Y-95407447D01*
X105135890Y-95391720D01*
X105145461Y-95380560D01*
X105789735Y-94460169D01*
X106151876Y-94460169D01*
X106151876Y-95337550D01*
X106153317Y-95352182D01*
X106164516Y-95379218D01*
X106185208Y-95399910D01*
X106212244Y-95411109D01*
X106241508Y-95411109D01*
X106268544Y-95399910D01*
X106289236Y-95379218D01*
X106300435Y-95352182D01*
X106301876Y-95337550D01*
X106301876Y-93337550D01*
X106300435Y-93322918D01*
X106289236Y-93295882D01*
X106268544Y-93275190D01*
X106241508Y-93263991D01*
X106226876Y-93262550D01*
X105464971Y-93262550D01*
X105450339Y-93263991D01*
X105447849Y-93265022D01*
X105445162Y-93265213D01*
X105431430Y-93270468D01*
X105240954Y-93365706D01*
X105234659Y-93369668D01*
X105232827Y-93370427D01*
X105230765Y-93372118D01*
X105228511Y-93373538D01*
X105227212Y-93375034D01*
X105221462Y-93379755D01*
X105126224Y-93474993D01*
X105121503Y-93480744D01*
X105120008Y-93482042D01*
X105118588Y-93484296D01*
X105116897Y-93486358D01*
X105116138Y-93488188D01*
X105112175Y-93494485D01*
X105016937Y-93684961D01*
X105011682Y-93698693D01*
X105011491Y-93701380D01*
X105010460Y-93703870D01*
X105009019Y-93718502D01*
X104301876Y-93718502D01*
X104301876Y-93337550D01*
X104300435Y-93322918D01*
X104289236Y-93295882D01*
X104268544Y-93275190D01*
X104241508Y-93263991D01*
X104212244Y-93263991D01*
X104185208Y-93275190D01*
X104164516Y-93295882D01*
X104153317Y-93322918D01*
X104151876Y-93337550D01*
X103349495Y-93337550D01*
X103348054Y-93322918D01*
X103336855Y-93295882D01*
X103316163Y-93275190D01*
X103289127Y-93263991D01*
X103259863Y-93263991D01*
X103232827Y-93275190D01*
X103212135Y-93295882D01*
X103200936Y-93322918D01*
X103199495Y-93337550D01*
X103199495Y-95262550D01*
X102322114Y-95262550D01*
X102307482Y-95263991D01*
X102280446Y-95275190D01*
X102259754Y-95295882D01*
X102248555Y-95322918D01*
X101730447Y-95322918D01*
X101730447Y-93337550D01*
X101729006Y-93322918D01*
X101717807Y-93295882D01*
X101697115Y-93275190D01*
X101670079Y-93263991D01*
X101655447Y-93262550D01*
X100703066Y-93262550D01*
X100688434Y-93263991D01*
X100661398Y-93275190D01*
X100640706Y-93295882D01*
X100629507Y-93322918D01*
X100203738Y-93322918D01*
X100200270Y-93307310D01*
X100183473Y-93283347D01*
X100158784Y-93267636D01*
X100129963Y-93262569D01*
X100101397Y-93268917D01*
X100077433Y-93285714D01*
X100068362Y-93297285D01*
X99464970Y-94245470D01*
X98861579Y-93297284D01*
X98852507Y-93285714D01*
X98828544Y-93268917D01*
X98799978Y-93262569D01*
X98771156Y-93267636D01*
X98746468Y-93283347D01*
X98729671Y-93307310D01*
X98723323Y-93335876D01*
X96486470Y-93335876D01*
X96355654Y-93270468D01*
X96341922Y-93265213D01*
X96339234Y-93265022D01*
X96336745Y-93263991D01*
X96322113Y-93262550D01*
X95845922Y-93262550D01*
X95838516Y-93263279D01*
X95836542Y-93263139D01*
X95833944Y-93263729D01*
X95831290Y-93263991D01*
X95829458Y-93264749D01*
X95822205Y-93266399D01*
X95536491Y-93361637D01*
X95523065Y-93367631D01*
X95500958Y-93386805D01*
X95487872Y-93412978D01*
X95485797Y-93442168D01*
X95495051Y-93469931D01*
X95514225Y-93492038D01*
X95540398Y-93505124D01*
X95569588Y-93507199D01*
X95583925Y-93503939D01*
X95858092Y-93412550D01*
X96304408Y-93412550D01*
X96468162Y-93494427D01*
X96546188Y-93572453D01*
X96628065Y-93736207D01*
X96628065Y-93891273D01*
X96546188Y-94055027D01*
X96468161Y-94133053D01*
X96295936Y-94219166D01*
X95922970Y-94312408D01*
X95921890Y-94312793D01*
X95921351Y-94312832D01*
X95915269Y-94315159D01*
X95909124Y-94317355D01*
X95908688Y-94317677D01*
X95907619Y-94318087D01*
X95717143Y-94413325D01*
X95710848Y-94417287D01*
X95709016Y-94418046D01*
X95706954Y-94419737D01*
X95704700Y-94421157D01*
X95703401Y-94422653D01*
X95697651Y-94427374D01*
X95602413Y-94522612D01*
X95597692Y-94528363D01*
X95596197Y-94529661D01*
X95594777Y-94531915D01*
X95593086Y-94533977D01*
X95592327Y-94535807D01*
X95588364Y-94542104D01*
X95493126Y-94732580D01*
X95487871Y-94746312D01*
X95487680Y-94748999D01*
X95486649Y-94751489D01*
X95485208Y-94766121D01*
X94492351Y-94766121D01*
X94492351Y-93412550D01*
X94988779Y-93412550D01*
X95003411Y-93411109D01*
X95030447Y-93399910D01*
X95051139Y-93379218D01*
X95062338Y-93352182D01*
X95062338Y-93322918D01*
X95051139Y-93295882D01*
X95030447Y-93275190D01*
X95003411Y-93263991D01*
X94988779Y-93262550D01*
X93845922Y-93262550D01*
X93831290Y-93263991D01*
X93804254Y-93275190D01*
X93783562Y-93295882D01*
X93772363Y-93322918D01*
X93252814Y-93322918D01*
X93241615Y-93295882D01*
X93220923Y-93275190D01*
X93193887Y-93263991D01*
X93179255Y-93262550D01*
X92417350Y-93262550D01*
X92402718Y-93263991D01*
X92400228Y-93265022D01*
X92397541Y-93265213D01*
X92383809Y-93270468D01*
X92193333Y-93365706D01*
X92187038Y-93369668D01*
X92185206Y-93370427D01*
X92183144Y-93372118D01*
X92180890Y-93373538D01*
X92179591Y-93375034D01*
X92173841Y-93379755D01*
X92078603Y-93474993D01*
X92073882Y-93480744D01*
X92072387Y-93482042D01*
X92070967Y-93484296D01*
X92069276Y-93486358D01*
X92068517Y-93488188D01*
X92064554Y-93494485D01*
X91969316Y-93684961D01*
X91964061Y-93698693D01*
X91963870Y-93701380D01*
X91962839Y-93703870D01*
X91961398Y-93718502D01*
X91280373Y-93718502D01*
X91252016Y-93605074D01*
X91247069Y-93591228D01*
X91243749Y-93586748D01*
X91241616Y-93581597D01*
X91232288Y-93570231D01*
X91041812Y-93379755D01*
X91036060Y-93375034D01*
X91034763Y-93373539D01*
X91032508Y-93372119D01*
X91030447Y-93370428D01*
X91028616Y-93369669D01*
X91022320Y-93365706D01*
X90831844Y-93270468D01*
X90818112Y-93265213D01*
X90815424Y-93265022D01*
X90812935Y-93263991D01*
X90798303Y-93262550D01*
X90417350Y-93262550D01*
X90402718Y-93263991D01*
X90400228Y-93265022D01*
X90397541Y-93265213D01*
X90383809Y-93270468D01*
X90193333Y-93365706D01*
X90187036Y-93369669D01*
X90185207Y-93370427D01*
X90183148Y-93372116D01*
X90180890Y-93373538D01*
X90179590Y-93375036D01*
X90173841Y-93379755D01*
X89983365Y-93570231D01*
X89974038Y-93581596D01*
X89971903Y-93586748D01*
X89968584Y-93591229D01*
X89963637Y-93605074D01*
X89868399Y-93986026D01*
X89868023Y-93988562D01*
X89867601Y-93989584D01*
X89867058Y-93995096D01*
X89866249Y-94000570D01*
X89866411Y-94001662D01*
X89866160Y-94004216D01*
X89159017Y-94004216D01*
X89159017Y-93337550D01*
X89157576Y-93322918D01*
X89146377Y-93295882D01*
X89125685Y-93275190D01*
X89098649Y-93263991D01*
X89084017Y-93262550D01*
X88607827Y-93262550D01*
X88600421Y-93263279D01*
X88598447Y-93263139D01*
X88595849Y-93263729D01*
X88593195Y-93263991D01*
X88591363Y-93264749D01*
X88584110Y-93266399D01*
X88298395Y-93361637D01*
X88284970Y-93367631D01*
X88282935Y-93369395D01*
X88280445Y-93370427D01*
X88269079Y-93379755D01*
X88078603Y-93570231D01*
X88073882Y-93575982D01*
X88072387Y-93577280D01*
X88070967Y-93579534D01*
X88069276Y-93581596D01*
X88068517Y-93583426D01*
X88064554Y-93589723D01*
X87969316Y-93780199D01*
X87968905Y-93781270D01*
X87968584Y-93781705D01*
X87966391Y-93787841D01*
X87964061Y-93793931D01*
X87964022Y-93794470D01*
X87963637Y-93795550D01*
X87868399Y-94176502D01*
X87868023Y-94179038D01*
X87867601Y-94180060D01*
X87867058Y-94185572D01*
X87866249Y-94191046D01*
X87866411Y-94192138D01*
X87866160Y-94194692D01*
X87159017Y-94194692D01*
X87159017Y-93337550D01*
X87157576Y-93322918D01*
X87146377Y-93295882D01*
X87125685Y-93275190D01*
X87098649Y-93263991D01*
X87084017Y-93262550D01*
X86131636Y-93262550D01*
X86117004Y-93263991D01*
X86089968Y-93275190D01*
X86069276Y-93295882D01*
X86058077Y-93322918D01*
X85834414Y-93322918D01*
X85834414Y-93040328D01*
X106524098Y-93040328D01*
X106524098Y-98854660D01*
G37*
D11*
%TO.C,G\u002A\u002A\u002A*%
G36*
X93133112Y-61458888D02*
G01*
X93099514Y-61492486D01*
X93065916Y-61458888D01*
X93099514Y-61425291D01*
X93133112Y-61458888D01*
G37*
G36*
X93469091Y-65557830D02*
G01*
X93435493Y-65591428D01*
X93401895Y-65557830D01*
X93435493Y-65524232D01*
X93469091Y-65557830D01*
G37*
G36*
X93737874Y-54873703D02*
G01*
X93704276Y-54907301D01*
X93670678Y-54873703D01*
X93704276Y-54840105D01*
X93737874Y-54873703D01*
G37*
G36*
X93805070Y-56553597D02*
G01*
X93771472Y-56587195D01*
X93737874Y-56553597D01*
X93771472Y-56520000D01*
X93805070Y-56553597D01*
G37*
G36*
X93939461Y-65692222D02*
G01*
X93905863Y-65725820D01*
X93872265Y-65692222D01*
X93905863Y-65658624D01*
X93939461Y-65692222D01*
G37*
G36*
X94073853Y-55680053D02*
G01*
X94040255Y-55713650D01*
X94006657Y-55680053D01*
X94040255Y-55646455D01*
X94073853Y-55680053D01*
G37*
G36*
X94141048Y-54940899D02*
G01*
X94107451Y-54974497D01*
X94073853Y-54940899D01*
X94107451Y-54907301D01*
X94141048Y-54940899D01*
G37*
G36*
X94141048Y-56352010D02*
G01*
X94107451Y-56385608D01*
X94073853Y-56352010D01*
X94107451Y-56318412D01*
X94141048Y-56352010D01*
G37*
G36*
X94208244Y-55747248D02*
G01*
X94174646Y-55780846D01*
X94141048Y-55747248D01*
X94174646Y-55713650D01*
X94208244Y-55747248D01*
G37*
G36*
X94342636Y-65423439D02*
G01*
X94309038Y-65457037D01*
X94275440Y-65423439D01*
X94309038Y-65389841D01*
X94342636Y-65423439D01*
G37*
G36*
X94409832Y-55814444D02*
G01*
X94376234Y-55848042D01*
X94342636Y-55814444D01*
X94376234Y-55780846D01*
X94409832Y-55814444D01*
G37*
G36*
X94477027Y-51043545D02*
G01*
X94443429Y-51077142D01*
X94409832Y-51043545D01*
X94443429Y-51009947D01*
X94477027Y-51043545D01*
G37*
G36*
X95216181Y-64482698D02*
G01*
X95182583Y-64516296D01*
X95148985Y-64482698D01*
X95182583Y-64449100D01*
X95216181Y-64482698D01*
G37*
G36*
X95417768Y-65692222D02*
G01*
X95384170Y-65725820D01*
X95350572Y-65692222D01*
X95384170Y-65658624D01*
X95417768Y-65692222D01*
G37*
G36*
X95552160Y-64213915D02*
G01*
X95518562Y-64247513D01*
X95484964Y-64213915D01*
X95518562Y-64180317D01*
X95552160Y-64213915D01*
G37*
G36*
X96089726Y-65423439D02*
G01*
X96056128Y-65457037D01*
X96022530Y-65423439D01*
X96056128Y-65389841D01*
X96089726Y-65423439D01*
G37*
G36*
X96627292Y-57628730D02*
G01*
X96593694Y-57662328D01*
X96560096Y-57628730D01*
X96593694Y-57595132D01*
X96627292Y-57628730D01*
G37*
G36*
X97769620Y-50707566D02*
G01*
X97736022Y-50741164D01*
X97702424Y-50707566D01*
X97736022Y-50673968D01*
X97769620Y-50707566D01*
G37*
G36*
X97769620Y-55276878D02*
G01*
X97736022Y-55310476D01*
X97702424Y-55276878D01*
X97736022Y-55243280D01*
X97769620Y-55276878D01*
G37*
G36*
X98105599Y-65692222D02*
G01*
X98072001Y-65725820D01*
X98038403Y-65692222D01*
X98072001Y-65658624D01*
X98105599Y-65692222D01*
G37*
G36*
X98239990Y-50035608D02*
G01*
X98206392Y-50069206D01*
X98172794Y-50035608D01*
X98206392Y-50002010D01*
X98239990Y-50035608D01*
G37*
G36*
X98374382Y-54201746D02*
G01*
X98340784Y-54235344D01*
X98307186Y-54201746D01*
X98340784Y-54168148D01*
X98374382Y-54201746D01*
G37*
G36*
X98575969Y-53395396D02*
G01*
X98542371Y-53428994D01*
X98508773Y-53395396D01*
X98542371Y-53361799D01*
X98575969Y-53395396D01*
G37*
G36*
X98643165Y-65625026D02*
G01*
X98609567Y-65658624D01*
X98575969Y-65625026D01*
X98609567Y-65591428D01*
X98643165Y-65625026D01*
G37*
G36*
X98979144Y-49296455D02*
G01*
X98945546Y-49330053D01*
X98911948Y-49296455D01*
X98945546Y-49262857D01*
X98979144Y-49296455D01*
G37*
G36*
X99785493Y-65692222D02*
G01*
X99751895Y-65725820D01*
X99718297Y-65692222D01*
X99751895Y-65658624D01*
X99785493Y-65692222D01*
G37*
G36*
X100054276Y-51581111D02*
G01*
X100020678Y-51614709D01*
X99987080Y-51581111D01*
X100020678Y-51547513D01*
X100054276Y-51581111D01*
G37*
G36*
X100457451Y-50438783D02*
G01*
X100423853Y-50472381D01*
X100390255Y-50438783D01*
X100423853Y-50405185D01*
X100457451Y-50438783D01*
G37*
G36*
X101062212Y-65625026D02*
G01*
X101028615Y-65658624D01*
X100995017Y-65625026D01*
X101028615Y-65591428D01*
X101062212Y-65625026D01*
G37*
G36*
X101196604Y-65557830D02*
G01*
X101163006Y-65591428D01*
X101129408Y-65557830D01*
X101163006Y-65524232D01*
X101196604Y-65557830D01*
G37*
G36*
X101196604Y-65692222D02*
G01*
X101163006Y-65725820D01*
X101129408Y-65692222D01*
X101163006Y-65658624D01*
X101196604Y-65692222D01*
G37*
G36*
X101330996Y-65289047D02*
G01*
X101297398Y-65322645D01*
X101263800Y-65289047D01*
X101297398Y-65255449D01*
X101330996Y-65289047D01*
G37*
G36*
X101330996Y-65692222D02*
G01*
X101297398Y-65725820D01*
X101263800Y-65692222D01*
X101297398Y-65658624D01*
X101330996Y-65692222D01*
G37*
G36*
X102406128Y-65692222D02*
G01*
X102372530Y-65725820D01*
X102338932Y-65692222D01*
X102372530Y-65658624D01*
X102406128Y-65692222D01*
G37*
G36*
X93347298Y-54458224D02*
G01*
X93378401Y-54482411D01*
X93306701Y-54498822D01*
X93238547Y-54494070D01*
X93218507Y-54463529D01*
X93242280Y-54450214D01*
X93347298Y-54458224D01*
G37*
G36*
X93312301Y-55803245D02*
G01*
X93322813Y-55823456D01*
X93267503Y-55848042D01*
X93231930Y-55843193D01*
X93222706Y-55803245D01*
X93232555Y-55795203D01*
X93312301Y-55803245D01*
G37*
G36*
X93379496Y-56004832D02*
G01*
X93390009Y-56025043D01*
X93334699Y-56049629D01*
X93299126Y-56044780D01*
X93289902Y-56004832D01*
X93299751Y-55996790D01*
X93379496Y-56004832D01*
G37*
G36*
X93956260Y-65412534D02*
G01*
X93967659Y-65435867D01*
X93872265Y-65446427D01*
X93779829Y-65437060D01*
X93788271Y-65412534D01*
X93818687Y-65403659D01*
X93956260Y-65412534D01*
G37*
G36*
X94924999Y-65681023D02*
G01*
X94935512Y-65701234D01*
X94880202Y-65725820D01*
X94844629Y-65720970D01*
X94835405Y-65681023D01*
X94845253Y-65672981D01*
X94924999Y-65681023D01*
G37*
G36*
X95027193Y-50896849D02*
G01*
X95058295Y-50921035D01*
X94986595Y-50937446D01*
X94918441Y-50932695D01*
X94898401Y-50902153D01*
X94922174Y-50888838D01*
X95027193Y-50896849D01*
G37*
G36*
X95232980Y-65681317D02*
G01*
X95244378Y-65704650D01*
X95148985Y-65715210D01*
X95056549Y-65705843D01*
X95064990Y-65681317D01*
X95095407Y-65672442D01*
X95232980Y-65681317D01*
G37*
G36*
X95395369Y-64337107D02*
G01*
X95405882Y-64357318D01*
X95350572Y-64381904D01*
X95314999Y-64377055D01*
X95305775Y-64337107D01*
X95315624Y-64329065D01*
X95395369Y-64337107D01*
G37*
G36*
X95631955Y-63395261D02*
G01*
X95663057Y-63419448D01*
X95591357Y-63435859D01*
X95523203Y-63431107D01*
X95503163Y-63400566D01*
X95526936Y-63387251D01*
X95631955Y-63395261D01*
G37*
G36*
X95753747Y-65322645D02*
G01*
X95748898Y-65358218D01*
X95708950Y-65367442D01*
X95700908Y-65357594D01*
X95708950Y-65277848D01*
X95729161Y-65267335D01*
X95753747Y-65322645D01*
G37*
G36*
X95955334Y-65658624D02*
G01*
X95950485Y-65694197D01*
X95910537Y-65703421D01*
X95902495Y-65693572D01*
X95910537Y-65613827D01*
X95930748Y-65603314D01*
X95955334Y-65658624D01*
G37*
G36*
X96213507Y-56788783D02*
G01*
X96204141Y-56881219D01*
X96179615Y-56872777D01*
X96170740Y-56842361D01*
X96179615Y-56704788D01*
X96202948Y-56693390D01*
X96213507Y-56788783D01*
G37*
G36*
X96604893Y-65479435D02*
G01*
X96615406Y-65499647D01*
X96560096Y-65524232D01*
X96524523Y-65519383D01*
X96515299Y-65479435D01*
X96525148Y-65471393D01*
X96604893Y-65479435D01*
G37*
G36*
X96774283Y-65142351D02*
G01*
X96805385Y-65166538D01*
X96733685Y-65182949D01*
X96665531Y-65178197D01*
X96645491Y-65147656D01*
X96669264Y-65134341D01*
X96774283Y-65142351D01*
G37*
G36*
X97769620Y-56251217D02*
G01*
X97764771Y-56286790D01*
X97724823Y-56296014D01*
X97716781Y-56286165D01*
X97724823Y-56206419D01*
X97745034Y-56195907D01*
X97769620Y-56251217D01*
G37*
G36*
X98386981Y-65612722D02*
G01*
X98418084Y-65636908D01*
X98346384Y-65653319D01*
X98278229Y-65648568D01*
X98258189Y-65618027D01*
X98281962Y-65604711D01*
X98386981Y-65612722D01*
G37*
G36*
X98441578Y-49330053D02*
G01*
X98436728Y-49365626D01*
X98396780Y-49374850D01*
X98388738Y-49365001D01*
X98396780Y-49285255D01*
X98416992Y-49274743D01*
X98441578Y-49330053D01*
G37*
G36*
X98924547Y-65612722D02*
G01*
X98955650Y-65636908D01*
X98883950Y-65653319D01*
X98815796Y-65648568D01*
X98795755Y-65618027D01*
X98819528Y-65604711D01*
X98924547Y-65612722D01*
G37*
G36*
X98956745Y-65412239D02*
G01*
X98967258Y-65432451D01*
X98911948Y-65457037D01*
X98876375Y-65452187D01*
X98867151Y-65412239D01*
X98876999Y-65404197D01*
X98956745Y-65412239D01*
G37*
G36*
X99091137Y-49554038D02*
G01*
X99101649Y-49574250D01*
X99046339Y-49598836D01*
X99010766Y-49593986D01*
X99001542Y-49554038D01*
X99011391Y-49545996D01*
X99091137Y-49554038D01*
G37*
G36*
X99113535Y-65658624D02*
G01*
X99108686Y-65694197D01*
X99068738Y-65703421D01*
X99060696Y-65693572D01*
X99068738Y-65613827D01*
X99088949Y-65603314D01*
X99113535Y-65658624D01*
G37*
G36*
X99785493Y-58468677D02*
G01*
X99780644Y-58504250D01*
X99740696Y-58513474D01*
X99732654Y-58503625D01*
X99740696Y-58423880D01*
X99760907Y-58413367D01*
X99785493Y-58468677D01*
G37*
G36*
X99919884Y-58267090D02*
G01*
X99915035Y-58302663D01*
X99875087Y-58311887D01*
X99867045Y-58302038D01*
X99875087Y-58222292D01*
X99895299Y-58211780D01*
X99919884Y-58267090D01*
G37*
G36*
X100726234Y-48456508D02*
G01*
X100721384Y-48492081D01*
X100681436Y-48501305D01*
X100673394Y-48491456D01*
X100681436Y-48411710D01*
X100701648Y-48401198D01*
X100726234Y-48456508D01*
G37*
G36*
X94031105Y-55008481D02*
G01*
X94042147Y-55059504D01*
X94008514Y-55108888D01*
X93954003Y-55093392D01*
X93901319Y-55019712D01*
X93931324Y-54945928D01*
X93967337Y-54940590D01*
X94031105Y-55008481D01*
G37*
G36*
X95670497Y-65512160D02*
G01*
X95747001Y-65611283D01*
X95795539Y-65694234D01*
X95797653Y-65718845D01*
X95714859Y-65643425D01*
X95643268Y-65559276D01*
X95625899Y-65495290D01*
X95670497Y-65512160D01*
G37*
G36*
X95860957Y-63632369D02*
G01*
X95840214Y-63662219D01*
X95783379Y-63709947D01*
X95773985Y-63709293D01*
X95759187Y-63670395D01*
X95831325Y-63602736D01*
X95868877Y-63586387D01*
X95860957Y-63632369D01*
G37*
G36*
X96448691Y-65426861D02*
G01*
X96438105Y-65453180D01*
X96387466Y-65519944D01*
X96329263Y-65464078D01*
X96323516Y-65430042D01*
X96389070Y-65366706D01*
X96445675Y-65358645D01*
X96448691Y-65426861D01*
G37*
G36*
X97265176Y-65457806D02*
G01*
X97252011Y-65475429D01*
X97160892Y-65524232D01*
X97123208Y-65520684D01*
X97107364Y-65485622D01*
X97201946Y-65431398D01*
X97254360Y-65419622D01*
X97265176Y-65457806D01*
G37*
G36*
X99424304Y-49347979D02*
G01*
X99380971Y-49432470D01*
X99326068Y-49486030D01*
X99265221Y-49504136D01*
X99254714Y-49455462D01*
X99306480Y-49372039D01*
X99394512Y-49330053D01*
X99424304Y-49347979D01*
G37*
G36*
X100359584Y-50298091D02*
G01*
X100319979Y-50410940D01*
X100262832Y-50492804D01*
X100208520Y-50514632D01*
X100194929Y-50429778D01*
X100244085Y-50322946D01*
X100323314Y-50270793D01*
X100359584Y-50298091D01*
G37*
G36*
X101522403Y-65566207D02*
G01*
X101501748Y-65654153D01*
X101470145Y-65698434D01*
X101425005Y-65716811D01*
X101442199Y-65622128D01*
X101467434Y-65573135D01*
X101514015Y-65550462D01*
X101522403Y-65566207D01*
G37*
G36*
X93640182Y-65477560D02*
G01*
X93687219Y-65580229D01*
X93691635Y-65650950D01*
X93642260Y-65703421D01*
X93599940Y-65683110D01*
X93565085Y-65580229D01*
X93572421Y-65512993D01*
X93610044Y-65457037D01*
X93640182Y-65477560D01*
G37*
G36*
X93979872Y-57732616D02*
G01*
X94040255Y-57796719D01*
X94050754Y-57822748D01*
X94010623Y-57863915D01*
X93991118Y-57861333D01*
X93939461Y-57796719D01*
X93940232Y-57781512D01*
X93969093Y-57729523D01*
X93979872Y-57732616D01*
G37*
G36*
X96190519Y-65634324D02*
G01*
X96238769Y-65656083D01*
X96291313Y-65699411D01*
X96280173Y-65711443D01*
X96190519Y-65725820D01*
X96144184Y-65718487D01*
X96089726Y-65660733D01*
X96103994Y-65632927D01*
X96190519Y-65634324D01*
G37*
G36*
X97450440Y-56780211D02*
G01*
X97522113Y-56841713D01*
X97568033Y-56897804D01*
X97566929Y-56909595D01*
X97523149Y-56910050D01*
X97425070Y-56805582D01*
X97387533Y-56756894D01*
X97370847Y-56722097D01*
X97450440Y-56780211D01*
G37*
G36*
X97745680Y-50234096D02*
G01*
X97702424Y-50337989D01*
X97650870Y-50420870D01*
X97596902Y-50472381D01*
X97591973Y-50441882D01*
X97635228Y-50337989D01*
X97686783Y-50255108D01*
X97740750Y-50203597D01*
X97745680Y-50234096D01*
G37*
G36*
X97902277Y-50003256D02*
G01*
X97965785Y-50017132D01*
X97904011Y-50069206D01*
X97838109Y-50110430D01*
X97779941Y-50127880D01*
X97769620Y-50069206D01*
X97787530Y-50033827D01*
X97887212Y-50003039D01*
X97902277Y-50003256D01*
G37*
G36*
X98053942Y-50609354D02*
G01*
X98105599Y-50673968D01*
X98104828Y-50689175D01*
X98075967Y-50741164D01*
X98065188Y-50738072D01*
X98004805Y-50673968D01*
X97994306Y-50647939D01*
X98034437Y-50606772D01*
X98053942Y-50609354D01*
G37*
G36*
X98882233Y-50542600D02*
G01*
X98945546Y-50606772D01*
X98958062Y-50630563D01*
X98953477Y-50673968D01*
X98941663Y-50670944D01*
X98878350Y-50606772D01*
X98865834Y-50582981D01*
X98870419Y-50539576D01*
X98882233Y-50542600D01*
G37*
G36*
X99218212Y-50676991D02*
G01*
X99281525Y-50741164D01*
X99294041Y-50764954D01*
X99289456Y-50808359D01*
X99277642Y-50805336D01*
X99214329Y-50741164D01*
X99201813Y-50717373D01*
X99206398Y-50673968D01*
X99218212Y-50676991D01*
G37*
G36*
X99554191Y-65392864D02*
G01*
X99617503Y-65457037D01*
X99630019Y-65480827D01*
X99625435Y-65524232D01*
X99613621Y-65521209D01*
X99550308Y-65457037D01*
X99537792Y-65433246D01*
X99542376Y-65389841D01*
X99554191Y-65392864D01*
G37*
G36*
X100035810Y-50606637D02*
G01*
X100003197Y-50698175D01*
X99913634Y-50740879D01*
X99821174Y-50677339D01*
X99825562Y-50622074D01*
X99913836Y-50542813D01*
X99950485Y-50524204D01*
X100025669Y-50513984D01*
X100035810Y-50606637D01*
G37*
G36*
X100137011Y-57396127D02*
G01*
X100188668Y-57460740D01*
X100187897Y-57475947D01*
X100159035Y-57527936D01*
X100148256Y-57524844D01*
X100087874Y-57460740D01*
X100077374Y-57434711D01*
X100117506Y-57393545D01*
X100137011Y-57396127D01*
G37*
G36*
X100539134Y-65334328D02*
G01*
X100591842Y-65423439D01*
X100585105Y-65469701D01*
X100531836Y-65524232D01*
X100499108Y-65512358D01*
X100433151Y-65423439D01*
X100425367Y-65367167D01*
X100493157Y-65322645D01*
X100539134Y-65334328D01*
G37*
G36*
X101560853Y-56256493D02*
G01*
X101566181Y-56318412D01*
X101552389Y-56338522D01*
X101495019Y-56385608D01*
X101488313Y-56383861D01*
X101465387Y-56318412D01*
X101468122Y-56299995D01*
X101536549Y-56251217D01*
X101560853Y-56256493D01*
G37*
G36*
X100801554Y-65639871D02*
G01*
X100808974Y-65651880D01*
X100757326Y-65673415D01*
X100608580Y-65663939D01*
X100568366Y-65658316D01*
X100441315Y-65637054D01*
X100437820Y-65622028D01*
X100549631Y-65604990D01*
X100697554Y-65604557D01*
X100801554Y-65639871D01*
G37*
G36*
X93187058Y-65582233D02*
G01*
X93245343Y-65640213D01*
X93287662Y-65582233D01*
X93314093Y-65542775D01*
X93329394Y-65613827D01*
X93329190Y-65633740D01*
X93287175Y-65705162D01*
X93210551Y-65687217D01*
X93148995Y-65587228D01*
X93140034Y-65526391D01*
X93187058Y-65582233D01*
G37*
G36*
X94222134Y-65174527D02*
G01*
X94370175Y-65233229D01*
X94432079Y-65277812D01*
X94395070Y-65296159D01*
X94239887Y-65293243D01*
X94192084Y-65289654D01*
X94033676Y-65258359D01*
X93958185Y-65210827D01*
X93974976Y-65169153D01*
X94075285Y-65152346D01*
X94222134Y-65174527D01*
G37*
G36*
X95429542Y-54406452D02*
G01*
X95411474Y-54554523D01*
X95374922Y-54620556D01*
X95280305Y-54694481D01*
X95189541Y-54697273D01*
X95148985Y-54617763D01*
X95152462Y-54580277D01*
X95208672Y-54451633D01*
X95302293Y-54361545D01*
X95392510Y-54354190D01*
X95429542Y-54406452D01*
G37*
G36*
X102016189Y-56117069D02*
G01*
X102115283Y-56166974D01*
X102132006Y-56261012D01*
X102053350Y-56337388D01*
X102046293Y-56339669D01*
X101935236Y-56328208D01*
X101848380Y-56260241D01*
X101839669Y-56176407D01*
X101880789Y-56144015D01*
X102006919Y-56116825D01*
X102016189Y-56117069D01*
G37*
G36*
X94389448Y-54816903D02*
G01*
X94439610Y-54957698D01*
X94455658Y-55057705D01*
X94403160Y-55108888D01*
X94372685Y-55105163D01*
X94361835Y-55067291D01*
X94364429Y-55018143D01*
X94296839Y-54919100D01*
X94235434Y-54836476D01*
X94270640Y-54785709D01*
X94339863Y-54772329D01*
X94389448Y-54816903D01*
G37*
G36*
X95256506Y-53069125D02*
G01*
X95334368Y-53174509D01*
X95317884Y-53304384D01*
X95202526Y-53409811D01*
X95196489Y-53412564D01*
X95040694Y-53444090D01*
X94964523Y-53369188D01*
X94974851Y-53194367D01*
X94979481Y-53176824D01*
X95045844Y-53056587D01*
X95168159Y-53038256D01*
X95256506Y-53069125D01*
G37*
G36*
X97949293Y-56872462D02*
G01*
X97966636Y-56890283D01*
X98023305Y-56988665D01*
X97974006Y-57087791D01*
X97924901Y-57140825D01*
X97820504Y-57185768D01*
X97716208Y-57107772D01*
X97684433Y-57028751D01*
X97742235Y-56892443D01*
X97789176Y-56832375D01*
X97857905Y-56799821D01*
X97949293Y-56872462D01*
G37*
G36*
X98441578Y-50971716D02*
G01*
X98568730Y-50994124D01*
X98727160Y-51009029D01*
X98789709Y-51025064D01*
X98844752Y-51110740D01*
X98840319Y-51161888D01*
X98800254Y-51201573D01*
X98697950Y-51172128D01*
X98508773Y-51070611D01*
X98377732Y-50990572D01*
X98356198Y-50960037D01*
X98441578Y-50971716D01*
G37*
G36*
X99284872Y-65442127D02*
G01*
X99398830Y-65555746D01*
X99426087Y-65608587D01*
X99436744Y-65655362D01*
X99366256Y-65605423D01*
X99297743Y-65562863D01*
X99237441Y-65589287D01*
X99202310Y-65603593D01*
X99132252Y-65529233D01*
X99104626Y-65482513D01*
X99094031Y-65416003D01*
X99188381Y-65408893D01*
X99284872Y-65442127D01*
G37*
G36*
X100617253Y-56968296D02*
G01*
X100729620Y-56990370D01*
X100762564Y-57003398D01*
X100758189Y-57071536D01*
X100696141Y-57157303D01*
X100602920Y-57213935D01*
X100533868Y-57231507D01*
X100398615Y-57250712D01*
X100362203Y-57207463D01*
X100403664Y-57088567D01*
X100477901Y-56980949D01*
X100575709Y-56954176D01*
X100617253Y-56968296D01*
G37*
G36*
X99131953Y-49937549D02*
G01*
X99180731Y-50005976D01*
X99183639Y-50027418D01*
X99233528Y-50044507D01*
X99263223Y-50047256D01*
X99286324Y-50132912D01*
X99285974Y-50152858D01*
X99259283Y-50217449D01*
X99166332Y-50179011D01*
X99150418Y-50168316D01*
X99065945Y-50070788D01*
X99050171Y-49976857D01*
X99113535Y-49934814D01*
X99131953Y-49937549D01*
G37*
G36*
X101367080Y-56073613D02*
G01*
X101407258Y-56136542D01*
X101391807Y-56301607D01*
X101363108Y-56399927D01*
X101370222Y-56452804D01*
X101380270Y-56457232D01*
X101364593Y-56520000D01*
X101340952Y-56555039D01*
X101300970Y-56576545D01*
X101282618Y-56493824D01*
X101280405Y-56292005D01*
X101288483Y-56132965D01*
X101315012Y-56053845D01*
X101367080Y-56073613D01*
G37*
G36*
X93764984Y-55858540D02*
G01*
X93734980Y-55888094D01*
X93650775Y-55855017D01*
X93625729Y-55814444D01*
X93670678Y-55814444D01*
X93704276Y-55848042D01*
X93737874Y-55814444D01*
X93704276Y-55780846D01*
X93670678Y-55814444D01*
X93625729Y-55814444D01*
X93613412Y-55794492D01*
X93639104Y-55729490D01*
X93734499Y-55745163D01*
X93759042Y-55767521D01*
X93762105Y-55814444D01*
X93764984Y-55858540D01*
G37*
G36*
X96407679Y-58140243D02*
G01*
X96536624Y-58233287D01*
X96610233Y-58401182D01*
X96617041Y-58604279D01*
X96545579Y-58802930D01*
X96532666Y-58821972D01*
X96402583Y-58907730D01*
X96244178Y-58876459D01*
X96083360Y-58732128D01*
X96063238Y-58704758D01*
X95968571Y-58489370D01*
X95992039Y-58306725D01*
X96123228Y-58180081D01*
X96351727Y-58132698D01*
X96407679Y-58140243D01*
G37*
G36*
X96400368Y-65074721D02*
G01*
X96579805Y-65168738D01*
X96401961Y-65213374D01*
X96281353Y-65261226D01*
X96224117Y-65323925D01*
X96223148Y-65338199D01*
X96183330Y-65389841D01*
X96168484Y-65379190D01*
X96178079Y-65297235D01*
X96186663Y-65252997D01*
X96145816Y-65136830D01*
X96108498Y-65077137D01*
X96144501Y-65026990D01*
X96253048Y-65023438D01*
X96400368Y-65074721D01*
G37*
G36*
X96452975Y-55113475D02*
G01*
X96453085Y-55199244D01*
X96440212Y-55293769D01*
X96393558Y-55461666D01*
X96392832Y-55463355D01*
X96310174Y-55542167D01*
X96185534Y-55577076D01*
X96073180Y-55563101D01*
X96027381Y-55495264D01*
X96033718Y-55472451D01*
X96111317Y-55363634D01*
X96247708Y-55232842D01*
X96318778Y-55174466D01*
X96417335Y-55103722D01*
X96452975Y-55113475D01*
G37*
G36*
X99691038Y-50763458D02*
G01*
X99670104Y-50836575D01*
X99645796Y-50965046D01*
X99637631Y-50995516D01*
X99604064Y-50951946D01*
X99570408Y-50899034D01*
X99516975Y-50942322D01*
X99478919Y-50984730D01*
X99420057Y-50949450D01*
X99415889Y-50897574D01*
X99495652Y-50829585D01*
X99565436Y-50796671D01*
X99674239Y-50712467D01*
X99702491Y-50691620D01*
X99691038Y-50763458D01*
G37*
G36*
X95155634Y-57534106D02*
G01*
X95172294Y-57563667D01*
X95202851Y-57713496D01*
X95164476Y-57842821D01*
X95069733Y-57898370D01*
X95011935Y-57904410D01*
X94907343Y-57948767D01*
X94901900Y-57954084D01*
X94805862Y-57993773D01*
X94692054Y-57917672D01*
X94689600Y-57915201D01*
X94616720Y-57787295D01*
X94669772Y-57670012D01*
X94852868Y-57554058D01*
X95000576Y-57491070D01*
X95096683Y-57480970D01*
X95155634Y-57534106D01*
G37*
G36*
X100007370Y-58035072D02*
G01*
X99955804Y-58089986D01*
X99906676Y-58039514D01*
X99892491Y-57964709D01*
X99919884Y-57964709D01*
X99953482Y-57998306D01*
X99987080Y-57964709D01*
X99953482Y-57931111D01*
X99919884Y-57964709D01*
X99892491Y-57964709D01*
X99888020Y-57941129D01*
X99964708Y-57755419D01*
X100054336Y-57652678D01*
X100104909Y-57659883D01*
X100106334Y-57761858D01*
X100050320Y-57940661D01*
X100039380Y-57964709D01*
X100007370Y-58035072D01*
G37*
G36*
X94722020Y-55951470D02*
G01*
X94932138Y-55971714D01*
X95057685Y-55989289D01*
X95189501Y-56019827D01*
X95225039Y-56062326D01*
X95188373Y-56131830D01*
X95101398Y-56217234D01*
X94941302Y-56313806D01*
X94808076Y-56345900D01*
X94611419Y-56340763D01*
X94488419Y-56315270D01*
X94371042Y-56298778D01*
X94368894Y-56298638D01*
X94340246Y-56247712D01*
X94369585Y-56140350D01*
X94435625Y-56026502D01*
X94517077Y-55956118D01*
X94564106Y-55948910D01*
X94722020Y-55951470D01*
G37*
G36*
X96830355Y-65389683D02*
G01*
X96928537Y-65522035D01*
X96940607Y-65545435D01*
X96996932Y-65669857D01*
X96979919Y-65716290D01*
X96881002Y-65720515D01*
X96799300Y-65709119D01*
X96804947Y-65683695D01*
X96844133Y-65633723D01*
X96844055Y-65507810D01*
X96825147Y-65439642D01*
X96797004Y-65404975D01*
X96755117Y-65494233D01*
X96743796Y-65522494D01*
X96710554Y-65578418D01*
X96699210Y-65511399D01*
X96700914Y-65454308D01*
X96745937Y-65366711D01*
X96830355Y-65389683D01*
G37*
G36*
X98143355Y-52333644D02*
G01*
X98229085Y-52513532D01*
X98299167Y-52673956D01*
X98337680Y-52797844D01*
X98323066Y-52870611D01*
X98258036Y-52931368D01*
X98177441Y-52985404D01*
X98088800Y-53023683D01*
X98063447Y-53014869D01*
X98038938Y-52931740D01*
X98060369Y-52807684D01*
X98121836Y-52700482D01*
X98170402Y-52627403D01*
X98115957Y-52561851D01*
X98065757Y-52490794D01*
X98053969Y-52346263D01*
X98065088Y-52294709D01*
X98093370Y-52265174D01*
X98143355Y-52333644D01*
G37*
G36*
X101300162Y-58224567D02*
G01*
X101414263Y-58311276D01*
X101472910Y-58463661D01*
X101427767Y-58617195D01*
X101280599Y-58726555D01*
X101139811Y-58774374D01*
X101045414Y-58799351D01*
X101018983Y-58790969D01*
X100995609Y-58709021D01*
X101016331Y-58586848D01*
X101075652Y-58482116D01*
X101113587Y-58418406D01*
X101031639Y-58401481D01*
X100966306Y-58398718D01*
X100945842Y-58368022D01*
X101021489Y-58274964D01*
X101053739Y-58241372D01*
X101160071Y-58184703D01*
X101300162Y-58224567D01*
G37*
G36*
X100769586Y-50508510D02*
G01*
X101007934Y-50636412D01*
X101200661Y-50744192D01*
X101353217Y-50813408D01*
X101426065Y-50825283D01*
X101438051Y-50816508D01*
X101465387Y-50853157D01*
X101465024Y-50863262D01*
X101430976Y-50954763D01*
X101427685Y-50956228D01*
X101345008Y-50936749D01*
X101184930Y-50877087D01*
X100985377Y-50793646D01*
X100784274Y-50702831D01*
X100619548Y-50621045D01*
X100529126Y-50564692D01*
X100522897Y-50547828D01*
X100564566Y-50472778D01*
X100614411Y-50460209D01*
X100769586Y-50508510D01*
G37*
G36*
X100978552Y-54342924D02*
G01*
X101055587Y-54361461D01*
X101145055Y-54418585D01*
X101143651Y-54524113D01*
X101125387Y-54590143D01*
X101096420Y-54624813D01*
X101049816Y-54534126D01*
X101029441Y-54498794D01*
X101014712Y-54538627D01*
X101027082Y-54705714D01*
X101061362Y-55008095D01*
X100933029Y-54740579D01*
X100900040Y-54666504D01*
X100846650Y-54504048D01*
X100843684Y-54409980D01*
X100846027Y-54381175D01*
X100770855Y-54389805D01*
X100709069Y-54402602D01*
X100659038Y-54367626D01*
X100659876Y-54351850D01*
X100689413Y-54311454D01*
X100784935Y-54309306D01*
X100978552Y-54342924D01*
G37*
G36*
X101456671Y-52667637D02*
G01*
X101417422Y-52721220D01*
X101314197Y-52696891D01*
X101215996Y-52637218D01*
X101183808Y-52589047D01*
X101196604Y-52589047D01*
X101230202Y-52622645D01*
X101263800Y-52589047D01*
X101230202Y-52555449D01*
X101196604Y-52589047D01*
X101183808Y-52589047D01*
X101139748Y-52523109D01*
X101138236Y-52458749D01*
X101190144Y-52450663D01*
X101223204Y-52461676D01*
X101264829Y-52408225D01*
X101275814Y-52356746D01*
X101323890Y-52411862D01*
X101376762Y-52469813D01*
X101418350Y-52411862D01*
X101423284Y-52401528D01*
X101447466Y-52416718D01*
X101460082Y-52536485D01*
X101458715Y-52589047D01*
X101456671Y-52667637D01*
G37*
G36*
X101700964Y-51263590D02*
G01*
X101810260Y-51343909D01*
X101974049Y-51507972D01*
X102105723Y-51648332D01*
X102179946Y-51741150D01*
X102171563Y-51767703D01*
X102087874Y-51743065D01*
X101928614Y-51703956D01*
X101784897Y-51737866D01*
X101728865Y-51864584D01*
X101718405Y-51929145D01*
X101687708Y-51894411D01*
X101679442Y-51847869D01*
X101725012Y-51731380D01*
X101738724Y-51715240D01*
X101750156Y-51611784D01*
X101669424Y-51519948D01*
X101528321Y-51480317D01*
X101508739Y-51479942D01*
X101389335Y-51445018D01*
X101388963Y-51371645D01*
X101510071Y-51285905D01*
X101611336Y-51250349D01*
X101700964Y-51263590D01*
G37*
G36*
X98347984Y-53123798D02*
G01*
X98374382Y-53222944D01*
X98375063Y-53309204D01*
X98378347Y-53412195D01*
X98345032Y-53453225D01*
X98227157Y-53501134D01*
X98072001Y-53539675D01*
X98223191Y-53589656D01*
X98320424Y-53647865D01*
X98374382Y-53800990D01*
X98374315Y-53811125D01*
X98349140Y-53919456D01*
X98265834Y-53920689D01*
X98251666Y-53915525D01*
X98187043Y-53918854D01*
X98201432Y-54018126D01*
X98210761Y-54125560D01*
X98125191Y-54182510D01*
X98057433Y-54191642D01*
X97992414Y-54168196D01*
X97960603Y-54080636D01*
X97955651Y-53905786D01*
X97971207Y-53620469D01*
X97982323Y-53465073D01*
X98003378Y-53273188D01*
X98036518Y-53169138D01*
X98094379Y-53123126D01*
X98189593Y-53105351D01*
X98243902Y-53100723D01*
X98347984Y-53123798D01*
G37*
G36*
X103078085Y-58318209D02*
G01*
X103077746Y-58539284D01*
X103073557Y-58789802D01*
X103060399Y-58946411D01*
X103033147Y-59033790D01*
X102986679Y-59076621D01*
X102915869Y-59099583D01*
X102824483Y-59129998D01*
X102786729Y-59194779D01*
X102826067Y-59332144D01*
X102864150Y-59494535D01*
X102856001Y-59634694D01*
X102787140Y-59705884D01*
X102636509Y-59743282D01*
X102467760Y-59723088D01*
X102338630Y-59644239D01*
X102289275Y-59516054D01*
X102298292Y-59270325D01*
X102310334Y-59176784D01*
X102296999Y-58981567D01*
X102206028Y-58806745D01*
X102152328Y-58728356D01*
X102082292Y-58580757D01*
X102107782Y-58469816D01*
X102231223Y-58351730D01*
X102343789Y-58224631D01*
X102360633Y-58059395D01*
X102355456Y-58015240D01*
X102408963Y-57837326D01*
X102574362Y-57699285D01*
X102834566Y-57617066D01*
X103078085Y-57577548D01*
X103078085Y-58318209D01*
G37*
G36*
X101625517Y-49701597D02*
G01*
X101717355Y-49765084D01*
X101870098Y-49896252D01*
X102060224Y-50075448D01*
X102109431Y-50125117D01*
X102318248Y-50366151D01*
X102518564Y-50639469D01*
X102694493Y-50918288D01*
X102830148Y-51175827D01*
X102909641Y-51385303D01*
X102917085Y-51519932D01*
X102892640Y-51558416D01*
X102805021Y-51579171D01*
X102715774Y-51520496D01*
X102674911Y-51405932D01*
X102657551Y-51334280D01*
X102575666Y-51278730D01*
X102572055Y-51278613D01*
X102468474Y-51222251D01*
X102358832Y-51093941D01*
X102354623Y-51087345D01*
X102262243Y-50951009D01*
X102201426Y-50875555D01*
X102163363Y-50837406D01*
X102054915Y-50720691D01*
X101909899Y-50560167D01*
X101829757Y-50468322D01*
X101728815Y-50330226D01*
X101702279Y-50231175D01*
X101735132Y-50134604D01*
X101745754Y-50113981D01*
X101772666Y-49986262D01*
X101695141Y-49861617D01*
X101625441Y-49767017D01*
X101610709Y-49699899D01*
X101625517Y-49701597D01*
G37*
G36*
X97842084Y-65601550D02*
G01*
X97921435Y-65614258D01*
X97951965Y-65601688D01*
X97944026Y-65648242D01*
X97854646Y-65709587D01*
X97685395Y-65718012D01*
X97496419Y-65656260D01*
X97399266Y-65620494D01*
X97366445Y-65667459D01*
X97362510Y-65696284D01*
X97320939Y-65702712D01*
X97327718Y-65635660D01*
X97404208Y-65539902D01*
X97529002Y-65539902D01*
X97562293Y-65621479D01*
X97583702Y-65630459D01*
X97665279Y-65597167D01*
X97674259Y-65575759D01*
X97640968Y-65494182D01*
X97619559Y-65485201D01*
X97537982Y-65518493D01*
X97529002Y-65539902D01*
X97404208Y-65539902D01*
X97412547Y-65529463D01*
X97429895Y-65514640D01*
X97588084Y-65432987D01*
X97785612Y-65384075D01*
X97969106Y-65376638D01*
X98085196Y-65419408D01*
X98101514Y-65442650D01*
X98059845Y-65433116D01*
X98023271Y-65420576D01*
X97937609Y-65457037D01*
X97918408Y-65479114D01*
X97832942Y-65488241D01*
X97805621Y-65484445D01*
X97811029Y-65553954D01*
X97825256Y-65575759D01*
X97842084Y-65601550D01*
G37*
G36*
X100376015Y-65503054D02*
G01*
X100281662Y-65623226D01*
X100274687Y-65630070D01*
X100144982Y-65705630D01*
X100059591Y-65664418D01*
X100057018Y-65639385D01*
X100071262Y-65639385D01*
X100103726Y-65638452D01*
X100218310Y-65555693D01*
X100254268Y-65527653D01*
X100302455Y-65471187D01*
X100242298Y-65457037D01*
X100188957Y-65468412D01*
X100097172Y-65557830D01*
X100096755Y-65558917D01*
X100071262Y-65639385D01*
X100057018Y-65639385D01*
X100044542Y-65517986D01*
X100055430Y-65425156D01*
X100031828Y-65397509D01*
X99938457Y-65473836D01*
X99839532Y-65550570D01*
X99750560Y-65591428D01*
X99745528Y-65565288D01*
X99823047Y-65490470D01*
X99846576Y-65471955D01*
X99899883Y-65418301D01*
X99842687Y-65427855D01*
X99778468Y-65435660D01*
X99680473Y-65383003D01*
X99665294Y-65332347D01*
X99740872Y-65342715D01*
X99802342Y-65356958D01*
X99852689Y-65329256D01*
X99863633Y-65309477D01*
X99958476Y-65283603D01*
X100105900Y-65284805D01*
X100250990Y-65310035D01*
X100338829Y-65356243D01*
X100369535Y-65404589D01*
X100373918Y-65471187D01*
X100376015Y-65503054D01*
G37*
G36*
X93938549Y-50472381D02*
G01*
X94068182Y-50515426D01*
X94260912Y-50539576D01*
X94350132Y-50551827D01*
X94466925Y-50614776D01*
X94607900Y-50749544D01*
X94797912Y-50976349D01*
X94859581Y-51055097D01*
X94993147Y-51238133D01*
X95071481Y-51365407D01*
X95079253Y-51413121D01*
X95006670Y-51404317D01*
X94846918Y-51362705D01*
X94673408Y-51302401D01*
X94534119Y-51240769D01*
X94477027Y-51195173D01*
X94477931Y-51186472D01*
X94538277Y-51144338D01*
X94564985Y-51129566D01*
X94572220Y-51036509D01*
X94534186Y-50896600D01*
X94465589Y-50755332D01*
X94381135Y-50658198D01*
X94315803Y-50622283D01*
X94238590Y-50614741D01*
X94241842Y-50673968D01*
X94253101Y-50695904D01*
X94229327Y-50736494D01*
X94099229Y-50714666D01*
X93856826Y-50629734D01*
X93698987Y-50565344D01*
X93509865Y-50469209D01*
X93449134Y-50405185D01*
X93536287Y-50405185D01*
X93539021Y-50423602D01*
X93607448Y-50472381D01*
X93631753Y-50467105D01*
X93637080Y-50405185D01*
X93623288Y-50385076D01*
X93565919Y-50337989D01*
X93559213Y-50339736D01*
X93536287Y-50405185D01*
X93449134Y-50405185D01*
X93438549Y-50394026D01*
X93476697Y-50333288D01*
X93543415Y-50315740D01*
X93681465Y-50344156D01*
X93767262Y-50386715D01*
X93804192Y-50405185D01*
X93938549Y-50472381D01*
G37*
G36*
X100987113Y-55325244D02*
G01*
X100954422Y-55419432D01*
X100999858Y-55551495D01*
X101010293Y-55564227D01*
X101043346Y-55623686D01*
X100970923Y-55607206D01*
X100914483Y-55577039D01*
X100860625Y-55504874D01*
X100850997Y-55478753D01*
X100764666Y-55444867D01*
X100749780Y-55442329D01*
X100641347Y-55390137D01*
X100473755Y-55286201D01*
X100410778Y-55243280D01*
X100491048Y-55243280D01*
X100504840Y-55263389D01*
X100562210Y-55310476D01*
X100568916Y-55308729D01*
X100591842Y-55243280D01*
X100589108Y-55224862D01*
X100520681Y-55176084D01*
X100496376Y-55181360D01*
X100491048Y-55243280D01*
X100410778Y-55243280D01*
X100275720Y-55151234D01*
X100075957Y-55005953D01*
X99903179Y-54871072D01*
X99786101Y-54767306D01*
X99753439Y-54715369D01*
X99806492Y-54725548D01*
X99944211Y-54791752D01*
X100131270Y-54900572D01*
X100340076Y-55019559D01*
X100466866Y-55061662D01*
X100530318Y-55032516D01*
X100537830Y-55014816D01*
X100492840Y-54929844D01*
X100318220Y-54830456D01*
X100248028Y-54798185D01*
X100109382Y-54727828D01*
X100054276Y-54688894D01*
X100058622Y-54685039D01*
X100144686Y-54680733D01*
X100306260Y-54692685D01*
X100325337Y-54695105D01*
X100534625Y-54761893D01*
X100734153Y-54884971D01*
X100895215Y-55037669D01*
X100989104Y-55193317D01*
X100988350Y-55243280D01*
X100987113Y-55325244D01*
G37*
G36*
X101367458Y-53517345D02*
G01*
X101350412Y-53750576D01*
X101324377Y-53953414D01*
X101291827Y-54091196D01*
X101255239Y-54129259D01*
X101225344Y-54125520D01*
X101196604Y-54197780D01*
X101173089Y-54258749D01*
X101062212Y-54302539D01*
X100984101Y-54289939D01*
X100927821Y-54235344D01*
X100902620Y-54196288D01*
X100793429Y-54168148D01*
X100715318Y-54155547D01*
X100659038Y-54100952D01*
X100667972Y-54072402D01*
X100752755Y-54033756D01*
X100789453Y-54026369D01*
X100817548Y-53958290D01*
X100792493Y-53794418D01*
X100771735Y-53636398D01*
X100822985Y-53392260D01*
X100904839Y-53284632D01*
X100969578Y-53297611D01*
X100995017Y-53436228D01*
X101004942Y-53501569D01*
X101069700Y-53601611D01*
X101103799Y-53599576D01*
X101118619Y-53502233D01*
X101104329Y-53328201D01*
X101263800Y-53328201D01*
X101297398Y-53361799D01*
X101330996Y-53328201D01*
X101297398Y-53294603D01*
X101263800Y-53328201D01*
X101104329Y-53328201D01*
X101100896Y-53286397D01*
X101080363Y-53104072D01*
X101077568Y-53004370D01*
X101101853Y-53006315D01*
X101158223Y-53093015D01*
X101259038Y-53261005D01*
X101263462Y-53059418D01*
X101268328Y-52959139D01*
X101289048Y-52913198D01*
X101337484Y-52977400D01*
X101339912Y-52981923D01*
X101364683Y-53098355D01*
X101373040Y-53288383D01*
X101372069Y-53328201D01*
X101367458Y-53517345D01*
G37*
G36*
X97649381Y-50071947D02*
G01*
X97662463Y-50108515D01*
X97570025Y-50201869D01*
X97470614Y-50321277D01*
X97455500Y-50481516D01*
X97465458Y-50587188D01*
X97427293Y-50753024D01*
X97396645Y-50853973D01*
X97462981Y-50916817D01*
X97538520Y-50971631D01*
X97662876Y-51124979D01*
X97782570Y-51327087D01*
X97867965Y-51532871D01*
X97875258Y-51557651D01*
X97884262Y-51642458D01*
X97822757Y-51669704D01*
X97659555Y-51658131D01*
X97624607Y-51654571D01*
X97403060Y-51650823D01*
X97279509Y-51686254D01*
X97270355Y-51756710D01*
X97256001Y-51812627D01*
X97152376Y-51879801D01*
X97099819Y-51897120D01*
X96918340Y-51929836D01*
X96705656Y-51944422D01*
X96502861Y-51940890D01*
X96351049Y-51919254D01*
X96291313Y-51879526D01*
X96288418Y-51858090D01*
X96238687Y-51840889D01*
X96232109Y-51843906D01*
X96122022Y-51846239D01*
X95939847Y-51820236D01*
X95735134Y-51776317D01*
X95557435Y-51724898D01*
X95456299Y-51676397D01*
X95448978Y-51644064D01*
X95540293Y-51646021D01*
X95590336Y-51652857D01*
X95677716Y-51633720D01*
X95658949Y-51578684D01*
X95535361Y-51521329D01*
X95522944Y-51517371D01*
X95392264Y-51421334D01*
X95283281Y-51261941D01*
X95182392Y-51043306D01*
X95720053Y-51060663D01*
X95721055Y-51060695D01*
X96046902Y-51062411D01*
X96384490Y-51050335D01*
X96660890Y-51027070D01*
X97064064Y-50976119D01*
X97121495Y-50707451D01*
X97141320Y-50618604D01*
X97218340Y-50345546D01*
X97292953Y-50192815D01*
X97362088Y-50167307D01*
X97386210Y-50176375D01*
X97466562Y-50137498D01*
X97496656Y-50107071D01*
X97615878Y-50069206D01*
X97649381Y-50071947D01*
G37*
G36*
X94594620Y-54396410D02*
G01*
X94586470Y-54405630D01*
X94430609Y-54541840D01*
X94316642Y-54551809D01*
X94241508Y-54435878D01*
X94198520Y-54300434D01*
X94067705Y-54403333D01*
X94026331Y-54435878D01*
X94021774Y-54439452D01*
X93861644Y-54546055D01*
X93774515Y-54562775D01*
X93771689Y-54487328D01*
X93767148Y-54403333D01*
X93872265Y-54403333D01*
X93905863Y-54436931D01*
X93939461Y-54403333D01*
X93905863Y-54369735D01*
X93872265Y-54403333D01*
X93767148Y-54403333D01*
X93767126Y-54402924D01*
X93704110Y-54277953D01*
X93816956Y-54277953D01*
X93872265Y-54302539D01*
X93907839Y-54297690D01*
X93917063Y-54257742D01*
X93907214Y-54249700D01*
X93827468Y-54257742D01*
X93816956Y-54277953D01*
X93704110Y-54277953D01*
X93699731Y-54269269D01*
X93662196Y-54222199D01*
X93593841Y-54176651D01*
X93534662Y-54235671D01*
X93487780Y-54292920D01*
X93470120Y-54247614D01*
X93447321Y-54198385D01*
X93334699Y-54201746D01*
X93252622Y-54213826D01*
X93200308Y-54172676D01*
X93211717Y-54139629D01*
X93301101Y-54100952D01*
X93344726Y-54097528D01*
X93400406Y-54054637D01*
X93353874Y-53983779D01*
X93217107Y-53911905D01*
X93160504Y-53890521D01*
X93122835Y-53864484D01*
X93193410Y-53856474D01*
X93385096Y-53862725D01*
X93562357Y-53865340D01*
X93697529Y-53843467D01*
X93737874Y-53788589D01*
X93743364Y-53751522D01*
X93800541Y-53697777D01*
X93860215Y-53746094D01*
X93928609Y-53890264D01*
X93980711Y-54090310D01*
X94007969Y-54174986D01*
X94068397Y-54232965D01*
X94121402Y-54187490D01*
X94132947Y-54166935D01*
X94231508Y-54070326D01*
X94387821Y-53959399D01*
X94529461Y-53879688D01*
X94626047Y-53858038D01*
X94684421Y-53906459D01*
X94725760Y-53992197D01*
X94724665Y-54186041D01*
X94680341Y-54257742D01*
X94594620Y-54396410D01*
G37*
G36*
X99701540Y-51647139D02*
G01*
X99718297Y-51746992D01*
X99697367Y-51841058D01*
X99583368Y-51931358D01*
X99527377Y-51952909D01*
X99470206Y-52035068D01*
X99466741Y-52205151D01*
X99482674Y-52328258D01*
X99536145Y-52425256D01*
X99652067Y-52456721D01*
X99777384Y-52453944D01*
X99953482Y-52416082D01*
X100008360Y-52393546D01*
X100046151Y-52366243D01*
X99961732Y-52358121D01*
X99928426Y-52355151D01*
X99871903Y-52319931D01*
X99854783Y-52218615D01*
X99867873Y-52017883D01*
X99875306Y-51913313D01*
X99868555Y-51743711D01*
X99831626Y-51681904D01*
X99812100Y-51679973D01*
X99801348Y-51643651D01*
X99855664Y-51635851D01*
X99967298Y-51686471D01*
X100073919Y-51773543D01*
X100121472Y-51860458D01*
X100115418Y-51892384D01*
X100037477Y-51974786D01*
X99999252Y-52015365D01*
X100071075Y-52084518D01*
X100101532Y-52114246D01*
X100161501Y-52271639D01*
X100190138Y-52520500D01*
X100185474Y-52831925D01*
X100145538Y-53177010D01*
X100142557Y-53194611D01*
X100108871Y-53323503D01*
X100045567Y-53399656D01*
X99926953Y-53430470D01*
X99727338Y-53423345D01*
X99421030Y-53385678D01*
X99105006Y-53342362D01*
X99151418Y-53067655D01*
X99211340Y-52864520D01*
X99328166Y-52692532D01*
X99473791Y-52624782D01*
X99482068Y-52627183D01*
X99502221Y-52704668D01*
X99487545Y-52857830D01*
X99481394Y-52891055D01*
X99467262Y-53029883D01*
X99513729Y-53083890D01*
X99648057Y-53093015D01*
X99685044Y-53092740D01*
X99798528Y-53074826D01*
X99844236Y-53000726D01*
X99852689Y-52831422D01*
X99845421Y-52715950D01*
X99781152Y-52558980D01*
X99646852Y-52516089D01*
X99438120Y-52584660D01*
X99412739Y-52597299D01*
X99312261Y-52640128D01*
X99248175Y-52632912D01*
X99207962Y-52554740D01*
X99179099Y-52384699D01*
X99149067Y-52101878D01*
X99138746Y-51990416D01*
X99131241Y-51801361D01*
X99151398Y-51707354D01*
X99202593Y-51681904D01*
X99329430Y-51669904D01*
X99508310Y-51639907D01*
X99624919Y-51622267D01*
X99701540Y-51647139D01*
G37*
G36*
X100322909Y-47752511D02*
G01*
X100374232Y-47818148D01*
X100466721Y-47936431D01*
X100475972Y-47950814D01*
X100577500Y-48131384D01*
X100606531Y-48265643D01*
X100575483Y-48407356D01*
X100551420Y-48470930D01*
X100497792Y-48548674D01*
X100442281Y-48513380D01*
X100441575Y-48512394D01*
X100400704Y-48470301D01*
X100417514Y-48545998D01*
X100438050Y-48619277D01*
X100450206Y-48691693D01*
X100459588Y-48747585D01*
X100485940Y-48767093D01*
X100558532Y-48698177D01*
X100595846Y-48651006D01*
X100655056Y-48611083D01*
X100696410Y-48677297D01*
X100708579Y-48747097D01*
X100675204Y-48895605D01*
X100644114Y-48993038D01*
X100643122Y-49164838D01*
X100660825Y-49226976D01*
X100741083Y-49308838D01*
X100912967Y-49343221D01*
X100995668Y-49353634D01*
X101146341Y-49413012D01*
X101169999Y-49515904D01*
X101066412Y-49661832D01*
X101059520Y-49670356D01*
X100971528Y-49779189D01*
X100926792Y-49884418D01*
X100916074Y-49927411D01*
X100866809Y-49875323D01*
X100792942Y-49820350D01*
X100615853Y-49826967D01*
X100548349Y-49841505D01*
X100480919Y-49843403D01*
X100524646Y-49798852D01*
X100546470Y-49782693D01*
X100579328Y-49741701D01*
X100491048Y-49747232D01*
X100381085Y-49813033D01*
X100286051Y-49986080D01*
X100283519Y-49993789D01*
X100212288Y-50165370D01*
X100139887Y-50279257D01*
X100116631Y-50286704D01*
X100119045Y-50218713D01*
X100153762Y-50092597D01*
X100209332Y-49947325D01*
X100274302Y-49821865D01*
X100289572Y-49783403D01*
X100256959Y-49700307D01*
X100229919Y-49689534D01*
X100188668Y-49730349D01*
X100185474Y-49743890D01*
X100108017Y-49823718D01*
X99959472Y-49911893D01*
X99934884Y-49924226D01*
X99767084Y-50039548D01*
X99661639Y-50162790D01*
X99622669Y-50240783D01*
X99595663Y-50260032D01*
X99588453Y-50153201D01*
X99565761Y-50058658D01*
X99466313Y-49994215D01*
X99431216Y-49991757D01*
X99383498Y-49981229D01*
X99466313Y-49955690D01*
X99528168Y-49924321D01*
X99583906Y-49823955D01*
X99583598Y-49822821D01*
X99718297Y-49822821D01*
X99718649Y-49837639D01*
X99755842Y-49925612D01*
X99834980Y-49905895D01*
X99928522Y-49783624D01*
X99962837Y-49716846D01*
X99973201Y-49670356D01*
X99907904Y-49715845D01*
X99842606Y-49755326D01*
X99762511Y-49755043D01*
X99738585Y-49749052D01*
X99718297Y-49822821D01*
X99583598Y-49822821D01*
X99571766Y-49779289D01*
X99487072Y-49741149D01*
X99298324Y-49740336D01*
X99177870Y-49748217D01*
X98990160Y-49772225D01*
X98907198Y-49822619D01*
X98908448Y-49921577D01*
X98935943Y-49993439D01*
X98973376Y-50091277D01*
X98998466Y-50149159D01*
X99069385Y-50273157D01*
X99084601Y-50299761D01*
X99196982Y-50373755D01*
X99388355Y-50411891D01*
X99684699Y-50452196D01*
X99315123Y-50461954D01*
X99164740Y-50457633D01*
X98865745Y-50384148D01*
X98654839Y-50229224D01*
X98595027Y-50102854D01*
X98654314Y-50102854D01*
X98656798Y-50154720D01*
X98740108Y-50242689D01*
X98817485Y-50293956D01*
X98937181Y-50334170D01*
X98979144Y-50273157D01*
X98959354Y-50227072D01*
X98862759Y-50148224D01*
X98740403Y-50095977D01*
X98654314Y-50102854D01*
X98595027Y-50102854D01*
X98547296Y-50002010D01*
X98519899Y-49875501D01*
X98475706Y-49703922D01*
X98539078Y-49703922D01*
X98570746Y-49790663D01*
X98617125Y-49862816D01*
X98740290Y-49998965D01*
X98752163Y-50008703D01*
X98826635Y-50051106D01*
X98843723Y-49993439D01*
X98791073Y-49830769D01*
X98624811Y-49713039D01*
X98601161Y-49704724D01*
X98539078Y-49703922D01*
X98475706Y-49703922D01*
X98473982Y-49697229D01*
X98473441Y-49695393D01*
X98470473Y-49588978D01*
X98566964Y-49560438D01*
X98639803Y-49572161D01*
X98664474Y-49618720D01*
X98702649Y-49643437D01*
X98843333Y-49653749D01*
X99055783Y-49646282D01*
X99084915Y-49644017D01*
X99405109Y-49597285D01*
X99688602Y-49519363D01*
X99902840Y-49421495D01*
X100015267Y-49314924D01*
X100034929Y-49297999D01*
X100026691Y-49384362D01*
X100025053Y-49393393D01*
X100029316Y-49502747D01*
X100109940Y-49517833D01*
X100166853Y-49497852D01*
X100224666Y-49429926D01*
X100234052Y-49374863D01*
X100305735Y-49238445D01*
X100413013Y-49135881D01*
X100514048Y-49112991D01*
X100570415Y-49124228D01*
X100563482Y-49069745D01*
X100549450Y-49008742D01*
X100595633Y-48888713D01*
X100618191Y-48859691D01*
X100653978Y-48773388D01*
X100601926Y-48764707D01*
X100555339Y-48796452D01*
X100486158Y-48843593D01*
X100379029Y-48896746D01*
X100175456Y-48944972D01*
X99919723Y-48978592D01*
X99648656Y-48995453D01*
X99399082Y-48993400D01*
X99207828Y-48970282D01*
X99111722Y-48923945D01*
X99084028Y-48900352D01*
X99333400Y-48900352D01*
X99373983Y-48910039D01*
X99516710Y-48912465D01*
X99573542Y-48911724D01*
X99830441Y-48893443D01*
X100052616Y-48858194D01*
X100079768Y-48852101D01*
X100243600Y-48828070D01*
X100338198Y-48835441D01*
X100355151Y-48842021D01*
X100390255Y-48796452D01*
X100382653Y-48764891D01*
X100330653Y-48737330D01*
X100211102Y-48737251D01*
X100002838Y-48765438D01*
X99684699Y-48822679D01*
X99594979Y-48839787D01*
X99404039Y-48878552D01*
X99333400Y-48900352D01*
X99084028Y-48900352D01*
X99065799Y-48884823D01*
X98937412Y-48887103D01*
X98917649Y-48894913D01*
X98854775Y-48940162D01*
X98913831Y-48996660D01*
X98940011Y-49024722D01*
X98880043Y-49051290D01*
X98693562Y-49060240D01*
X98587906Y-49056870D01*
X98434630Y-49033752D01*
X98374382Y-48995754D01*
X98374415Y-48994525D01*
X98433750Y-48960618D01*
X98575969Y-48970555D01*
X98719646Y-48981439D01*
X98777556Y-48935277D01*
X98777472Y-48933106D01*
X98715211Y-48881175D01*
X98572003Y-48859682D01*
X98571418Y-48859682D01*
X98432581Y-48840585D01*
X98410845Y-48787850D01*
X98420539Y-48767162D01*
X98424388Y-48751889D01*
X98526972Y-48751889D01*
X98528013Y-48774827D01*
X98615167Y-48787181D01*
X98681217Y-48776421D01*
X98655764Y-48746584D01*
X98616906Y-48735848D01*
X98526972Y-48751889D01*
X98424388Y-48751889D01*
X98443793Y-48674894D01*
X98928341Y-48674894D01*
X98933812Y-48685759D01*
X99030187Y-48744604D01*
X99182367Y-48776421D01*
X99196482Y-48779372D01*
X99207738Y-48780262D01*
X99399795Y-48766467D01*
X99497780Y-48699273D01*
X99496754Y-48691693D01*
X99718297Y-48691693D01*
X99725877Y-48699273D01*
X99751895Y-48725291D01*
X99785493Y-48691693D01*
X99751895Y-48658095D01*
X99718297Y-48691693D01*
X99496754Y-48691693D01*
X99483112Y-48590899D01*
X99398439Y-48529494D01*
X99296577Y-48541376D01*
X99247927Y-48624497D01*
X99234776Y-48673240D01*
X99143167Y-48725291D01*
X99095171Y-48715621D01*
X99079937Y-48658095D01*
X99084908Y-48622123D01*
X99011108Y-48590899D01*
X98957180Y-48603561D01*
X98928341Y-48674894D01*
X98443793Y-48674894D01*
X98454924Y-48630726D01*
X98481944Y-48438775D01*
X98501969Y-48308578D01*
X98638016Y-47971726D01*
X98779976Y-47818148D01*
X100188668Y-47818148D01*
X100222265Y-47851746D01*
X100255863Y-47818148D01*
X100222265Y-47784550D01*
X100188668Y-47818148D01*
X98779976Y-47818148D01*
X98842089Y-47750952D01*
X99852689Y-47750952D01*
X99886287Y-47784550D01*
X99919884Y-47750952D01*
X99886287Y-47717354D01*
X99852689Y-47750952D01*
X98842089Y-47750952D01*
X98879538Y-47710438D01*
X99213422Y-47540813D01*
X99378464Y-47491906D01*
X99545926Y-47464169D01*
X99706687Y-47482047D01*
X99927128Y-47546026D01*
X100150471Y-47632285D01*
X100320673Y-47750952D01*
X100322909Y-47752511D01*
G37*
G36*
X99506637Y-55023456D02*
G01*
X99645830Y-55101128D01*
X99910174Y-55278610D01*
X100128198Y-55459184D01*
X100214249Y-55549042D01*
X100273970Y-55640715D01*
X100356154Y-55766871D01*
X100391853Y-55993198D01*
X100321755Y-56253160D01*
X100146267Y-56571891D01*
X100034740Y-56761311D01*
X99885362Y-57056398D01*
X99776088Y-57320086D01*
X99723613Y-57461312D01*
X99611637Y-57720546D01*
X99504352Y-57926582D01*
X99397394Y-58109857D01*
X99234502Y-58407856D01*
X99064683Y-58735302D01*
X98902399Y-59062824D01*
X98762115Y-59361049D01*
X98658292Y-59600607D01*
X98605396Y-59752126D01*
X98573155Y-59965842D01*
X98570579Y-60099592D01*
X98569312Y-60165370D01*
X98563355Y-60292736D01*
X98554452Y-60305361D01*
X98522860Y-60350158D01*
X98509803Y-60355679D01*
X98491887Y-60448488D01*
X98514870Y-60635740D01*
X98538806Y-60768613D01*
X98540826Y-60786931D01*
X98570473Y-61055714D01*
X98571055Y-61060993D01*
X98551020Y-61233978D01*
X98478514Y-61290899D01*
X98412769Y-61310841D01*
X98312568Y-61408492D01*
X98269585Y-61464744D01*
X98242034Y-61448992D01*
X98241196Y-61442624D01*
X98168407Y-61395001D01*
X98004805Y-61382961D01*
X97831131Y-61369218D01*
X97769620Y-61308863D01*
X97769187Y-61290783D01*
X97743369Y-61230765D01*
X97667441Y-61268050D01*
X97527157Y-61408492D01*
X97433918Y-61506083D01*
X97398785Y-61524127D01*
X97429586Y-61446507D01*
X97478227Y-61288041D01*
X97500837Y-61084667D01*
X97500837Y-61055714D01*
X97635228Y-61055714D01*
X97668826Y-61089312D01*
X97702424Y-61055714D01*
X97668826Y-61022116D01*
X97635228Y-61055714D01*
X97500837Y-61055714D01*
X97500837Y-60869601D01*
X97380228Y-61029853D01*
X97299534Y-61146129D01*
X97169083Y-61348928D01*
X97030052Y-61576481D01*
X96903250Y-61767362D01*
X96781862Y-61909734D01*
X96697089Y-61964900D01*
X96681877Y-61965377D01*
X96637699Y-61982118D01*
X96711819Y-62035733D01*
X96791964Y-62066035D01*
X96913406Y-62057429D01*
X96961132Y-62037692D01*
X96922891Y-62090812D01*
X96857694Y-62137289D01*
X96706258Y-62182033D01*
X96616667Y-62205881D01*
X96527489Y-62286887D01*
X96520824Y-62341851D01*
X96592932Y-62342024D01*
X96606432Y-62337161D01*
X96684950Y-62337933D01*
X96672344Y-62408104D01*
X96571442Y-62523753D01*
X96477825Y-62583992D01*
X96392679Y-62584564D01*
X96371056Y-62571047D01*
X96387118Y-62620959D01*
X96402950Y-62660685D01*
X96378126Y-62778094D01*
X96273871Y-62857995D01*
X96131163Y-62861824D01*
X96083840Y-62847666D01*
X96028306Y-62848300D01*
X96077180Y-62922078D01*
X96085817Y-62932666D01*
X96125974Y-63022516D01*
X96049794Y-63091262D01*
X95986375Y-63149822D01*
X95972582Y-63298274D01*
X95984892Y-63346583D01*
X95991456Y-63414701D01*
X95949659Y-63426702D01*
X95835644Y-63381077D01*
X95625556Y-63276316D01*
X95508321Y-63212186D01*
X95338197Y-63079321D01*
X95267224Y-62938734D01*
X95262614Y-62813968D01*
X95302770Y-62723622D01*
X95335087Y-62713560D01*
X95319982Y-62775623D01*
X95312414Y-62793252D01*
X95344439Y-62772621D01*
X95436236Y-62670150D01*
X95537162Y-62537548D01*
X95556938Y-62457288D01*
X95500627Y-62394825D01*
X95447170Y-62341054D01*
X95470141Y-62274399D01*
X95502100Y-62262743D01*
X95588428Y-62303157D01*
X95599086Y-62309866D01*
X95668222Y-62262416D01*
X95778009Y-62130153D01*
X95911803Y-61939085D01*
X96052958Y-61715218D01*
X96184827Y-61484557D01*
X96290766Y-61273109D01*
X96354127Y-61106880D01*
X96427052Y-60939116D01*
X96521723Y-60786931D01*
X97366445Y-60786931D01*
X97400043Y-60820529D01*
X97433641Y-60786931D01*
X97400043Y-60753333D01*
X97366445Y-60786931D01*
X96521723Y-60786931D01*
X96566810Y-60714453D01*
X96739145Y-60492852D01*
X96821692Y-60392387D01*
X96865825Y-60325572D01*
X98050289Y-60325572D01*
X98105599Y-60350158D01*
X98141172Y-60345309D01*
X98150396Y-60305361D01*
X98140547Y-60297319D01*
X98060802Y-60305361D01*
X98050289Y-60325572D01*
X96865825Y-60325572D01*
X97070356Y-60015921D01*
X97282042Y-59585709D01*
X97412094Y-59265281D01*
X97540810Y-58920649D01*
X97605608Y-58703862D01*
X97702424Y-58703862D01*
X97736022Y-58737460D01*
X97769620Y-58703862D01*
X97736022Y-58670264D01*
X97702424Y-58703862D01*
X97605608Y-58703862D01*
X97614361Y-58674578D01*
X97635394Y-58514442D01*
X97606558Y-58427617D01*
X97530503Y-58401481D01*
X97472734Y-58383386D01*
X97331474Y-58292720D01*
X97166530Y-58151407D01*
X97159312Y-58144429D01*
X97010625Y-57985261D01*
X96953294Y-57874538D01*
X96971239Y-57781831D01*
X97057568Y-57708680D01*
X97236420Y-57664635D01*
X97449239Y-57672224D01*
X97645401Y-57734968D01*
X97724478Y-57772638D01*
X97800106Y-57772691D01*
X97845980Y-57685469D01*
X97884486Y-57487834D01*
X97938859Y-57283044D01*
X98036478Y-57109067D01*
X98152898Y-57025625D01*
X98269264Y-57053977D01*
X98288017Y-57070459D01*
X98329178Y-57138720D01*
X98311378Y-57240451D01*
X98230172Y-57416920D01*
X98190992Y-57492684D01*
X98087443Y-57676152D01*
X98007194Y-57796719D01*
X97954040Y-57887005D01*
X97880906Y-58077267D01*
X97819980Y-58297571D01*
X97784787Y-58496705D01*
X97788851Y-58623459D01*
X97795094Y-58700767D01*
X97794286Y-58703862D01*
X97750780Y-58870485D01*
X97641877Y-59127472D01*
X97463678Y-59484184D01*
X97377210Y-59654956D01*
X97339855Y-59765998D01*
X97359614Y-59838176D01*
X97433551Y-59913304D01*
X97511470Y-59979654D01*
X97570037Y-59991021D01*
X97612491Y-59905734D01*
X97676815Y-59775592D01*
X97739095Y-59678201D01*
X97967961Y-59678201D01*
X97986383Y-59946885D01*
X98005407Y-60103518D01*
X98053613Y-60193553D01*
X98150500Y-60215668D01*
X98246503Y-60222271D01*
X98402484Y-60256554D01*
X98435376Y-60263485D01*
X98498948Y-60216178D01*
X98505426Y-60099592D01*
X98448399Y-59955721D01*
X98440535Y-59943779D01*
X98383817Y-59907672D01*
X98317080Y-59989319D01*
X98281900Y-60048469D01*
X98248791Y-60077085D01*
X98242034Y-59987989D01*
X98262355Y-59898707D01*
X98357583Y-59771740D01*
X98363939Y-59766886D01*
X98419325Y-59711591D01*
X98378156Y-59686967D01*
X98221568Y-59680338D01*
X97967961Y-59678201D01*
X97739095Y-59678201D01*
X97782065Y-59611005D01*
X97855288Y-59466091D01*
X97934987Y-59235268D01*
X98001427Y-58972645D01*
X98115759Y-58472232D01*
X98282755Y-57884517D01*
X98465410Y-57379835D01*
X98657354Y-56975291D01*
X98852218Y-56687989D01*
X98942973Y-56556336D01*
X99036106Y-56359913D01*
X99101107Y-56158732D01*
X99125337Y-55993394D01*
X99096155Y-55904496D01*
X99047073Y-55889892D01*
X98931001Y-55927309D01*
X98864598Y-55956711D01*
X98843258Y-55873069D01*
X98837797Y-55809669D01*
X98803959Y-55806699D01*
X98718087Y-55908103D01*
X98716679Y-55909926D01*
X98609809Y-56009657D01*
X98525607Y-56026435D01*
X98472455Y-56019958D01*
X98373768Y-56083967D01*
X98373580Y-56084193D01*
X98233048Y-56168638D01*
X98013829Y-56168399D01*
X97703097Y-56083465D01*
X97668468Y-56071307D01*
X97512210Y-56024706D01*
X97446750Y-56041713D01*
X97459589Y-56142249D01*
X97538230Y-56346234D01*
X97560515Y-56429593D01*
X97514002Y-56427342D01*
X97477609Y-56384117D01*
X97405865Y-56237498D01*
X97334551Y-56034405D01*
X97285108Y-55848447D01*
X97266019Y-55681595D01*
X97266180Y-55680053D01*
X99471913Y-55680053D01*
X99472546Y-55725862D01*
X99477512Y-55775541D01*
X99486582Y-55770684D01*
X99567525Y-55736204D01*
X99599828Y-55715831D01*
X99613956Y-55640715D01*
X99587764Y-55607219D01*
X99509346Y-55587526D01*
X99471913Y-55680053D01*
X97266180Y-55680053D01*
X97284916Y-55500397D01*
X97326411Y-55317920D01*
X97635228Y-55317920D01*
X97637127Y-55332009D01*
X97702424Y-55377672D01*
X97714887Y-55377477D01*
X97770316Y-55352948D01*
X97794818Y-55248880D01*
X97796723Y-55238748D01*
X97853615Y-55136887D01*
X97862634Y-55126646D01*
X97901776Y-55013694D01*
X97889820Y-54998641D01*
X97828155Y-55038042D01*
X97743071Y-55129610D01*
X97667713Y-55235513D01*
X97635228Y-55317920D01*
X97326411Y-55317920D01*
X97342369Y-55247741D01*
X97381331Y-55113057D01*
X97516090Y-54795962D01*
X97687868Y-54530701D01*
X97876951Y-54344183D01*
X98063623Y-54263315D01*
X98108006Y-54260012D01*
X98200080Y-54289687D01*
X98215748Y-54411716D01*
X98212609Y-54450067D01*
X98172342Y-54543080D01*
X98062208Y-54541208D01*
X97970103Y-54534812D01*
X97882447Y-54597793D01*
X97882136Y-54657412D01*
X97976235Y-54656673D01*
X98062142Y-54645383D01*
X98103302Y-54678951D01*
X98053092Y-54747034D01*
X97920810Y-54821913D01*
X97887889Y-54835301D01*
X97796759Y-54876011D01*
X97821700Y-54883421D01*
X97971207Y-54864754D01*
X97993779Y-54861471D01*
X98161684Y-54824108D01*
X98258828Y-54780582D01*
X98326258Y-54756050D01*
X98503183Y-54756553D01*
X98745236Y-54790465D01*
X99016863Y-54850866D01*
X99282514Y-54930836D01*
X99483015Y-55013694D01*
X99506637Y-55023456D01*
G37*
G36*
X102994091Y-64651716D02*
G01*
X102956217Y-64663549D01*
X103010890Y-64717883D01*
X103024567Y-64726823D01*
X103073544Y-64773226D01*
X102998890Y-64784050D01*
X102974372Y-64789841D01*
X102914931Y-64803881D01*
X102780504Y-64890672D01*
X102711675Y-64942476D01*
X102674911Y-64920305D01*
X102667358Y-64891717D01*
X102600541Y-64890306D01*
X102573641Y-64918701D01*
X102565799Y-64926979D01*
X102615805Y-64991666D01*
X102687191Y-65007812D01*
X102820332Y-64943086D01*
X102835649Y-64929771D01*
X102960000Y-64873584D01*
X103039236Y-64939379D01*
X103063398Y-65119912D01*
X103063218Y-65125449D01*
X103055986Y-65168395D01*
X103042082Y-65250964D01*
X103000730Y-65282768D01*
X102981802Y-65275122D01*
X102945118Y-65317051D01*
X102943694Y-65318679D01*
X102930840Y-65352728D01*
X102838935Y-65389841D01*
X102790701Y-65398458D01*
X102781671Y-65423439D01*
X102771806Y-65450728D01*
X102818796Y-65479512D01*
X102943761Y-65476489D01*
X103044499Y-65475152D01*
X103077057Y-65566792D01*
X103066865Y-65630683D01*
X103026660Y-65620898D01*
X102970891Y-65582085D01*
X102848131Y-65554188D01*
X102728634Y-65558875D01*
X102674911Y-65599882D01*
X102656104Y-65621619D01*
X102557318Y-65624222D01*
X102493584Y-65612824D01*
X102372530Y-65595540D01*
X102350658Y-65583672D01*
X102394963Y-65532555D01*
X102446215Y-65480619D01*
X102379060Y-65435243D01*
X102373066Y-65433230D01*
X102246129Y-65454126D01*
X102087844Y-65558159D01*
X102062580Y-65579879D01*
X101925881Y-65680985D01*
X101834964Y-65722667D01*
X101814778Y-65711386D01*
X101868562Y-65658624D01*
X101890715Y-65643722D01*
X101918658Y-65603170D01*
X101823765Y-65592457D01*
X101731804Y-65576380D01*
X101652208Y-65513531D01*
X101647629Y-65505667D01*
X101633113Y-65499647D01*
X101746056Y-65499647D01*
X101801366Y-65524232D01*
X101836939Y-65519383D01*
X101837461Y-65517124D01*
X101944587Y-65517124D01*
X101985504Y-65530277D01*
X102059088Y-65449778D01*
X102066110Y-65438375D01*
X102071929Y-65423439D01*
X102540519Y-65423439D01*
X102574117Y-65457037D01*
X102607715Y-65423439D01*
X102574117Y-65389841D01*
X102540519Y-65423439D01*
X102071929Y-65423439D01*
X102113376Y-65317051D01*
X102077129Y-65251273D01*
X102406128Y-65251273D01*
X102431685Y-65286208D01*
X102540519Y-65304169D01*
X102618321Y-65288477D01*
X102649394Y-65262490D01*
X102780056Y-65262490D01*
X102792538Y-65281621D01*
X102847377Y-65315516D01*
X102899485Y-65225274D01*
X102907705Y-65168395D01*
X102839864Y-65165119D01*
X102797373Y-65190907D01*
X102785218Y-65241150D01*
X102780056Y-65262490D01*
X102649394Y-65262490D01*
X102674911Y-65241150D01*
X102649795Y-65210452D01*
X102540519Y-65188254D01*
X102462445Y-65200058D01*
X102406128Y-65251273D01*
X102077129Y-65251273D01*
X102065808Y-65230728D01*
X102012759Y-65190421D01*
X102029067Y-65230745D01*
X102035302Y-65246163D01*
X102050904Y-65295768D01*
X102020264Y-65356243D01*
X102003372Y-65389582D01*
X101969582Y-65419468D01*
X101954233Y-65479435D01*
X101944587Y-65517124D01*
X101837461Y-65517124D01*
X101846163Y-65479435D01*
X101836314Y-65471393D01*
X101756569Y-65479435D01*
X101746056Y-65499647D01*
X101633113Y-65499647D01*
X101553677Y-65466703D01*
X101376405Y-65440940D01*
X101159002Y-65429416D01*
X100944660Y-65433166D01*
X100776568Y-65453227D01*
X100697918Y-65490635D01*
X100681549Y-65509452D01*
X100664343Y-65448465D01*
X100648343Y-65382390D01*
X100593505Y-65303951D01*
X100842044Y-65303951D01*
X100880806Y-65364764D01*
X100936143Y-65311480D01*
X100981325Y-65256519D01*
X100993988Y-65314074D01*
X101012863Y-65370391D01*
X101089828Y-65327610D01*
X101159035Y-65286278D01*
X101230202Y-65322645D01*
X101272580Y-65360597D01*
X101366280Y-65321245D01*
X101457936Y-65280675D01*
X101603592Y-65324686D01*
X101693929Y-65361164D01*
X101696494Y-65356243D01*
X101801366Y-65356243D01*
X101834964Y-65389841D01*
X101868562Y-65356243D01*
X101834964Y-65322645D01*
X101801366Y-65356243D01*
X101696494Y-65356243D01*
X101707859Y-65334435D01*
X101704561Y-65290668D01*
X101783744Y-65236289D01*
X101796227Y-65230745D01*
X101743159Y-65218559D01*
X101587900Y-65210078D01*
X101353460Y-65206875D01*
X101349662Y-65206875D01*
X101077160Y-65210856D01*
X100916492Y-65225559D01*
X100845504Y-65255189D01*
X100842044Y-65303951D01*
X100593505Y-65303951D01*
X100561467Y-65258124D01*
X100522020Y-65238511D01*
X100375694Y-65205301D01*
X100169383Y-65180045D01*
X99941704Y-65164859D01*
X99731276Y-65161858D01*
X99576718Y-65173158D01*
X99516649Y-65200876D01*
X99491455Y-65229228D01*
X99350949Y-65251589D01*
X99096736Y-65244626D01*
X98849240Y-65231611D01*
X98568922Y-65230206D01*
X98364155Y-65245459D01*
X98263970Y-65276267D01*
X98241886Y-65326414D01*
X98298396Y-65382319D01*
X98424043Y-65407542D01*
X98580576Y-65388520D01*
X98631883Y-65374822D01*
X98729697Y-65367856D01*
X98734592Y-65423617D01*
X98701123Y-65464792D01*
X98572432Y-65504632D01*
X98406246Y-65496570D01*
X98258067Y-65446841D01*
X98183399Y-65361684D01*
X98172192Y-65321479D01*
X98122682Y-65272987D01*
X98008844Y-65261906D01*
X97796657Y-65281154D01*
X97662463Y-65294005D01*
X97489527Y-65290658D01*
X97433641Y-65248410D01*
X97380759Y-65202343D01*
X97229095Y-65203021D01*
X97227175Y-65203300D01*
X97073731Y-65207695D01*
X96989944Y-65177050D01*
X96984918Y-65168300D01*
X96984441Y-65136224D01*
X97042137Y-65118233D01*
X97183403Y-65110424D01*
X97433641Y-65108898D01*
X97736022Y-65109201D01*
X97593171Y-65087460D01*
X97971207Y-65087460D01*
X98004805Y-65121058D01*
X98038403Y-65087460D01*
X98105599Y-65087460D01*
X98139197Y-65121058D01*
X98163782Y-65096472D01*
X98251876Y-65096472D01*
X98307186Y-65121058D01*
X98342759Y-65116208D01*
X98349397Y-65087460D01*
X98508773Y-65087460D01*
X98542371Y-65121058D01*
X98575969Y-65087460D01*
X99046339Y-65087460D01*
X99079937Y-65121058D01*
X99113535Y-65087460D01*
X99079937Y-65053862D01*
X99046339Y-65087460D01*
X98575969Y-65087460D01*
X98542371Y-65053862D01*
X98519972Y-65076261D01*
X98508773Y-65087460D01*
X98349397Y-65087460D01*
X98351983Y-65076261D01*
X98342135Y-65068219D01*
X98262389Y-65076261D01*
X98256564Y-65087460D01*
X98251876Y-65096472D01*
X98163782Y-65096472D01*
X98172794Y-65087460D01*
X98139197Y-65053862D01*
X98105599Y-65087460D01*
X98038403Y-65087460D01*
X98004805Y-65053862D01*
X97971207Y-65087460D01*
X97593171Y-65087460D01*
X97400043Y-65058067D01*
X97307827Y-65046246D01*
X97027968Y-65028499D01*
X96781953Y-65034618D01*
X96727045Y-65038435D01*
X96514674Y-65028465D01*
X96386213Y-64993855D01*
X98643165Y-64993855D01*
X98645930Y-65013494D01*
X98707257Y-65052359D01*
X98799955Y-65009065D01*
X98821214Y-64982151D01*
X99188275Y-64982151D01*
X99249873Y-65056487D01*
X99301271Y-65086710D01*
X99304454Y-65087460D01*
X99413045Y-65113051D01*
X99489919Y-65037063D01*
X99506777Y-65001426D01*
X99483269Y-65002882D01*
X99440439Y-65017618D01*
X99345429Y-64980047D01*
X99633653Y-64980047D01*
X99641844Y-65001426D01*
X99654591Y-65034699D01*
X99752896Y-65071965D01*
X99881527Y-65080744D01*
X99993442Y-65049930D01*
X100030233Y-65033267D01*
X100158978Y-65031062D01*
X100194371Y-65037716D01*
X100287307Y-64990151D01*
X100309170Y-64965352D01*
X100394898Y-64955938D01*
X100416706Y-64965179D01*
X100457451Y-64927402D01*
X100455049Y-64920118D01*
X100524646Y-64920118D01*
X100527636Y-64927402D01*
X100536628Y-64949311D01*
X100625440Y-65010966D01*
X100687777Y-65016841D01*
X100728371Y-64934161D01*
X100729169Y-64908262D01*
X100747785Y-64855789D01*
X100812608Y-64919471D01*
X100897349Y-65000402D01*
X101023911Y-65025512D01*
X101066556Y-64982701D01*
X102070149Y-64982701D01*
X102097207Y-65024847D01*
X102208506Y-65053862D01*
X102290055Y-65039188D01*
X102298277Y-64975247D01*
X102286328Y-64929565D01*
X102364997Y-64940880D01*
X102427867Y-64955786D01*
X102439250Y-64918701D01*
X102355132Y-64860821D01*
X102253661Y-64862388D01*
X102204541Y-64923436D01*
X102199265Y-64947741D01*
X102137345Y-64953068D01*
X102111316Y-64942569D01*
X102070149Y-64982701D01*
X101066556Y-64982701D01*
X101067350Y-64981904D01*
X101767768Y-64981904D01*
X101858268Y-64956241D01*
X102002953Y-64885873D01*
X102007982Y-64882980D01*
X102102845Y-64817101D01*
X102103747Y-64789841D01*
X102013247Y-64815504D01*
X101868562Y-64885873D01*
X101863532Y-64888765D01*
X101768670Y-64954645D01*
X101767768Y-64981904D01*
X101067350Y-64981904D01*
X101091858Y-64957301D01*
X101218765Y-64957301D01*
X101240263Y-64976885D01*
X101332343Y-64884249D01*
X101342588Y-64868200D01*
X101500131Y-64868200D01*
X101545900Y-64961299D01*
X101580474Y-64976054D01*
X101572597Y-64929853D01*
X101561751Y-64886059D01*
X101633377Y-64852275D01*
X101684615Y-64842007D01*
X101700572Y-64785079D01*
X101678564Y-64755655D01*
X101666151Y-64751481D01*
X102406128Y-64751481D01*
X102439726Y-64785079D01*
X102473324Y-64751481D01*
X102439726Y-64717883D01*
X102406128Y-64751481D01*
X101666151Y-64751481D01*
X101586648Y-64724747D01*
X101581663Y-64730647D01*
X101570296Y-64744102D01*
X101509109Y-64816525D01*
X101500131Y-64868200D01*
X101342588Y-64868200D01*
X101374224Y-64818643D01*
X101379613Y-64744102D01*
X101337335Y-64753142D01*
X101266880Y-64846520D01*
X101264866Y-64851157D01*
X101218765Y-64957301D01*
X101091858Y-64957301D01*
X101129253Y-64919761D01*
X101162551Y-64851157D01*
X101148799Y-64814793D01*
X101034943Y-64849869D01*
X100921203Y-64878360D01*
X100848304Y-64850624D01*
X100808873Y-64823472D01*
X100696314Y-64825471D01*
X100578899Y-64862555D01*
X100524646Y-64920118D01*
X100455049Y-64920118D01*
X100431703Y-64849328D01*
X100352662Y-64817432D01*
X100281797Y-64881614D01*
X100253909Y-64932917D01*
X100177513Y-64986666D01*
X100153085Y-64976347D01*
X100164003Y-64902672D01*
X100166360Y-64898717D01*
X100179788Y-64855673D01*
X100107307Y-64905476D01*
X100101228Y-64910365D01*
X100012678Y-64958648D01*
X99965322Y-64905476D01*
X99941872Y-64875080D01*
X99939278Y-64885873D01*
X99936752Y-64896385D01*
X99925189Y-64944497D01*
X99923922Y-64966886D01*
X99897890Y-65032029D01*
X99816243Y-64984303D01*
X99744205Y-64941017D01*
X99643547Y-64967342D01*
X99633653Y-64980047D01*
X99345429Y-64980047D01*
X99336480Y-64976508D01*
X99280726Y-64943320D01*
X99197852Y-64947147D01*
X99188275Y-64982151D01*
X98821214Y-64982151D01*
X98831538Y-64969080D01*
X98833266Y-64896385D01*
X98743959Y-64895171D01*
X98696640Y-64920398D01*
X98672857Y-64953068D01*
X98643165Y-64993855D01*
X96386213Y-64993855D01*
X96357473Y-64986112D01*
X96335237Y-64974803D01*
X96222983Y-64953068D01*
X97433641Y-64953068D01*
X97467239Y-64986666D01*
X97500837Y-64953068D01*
X97635228Y-64953068D01*
X97668826Y-64986666D01*
X97702424Y-64953068D01*
X98374382Y-64953068D01*
X98407980Y-64986666D01*
X98441578Y-64953068D01*
X98407980Y-64919471D01*
X98374382Y-64953068D01*
X97702424Y-64953068D01*
X97668826Y-64919471D01*
X97635228Y-64953068D01*
X97500837Y-64953068D01*
X97467239Y-64919471D01*
X97433641Y-64953068D01*
X96222983Y-64953068D01*
X96200868Y-64948786D01*
X96049481Y-65018440D01*
X95973559Y-65089496D01*
X95945507Y-65115750D01*
X95927704Y-65197910D01*
X95929354Y-65232709D01*
X95833469Y-65194958D01*
X95683788Y-65133009D01*
X95581863Y-65133703D01*
X95570798Y-65207098D01*
X95565164Y-65261957D01*
X95460395Y-65291093D01*
X95372303Y-65302141D01*
X95306196Y-65350202D01*
X95282773Y-65392855D01*
X95182889Y-65474332D01*
X95081401Y-65488247D01*
X94953289Y-65412489D01*
X94851966Y-65263450D01*
X94822519Y-65137066D01*
X95378269Y-65137066D01*
X95390056Y-65186058D01*
X95454129Y-65116587D01*
X95467584Y-65089496D01*
X95466396Y-65012896D01*
X95444051Y-65011383D01*
X95394580Y-65084562D01*
X95378269Y-65137066D01*
X94822519Y-65137066D01*
X94807701Y-65073471D01*
X94802396Y-64885873D01*
X96761683Y-64885873D01*
X96795281Y-64919471D01*
X96828879Y-64885873D01*
X98508773Y-64885873D01*
X98542371Y-64919471D01*
X98575969Y-64885873D01*
X98542371Y-64852275D01*
X98508773Y-64885873D01*
X96828879Y-64885873D01*
X96795281Y-64852275D01*
X96761683Y-64885873D01*
X94802396Y-64885873D01*
X94731229Y-65081690D01*
X94694044Y-65248353D01*
X94738051Y-65402386D01*
X94772547Y-65460166D01*
X94773582Y-65494177D01*
X94679335Y-65441892D01*
X94599612Y-65367981D01*
X94574916Y-65272386D01*
X94581715Y-65235697D01*
X94534925Y-65188254D01*
X94505722Y-65178546D01*
X94496356Y-65100415D01*
X94497360Y-65097698D01*
X94485927Y-65050115D01*
X94389272Y-65037659D01*
X94184365Y-65057137D01*
X94077029Y-65068990D01*
X93810213Y-65085970D01*
X93588949Y-65084963D01*
X93554462Y-65083458D01*
X93378187Y-65100628D01*
X93270471Y-65151080D01*
X93253626Y-65195638D01*
X93323999Y-65208760D01*
X93505784Y-65187784D01*
X93597963Y-65176398D01*
X93762393Y-65171815D01*
X93842037Y-65193705D01*
X93843398Y-65196064D01*
X93812999Y-65253612D01*
X93670049Y-65299134D01*
X93435493Y-65325822D01*
X93244469Y-65331631D01*
X93128063Y-65306089D01*
X93085099Y-65223181D01*
X93083566Y-65058604D01*
X93086491Y-65009350D01*
X93114940Y-64865126D01*
X93164000Y-64833277D01*
X93189000Y-64838419D01*
X93149911Y-64781498D01*
X93147452Y-64778838D01*
X93070869Y-64665750D01*
X93107040Y-64623337D01*
X93250705Y-64658045D01*
X93382126Y-64686673D01*
X93643167Y-64699884D01*
X93975599Y-64685135D01*
X94118787Y-64672774D01*
X95033123Y-64672774D01*
X95051550Y-64704825D01*
X95139236Y-64762138D01*
X95237065Y-64775498D01*
X95283377Y-64730647D01*
X95256157Y-64685338D01*
X95251318Y-64682935D01*
X102622072Y-64682935D01*
X102628985Y-64751481D01*
X102630114Y-64762680D01*
X102650325Y-64773193D01*
X102674911Y-64717883D01*
X102670062Y-64682310D01*
X102630114Y-64673086D01*
X102622072Y-64682935D01*
X95251318Y-64682935D01*
X95145148Y-64630214D01*
X95059801Y-64621368D01*
X95033123Y-64672774D01*
X94118787Y-64672774D01*
X94136997Y-64671202D01*
X94348195Y-64645131D01*
X94445380Y-64617090D01*
X102809302Y-64617090D01*
X102842900Y-64650687D01*
X102876498Y-64617090D01*
X102842900Y-64583492D01*
X102809302Y-64617090D01*
X94445380Y-64617090D01*
X94474008Y-64608830D01*
X94546075Y-64550791D01*
X94596040Y-64459509D01*
X94644241Y-64304019D01*
X94678010Y-64083313D01*
X94687260Y-63860141D01*
X94670462Y-63679058D01*
X94626086Y-63584620D01*
X94594088Y-63550307D01*
X94611122Y-63441644D01*
X94632863Y-63389159D01*
X94611350Y-63273092D01*
X94600900Y-63202944D01*
X94659765Y-63071454D01*
X94770639Y-62929436D01*
X94901875Y-62815738D01*
X95021828Y-62769206D01*
X95051415Y-62769908D01*
X95117861Y-62799754D01*
X95083972Y-62899519D01*
X95051643Y-62981601D01*
X95081607Y-63071475D01*
X95121009Y-63073407D01*
X95154761Y-62991558D01*
X95155850Y-62977745D01*
X95177803Y-62962034D01*
X95218818Y-63064782D01*
X95239446Y-63211270D01*
X95238348Y-63466490D01*
X95210729Y-63770338D01*
X95206453Y-63803287D01*
X95172732Y-64066303D01*
X95145345Y-64285064D01*
X95129872Y-64415072D01*
X95129239Y-64462061D01*
X95154355Y-64502668D01*
X95228077Y-64528220D01*
X95371851Y-64542209D01*
X95607122Y-64548127D01*
X95955334Y-64549464D01*
X96289556Y-64545926D01*
X96627952Y-64535125D01*
X96910391Y-64518780D01*
X97097662Y-64498634D01*
X97194075Y-64486333D01*
X97434505Y-64466164D01*
X97759505Y-64446123D01*
X98138865Y-64427990D01*
X98542371Y-64413545D01*
X98757121Y-64406976D01*
X99200879Y-64392270D01*
X99631016Y-64376692D01*
X100007290Y-64361729D01*
X100289461Y-64348873D01*
X100387056Y-64344164D01*
X100715307Y-64330402D01*
X101119381Y-64315548D01*
X101557067Y-64301102D01*
X101986154Y-64288565D01*
X103078085Y-64259101D01*
X103078085Y-64454894D01*
X103055143Y-64592065D01*
X103029530Y-64617090D01*
X102994091Y-64651716D01*
G37*
%TD*%
M02*
