M48
; DRILL file {KiCad 9.0.7} date 2026-02-04T17:11:24-0700
; FORMAT={-:-/ absolute / metric / decimal}
; #@! TF.CreationDate,2026-02-04T17:11:24-07:00
; #@! TF.GenerationSoftware,Kicad,Pcbnew,9.0.7
; #@! TF.FileFunction,Plated,1,2,PTH
FMAT,2
METRIC
; #@! TA.AperFunction,Plated,PTH,ComponentDrill
T1C0.400
; #@! TA.AperFunction,Plated,PTH,ComponentDrill
T2C0.800
; #@! TA.AperFunction,Plated,PTH,ComponentDrill
T3C1.000
; #@! TA.AperFunction,Plated,PTH,ComponentDrill
T4C1.100
%
G90
G05
T2
X112.09Y-62.84
X112.09Y-65.38
X112.13Y-56.11
X112.13Y-58.65
X116.08Y-62.84
X116.08Y-65.38
X116.09Y-56.13
X116.09Y-58.67
X117.165Y-83.54
X117.18Y-76.36
X118.83Y-70.04
X119.26Y-90.79
X119.705Y-81.0
X119.705Y-86.08
X119.72Y-76.36
X120.03Y-62.8
X120.03Y-65.34
X120.05Y-56.13
X120.05Y-58.67
X121.37Y-70.04
X121.8Y-90.79
X124.07Y-56.11
X124.07Y-58.65
X124.07Y-62.81
X124.07Y-65.35
X126.36Y-74.24
X126.36Y-76.78
X128.13Y-56.08
X128.13Y-58.62
X128.15Y-62.82
X128.15Y-65.36
X129.89Y-74.1
X129.89Y-76.6
X132.18Y-56.08
X132.18Y-58.62
X132.18Y-62.77
X132.18Y-65.31
X133.3Y-74.17
X133.3Y-76.71
X133.3Y-79.25
X133.3Y-81.79
X134.61Y-86.87
X134.61Y-91.95
X135.64Y-70.18
X136.27Y-56.11
X136.27Y-58.65
X136.35Y-62.81
X136.35Y-65.35
X137.15Y-89.41
X138.18Y-70.18
X140.35Y-62.82
X140.35Y-65.36
X140.37Y-56.15
X140.37Y-58.69
X140.92Y-74.17
X140.92Y-76.71
X140.92Y-79.25
X140.92Y-81.79
X144.31Y-56.14
X144.31Y-58.68
X144.37Y-62.85
X144.37Y-65.39
X145.81Y-86.87
X145.81Y-91.95
X146.21Y-74.108
X146.21Y-76.608
X148.32Y-56.15
X148.32Y-58.69
X148.34Y-62.07
X148.34Y-64.61
X148.35Y-89.41
X153.22Y-54.67
X153.22Y-57.21
X153.26Y-62.81
X153.26Y-65.35
T3
X89.68Y-67.73
X92.22Y-67.73
X94.76Y-67.73
X95.9Y-72.24
X97.3Y-67.73
X98.44Y-72.24
X99.84Y-67.73
X100.98Y-72.24
X102.38Y-67.73
X103.52Y-72.24
X104.92Y-67.73
X107.46Y-67.73
X118.796Y-49.2
X121.336Y-49.2
X123.876Y-49.2
X126.416Y-49.2
X127.04Y-81.09
X127.04Y-83.63
X127.04Y-86.17
X127.94Y-97.46
X128.956Y-49.2
X130.48Y-97.46
X131.496Y-49.2
X133.02Y-97.46
X134.036Y-49.2
X135.56Y-97.46
X136.576Y-49.2
X138.1Y-97.46
X139.116Y-49.2
X140.64Y-97.46
X141.656Y-49.2
X143.18Y-97.46
X145.72Y-49.2
X145.72Y-97.46
X148.26Y-49.2
X150.8Y-49.2
X150.8Y-97.46
X153.31Y-71.92
X153.31Y-74.46
X153.31Y-77.0
X153.34Y-49.2
X153.34Y-97.46
X153.62Y-84.7
X153.62Y-87.24
X153.62Y-89.78
X155.88Y-49.2
X155.88Y-97.46
X158.42Y-49.2
X158.42Y-97.46
X160.96Y-49.2
X160.96Y-97.46
X163.5Y-49.2
X163.5Y-97.46
T4
X157.21Y-53.37
X157.21Y-57.87
X157.21Y-61.55
X157.21Y-66.05
X163.71Y-53.37
X163.71Y-57.87
X163.71Y-61.55
X163.71Y-66.05
T1
G00X159.59Y-69.33
M15
G01X158.59Y-69.33
M16
G05
G00X158.59Y-79.33
M15
G01X159.59Y-79.33
M16
G05
G00X159.59Y-82.54
M15
G01X158.59Y-82.54
M16
G05
G00X158.59Y-92.54
M15
G01X159.59Y-92.54
M16
G05
G00X164.09Y-74.83
M15
G01X164.09Y-73.83
M16
G05
G00X164.09Y-88.04
M15
G01X164.09Y-87.04
M16
G05
T2
G00X159.44Y-71.83
M15
G01X158.74Y-71.83
M16
G05
G00X158.74Y-76.83
M15
G01X159.44Y-76.83
M16
G05
G00X159.44Y-85.04
M15
G01X158.74Y-85.04
M16
G05
G00X158.74Y-90.04
M15
G01X159.44Y-90.04
M16
G05
M30
