M48
; DRILL file {KiCad 9.0.7} date 2026-03-13T10:26:57-0600
; FORMAT={-:-/ absolute / metric / decimal}
; #@! TF.CreationDate,2026-03-13T10:26:57-06:00
; #@! TF.GenerationSoftware,Kicad,Pcbnew,9.0.7
; #@! TF.FileFunction,Plated,1,2,PTH
FMAT,2
METRIC
; #@! TA.AperFunction,Plated,PTH,ViaDrill
T1C0.400
; #@! TA.AperFunction,Plated,PTH,ComponentDrill
T2C0.800
; #@! TA.AperFunction,Plated,PTH,ComponentDrill
T3C0.900
; #@! TA.AperFunction,Plated,PTH,ComponentDrill
T4C1.000
; #@! TA.AperFunction,Plated,PTH,ComponentDrill
T5C1.016
; #@! TA.AperFunction,Plated,PTH,ComponentDrill
T6C2.200
%
G90
G05
T1
X114.65Y-73.52
X119.23Y-73.49
X136.18Y-82.35
T2
X123.06Y-86.62
X123.06Y-91.7
X123.86Y-53.01
X123.86Y-60.63
X125.6Y-89.16
X131.16Y-52.72
X131.16Y-60.34
X138.74Y-52.91
X138.74Y-60.53
X146.13Y-52.91
X146.13Y-60.53
X153.52Y-52.82
X153.52Y-60.44
X161.11Y-53.01
X161.11Y-60.63
T3
X123.71Y-63.83
X123.71Y-66.37
X131.18Y-63.83
X131.18Y-66.37
X138.65Y-63.83
X138.65Y-66.37
X146.12Y-63.83
X146.12Y-66.37
X153.59Y-63.83
X153.59Y-66.37
X161.06Y-63.83
X161.06Y-66.37
T4
X118.796Y-49.2
X121.336Y-49.2
X122.23Y-73.03
X122.23Y-75.57
X122.23Y-78.11
X123.876Y-49.2
X126.416Y-49.2
X127.94Y-97.46
X128.956Y-49.2
X130.48Y-97.46
X131.496Y-49.2
X132.015Y-87.55
X133.02Y-97.46
X134.036Y-49.2
X134.555Y-87.55
X135.56Y-97.46
X136.576Y-49.2
X137.095Y-87.55
X138.1Y-97.46
X139.116Y-49.2
X139.635Y-87.55
X140.64Y-97.46
X141.656Y-49.2
X142.175Y-87.55
X143.18Y-97.46
X144.715Y-87.55
X145.72Y-49.2
X145.72Y-97.46
X147.255Y-87.55
X148.26Y-49.2
X150.8Y-49.2
X150.8Y-97.46
X151.87Y-87.55
X153.34Y-49.2
X153.34Y-97.46
X154.41Y-87.55
X155.88Y-49.2
X155.88Y-97.46
X156.95Y-87.55
X158.42Y-49.2
X158.42Y-97.46
X159.49Y-87.55
X160.96Y-49.2
X160.96Y-97.46
X162.03Y-87.55
X163.5Y-49.2
X163.5Y-97.46
X164.57Y-87.55
X167.11Y-87.55
T5
X101.733Y-69.425
X104.272Y-69.425
X106.812Y-69.425
X109.352Y-69.425
X111.892Y-69.425
X114.432Y-69.425
T6
X133.285Y-73.58
X145.985Y-73.58
X153.14Y-73.58
X165.84Y-73.58
M30
