%TF.GenerationSoftware,KiCad,Pcbnew,9.0.7*%
%TF.CreationDate,2026-03-13T10:27:45-06:00*%
%TF.ProjectId,Weather_Balloon_Uno_Shield_v2,57656174-6865-4725-9f42-616c6c6f6f6e,rev?*%
%TF.SameCoordinates,Original*%
%TF.FileFunction,Copper,L1,Top*%
%TF.FilePolarity,Positive*%
%FSLAX46Y46*%
G04 Gerber Fmt 4.6, Leading zero omitted, Abs format (unit mm)*
G04 Created by KiCad (PCBNEW 9.0.7) date 2026-03-13 10:27:45*
%MOMM*%
%LPD*%
G01*
G04 APERTURE LIST*
%TA.AperFunction,ComponentPad*%
%ADD10R,1.700000X1.700000*%
%TD*%
%TA.AperFunction,ComponentPad*%
%ADD11O,1.700000X1.700000*%
%TD*%
%TA.AperFunction,ComponentPad*%
%ADD12R,1.800000X1.800000*%
%TD*%
%TA.AperFunction,ComponentPad*%
%ADD13C,1.800000*%
%TD*%
%TA.AperFunction,ComponentPad*%
%ADD14C,1.600000*%
%TD*%
%TA.AperFunction,ComponentPad*%
%ADD15R,1.879600X1.879600*%
%TD*%
%TA.AperFunction,ComponentPad*%
%ADD16C,1.879600*%
%TD*%
%TA.AperFunction,ComponentPad*%
%ADD17R,1.508000X1.508000*%
%TD*%
%TA.AperFunction,ComponentPad*%
%ADD18C,1.508000*%
%TD*%
%TA.AperFunction,ComponentPad*%
%ADD19C,3.216000*%
%TD*%
%TA.AperFunction,ComponentPad*%
%ADD20C,1.440000*%
%TD*%
%TA.AperFunction,ComponentPad*%
%ADD21C,1.700000*%
%TD*%
%TA.AperFunction,SMDPad,CuDef*%
%ADD22R,1.750000X1.750000*%
%TD*%
%TA.AperFunction,SMDPad,CuDef*%
%ADD23R,0.650000X0.370000*%
%TD*%
%TA.AperFunction,SMDPad,CuDef*%
%ADD24R,0.370000X0.650000*%
%TD*%
%TA.AperFunction,ViaPad*%
%ADD25C,0.600000*%
%TD*%
%TA.AperFunction,Conductor*%
%ADD26C,0.200000*%
%TD*%
G04 APERTURE END LIST*
D10*
%TO.P,J1,1,Pin_1*%
%TO.N,unconnected-(J1-Pin_1-Pad1)*%
X127940000Y-97460000D03*
D11*
%TO.P,J1,2,Pin_2*%
%TO.N,/IOREF*%
X130480000Y-97460000D03*
%TO.P,J1,3,Pin_3*%
%TO.N,/~{RESET}*%
X133020000Y-97460000D03*
%TO.P,J1,4,Pin_4*%
%TO.N,+3V3*%
X135560000Y-97460000D03*
%TO.P,J1,5,Pin_5*%
%TO.N,+5V*%
X138100000Y-97460000D03*
%TO.P,J1,6,Pin_6*%
%TO.N,GND*%
X140640000Y-97460000D03*
%TO.P,J1,7,Pin_7*%
X143180000Y-97460000D03*
%TO.P,J1,8,Pin_8*%
%TO.N,VCC*%
X145720000Y-97460000D03*
%TD*%
D10*
%TO.P,J3,1,Pin_1*%
%TO.N,/A0*%
X150800000Y-97460000D03*
D11*
%TO.P,J3,2,Pin_2*%
%TO.N,/A1*%
X153340000Y-97460000D03*
%TO.P,J3,3,Pin_3*%
%TO.N,/A2*%
X155880000Y-97460000D03*
%TO.P,J3,4,Pin_4*%
%TO.N,/A3*%
X158420000Y-97460000D03*
%TO.P,J3,5,Pin_5*%
%TO.N,/SDA{slash}A4*%
X160960000Y-97460000D03*
%TO.P,J3,6,Pin_6*%
%TO.N,/SCL{slash}A5*%
X163500000Y-97460000D03*
%TD*%
D10*
%TO.P,J2,1,Pin_1*%
%TO.N,/SCL{slash}A5*%
X118796000Y-49200000D03*
D11*
%TO.P,J2,2,Pin_2*%
%TO.N,/SDA{slash}A4*%
X121336000Y-49200000D03*
%TO.P,J2,3,Pin_3*%
%TO.N,/AREF*%
X123876000Y-49200000D03*
%TO.P,J2,4,Pin_4*%
%TO.N,GND*%
X126416000Y-49200000D03*
%TO.P,J2,5,Pin_5*%
%TO.N,/13*%
X128956000Y-49200000D03*
%TO.P,J2,6,Pin_6*%
%TO.N,/12*%
X131496000Y-49200000D03*
%TO.P,J2,7,Pin_7*%
%TO.N,/\u002A11*%
X134036000Y-49200000D03*
%TO.P,J2,8,Pin_8*%
%TO.N,/\u002A10*%
X136576000Y-49200000D03*
%TO.P,J2,9,Pin_9*%
%TO.N,/\u002A9*%
X139116000Y-49200000D03*
%TO.P,J2,10,Pin_10*%
%TO.N,/8*%
X141656000Y-49200000D03*
%TD*%
D10*
%TO.P,J4,1,Pin_1*%
%TO.N,/7*%
X145720000Y-49200000D03*
D11*
%TO.P,J4,2,Pin_2*%
%TO.N,/\u002A6*%
X148260000Y-49200000D03*
%TO.P,J4,3,Pin_3*%
%TO.N,/\u002A5*%
X150800000Y-49200000D03*
%TO.P,J4,4,Pin_4*%
%TO.N,/4*%
X153340000Y-49200000D03*
%TO.P,J4,5,Pin_5*%
%TO.N,/\u002A3*%
X155880000Y-49200000D03*
%TO.P,J4,6,Pin_6*%
%TO.N,/2*%
X158420000Y-49200000D03*
%TO.P,J4,7,Pin_7*%
%TO.N,/TX{slash}1*%
X160960000Y-49200000D03*
%TO.P,J4,8,Pin_8*%
%TO.N,/RX{slash}0*%
X163500000Y-49200000D03*
%TD*%
D12*
%TO.P,D4,1,K*%
%TO.N,GND*%
X138650000Y-66370000D03*
D13*
%TO.P,D4,2,A*%
%TO.N,Net-(D4-A)*%
X138650000Y-63830000D03*
%TD*%
D12*
%TO.P,D5,1,K*%
%TO.N,GND*%
X131180000Y-66370000D03*
D13*
%TO.P,D5,2,A*%
%TO.N,Net-(D5-A)*%
X131180000Y-63830000D03*
%TD*%
D14*
%TO.P,R1,1*%
%TO.N,Net-(D1-A)*%
X161110000Y-60630000D03*
%TO.P,R1,2*%
%TO.N,/\u002A3*%
X161110000Y-53010000D03*
%TD*%
%TO.P,R6,1*%
%TO.N,Net-(D6-A)*%
X123860000Y-60630000D03*
%TO.P,R6,2*%
%TO.N,/\u002A11*%
X123860000Y-53010000D03*
%TD*%
D15*
%TO.P,U4,1,BLK*%
%TO.N,unconnected-(U4-BLK-Pad1)*%
X101732500Y-69425000D03*
D16*
%TO.P,U4,2,GND*%
%TO.N,GND*%
X104272500Y-69425000D03*
%TO.P,U4,3,VCC*%
%TO.N,+5V*%
X106812500Y-69425000D03*
%TO.P,U4,4,TXO*%
%TO.N,/RX{slash}0*%
X109352500Y-69425000D03*
%TO.P,U4,5,RXI*%
%TO.N,/TX{slash}1*%
X111892500Y-69425000D03*
%TO.P,U4,6,GRN*%
%TO.N,unconnected-(U4-GRN-Pad6)*%
X114432500Y-69425000D03*
%TD*%
D12*
%TO.P,D2,1,K*%
%TO.N,GND*%
X153590000Y-66370000D03*
D13*
%TO.P,D2,2,A*%
%TO.N,Net-(D2-A)*%
X153590000Y-63830000D03*
%TD*%
D17*
%TO.P,U3,1,VIN*%
%TO.N,+5V*%
X151870000Y-87550000D03*
D18*
%TO.P,U3,2,3VO*%
%TO.N,unconnected-(U3-3VO-Pad2)*%
X154410000Y-87550000D03*
%TO.P,U3,3,GND*%
%TO.N,GND*%
X156950000Y-87550000D03*
%TO.P,U3,4,SCK*%
%TO.N,/SCL{slash}A5*%
X159490000Y-87550000D03*
%TO.P,U3,5,SDO*%
%TO.N,/SDA{slash}A4*%
X162030000Y-87550000D03*
%TO.P,U3,6,SDI*%
%TO.N,unconnected-(U3-SDI-Pad6)*%
X164570000Y-87550000D03*
%TO.P,U3,7,CS*%
%TO.N,unconnected-(U3-CS-Pad7)*%
X167110000Y-87550000D03*
D19*
%TO.P,U3,P1*%
%TO.N,N/C*%
X153140000Y-73580000D03*
%TO.P,U3,P2*%
X165840000Y-73580000D03*
%TD*%
D14*
%TO.P,R3,1*%
%TO.N,Net-(D3-A)*%
X146130000Y-60530000D03*
%TO.P,R3,2*%
%TO.N,/\u002A6*%
X146130000Y-52910000D03*
%TD*%
D12*
%TO.P,D3,1,K*%
%TO.N,GND*%
X146120000Y-66370000D03*
D13*
%TO.P,D3,2,A*%
%TO.N,Net-(D3-A)*%
X146120000Y-63830000D03*
%TD*%
D20*
%TO.P,RV1,1,1*%
%TO.N,+5V*%
X123060000Y-91700000D03*
%TO.P,RV1,2,2*%
%TO.N,/A0*%
X125600000Y-89160000D03*
%TO.P,RV1,3,3*%
%TO.N,GND*%
X123060000Y-86620000D03*
%TD*%
D10*
%TO.P,J9,1,Pin_1*%
%TO.N,+5V*%
X122230000Y-73030000D03*
D21*
%TO.P,J9,2,Pin_2*%
%TO.N,/A1*%
X122230000Y-75570000D03*
%TO.P,J9,3,Pin_3*%
%TO.N,GND*%
X122230000Y-78110000D03*
%TD*%
D14*
%TO.P,R4,1*%
%TO.N,Net-(D4-A)*%
X138740000Y-60530000D03*
%TO.P,R4,2*%
%TO.N,/\u002A9*%
X138740000Y-52910000D03*
%TD*%
%TO.P,R2,1*%
%TO.N,Net-(D2-A)*%
X153520000Y-60440000D03*
%TO.P,R2,2*%
%TO.N,/\u002A5*%
X153520000Y-52820000D03*
%TD*%
D12*
%TO.P,D6,1,K*%
%TO.N,GND*%
X123710000Y-66370000D03*
D13*
%TO.P,D6,2,A*%
%TO.N,Net-(D6-A)*%
X123710000Y-63830000D03*
%TD*%
D17*
%TO.P,U2,1,VIN*%
%TO.N,+5V*%
X132015000Y-87550000D03*
D18*
%TO.P,U2,2,3VO*%
%TO.N,unconnected-(U2-3VO-Pad2)*%
X134555000Y-87550000D03*
%TO.P,U2,3,GND*%
%TO.N,GND*%
X137095000Y-87550000D03*
%TO.P,U2,4,SCK*%
%TO.N,/SCL{slash}A5*%
X139635000Y-87550000D03*
%TO.P,U2,5,SDO*%
%TO.N,/SDA{slash}A4*%
X142175000Y-87550000D03*
%TO.P,U2,6,SDI*%
%TO.N,unconnected-(U2-SDI-Pad6)*%
X144715000Y-87550000D03*
%TO.P,U2,7,CS*%
%TO.N,unconnected-(U2-CS-Pad7)*%
X147255000Y-87550000D03*
D19*
%TO.P,U2,P1*%
%TO.N,N/C*%
X133285000Y-73580000D03*
%TO.P,U2,P2*%
X145985000Y-73580000D03*
%TD*%
D14*
%TO.P,R5,1*%
%TO.N,Net-(D5-A)*%
X131160000Y-60340000D03*
%TO.P,R5,2*%
%TO.N,/\u002A10*%
X131160000Y-52720000D03*
%TD*%
D12*
%TO.P,D1,1,K*%
%TO.N,GND*%
X161060000Y-66370000D03*
D13*
%TO.P,D1,2,A*%
%TO.N,Net-(D1-A)*%
X161060000Y-63830000D03*
%TD*%
D22*
%TO.P,U1,0*%
%TO.N,N/C*%
X127400000Y-72755000D03*
D23*
%TO.P,U1,1*%
X125650000Y-71780000D03*
%TO.P,U1,2,ST*%
%TO.N,unconnected-(U1-ST-Pad2)*%
X125650000Y-72430000D03*
%TO.P,U1,3,COM@3*%
%TO.N,GND*%
X125650000Y-73080000D03*
%TO.P,U1,4*%
%TO.N,N/C*%
X125650000Y-73730000D03*
D24*
%TO.P,U1,5,COM@5*%
%TO.N,GND*%
X126425000Y-74505000D03*
%TO.P,U1,6,COM@6*%
X127075000Y-74505000D03*
%TO.P,U1,7,COM@7*%
X127725000Y-74505000D03*
%TO.P,U1,8,ZOUT*%
%TO.N,/SCL{slash}A5*%
X128375000Y-74505000D03*
D23*
%TO.P,U1,9*%
%TO.N,N/C*%
X129150000Y-73730000D03*
%TO.P,U1,10,YOUT*%
%TO.N,unconnected-(U1-YOUT-Pad10)*%
X129150000Y-73080000D03*
%TO.P,U1,11*%
%TO.N,N/C*%
X129150000Y-72430000D03*
%TO.P,U1,12,XOUT*%
%TO.N,/SDA{slash}A4*%
X129150000Y-71780000D03*
D24*
%TO.P,U1,13*%
%TO.N,N/C*%
X128375000Y-71005000D03*
%TO.P,U1,14,VS@14*%
%TO.N,+3V3*%
X127725000Y-71005000D03*
%TO.P,U1,15,VS@15*%
X127075000Y-71005000D03*
%TO.P,U1,16*%
%TO.N,N/C*%
X126425000Y-71005000D03*
%TD*%
D25*
%TO.N,+5V*%
X114650000Y-73520000D03*
X119230000Y-73490000D03*
%TO.N,/SCL{slash}A5*%
X136180000Y-82350000D03*
%TD*%
D26*
%TO.N,+5V*%
X141485000Y-88605000D02*
X140690000Y-87810000D01*
X135010000Y-94370000D02*
X138100000Y-97460000D01*
X106812500Y-69425000D02*
X106812500Y-70742500D01*
X150815000Y-88605000D02*
X141485000Y-88605000D01*
X109530000Y-73460000D02*
X109590000Y-73520000D01*
X123060000Y-91700000D02*
X119030000Y-87670000D01*
X119030000Y-87670000D02*
X119030000Y-75840000D01*
X140690000Y-87810000D02*
X140690000Y-87113004D01*
X140071996Y-86495000D02*
X133070000Y-86495000D01*
X132015000Y-87550000D02*
X132015000Y-82815000D01*
X125730000Y-94370000D02*
X135010000Y-94370000D01*
X119230000Y-73490000D02*
X119690000Y-73030000D01*
X119420000Y-75840000D02*
X122230000Y-73030000D01*
X133070000Y-86495000D02*
X132015000Y-87550000D01*
X106812500Y-70742500D02*
X109530000Y-73460000D01*
X109590000Y-73520000D02*
X114650000Y-73520000D01*
X119030000Y-75840000D02*
X119420000Y-75840000D01*
X132015000Y-82815000D02*
X122230000Y-73030000D01*
X119690000Y-73030000D02*
X122230000Y-73030000D01*
X140690000Y-87113004D02*
X140071996Y-86495000D01*
X151870000Y-87550000D02*
X150815000Y-88605000D01*
X123060000Y-91700000D02*
X125730000Y-94370000D01*
%TO.N,/A0*%
X129310000Y-92870000D02*
X146210000Y-92870000D01*
X125600000Y-89160000D02*
X129310000Y-92870000D01*
X146210000Y-92870000D02*
X150800000Y-97460000D01*
%TO.N,/A1*%
X122230000Y-75570000D02*
X128220000Y-81560000D01*
X130400000Y-92210000D02*
X148090000Y-92210000D01*
X128220000Y-90030000D02*
X130400000Y-92210000D01*
X128220000Y-81560000D02*
X128220000Y-90030000D01*
X148090000Y-92210000D02*
X153340000Y-97460000D01*
%TO.N,/SDA{slash}A4*%
X160280000Y-85800000D02*
X143510000Y-85800000D01*
X143510000Y-85800000D02*
X142840000Y-86470000D01*
X162030000Y-96390000D02*
X162030000Y-87550000D01*
X142840000Y-86885000D02*
X142175000Y-87550000D01*
X142175000Y-73823004D02*
X142175000Y-87550000D01*
X140022996Y-71671000D02*
X142175000Y-73823004D01*
X142840000Y-86470000D02*
X142840000Y-86885000D01*
X162030000Y-87550000D02*
X160280000Y-85800000D01*
X160960000Y-97460000D02*
X162030000Y-96390000D01*
X129259000Y-71671000D02*
X140022996Y-71671000D01*
X129150000Y-71780000D02*
X129259000Y-71671000D01*
%TO.N,/SCL{slash}A5*%
X163500000Y-97460000D02*
X162349000Y-98611000D01*
X158430000Y-88610000D02*
X159490000Y-87550000D01*
X128375000Y-74545000D02*
X128375000Y-74505000D01*
X159571000Y-97698760D02*
X159571000Y-87631000D01*
X140300000Y-89190000D02*
X158250000Y-89190000D01*
X139635000Y-88525000D02*
X140300000Y-89190000D01*
X136180000Y-82350000D02*
X128375000Y-74545000D01*
X160483240Y-98611000D02*
X159571000Y-97698760D01*
X158250000Y-89190000D02*
X158430000Y-89010000D01*
X139635000Y-87550000D02*
X139635000Y-88525000D01*
X158430000Y-89010000D02*
X158430000Y-88610000D01*
X162349000Y-98611000D02*
X160483240Y-98611000D01*
X159571000Y-87631000D02*
X159490000Y-87550000D01*
%TO.N,/\u002A11*%
X133123760Y-49200000D02*
X134036000Y-49200000D01*
X129313760Y-53010000D02*
X133123760Y-49200000D01*
X123860000Y-53010000D02*
X129313760Y-53010000D01*
%TO.N,/\u002A10*%
X131160000Y-52720000D02*
X133056000Y-52720000D01*
X133056000Y-52720000D02*
X136576000Y-49200000D01*
%TO.N,/\u002A9*%
X138740000Y-52910000D02*
X138740000Y-49576000D01*
X138740000Y-49576000D02*
X139116000Y-49200000D01*
%TO.N,/\u002A6*%
X146130000Y-51330000D02*
X148260000Y-49200000D01*
X146130000Y-52910000D02*
X146130000Y-51330000D01*
%TO.N,/\u002A5*%
X150800000Y-50100000D02*
X150800000Y-49200000D01*
X153520000Y-52820000D02*
X150800000Y-50100000D01*
%TO.N,/TX{slash}1*%
X113451500Y-67866000D02*
X163454000Y-67866000D01*
X111892500Y-69425000D02*
X113451500Y-67866000D01*
X164170000Y-52410000D02*
X160960000Y-49200000D01*
X163454000Y-67866000D02*
X164170000Y-67150000D01*
X164170000Y-67150000D02*
X164170000Y-52410000D01*
%TO.N,/\u002A3*%
X159690000Y-53010000D02*
X155880000Y-49200000D01*
X161110000Y-53010000D02*
X159690000Y-53010000D01*
%TO.N,/RX{slash}0*%
X109352500Y-69425000D02*
X109352500Y-49927500D01*
X109352500Y-49927500D02*
X112330000Y-46950000D01*
X112330000Y-46950000D02*
X161250000Y-46950000D01*
X161250000Y-46950000D02*
X163500000Y-49200000D01*
%TO.N,+3V3*%
X127075000Y-71005000D02*
X127075000Y-70480000D01*
X125985000Y-69390000D02*
X120630000Y-69390000D01*
X127725000Y-71005000D02*
X127075000Y-71005000D01*
X133450000Y-95350000D02*
X135560000Y-97460000D01*
X120630000Y-69390000D02*
X117180000Y-72840000D01*
X117400000Y-95350000D02*
X133450000Y-95350000D01*
X117180000Y-72840000D02*
X117180000Y-95130000D01*
X127075000Y-70480000D02*
X125985000Y-69390000D01*
X117180000Y-95130000D02*
X117400000Y-95350000D01*
%TO.N,Net-(D1-A)*%
X161110000Y-60630000D02*
X161110000Y-63780000D01*
X161110000Y-63780000D02*
X161060000Y-63830000D01*
%TO.N,Net-(D2-A)*%
X153520000Y-63760000D02*
X153590000Y-63830000D01*
X153520000Y-60440000D02*
X153520000Y-63760000D01*
%TO.N,Net-(D3-A)*%
X146130000Y-60530000D02*
X146130000Y-63820000D01*
X146130000Y-63820000D02*
X146120000Y-63830000D01*
%TO.N,Net-(D4-A)*%
X138740000Y-60530000D02*
X138740000Y-63740000D01*
X138740000Y-63740000D02*
X138650000Y-63830000D01*
%TO.N,Net-(D5-A)*%
X131160000Y-60340000D02*
X131160000Y-63810000D01*
X131160000Y-63810000D02*
X131180000Y-63830000D01*
%TO.N,Net-(D6-A)*%
X123860000Y-60630000D02*
X123860000Y-63680000D01*
X123860000Y-63680000D02*
X123710000Y-63830000D01*
%TD*%
%TA.AperFunction,Conductor*%
%TO.N,GND*%
G36*
X163484404Y-46755185D02*
G01*
X163505046Y-46771819D01*
X165928181Y-49194954D01*
X165961666Y-49256277D01*
X165964500Y-49282635D01*
X165964500Y-59344982D01*
X165964500Y-59375018D01*
X165975994Y-59402767D01*
X165975995Y-59402768D01*
X168468181Y-61894954D01*
X168501666Y-61956277D01*
X168504500Y-61982635D01*
X168504500Y-86989466D01*
X168484815Y-87056505D01*
X168432011Y-87102260D01*
X168362853Y-87112204D01*
X168299297Y-87083179D01*
X168270015Y-87045761D01*
X168216167Y-86940080D01*
X168189787Y-86888306D01*
X168072981Y-86727536D01*
X167932464Y-86587019D01*
X167771694Y-86470213D01*
X167748098Y-86458190D01*
X167594632Y-86379994D01*
X167594629Y-86379993D01*
X167405637Y-86318587D01*
X167307498Y-86303043D01*
X167209361Y-86287500D01*
X167010639Y-86287500D01*
X166945214Y-86297862D01*
X166814362Y-86318587D01*
X166625370Y-86379993D01*
X166625367Y-86379994D01*
X166448305Y-86470213D01*
X166287533Y-86587021D01*
X166147021Y-86727533D01*
X166030213Y-86888305D01*
X165950485Y-87044780D01*
X165902510Y-87095576D01*
X165834689Y-87112371D01*
X165768554Y-87089833D01*
X165729515Y-87044780D01*
X165710179Y-87006832D01*
X165649787Y-86888306D01*
X165532981Y-86727536D01*
X165392464Y-86587019D01*
X165231694Y-86470213D01*
X165208098Y-86458190D01*
X165054632Y-86379994D01*
X165054629Y-86379993D01*
X164865637Y-86318587D01*
X164767498Y-86303043D01*
X164669361Y-86287500D01*
X164470639Y-86287500D01*
X164405214Y-86297862D01*
X164274362Y-86318587D01*
X164085370Y-86379993D01*
X164085367Y-86379994D01*
X163908305Y-86470213D01*
X163747533Y-86587021D01*
X163607021Y-86727533D01*
X163490213Y-86888305D01*
X163410485Y-87044780D01*
X163362510Y-87095576D01*
X163294689Y-87112371D01*
X163228554Y-87089833D01*
X163189515Y-87044780D01*
X163170179Y-87006832D01*
X163109787Y-86888306D01*
X162992981Y-86727536D01*
X162852464Y-86587019D01*
X162691694Y-86470213D01*
X162668098Y-86458190D01*
X162514632Y-86379994D01*
X162514629Y-86379993D01*
X162325637Y-86318587D01*
X162227498Y-86303043D01*
X162129361Y-86287500D01*
X161930639Y-86287500D01*
X161824862Y-86304253D01*
X161731825Y-86318989D01*
X161662531Y-86310034D01*
X161624746Y-86284197D01*
X160653629Y-85313080D01*
X160653627Y-85313078D01*
X160514873Y-85232968D01*
X160437491Y-85212234D01*
X160437490Y-85212233D01*
X160380844Y-85197055D01*
X160360111Y-85191500D01*
X143429889Y-85191500D01*
X143352508Y-85212233D01*
X143352508Y-85212234D01*
X143275127Y-85232968D01*
X143275125Y-85232968D01*
X143275125Y-85232969D01*
X143136372Y-85313079D01*
X143136369Y-85313081D01*
X142995181Y-85454270D01*
X142933858Y-85487755D01*
X142864166Y-85482771D01*
X142808233Y-85440899D01*
X142783816Y-85375435D01*
X142783500Y-85366589D01*
X142783500Y-73742895D01*
X142783500Y-73742893D01*
X142745242Y-73600111D01*
X142745113Y-73599631D01*
X142742032Y-73588132D01*
X142742032Y-73588131D01*
X142707287Y-73527951D01*
X142661921Y-73449376D01*
X142653828Y-73441283D01*
X143868500Y-73441283D01*
X143868500Y-73718716D01*
X143868501Y-73718732D01*
X143904713Y-73993793D01*
X143976521Y-74261784D01*
X144082691Y-74518102D01*
X144082699Y-74518119D01*
X144149049Y-74633039D01*
X144221419Y-74758387D01*
X144221421Y-74758390D01*
X144221422Y-74758391D01*
X144390315Y-74978498D01*
X144390321Y-74978505D01*
X144586494Y-75174678D01*
X144586501Y-75174684D01*
X144617061Y-75198133D01*
X144806613Y-75343581D01*
X144960154Y-75432228D01*
X145046880Y-75482300D01*
X145046885Y-75482302D01*
X145046888Y-75482304D01*
X145046892Y-75482305D01*
X145046897Y-75482308D01*
X145148510Y-75524397D01*
X145303214Y-75588478D01*
X145571205Y-75660286D01*
X145846277Y-75696500D01*
X145846284Y-75696500D01*
X146123716Y-75696500D01*
X146123723Y-75696500D01*
X146398795Y-75660286D01*
X146666786Y-75588478D01*
X146923112Y-75482304D01*
X147163387Y-75343581D01*
X147383500Y-75174683D01*
X147579683Y-74978500D01*
X147748581Y-74758387D01*
X147887304Y-74518112D01*
X147993478Y-74261786D01*
X148065286Y-73993795D01*
X148101500Y-73718723D01*
X148101500Y-73441283D01*
X151023500Y-73441283D01*
X151023500Y-73718716D01*
X151023501Y-73718732D01*
X151059713Y-73993793D01*
X151131521Y-74261784D01*
X151237691Y-74518102D01*
X151237699Y-74518119D01*
X151304049Y-74633039D01*
X151376419Y-74758387D01*
X151376421Y-74758390D01*
X151376422Y-74758391D01*
X151545315Y-74978498D01*
X151545321Y-74978505D01*
X151741494Y-75174678D01*
X151741501Y-75174684D01*
X151772061Y-75198133D01*
X151961613Y-75343581D01*
X152115154Y-75432228D01*
X152201880Y-75482300D01*
X152201885Y-75482302D01*
X152201888Y-75482304D01*
X152201892Y-75482305D01*
X152201897Y-75482308D01*
X152303510Y-75524397D01*
X152458214Y-75588478D01*
X152726205Y-75660286D01*
X153001277Y-75696500D01*
X153001284Y-75696500D01*
X153278716Y-75696500D01*
X153278723Y-75696500D01*
X153553795Y-75660286D01*
X153821786Y-75588478D01*
X154078112Y-75482304D01*
X154318387Y-75343581D01*
X154538500Y-75174683D01*
X154734683Y-74978500D01*
X154903581Y-74758387D01*
X155042304Y-74518112D01*
X155148478Y-74261786D01*
X155220286Y-73993795D01*
X155256500Y-73718723D01*
X155256500Y-73441283D01*
X163723500Y-73441283D01*
X163723500Y-73718716D01*
X163723501Y-73718732D01*
X163759713Y-73993793D01*
X163831521Y-74261784D01*
X163937691Y-74518102D01*
X163937699Y-74518119D01*
X164004049Y-74633039D01*
X164076419Y-74758387D01*
X164076421Y-74758390D01*
X164076422Y-74758391D01*
X164245315Y-74978498D01*
X164245321Y-74978505D01*
X164441494Y-75174678D01*
X164441501Y-75174684D01*
X164472061Y-75198133D01*
X164661613Y-75343581D01*
X164815154Y-75432228D01*
X164901880Y-75482300D01*
X164901885Y-75482302D01*
X164901888Y-75482304D01*
X164901892Y-75482305D01*
X164901897Y-75482308D01*
X165003510Y-75524397D01*
X165158214Y-75588478D01*
X165426205Y-75660286D01*
X165701277Y-75696500D01*
X165701284Y-75696500D01*
X165978716Y-75696500D01*
X165978723Y-75696500D01*
X166253795Y-75660286D01*
X166521786Y-75588478D01*
X166778112Y-75482304D01*
X167018387Y-75343581D01*
X167238500Y-75174683D01*
X167434683Y-74978500D01*
X167603581Y-74758387D01*
X167742304Y-74518112D01*
X167848478Y-74261786D01*
X167920286Y-73993795D01*
X167956500Y-73718723D01*
X167956500Y-73441277D01*
X167920286Y-73166205D01*
X167848478Y-72898214D01*
X167771138Y-72711500D01*
X167742308Y-72641897D01*
X167742300Y-72641880D01*
X167692738Y-72556038D01*
X167603581Y-72401613D01*
X167434683Y-72181500D01*
X167434678Y-72181494D01*
X167238505Y-71985321D01*
X167238498Y-71985315D01*
X167018391Y-71816422D01*
X167018390Y-71816421D01*
X167018387Y-71816419D01*
X166922590Y-71761111D01*
X166778119Y-71677699D01*
X166778102Y-71677691D01*
X166521784Y-71571521D01*
X166253793Y-71499713D01*
X165978732Y-71463501D01*
X165978729Y-71463500D01*
X165978723Y-71463500D01*
X165701277Y-71463500D01*
X165701271Y-71463500D01*
X165701267Y-71463501D01*
X165426206Y-71499713D01*
X165158215Y-71571521D01*
X164901897Y-71677691D01*
X164901880Y-71677699D01*
X164661608Y-71816422D01*
X164441501Y-71985315D01*
X164441494Y-71985321D01*
X164245321Y-72181494D01*
X164245315Y-72181501D01*
X164076422Y-72401608D01*
X163937699Y-72641880D01*
X163937691Y-72641897D01*
X163831521Y-72898215D01*
X163759713Y-73166206D01*
X163723501Y-73441267D01*
X163723500Y-73441283D01*
X155256500Y-73441283D01*
X155256500Y-73441277D01*
X155220286Y-73166205D01*
X155148478Y-72898214D01*
X155071138Y-72711500D01*
X155042308Y-72641897D01*
X155042300Y-72641880D01*
X154992738Y-72556038D01*
X154903581Y-72401613D01*
X154734683Y-72181500D01*
X154734678Y-72181494D01*
X154538505Y-71985321D01*
X154538498Y-71985315D01*
X154318391Y-71816422D01*
X154318390Y-71816421D01*
X154318387Y-71816419D01*
X154222590Y-71761111D01*
X154078119Y-71677699D01*
X154078102Y-71677691D01*
X153821784Y-71571521D01*
X153553793Y-71499713D01*
X153278732Y-71463501D01*
X153278729Y-71463500D01*
X153278723Y-71463500D01*
X153001277Y-71463500D01*
X153001271Y-71463500D01*
X153001267Y-71463501D01*
X152726206Y-71499713D01*
X152458215Y-71571521D01*
X152201897Y-71677691D01*
X152201880Y-71677699D01*
X151961608Y-71816422D01*
X151741501Y-71985315D01*
X151741494Y-71985321D01*
X151545321Y-72181494D01*
X151545315Y-72181501D01*
X151376422Y-72401608D01*
X151237699Y-72641880D01*
X151237691Y-72641897D01*
X151131521Y-72898215D01*
X151059713Y-73166206D01*
X151023501Y-73441267D01*
X151023500Y-73441283D01*
X148101500Y-73441283D01*
X148101500Y-73441277D01*
X148065286Y-73166205D01*
X147993478Y-72898214D01*
X147916138Y-72711500D01*
X147887308Y-72641897D01*
X147887300Y-72641880D01*
X147837738Y-72556038D01*
X147748581Y-72401613D01*
X147579683Y-72181500D01*
X147579678Y-72181494D01*
X147383505Y-71985321D01*
X147383498Y-71985315D01*
X147163391Y-71816422D01*
X147163390Y-71816421D01*
X147163387Y-71816419D01*
X147067590Y-71761111D01*
X146923119Y-71677699D01*
X146923102Y-71677691D01*
X146666784Y-71571521D01*
X146398793Y-71499713D01*
X146123732Y-71463501D01*
X146123729Y-71463500D01*
X146123723Y-71463500D01*
X145846277Y-71463500D01*
X145846271Y-71463500D01*
X145846267Y-71463501D01*
X145571206Y-71499713D01*
X145303215Y-71571521D01*
X145046897Y-71677691D01*
X145046880Y-71677699D01*
X144806608Y-71816422D01*
X144586501Y-71985315D01*
X144586494Y-71985321D01*
X144390321Y-72181494D01*
X144390315Y-72181501D01*
X144221422Y-72401608D01*
X144082699Y-72641880D01*
X144082691Y-72641897D01*
X143976521Y-72898215D01*
X143904713Y-73166206D01*
X143868501Y-73441267D01*
X143868500Y-73441283D01*
X142653828Y-73441283D01*
X140396623Y-71184078D01*
X140304120Y-71130671D01*
X140257871Y-71103969D01*
X140257870Y-71103968D01*
X140257869Y-71103968D01*
X140180487Y-71083234D01*
X140180486Y-71083233D01*
X140123840Y-71068055D01*
X140103107Y-71062500D01*
X129192500Y-71062500D01*
X129125461Y-71042815D01*
X129079706Y-70990011D01*
X129068500Y-70938500D01*
X129068500Y-70631362D01*
X129068499Y-70631345D01*
X129065157Y-70600270D01*
X129061989Y-70570799D01*
X129061642Y-70569870D01*
X129021239Y-70461545D01*
X129010889Y-70433796D01*
X128923261Y-70316739D01*
X128806204Y-70229111D01*
X128790324Y-70223188D01*
X128669203Y-70178011D01*
X128608654Y-70171500D01*
X128608638Y-70171500D01*
X128141362Y-70171500D01*
X128141345Y-70171500D01*
X128080797Y-70178011D01*
X128078512Y-70178551D01*
X128075776Y-70178551D01*
X128073088Y-70178840D01*
X128073057Y-70178551D01*
X128026943Y-70178551D01*
X128026912Y-70178840D01*
X128024224Y-70178551D01*
X128021488Y-70178551D01*
X128019202Y-70178011D01*
X127958654Y-70171500D01*
X127958638Y-70171500D01*
X127671115Y-70171500D01*
X127604076Y-70151815D01*
X127566886Y-70112813D01*
X127566872Y-70112824D01*
X127566770Y-70112691D01*
X127563729Y-70109502D01*
X127561924Y-70106376D01*
X127561920Y-70106371D01*
X126358629Y-68903080D01*
X126358627Y-68903078D01*
X126219873Y-68822968D01*
X126142491Y-68802234D01*
X126142490Y-68802233D01*
X126085844Y-68787055D01*
X126065111Y-68781500D01*
X120549889Y-68781500D01*
X120419266Y-68816500D01*
X120419265Y-68816499D01*
X120395130Y-68822967D01*
X120395125Y-68822969D01*
X120256376Y-68903075D01*
X120256371Y-68903079D01*
X116693080Y-72466370D01*
X116693076Y-72466376D01*
X116612967Y-72605126D01*
X116612968Y-72605126D01*
X116612968Y-72605127D01*
X116571500Y-72759889D01*
X116571500Y-95210109D01*
X116612968Y-95364874D01*
X116653023Y-95434250D01*
X116693078Y-95503627D01*
X117026373Y-95836922D01*
X117165127Y-95917032D01*
X117242508Y-95937766D01*
X117319889Y-95958500D01*
X117319890Y-95958500D01*
X117480110Y-95958500D01*
X126739220Y-95958500D01*
X126806259Y-95978185D01*
X126852014Y-96030989D01*
X126861958Y-96100147D01*
X126832933Y-96163703D01*
X126813531Y-96181767D01*
X126726739Y-96246739D01*
X126639111Y-96363795D01*
X126588011Y-96500795D01*
X126588011Y-96500797D01*
X126581500Y-96561345D01*
X126581500Y-98358654D01*
X126588011Y-98419202D01*
X126588011Y-98419204D01*
X126619138Y-98502656D01*
X126639111Y-98556204D01*
X126726739Y-98673261D01*
X126843796Y-98760889D01*
X126980799Y-98811989D01*
X127008050Y-98814918D01*
X127041345Y-98818499D01*
X127041362Y-98818500D01*
X128838638Y-98818500D01*
X128838654Y-98818499D01*
X128865692Y-98815591D01*
X128899201Y-98811989D01*
X129036204Y-98760889D01*
X129153261Y-98673261D01*
X129240889Y-98556204D01*
X129285957Y-98435371D01*
X129327827Y-98379442D01*
X129393291Y-98355025D01*
X129461564Y-98369877D01*
X129489818Y-98391028D01*
X129594996Y-98496206D01*
X129767991Y-98621894D01*
X129854542Y-98665994D01*
X129958516Y-98718972D01*
X129958519Y-98718973D01*
X130051397Y-98749150D01*
X130161884Y-98785049D01*
X130373084Y-98818500D01*
X130373085Y-98818500D01*
X130586915Y-98818500D01*
X130586916Y-98818500D01*
X130798116Y-98785049D01*
X131001483Y-98718972D01*
X131192009Y-98621894D01*
X131365004Y-98496206D01*
X131516206Y-98345004D01*
X131641894Y-98172009D01*
X131641896Y-98172004D01*
X131644270Y-98168132D01*
X131696080Y-98121254D01*
X131765009Y-98109829D01*
X131829173Y-98137483D01*
X131855730Y-98168132D01*
X131858103Y-98172005D01*
X131858105Y-98172008D01*
X131858106Y-98172009D01*
X131983794Y-98345004D01*
X132134996Y-98496206D01*
X132307991Y-98621894D01*
X132394542Y-98665994D01*
X132498516Y-98718972D01*
X132498519Y-98718973D01*
X132591397Y-98749150D01*
X132701884Y-98785049D01*
X132913084Y-98818500D01*
X132913085Y-98818500D01*
X133126915Y-98818500D01*
X133126916Y-98818500D01*
X133338116Y-98785049D01*
X133541483Y-98718972D01*
X133732009Y-98621894D01*
X133905004Y-98496206D01*
X134056206Y-98345004D01*
X134181894Y-98172009D01*
X134181896Y-98172004D01*
X134184270Y-98168132D01*
X134236080Y-98121254D01*
X134305009Y-98109829D01*
X134369173Y-98137483D01*
X134395730Y-98168132D01*
X134398103Y-98172005D01*
X134398105Y-98172008D01*
X134398106Y-98172009D01*
X134523794Y-98345004D01*
X134674996Y-98496206D01*
X134847991Y-98621894D01*
X134934542Y-98665994D01*
X135038516Y-98718972D01*
X135038519Y-98718973D01*
X135131397Y-98749150D01*
X135241884Y-98785049D01*
X135453084Y-98818500D01*
X135453085Y-98818500D01*
X135666915Y-98818500D01*
X135666916Y-98818500D01*
X135878116Y-98785049D01*
X136081483Y-98718972D01*
X136272009Y-98621894D01*
X136445004Y-98496206D01*
X136596206Y-98345004D01*
X136721894Y-98172009D01*
X136721896Y-98172004D01*
X136724270Y-98168132D01*
X136776080Y-98121254D01*
X136845009Y-98109829D01*
X136909173Y-98137483D01*
X136935730Y-98168132D01*
X136938103Y-98172005D01*
X136938105Y-98172008D01*
X136938106Y-98172009D01*
X137063794Y-98345004D01*
X137214996Y-98496206D01*
X137387991Y-98621894D01*
X137474542Y-98665994D01*
X137578516Y-98718972D01*
X137578519Y-98718973D01*
X137671397Y-98749150D01*
X137781884Y-98785049D01*
X137993084Y-98818500D01*
X137993085Y-98818500D01*
X138206915Y-98818500D01*
X138206916Y-98818500D01*
X138418116Y-98785049D01*
X138621483Y-98718972D01*
X138812009Y-98621894D01*
X138985004Y-98496206D01*
X139136206Y-98345004D01*
X139261894Y-98172009D01*
X139264283Y-98167319D01*
X139312254Y-98116522D01*
X139380074Y-98099724D01*
X139446210Y-98122258D01*
X139482201Y-98163788D01*
X139482832Y-98163402D01*
X139485164Y-98167207D01*
X139485251Y-98167308D01*
X139485376Y-98167554D01*
X139610272Y-98339459D01*
X139610276Y-98339464D01*
X139760535Y-98489723D01*
X139760540Y-98489727D01*
X139932442Y-98614620D01*
X140121782Y-98711095D01*
X140323871Y-98776757D01*
X140390000Y-98787231D01*
X140390000Y-97893012D01*
X140447007Y-97925925D01*
X140574174Y-97960000D01*
X140705826Y-97960000D01*
X140832993Y-97925925D01*
X140890000Y-97893012D01*
X140890000Y-98787230D01*
X140956126Y-98776757D01*
X140956129Y-98776757D01*
X141158217Y-98711095D01*
X141347557Y-98614620D01*
X141519459Y-98489727D01*
X141519464Y-98489723D01*
X141669723Y-98339464D01*
X141669727Y-98339459D01*
X141794620Y-98167558D01*
X141799514Y-98157954D01*
X141847488Y-98107157D01*
X141915308Y-98090361D01*
X141981444Y-98112897D01*
X142020486Y-98157954D01*
X142025379Y-98167558D01*
X142150272Y-98339459D01*
X142150276Y-98339464D01*
X142300535Y-98489723D01*
X142300540Y-98489727D01*
X142472442Y-98614620D01*
X142661782Y-98711095D01*
X142863871Y-98776757D01*
X142930000Y-98787231D01*
X142930000Y-97893012D01*
X142987007Y-97925925D01*
X143114174Y-97960000D01*
X143245826Y-97960000D01*
X143372993Y-97925925D01*
X143430000Y-97893012D01*
X143430000Y-98787230D01*
X143496126Y-98776757D01*
X143496129Y-98776757D01*
X143698217Y-98711095D01*
X143887557Y-98614620D01*
X144059459Y-98489727D01*
X144059464Y-98489723D01*
X144209723Y-98339464D01*
X144209727Y-98339459D01*
X144334619Y-98167560D01*
X144334738Y-98167327D01*
X144334808Y-98167252D01*
X144337168Y-98163402D01*
X144337976Y-98163897D01*
X144382707Y-98116526D01*
X144450526Y-98099723D01*
X144516663Y-98122254D01*
X144555712Y-98167311D01*
X144558105Y-98172008D01*
X144600002Y-98229674D01*
X144683794Y-98345004D01*
X144834996Y-98496206D01*
X145007991Y-98621894D01*
X145094542Y-98665994D01*
X145198516Y-98718972D01*
X145198519Y-98718973D01*
X145291397Y-98749150D01*
X145401884Y-98785049D01*
X145613084Y-98818500D01*
X145613085Y-98818500D01*
X145826915Y-98818500D01*
X145826916Y-98818500D01*
X146038116Y-98785049D01*
X146241483Y-98718972D01*
X146432009Y-98621894D01*
X146605004Y-98496206D01*
X146756206Y-98345004D01*
X146881894Y-98172009D01*
X146978972Y-97981483D01*
X147045049Y-97778116D01*
X147078500Y-97566916D01*
X147078500Y-97353084D01*
X147045049Y-97141884D01*
X146978972Y-96938517D01*
X146978972Y-96938516D01*
X146923495Y-96829638D01*
X146881894Y-96747991D01*
X146756206Y-96574996D01*
X146605004Y-96423794D01*
X146432009Y-96298106D01*
X146401204Y-96282410D01*
X146241483Y-96201027D01*
X146241480Y-96201026D01*
X146038117Y-96134951D01*
X145932516Y-96118225D01*
X145826916Y-96101500D01*
X145613084Y-96101500D01*
X145542684Y-96112650D01*
X145401882Y-96134951D01*
X145198519Y-96201026D01*
X145198516Y-96201027D01*
X145007990Y-96298106D01*
X144834993Y-96423796D01*
X144683796Y-96574993D01*
X144558103Y-96747994D01*
X144555709Y-96752693D01*
X144507731Y-96803485D01*
X144439908Y-96820275D01*
X144373775Y-96797732D01*
X144337800Y-96756210D01*
X144337168Y-96756598D01*
X144334829Y-96752781D01*
X144334743Y-96752682D01*
X144334620Y-96752441D01*
X144209727Y-96580540D01*
X144209723Y-96580535D01*
X144059464Y-96430276D01*
X144059459Y-96430272D01*
X143887557Y-96305379D01*
X143698215Y-96208903D01*
X143496124Y-96143241D01*
X143430000Y-96132768D01*
X143430000Y-97026988D01*
X143372993Y-96994075D01*
X143245826Y-96960000D01*
X143114174Y-96960000D01*
X142987007Y-96994075D01*
X142930000Y-97026988D01*
X142930000Y-96132768D01*
X142929999Y-96132768D01*
X142863875Y-96143241D01*
X142661784Y-96208903D01*
X142472442Y-96305379D01*
X142300540Y-96430272D01*
X142300535Y-96430276D01*
X142150276Y-96580535D01*
X142150272Y-96580540D01*
X142025377Y-96752444D01*
X142020484Y-96762048D01*
X141972509Y-96812844D01*
X141904688Y-96829638D01*
X141838553Y-96807100D01*
X141799516Y-96762048D01*
X141794622Y-96752444D01*
X141669727Y-96580540D01*
X141669723Y-96580535D01*
X141519464Y-96430276D01*
X141519459Y-96430272D01*
X141347557Y-96305379D01*
X141158215Y-96208903D01*
X140956124Y-96143241D01*
X140890000Y-96132768D01*
X140890000Y-97026988D01*
X140832993Y-96994075D01*
X140705826Y-96960000D01*
X140574174Y-96960000D01*
X140447007Y-96994075D01*
X140390000Y-97026988D01*
X140390000Y-96132768D01*
X140389999Y-96132768D01*
X140323875Y-96143241D01*
X140121784Y-96208903D01*
X139932442Y-96305379D01*
X139760540Y-96430272D01*
X139760535Y-96430276D01*
X139610276Y-96580535D01*
X139610272Y-96580540D01*
X139485376Y-96752446D01*
X139485374Y-96752448D01*
X139485246Y-96752701D01*
X139485172Y-96752779D01*
X139482832Y-96756598D01*
X139482029Y-96756106D01*
X139437264Y-96803489D01*
X139369441Y-96820274D01*
X139303309Y-96797727D01*
X139264285Y-96752683D01*
X139261895Y-96747992D01*
X139169742Y-96621155D01*
X139136206Y-96574996D01*
X138985004Y-96423794D01*
X138812009Y-96298106D01*
X138781204Y-96282410D01*
X138621483Y-96201027D01*
X138621480Y-96201026D01*
X138418117Y-96134951D01*
X138312516Y-96118225D01*
X138206916Y-96101500D01*
X137993084Y-96101500D01*
X137951975Y-96108011D01*
X137781880Y-96134951D01*
X137743665Y-96147368D01*
X137673824Y-96149363D01*
X137617667Y-96117118D01*
X135383629Y-93883080D01*
X135383627Y-93883078D01*
X135244873Y-93802968D01*
X135167491Y-93782234D01*
X135167490Y-93782233D01*
X135110844Y-93767055D01*
X135090111Y-93761500D01*
X135090110Y-93761500D01*
X126033411Y-93761500D01*
X125966372Y-93741815D01*
X125945730Y-93725181D01*
X124296085Y-92075536D01*
X124262600Y-92014213D01*
X124261293Y-91968460D01*
X124288500Y-91796685D01*
X124288500Y-91603315D01*
X124258250Y-91412326D01*
X124198496Y-91228420D01*
X124198496Y-91228419D01*
X124163227Y-91159201D01*
X124110708Y-91056126D01*
X124078017Y-91011130D01*
X123997053Y-90899692D01*
X123997049Y-90899687D01*
X123860312Y-90762950D01*
X123860307Y-90762946D01*
X123703877Y-90649294D01*
X123703876Y-90649293D01*
X123703874Y-90649292D01*
X123648675Y-90621166D01*
X123531580Y-90561503D01*
X123531577Y-90561502D01*
X123347675Y-90501750D01*
X123252179Y-90486625D01*
X123156685Y-90471500D01*
X122963315Y-90471500D01*
X122918815Y-90478548D01*
X122791542Y-90498706D01*
X122722248Y-90489751D01*
X122684463Y-90463914D01*
X119674819Y-87454270D01*
X119641334Y-87392947D01*
X119638500Y-87366589D01*
X119638500Y-86523984D01*
X121840000Y-86523984D01*
X121840000Y-86716015D01*
X121870040Y-86905684D01*
X121929383Y-87088321D01*
X122016561Y-87259415D01*
X122037798Y-87288646D01*
X122660000Y-86666445D01*
X122660000Y-86672661D01*
X122687259Y-86774394D01*
X122739920Y-86865606D01*
X122814394Y-86940080D01*
X122905606Y-86992741D01*
X123007339Y-87020000D01*
X123013554Y-87020000D01*
X122391351Y-87642200D01*
X122391352Y-87642201D01*
X122420577Y-87663434D01*
X122591678Y-87750616D01*
X122774315Y-87809959D01*
X122963985Y-87840000D01*
X123156015Y-87840000D01*
X123345684Y-87809959D01*
X123528321Y-87750616D01*
X123699419Y-87663436D01*
X123728646Y-87642201D01*
X123728646Y-87642200D01*
X123106447Y-87020000D01*
X123112661Y-87020000D01*
X123214394Y-86992741D01*
X123305606Y-86940080D01*
X123380080Y-86865606D01*
X123432741Y-86774394D01*
X123460000Y-86672661D01*
X123460000Y-86666446D01*
X124082200Y-87288646D01*
X124082201Y-87288646D01*
X124103436Y-87259419D01*
X124190616Y-87088321D01*
X124249959Y-86905684D01*
X124280000Y-86716015D01*
X124280000Y-86523984D01*
X124249959Y-86334315D01*
X124190616Y-86151678D01*
X124103434Y-85980577D01*
X124082201Y-85951352D01*
X124082200Y-85951351D01*
X123460000Y-86573552D01*
X123460000Y-86567339D01*
X123432741Y-86465606D01*
X123380080Y-86374394D01*
X123305606Y-86299920D01*
X123214394Y-86247259D01*
X123112661Y-86220000D01*
X123106447Y-86220000D01*
X123728646Y-85597798D01*
X123699415Y-85576561D01*
X123528321Y-85489383D01*
X123345684Y-85430040D01*
X123156015Y-85400000D01*
X122963985Y-85400000D01*
X122774315Y-85430040D01*
X122591678Y-85489383D01*
X122420578Y-85576564D01*
X122391352Y-85597798D01*
X122391351Y-85597798D01*
X123013554Y-86220000D01*
X123007339Y-86220000D01*
X122905606Y-86247259D01*
X122814394Y-86299920D01*
X122739920Y-86374394D01*
X122687259Y-86465606D01*
X122660000Y-86567339D01*
X122660000Y-86573553D01*
X122037798Y-85951351D01*
X122037798Y-85951352D01*
X122016564Y-85980578D01*
X121929383Y-86151678D01*
X121870040Y-86334315D01*
X121840000Y-86523984D01*
X119638500Y-86523984D01*
X119638500Y-76488076D01*
X119658185Y-76421037D01*
X119700500Y-76380689D01*
X119793627Y-76326922D01*
X120659819Y-75460728D01*
X120721142Y-75427244D01*
X120790833Y-75432228D01*
X120846767Y-75474100D01*
X120871184Y-75539564D01*
X120871500Y-75548410D01*
X120871500Y-75676915D01*
X120904951Y-75888117D01*
X120971026Y-76091480D01*
X120971027Y-76091483D01*
X121068106Y-76282009D01*
X121193794Y-76455004D01*
X121344996Y-76606206D01*
X121517991Y-76731894D01*
X121522680Y-76734283D01*
X121573478Y-76782254D01*
X121590276Y-76850074D01*
X121567742Y-76916210D01*
X121526205Y-76952209D01*
X121526590Y-76952838D01*
X121522804Y-76955157D01*
X121522702Y-76955246D01*
X121522449Y-76955374D01*
X121522440Y-76955380D01*
X121468282Y-76994727D01*
X121468282Y-76994728D01*
X122100591Y-77627037D01*
X122037007Y-77644075D01*
X121922993Y-77709901D01*
X121829901Y-77802993D01*
X121764075Y-77917007D01*
X121747037Y-77980591D01*
X121114728Y-77348282D01*
X121114727Y-77348282D01*
X121075380Y-77402439D01*
X120978904Y-77591782D01*
X120913242Y-77793869D01*
X120913242Y-77793872D01*
X120880000Y-78003753D01*
X120880000Y-78216246D01*
X120913242Y-78426127D01*
X120913242Y-78426130D01*
X120978904Y-78628217D01*
X121075375Y-78817550D01*
X121114728Y-78871716D01*
X121747037Y-78239408D01*
X121764075Y-78302993D01*
X121829901Y-78417007D01*
X121922993Y-78510099D01*
X122037007Y-78575925D01*
X122100590Y-78592962D01*
X121468282Y-79225269D01*
X121468282Y-79225270D01*
X121522449Y-79264624D01*
X121711782Y-79361095D01*
X121913870Y-79426757D01*
X122123754Y-79460000D01*
X122336246Y-79460000D01*
X122546127Y-79426757D01*
X122546130Y-79426757D01*
X122748217Y-79361095D01*
X122937554Y-79264622D01*
X122991716Y-79225270D01*
X122991717Y-79225270D01*
X122359408Y-78592962D01*
X122422993Y-78575925D01*
X122537007Y-78510099D01*
X122630099Y-78417007D01*
X122695925Y-78302993D01*
X122712962Y-78239408D01*
X123345270Y-78871717D01*
X123345270Y-78871716D01*
X123384622Y-78817554D01*
X123481095Y-78628217D01*
X123546757Y-78426130D01*
X123546757Y-78426127D01*
X123580000Y-78216246D01*
X123580000Y-78079911D01*
X123599685Y-78012872D01*
X123652489Y-77967117D01*
X123721647Y-77957173D01*
X123785203Y-77986198D01*
X123791681Y-77992230D01*
X127575181Y-81775730D01*
X127608666Y-81837053D01*
X127611500Y-81863411D01*
X127611500Y-90011589D01*
X127591815Y-90078628D01*
X127539011Y-90124383D01*
X127469853Y-90134327D01*
X127406297Y-90105302D01*
X127399819Y-90099270D01*
X126836085Y-89535536D01*
X126802600Y-89474213D01*
X126801293Y-89428460D01*
X126828500Y-89256685D01*
X126828500Y-89063315D01*
X126798250Y-88872326D01*
X126748759Y-88720006D01*
X126738497Y-88688422D01*
X126738496Y-88688419D01*
X126691681Y-88596541D01*
X126650708Y-88516126D01*
X126621189Y-88475497D01*
X126537053Y-88359692D01*
X126537049Y-88359687D01*
X126400312Y-88222950D01*
X126400307Y-88222946D01*
X126243877Y-88109294D01*
X126243876Y-88109293D01*
X126243874Y-88109292D01*
X126188675Y-88081166D01*
X126071580Y-88021503D01*
X126071577Y-88021502D01*
X125887675Y-87961750D01*
X125792179Y-87946625D01*
X125696685Y-87931500D01*
X125503315Y-87931500D01*
X125452559Y-87939539D01*
X125312324Y-87961750D01*
X125128422Y-88021502D01*
X125128419Y-88021503D01*
X124956122Y-88109294D01*
X124799692Y-88222946D01*
X124799687Y-88222950D01*
X124662950Y-88359687D01*
X124662946Y-88359692D01*
X124549294Y-88516122D01*
X124461503Y-88688419D01*
X124461502Y-88688422D01*
X124401750Y-88872324D01*
X124371500Y-89063315D01*
X124371500Y-89256684D01*
X124401750Y-89447675D01*
X124461502Y-89631577D01*
X124461503Y-89631580D01*
X124484607Y-89676923D01*
X124546553Y-89798499D01*
X124549294Y-89803877D01*
X124662946Y-89960307D01*
X124662950Y-89960312D01*
X124799687Y-90097049D01*
X124799692Y-90097053D01*
X124850996Y-90134327D01*
X124956126Y-90210708D01*
X125062431Y-90264873D01*
X125128419Y-90298496D01*
X125128422Y-90298497D01*
X125220373Y-90328373D01*
X125312326Y-90358250D01*
X125503315Y-90388500D01*
X125503316Y-90388500D01*
X125696684Y-90388500D01*
X125696685Y-90388500D01*
X125868459Y-90361293D01*
X125937750Y-90370247D01*
X125975536Y-90396085D01*
X128936372Y-93356921D01*
X129075127Y-93437032D01*
X129152508Y-93457766D01*
X129229889Y-93478500D01*
X129229890Y-93478500D01*
X129390110Y-93478500D01*
X145906589Y-93478500D01*
X145973628Y-93498185D01*
X145994270Y-93514819D01*
X149405181Y-96925730D01*
X149438666Y-96987053D01*
X149441500Y-97013411D01*
X149441500Y-98358654D01*
X149448011Y-98419202D01*
X149448011Y-98419204D01*
X149479138Y-98502656D01*
X149499111Y-98556204D01*
X149586739Y-98673261D01*
X149703796Y-98760889D01*
X149840799Y-98811989D01*
X149868050Y-98814918D01*
X149901345Y-98818499D01*
X149901362Y-98818500D01*
X151698638Y-98818500D01*
X151698654Y-98818499D01*
X151725692Y-98815591D01*
X151759201Y-98811989D01*
X151896204Y-98760889D01*
X152013261Y-98673261D01*
X152100889Y-98556204D01*
X152145957Y-98435371D01*
X152187827Y-98379442D01*
X152253291Y-98355025D01*
X152321564Y-98369877D01*
X152349818Y-98391028D01*
X152454996Y-98496206D01*
X152627991Y-98621894D01*
X152714542Y-98665994D01*
X152818516Y-98718972D01*
X152818519Y-98718973D01*
X152911397Y-98749150D01*
X153021884Y-98785049D01*
X153233084Y-98818500D01*
X153233085Y-98818500D01*
X153446915Y-98818500D01*
X153446916Y-98818500D01*
X153658116Y-98785049D01*
X153861483Y-98718972D01*
X154052009Y-98621894D01*
X154225004Y-98496206D01*
X154376206Y-98345004D01*
X154501894Y-98172009D01*
X154501896Y-98172004D01*
X154504270Y-98168132D01*
X154556080Y-98121254D01*
X154625009Y-98109829D01*
X154689173Y-98137483D01*
X154715730Y-98168132D01*
X154718103Y-98172005D01*
X154718105Y-98172008D01*
X154718106Y-98172009D01*
X154843794Y-98345004D01*
X154994996Y-98496206D01*
X155167991Y-98621894D01*
X155254542Y-98665994D01*
X155358516Y-98718972D01*
X155358519Y-98718973D01*
X155451397Y-98749150D01*
X155561884Y-98785049D01*
X155773084Y-98818500D01*
X155773085Y-98818500D01*
X155986915Y-98818500D01*
X155986916Y-98818500D01*
X156198116Y-98785049D01*
X156401483Y-98718972D01*
X156592009Y-98621894D01*
X156765004Y-98496206D01*
X156916206Y-98345004D01*
X157041894Y-98172009D01*
X157041896Y-98172004D01*
X157044270Y-98168132D01*
X157096080Y-98121254D01*
X157165009Y-98109829D01*
X157229173Y-98137483D01*
X157255730Y-98168132D01*
X157258103Y-98172005D01*
X157258105Y-98172008D01*
X157258106Y-98172009D01*
X157383794Y-98345004D01*
X157534996Y-98496206D01*
X157707991Y-98621894D01*
X157794542Y-98665994D01*
X157898516Y-98718972D01*
X157898519Y-98718973D01*
X157991397Y-98749150D01*
X158101884Y-98785049D01*
X158313084Y-98818500D01*
X158313085Y-98818500D01*
X158526915Y-98818500D01*
X158526916Y-98818500D01*
X158738116Y-98785049D01*
X158941483Y-98718972D01*
X159132009Y-98621894D01*
X159305004Y-98496206D01*
X159318765Y-98482443D01*
X159380085Y-98448956D01*
X159449777Y-98453937D01*
X159494131Y-98482440D01*
X160109612Y-99097921D01*
X160248367Y-99178032D01*
X160325748Y-99198766D01*
X160403129Y-99219500D01*
X160403130Y-99219500D01*
X160403131Y-99219500D01*
X162429109Y-99219500D01*
X162429110Y-99219500D01*
X162429111Y-99219500D01*
X162506491Y-99198766D01*
X162583873Y-99178032D01*
X162722627Y-99097922D01*
X163017669Y-98802878D01*
X163078989Y-98769396D01*
X163143665Y-98772630D01*
X163156364Y-98776757D01*
X163181883Y-98785049D01*
X163287484Y-98801774D01*
X163393084Y-98818500D01*
X163393085Y-98818500D01*
X163606915Y-98818500D01*
X163606916Y-98818500D01*
X163818116Y-98785049D01*
X164021483Y-98718972D01*
X164212009Y-98621894D01*
X164385004Y-98496206D01*
X164536206Y-98345004D01*
X164661894Y-98172009D01*
X164758972Y-97981483D01*
X164825049Y-97778116D01*
X164858500Y-97566916D01*
X164858500Y-97353084D01*
X164825049Y-97141884D01*
X164758972Y-96938517D01*
X164758972Y-96938516D01*
X164703495Y-96829638D01*
X164661894Y-96747991D01*
X164536206Y-96574996D01*
X164385004Y-96423794D01*
X164212009Y-96298106D01*
X164181204Y-96282410D01*
X164021483Y-96201027D01*
X164021480Y-96201026D01*
X163818117Y-96134951D01*
X163712516Y-96118225D01*
X163606916Y-96101500D01*
X163393084Y-96101500D01*
X163322684Y-96112650D01*
X163181882Y-96134951D01*
X162978519Y-96201026D01*
X162978516Y-96201028D01*
X162818795Y-96282410D01*
X162750125Y-96295306D01*
X162685385Y-96269030D01*
X162645128Y-96211923D01*
X162638500Y-96171925D01*
X162638500Y-92254038D01*
X164439500Y-92254038D01*
X164439500Y-92505961D01*
X164478910Y-92754785D01*
X164556760Y-92994383D01*
X164671132Y-93218848D01*
X164819201Y-93422649D01*
X164819205Y-93422654D01*
X164997345Y-93600794D01*
X164997350Y-93600798D01*
X165168550Y-93725181D01*
X165201155Y-93748870D01*
X165344184Y-93821747D01*
X165425616Y-93863239D01*
X165425618Y-93863239D01*
X165425621Y-93863241D01*
X165665215Y-93941090D01*
X165914038Y-93980500D01*
X165914039Y-93980500D01*
X166165961Y-93980500D01*
X166165962Y-93980500D01*
X166414785Y-93941090D01*
X166654379Y-93863241D01*
X166878845Y-93748870D01*
X167082656Y-93600793D01*
X167260793Y-93422656D01*
X167408870Y-93218845D01*
X167523241Y-92994379D01*
X167601090Y-92754785D01*
X167640500Y-92505962D01*
X167640500Y-92254038D01*
X167601090Y-92005215D01*
X167523241Y-91765621D01*
X167523239Y-91765618D01*
X167523239Y-91765616D01*
X167481747Y-91684184D01*
X167408870Y-91541155D01*
X167329232Y-91431542D01*
X167260798Y-91337350D01*
X167260794Y-91337345D01*
X167082654Y-91159205D01*
X167082649Y-91159201D01*
X166878848Y-91011132D01*
X166878847Y-91011131D01*
X166878845Y-91011130D01*
X166808747Y-90975413D01*
X166654383Y-90896760D01*
X166414785Y-90818910D01*
X166165962Y-90779500D01*
X165914038Y-90779500D01*
X165789626Y-90799205D01*
X165665214Y-90818910D01*
X165425616Y-90896760D01*
X165201151Y-91011132D01*
X164997350Y-91159201D01*
X164997345Y-91159205D01*
X164819205Y-91337345D01*
X164819201Y-91337350D01*
X164671132Y-91541151D01*
X164556760Y-91765616D01*
X164478910Y-92005214D01*
X164439500Y-92254038D01*
X162638500Y-92254038D01*
X162638500Y-88731616D01*
X162658185Y-88664577D01*
X162689615Y-88631298D01*
X162770617Y-88572446D01*
X162852464Y-88512981D01*
X162992981Y-88372464D01*
X163109787Y-88211694D01*
X163189515Y-88055218D01*
X163237490Y-88004423D01*
X163305311Y-87987628D01*
X163371446Y-88010165D01*
X163410484Y-88055218D01*
X163490213Y-88211694D01*
X163607019Y-88372464D01*
X163747536Y-88512981D01*
X163908306Y-88629787D01*
X163976585Y-88664577D01*
X164085367Y-88720005D01*
X164085370Y-88720006D01*
X164121103Y-88731616D01*
X164274364Y-88781413D01*
X164470639Y-88812500D01*
X164470640Y-88812500D01*
X164669360Y-88812500D01*
X164669361Y-88812500D01*
X164865636Y-88781413D01*
X165054632Y-88720005D01*
X165231694Y-88629787D01*
X165392464Y-88512981D01*
X165532981Y-88372464D01*
X165649787Y-88211694D01*
X165729515Y-88055218D01*
X165777490Y-88004423D01*
X165845311Y-87987628D01*
X165911446Y-88010165D01*
X165950484Y-88055218D01*
X166030213Y-88211694D01*
X166147019Y-88372464D01*
X166287536Y-88512981D01*
X166448306Y-88629787D01*
X166516585Y-88664577D01*
X166625367Y-88720005D01*
X166625370Y-88720006D01*
X166661103Y-88731616D01*
X166814364Y-88781413D01*
X167010639Y-88812500D01*
X167010640Y-88812500D01*
X167209360Y-88812500D01*
X167209361Y-88812500D01*
X167405636Y-88781413D01*
X167594632Y-88720005D01*
X167771694Y-88629787D01*
X167932464Y-88512981D01*
X168072981Y-88372464D01*
X168189787Y-88211694D01*
X168270015Y-88054237D01*
X168317990Y-88003442D01*
X168385811Y-87986647D01*
X168451946Y-88009184D01*
X168495397Y-88063900D01*
X168504500Y-88110533D01*
X168504500Y-96107364D01*
X168484815Y-96174403D01*
X168468181Y-96195045D01*
X165997233Y-98665994D01*
X165975995Y-98687231D01*
X165964500Y-98714982D01*
X165964500Y-99231907D01*
X165963903Y-99244061D01*
X165963903Y-99244062D01*
X165952505Y-99359778D01*
X165947763Y-99383618D01*
X165917832Y-99482290D01*
X165915789Y-99489024D01*
X165906486Y-99511482D01*
X165854561Y-99608627D01*
X165841056Y-99628839D01*
X165771176Y-99713988D01*
X165753988Y-99731176D01*
X165668839Y-99801056D01*
X165648627Y-99814561D01*
X165551482Y-99866486D01*
X165529028Y-99875787D01*
X165487028Y-99888528D01*
X165423618Y-99907763D01*
X165399778Y-99912505D01*
X165291162Y-99923203D01*
X165284060Y-99923903D01*
X165271907Y-99924500D01*
X100768093Y-99924500D01*
X100755939Y-99923903D01*
X100747995Y-99923120D01*
X100640221Y-99912505D01*
X100616381Y-99907763D01*
X100599445Y-99902625D01*
X100510968Y-99875786D01*
X100488517Y-99866486D01*
X100391372Y-99814561D01*
X100371160Y-99801056D01*
X100286011Y-99731176D01*
X100268823Y-99713988D01*
X100198943Y-99628839D01*
X100185438Y-99608627D01*
X100133510Y-99511476D01*
X100124215Y-99489037D01*
X100092234Y-99383612D01*
X100087494Y-99359777D01*
X100076097Y-99244061D01*
X100075500Y-99231907D01*
X100075500Y-97334038D01*
X112369500Y-97334038D01*
X112369500Y-97585961D01*
X112408910Y-97834785D01*
X112486760Y-98074383D01*
X112601132Y-98298848D01*
X112749201Y-98502649D01*
X112749205Y-98502654D01*
X112927345Y-98680794D01*
X112927350Y-98680798D01*
X113037587Y-98760889D01*
X113131155Y-98828870D01*
X113274184Y-98901747D01*
X113355616Y-98943239D01*
X113355618Y-98943239D01*
X113355621Y-98943241D01*
X113595215Y-99021090D01*
X113844038Y-99060500D01*
X113844039Y-99060500D01*
X114095961Y-99060500D01*
X114095962Y-99060500D01*
X114344785Y-99021090D01*
X114584379Y-98943241D01*
X114808845Y-98828870D01*
X115012656Y-98680793D01*
X115190793Y-98502656D01*
X115338870Y-98298845D01*
X115453241Y-98074379D01*
X115531090Y-97834785D01*
X115570500Y-97585962D01*
X115570500Y-97334038D01*
X115531090Y-97085215D01*
X115453241Y-96845621D01*
X115453239Y-96845618D01*
X115453239Y-96845616D01*
X115403498Y-96747994D01*
X115338870Y-96621155D01*
X115292602Y-96557472D01*
X115190798Y-96417350D01*
X115190794Y-96417345D01*
X115012654Y-96239205D01*
X115012649Y-96239201D01*
X114808848Y-96091132D01*
X114808847Y-96091131D01*
X114808845Y-96091130D01*
X114702972Y-96037185D01*
X114584383Y-95976760D01*
X114344785Y-95898910D01*
X114287387Y-95889819D01*
X114095962Y-95859500D01*
X113844038Y-95859500D01*
X113719626Y-95879205D01*
X113595214Y-95898910D01*
X113355616Y-95976760D01*
X113131151Y-96091132D01*
X112927350Y-96239201D01*
X112927345Y-96239205D01*
X112749205Y-96417345D01*
X112749201Y-96417350D01*
X112601132Y-96621151D01*
X112486760Y-96845616D01*
X112408910Y-97085214D01*
X112369500Y-97334038D01*
X100075500Y-97334038D01*
X100075500Y-70584283D01*
X100095185Y-70517244D01*
X100147989Y-70471489D01*
X100217147Y-70461545D01*
X100280703Y-70490570D01*
X100315681Y-70540948D01*
X100341811Y-70611004D01*
X100429439Y-70728061D01*
X100546496Y-70815689D01*
X100683499Y-70866789D01*
X100710750Y-70869718D01*
X100744045Y-70873299D01*
X100744062Y-70873300D01*
X102720938Y-70873300D01*
X102720954Y-70873299D01*
X102747992Y-70870391D01*
X102781501Y-70866789D01*
X102918504Y-70815689D01*
X103035561Y-70728061D01*
X103123189Y-70611004D01*
X103174289Y-70474001D01*
X103175628Y-70461545D01*
X103180799Y-70413454D01*
X103180800Y-70413437D01*
X103180800Y-70214508D01*
X103200485Y-70147469D01*
X103217119Y-70126827D01*
X103783004Y-69560941D01*
X103799119Y-69621081D01*
X103865998Y-69736920D01*
X103960580Y-69831502D01*
X104076419Y-69898381D01*
X104136557Y-69914494D01*
X103446491Y-70604559D01*
X103517879Y-70656426D01*
X103719811Y-70759316D01*
X103935342Y-70829346D01*
X104159186Y-70864800D01*
X104385814Y-70864800D01*
X104609655Y-70829346D01*
X104609658Y-70829346D01*
X104825188Y-70759316D01*
X105027120Y-70656426D01*
X105098506Y-70604559D01*
X104408442Y-69914495D01*
X104468581Y-69898381D01*
X104584420Y-69831502D01*
X104679002Y-69736920D01*
X104745881Y-69621081D01*
X104761994Y-69560942D01*
X105452059Y-70251007D01*
X105465285Y-70249966D01*
X105492256Y-70229168D01*
X105561869Y-70223188D01*
X105623664Y-70255794D01*
X105637563Y-70271833D01*
X105683961Y-70335694D01*
X105707799Y-70368504D01*
X105868996Y-70529701D01*
X105980900Y-70611004D01*
X106053427Y-70663698D01*
X106136294Y-70705920D01*
X106187090Y-70753894D01*
X106204000Y-70816405D01*
X106204000Y-70822611D01*
X106217582Y-70873300D01*
X106245468Y-70977373D01*
X106325578Y-71116127D01*
X109043078Y-73833627D01*
X109216373Y-74006922D01*
X109304628Y-74057876D01*
X109355128Y-74087032D01*
X109509889Y-74128500D01*
X109509890Y-74128500D01*
X109670110Y-74128500D01*
X114067808Y-74128500D01*
X114134847Y-74148185D01*
X114136698Y-74149398D01*
X114267030Y-74236482D01*
X114267031Y-74236482D01*
X114267032Y-74236483D01*
X114414169Y-74297430D01*
X114528799Y-74320231D01*
X114570365Y-74328499D01*
X114570369Y-74328500D01*
X114570370Y-74328500D01*
X114729631Y-74328500D01*
X114729632Y-74328499D01*
X114885831Y-74297430D01*
X115032968Y-74236483D01*
X115165389Y-74148003D01*
X115278003Y-74035389D01*
X115366483Y-73902968D01*
X115427430Y-73755831D01*
X115458500Y-73599630D01*
X115458500Y-73440370D01*
X115427430Y-73284169D01*
X115366483Y-73137032D01*
X115353706Y-73117910D01*
X115278004Y-73004612D01*
X115277998Y-73004605D01*
X115165394Y-72892001D01*
X115165387Y-72891995D01*
X115032969Y-72803517D01*
X114885831Y-72742570D01*
X114885823Y-72742568D01*
X114729634Y-72711500D01*
X114729630Y-72711500D01*
X114570370Y-72711500D01*
X114570365Y-72711500D01*
X114414176Y-72742568D01*
X114414168Y-72742570D01*
X114267030Y-72803517D01*
X114267029Y-72803517D01*
X114136698Y-72890602D01*
X114070021Y-72911480D01*
X114067808Y-72911500D01*
X109893411Y-72911500D01*
X109826372Y-72891815D01*
X109805730Y-72875181D01*
X107687367Y-70756818D01*
X107653882Y-70695495D01*
X107658866Y-70625803D01*
X107700738Y-70569870D01*
X107702164Y-70568818D01*
X107756000Y-70529704D01*
X107756000Y-70529703D01*
X107756004Y-70529701D01*
X107917201Y-70368504D01*
X107982182Y-70279064D01*
X108037512Y-70236399D01*
X108107125Y-70230420D01*
X108168920Y-70263025D01*
X108182817Y-70279064D01*
X108247799Y-70368504D01*
X108408996Y-70529701D01*
X108593426Y-70663697D01*
X108655833Y-70695495D01*
X108796541Y-70767190D01*
X108796543Y-70767190D01*
X108796546Y-70767192D01*
X109013356Y-70837638D01*
X109238516Y-70873300D01*
X109238517Y-70873300D01*
X109466483Y-70873300D01*
X109466484Y-70873300D01*
X109691644Y-70837638D01*
X109908454Y-70767192D01*
X110111574Y-70663697D01*
X110296004Y-70529701D01*
X110457201Y-70368504D01*
X110522182Y-70279064D01*
X110577512Y-70236399D01*
X110647125Y-70230420D01*
X110708920Y-70263025D01*
X110722817Y-70279064D01*
X110787799Y-70368504D01*
X110948996Y-70529701D01*
X111133426Y-70663697D01*
X111195833Y-70695495D01*
X111336541Y-70767190D01*
X111336543Y-70767190D01*
X111336546Y-70767192D01*
X111553356Y-70837638D01*
X111778516Y-70873300D01*
X111778517Y-70873300D01*
X112006483Y-70873300D01*
X112006484Y-70873300D01*
X112231644Y-70837638D01*
X112448454Y-70767192D01*
X112651574Y-70663697D01*
X112836004Y-70529701D01*
X112997201Y-70368504D01*
X113062182Y-70279064D01*
X113117512Y-70236399D01*
X113187125Y-70230420D01*
X113248920Y-70263025D01*
X113262817Y-70279064D01*
X113327799Y-70368504D01*
X113488996Y-70529701D01*
X113673426Y-70663697D01*
X113735833Y-70695495D01*
X113876541Y-70767190D01*
X113876543Y-70767190D01*
X113876546Y-70767192D01*
X114093356Y-70837638D01*
X114318516Y-70873300D01*
X114318517Y-70873300D01*
X114546483Y-70873300D01*
X114546484Y-70873300D01*
X114771644Y-70837638D01*
X114988454Y-70767192D01*
X115191574Y-70663697D01*
X115376004Y-70529701D01*
X115537201Y-70368504D01*
X115671197Y-70184074D01*
X115774692Y-69980954D01*
X115845138Y-69764144D01*
X115880800Y-69538984D01*
X115880800Y-69311016D01*
X115845138Y-69085856D01*
X115774692Y-68869046D01*
X115774690Y-68869043D01*
X115774690Y-68869041D01*
X115671197Y-68665926D01*
X115669582Y-68663291D01*
X115669273Y-68662151D01*
X115668985Y-68661585D01*
X115669104Y-68661524D01*
X115651337Y-68595845D01*
X115672453Y-68529243D01*
X115726224Y-68484629D01*
X115775309Y-68474500D01*
X163534109Y-68474500D01*
X163534110Y-68474500D01*
X163534111Y-68474500D01*
X163634638Y-68447564D01*
X163688873Y-68433032D01*
X163827627Y-68352922D01*
X164656922Y-67523627D01*
X164737032Y-67384873D01*
X164778500Y-67230110D01*
X164778500Y-67069890D01*
X164778500Y-65741311D01*
X164798185Y-65674272D01*
X164850989Y-65628517D01*
X164920147Y-65618573D01*
X164983703Y-65647598D01*
X164990181Y-65653630D01*
X164997345Y-65660794D01*
X164997350Y-65660798D01*
X165175117Y-65789952D01*
X165201155Y-65808870D01*
X165344184Y-65881747D01*
X165425616Y-65923239D01*
X165425618Y-65923239D01*
X165425621Y-65923241D01*
X165665215Y-66001090D01*
X165914038Y-66040500D01*
X165914039Y-66040500D01*
X166165961Y-66040500D01*
X166165962Y-66040500D01*
X166414785Y-66001090D01*
X166654379Y-65923241D01*
X166878845Y-65808870D01*
X167082656Y-65660793D01*
X167260793Y-65482656D01*
X167408870Y-65278845D01*
X167523241Y-65054379D01*
X167601090Y-64814785D01*
X167640500Y-64565962D01*
X167640500Y-64314038D01*
X167601090Y-64065215D01*
X167523241Y-63825621D01*
X167523239Y-63825618D01*
X167523239Y-63825616D01*
X167468991Y-63719149D01*
X167408870Y-63601155D01*
X167301500Y-63453372D01*
X167260798Y-63397350D01*
X167260794Y-63397345D01*
X167082654Y-63219205D01*
X167082649Y-63219201D01*
X166878848Y-63071132D01*
X166878847Y-63071131D01*
X166878845Y-63071130D01*
X166808747Y-63035413D01*
X166654383Y-62956760D01*
X166414785Y-62878910D01*
X166165962Y-62839500D01*
X165914038Y-62839500D01*
X165789626Y-62859205D01*
X165665214Y-62878910D01*
X165425616Y-62956760D01*
X165201151Y-63071132D01*
X164997350Y-63219201D01*
X164997345Y-63219205D01*
X164990181Y-63226370D01*
X164928858Y-63259855D01*
X164859166Y-63254871D01*
X164803233Y-63212999D01*
X164778816Y-63147535D01*
X164778500Y-63138689D01*
X164778500Y-52329891D01*
X164778500Y-52329889D01*
X164737032Y-52175128D01*
X164714680Y-52136413D01*
X164698660Y-52108666D01*
X164656924Y-52036376D01*
X164656920Y-52036371D01*
X163390730Y-50770181D01*
X163357245Y-50708858D01*
X163362229Y-50639166D01*
X163404101Y-50583233D01*
X163469565Y-50558816D01*
X163478411Y-50558500D01*
X163606915Y-50558500D01*
X163606916Y-50558500D01*
X163818116Y-50525049D01*
X164021483Y-50458972D01*
X164212009Y-50361894D01*
X164385004Y-50236206D01*
X164536206Y-50085004D01*
X164661894Y-49912009D01*
X164758972Y-49721483D01*
X164825049Y-49518116D01*
X164858500Y-49306916D01*
X164858500Y-49093084D01*
X164825049Y-48881884D01*
X164758972Y-48678517D01*
X164758972Y-48678516D01*
X164709507Y-48581438D01*
X164661894Y-48487991D01*
X164536206Y-48314996D01*
X164385004Y-48163794D01*
X164212009Y-48038106D01*
X164021483Y-47941027D01*
X164021480Y-47941026D01*
X163818117Y-47874951D01*
X163712516Y-47858225D01*
X163606916Y-47841500D01*
X163393084Y-47841500D01*
X163351975Y-47848011D01*
X163181880Y-47874951D01*
X163143665Y-47887368D01*
X163073824Y-47889363D01*
X163017667Y-47857118D01*
X162107730Y-46947181D01*
X162074245Y-46885858D01*
X162079229Y-46816166D01*
X162121101Y-46760233D01*
X162186565Y-46735816D01*
X162195411Y-46735500D01*
X163417365Y-46735500D01*
X163484404Y-46755185D01*
G37*
%TD.AperFunction*%
%TA.AperFunction,Conductor*%
G36*
X142714075Y-97267007D02*
G01*
X142680000Y-97394174D01*
X142680000Y-97525826D01*
X142714075Y-97652993D01*
X142746988Y-97710000D01*
X141073012Y-97710000D01*
X141105925Y-97652993D01*
X141140000Y-97525826D01*
X141140000Y-97394174D01*
X141105925Y-97267007D01*
X141073012Y-97210000D01*
X142746988Y-97210000D01*
X142714075Y-97267007D01*
G37*
%TD.AperFunction*%
%TA.AperFunction,Conductor*%
G36*
X123793703Y-75454698D02*
G01*
X123800181Y-75460730D01*
X131370181Y-83030730D01*
X131403666Y-83092053D01*
X131406500Y-83118411D01*
X131406500Y-86163500D01*
X131386815Y-86230539D01*
X131334011Y-86276294D01*
X131282500Y-86287500D01*
X131212345Y-86287500D01*
X131151797Y-86294011D01*
X131151795Y-86294011D01*
X131014795Y-86345111D01*
X130897739Y-86432739D01*
X130810111Y-86549795D01*
X130759011Y-86686795D01*
X130759011Y-86686797D01*
X130752500Y-86747345D01*
X130752500Y-88352654D01*
X130759011Y-88413202D01*
X130759011Y-88413204D01*
X130797399Y-88516122D01*
X130810111Y-88550204D01*
X130897739Y-88667261D01*
X131014796Y-88754889D01*
X131151799Y-88805989D01*
X131179050Y-88808918D01*
X131212345Y-88812499D01*
X131212362Y-88812500D01*
X132817638Y-88812500D01*
X132817654Y-88812499D01*
X132844692Y-88809591D01*
X132878201Y-88805989D01*
X133015204Y-88754889D01*
X133132261Y-88667261D01*
X133219889Y-88550204D01*
X133270989Y-88413201D01*
X133274591Y-88379692D01*
X133277499Y-88352654D01*
X133277500Y-88352637D01*
X133277500Y-88321198D01*
X133297185Y-88254159D01*
X133349989Y-88208404D01*
X133419147Y-88198460D01*
X133482703Y-88227485D01*
X133501818Y-88248313D01*
X133577626Y-88352654D01*
X133592019Y-88372464D01*
X133732536Y-88512981D01*
X133893306Y-88629787D01*
X133961585Y-88664577D01*
X134070367Y-88720005D01*
X134070370Y-88720006D01*
X134106103Y-88731616D01*
X134259364Y-88781413D01*
X134455639Y-88812500D01*
X134455640Y-88812500D01*
X134654360Y-88812500D01*
X134654361Y-88812500D01*
X134850636Y-88781413D01*
X135039632Y-88720005D01*
X135216694Y-88629787D01*
X135377464Y-88512981D01*
X135517981Y-88372464D01*
X135634787Y-88211694D01*
X135719286Y-88045855D01*
X135767258Y-87995062D01*
X135835079Y-87978267D01*
X135901214Y-88000804D01*
X135940253Y-88045857D01*
X136022481Y-88207236D01*
X136048457Y-88242988D01*
X136048457Y-88242989D01*
X136612037Y-87679408D01*
X136629075Y-87742993D01*
X136694901Y-87857007D01*
X136787993Y-87950099D01*
X136902007Y-88015925D01*
X136965590Y-88032962D01*
X136402009Y-88596541D01*
X136402010Y-88596542D01*
X136437755Y-88622512D01*
X136437768Y-88622520D01*
X136613626Y-88712126D01*
X136801353Y-88773123D01*
X136996303Y-88804000D01*
X137193697Y-88804000D01*
X137388646Y-88773123D01*
X137576373Y-88712126D01*
X137752241Y-88622516D01*
X137787988Y-88596543D01*
X137787988Y-88596541D01*
X137224410Y-88032962D01*
X137287993Y-88015925D01*
X137402007Y-87950099D01*
X137495099Y-87857007D01*
X137560925Y-87742993D01*
X137577962Y-87679409D01*
X138141541Y-88242988D01*
X138141543Y-88242988D01*
X138167516Y-88207241D01*
X138249745Y-88045858D01*
X138297719Y-87995062D01*
X138365540Y-87978267D01*
X138431675Y-88000804D01*
X138470714Y-88045857D01*
X138555213Y-88211694D01*
X138672019Y-88372464D01*
X138812536Y-88512981D01*
X138973306Y-88629787D01*
X138993376Y-88640013D01*
X139044171Y-88687983D01*
X139056855Y-88718401D01*
X139067968Y-88759873D01*
X139148078Y-88898627D01*
X139148079Y-88898628D01*
X139148080Y-88898629D01*
X139808738Y-89559286D01*
X139808748Y-89559297D01*
X139813078Y-89563627D01*
X139813079Y-89563628D01*
X139926372Y-89676921D01*
X139995750Y-89716976D01*
X140065127Y-89757032D01*
X140142508Y-89777766D01*
X140219889Y-89798500D01*
X140219890Y-89798500D01*
X140219891Y-89798500D01*
X158330109Y-89798500D01*
X158330110Y-89798500D01*
X158330111Y-89798500D01*
X158407491Y-89777766D01*
X158484873Y-89757032D01*
X158623627Y-89676922D01*
X158750819Y-89549730D01*
X158812142Y-89516245D01*
X158881834Y-89521229D01*
X158937767Y-89563101D01*
X158962184Y-89628565D01*
X158962500Y-89637411D01*
X158962500Y-96037185D01*
X158942815Y-96104224D01*
X158890011Y-96149979D01*
X158820853Y-96159923D01*
X158800184Y-96155117D01*
X158738115Y-96134950D01*
X158560366Y-96106797D01*
X158526916Y-96101500D01*
X158313084Y-96101500D01*
X158242684Y-96112650D01*
X158101882Y-96134951D01*
X157898519Y-96201026D01*
X157898516Y-96201027D01*
X157707990Y-96298106D01*
X157534993Y-96423796D01*
X157383796Y-96574993D01*
X157258105Y-96747991D01*
X157255727Y-96751873D01*
X157203914Y-96798748D01*
X157134984Y-96810169D01*
X157070822Y-96782512D01*
X157044273Y-96751873D01*
X157041894Y-96747991D01*
X156949742Y-96621155D01*
X156916206Y-96574996D01*
X156765004Y-96423794D01*
X156592009Y-96298106D01*
X156561204Y-96282410D01*
X156401483Y-96201027D01*
X156401480Y-96201026D01*
X156198117Y-96134951D01*
X156092516Y-96118225D01*
X155986916Y-96101500D01*
X155773084Y-96101500D01*
X155702684Y-96112650D01*
X155561882Y-96134951D01*
X155358519Y-96201026D01*
X155358516Y-96201027D01*
X155167990Y-96298106D01*
X154994993Y-96423796D01*
X154843796Y-96574993D01*
X154718105Y-96747991D01*
X154715727Y-96751873D01*
X154663914Y-96798748D01*
X154594984Y-96810169D01*
X154530822Y-96782512D01*
X154504273Y-96751873D01*
X154501894Y-96747991D01*
X154409742Y-96621155D01*
X154376206Y-96574996D01*
X154225004Y-96423794D01*
X154052009Y-96298106D01*
X154021204Y-96282410D01*
X153861483Y-96201027D01*
X153861480Y-96201026D01*
X153658117Y-96134951D01*
X153552516Y-96118225D01*
X153446916Y-96101500D01*
X153233084Y-96101500D01*
X153191975Y-96108011D01*
X153021880Y-96134951D01*
X152983665Y-96147368D01*
X152913824Y-96149363D01*
X152857667Y-96117118D01*
X148463629Y-91723080D01*
X148463627Y-91723078D01*
X148324873Y-91642968D01*
X148247491Y-91622234D01*
X148247490Y-91622233D01*
X148190844Y-91607055D01*
X148170111Y-91601500D01*
X148170110Y-91601500D01*
X130703411Y-91601500D01*
X130636372Y-91581815D01*
X130615730Y-91565181D01*
X128864819Y-89814270D01*
X128831334Y-89752947D01*
X128828500Y-89726589D01*
X128828500Y-81479891D01*
X128828500Y-81479889D01*
X128787032Y-81325128D01*
X128787032Y-81325127D01*
X128706921Y-81186372D01*
X123572881Y-76052332D01*
X123539396Y-75991009D01*
X123542630Y-75926334D01*
X123555049Y-75888116D01*
X123588500Y-75676916D01*
X123588500Y-75548410D01*
X123608185Y-75481372D01*
X123660989Y-75435617D01*
X123730147Y-75425673D01*
X123793703Y-75454698D01*
G37*
%TD.AperFunction*%
%TA.AperFunction,Conductor*%
G36*
X125748628Y-70018185D02*
G01*
X125769270Y-70034819D01*
X125876283Y-70141832D01*
X125909768Y-70203155D01*
X125904784Y-70272847D01*
X125881437Y-70309178D01*
X125882054Y-70309640D01*
X125876740Y-70316737D01*
X125876739Y-70316739D01*
X125837991Y-70368500D01*
X125789111Y-70433795D01*
X125738011Y-70570795D01*
X125738011Y-70570797D01*
X125731500Y-70631345D01*
X125731500Y-70962500D01*
X125711815Y-71029539D01*
X125659011Y-71075294D01*
X125607500Y-71086500D01*
X125276345Y-71086500D01*
X125215797Y-71093011D01*
X125215795Y-71093011D01*
X125078795Y-71144111D01*
X124961739Y-71231739D01*
X124874111Y-71348795D01*
X124823011Y-71485795D01*
X124823011Y-71485797D01*
X124816500Y-71546345D01*
X124816500Y-72013654D01*
X124823011Y-72074202D01*
X124823551Y-72076488D01*
X124823551Y-72079224D01*
X124823840Y-72081912D01*
X124823551Y-72081943D01*
X124823551Y-72128056D01*
X124823840Y-72128088D01*
X124823551Y-72130775D01*
X124823551Y-72133512D01*
X124823011Y-72135797D01*
X124816500Y-72196345D01*
X124816500Y-72663654D01*
X124823011Y-72724202D01*
X124823012Y-72724208D01*
X124824579Y-72728409D01*
X124831685Y-72784991D01*
X124825000Y-72847171D01*
X124825000Y-72895000D01*
X124837340Y-72895000D01*
X124870581Y-72904760D01*
X124903859Y-72914352D01*
X124904143Y-72914615D01*
X124904379Y-72914685D01*
X124930647Y-72937332D01*
X124933776Y-72940907D01*
X124961739Y-72978261D01*
X124975462Y-72988534D01*
X124984038Y-72998332D01*
X124993462Y-73018700D01*
X125006913Y-73036668D01*
X125007851Y-73049797D01*
X125013379Y-73061742D01*
X125010295Y-73083972D01*
X125011897Y-73106359D01*
X125005589Y-73117910D01*
X125003781Y-73130949D01*
X124989166Y-73147985D01*
X124978411Y-73167682D01*
X124965042Y-73179266D01*
X124961740Y-73181737D01*
X124936606Y-73215312D01*
X124880672Y-73257182D01*
X124837340Y-73265000D01*
X124825000Y-73265000D01*
X124825000Y-73312828D01*
X124831685Y-73375009D01*
X124824580Y-73431588D01*
X124823013Y-73435787D01*
X124823010Y-73435802D01*
X124816500Y-73496345D01*
X124816500Y-73963654D01*
X124823011Y-74024202D01*
X124823011Y-74024204D01*
X124874111Y-74161204D01*
X124961739Y-74278261D01*
X125078796Y-74365889D01*
X125215799Y-74416989D01*
X125243050Y-74419918D01*
X125276345Y-74423499D01*
X125276362Y-74423500D01*
X126023638Y-74423500D01*
X126023654Y-74423499D01*
X126050692Y-74420591D01*
X126084201Y-74416989D01*
X126221204Y-74365889D01*
X126249465Y-74344732D01*
X126250095Y-74344497D01*
X126250503Y-74343965D01*
X126282744Y-74332320D01*
X126314930Y-74320316D01*
X126315586Y-74320458D01*
X126316218Y-74320231D01*
X126323776Y-74320000D01*
X127557500Y-74320000D01*
X127624539Y-74339685D01*
X127670294Y-74392489D01*
X127681500Y-74444000D01*
X127681500Y-74566000D01*
X127661815Y-74633039D01*
X127609011Y-74678794D01*
X127557500Y-74690000D01*
X127260000Y-74690000D01*
X127260000Y-75330000D01*
X127307828Y-75330000D01*
X127307844Y-75329999D01*
X127367369Y-75323598D01*
X127371477Y-75322628D01*
X127428523Y-75322628D01*
X127432630Y-75323598D01*
X127492155Y-75329999D01*
X127492172Y-75330000D01*
X127540000Y-75330000D01*
X127540000Y-75182783D01*
X127547084Y-75158654D01*
X127550133Y-75133687D01*
X127556761Y-75125699D01*
X127559685Y-75115744D01*
X127578687Y-75099278D01*
X127594752Y-75079920D01*
X127604647Y-75076783D01*
X127612489Y-75069989D01*
X127637379Y-75066410D01*
X127661357Y-75058811D01*
X127671375Y-75061521D01*
X127681647Y-75060045D01*
X127704523Y-75070492D01*
X127728801Y-75077062D01*
X127738737Y-75086117D01*
X127745203Y-75089070D01*
X127755961Y-75099601D01*
X127759817Y-75103864D01*
X127826739Y-75193261D01*
X127869916Y-75225583D01*
X127877961Y-75234477D01*
X127888144Y-75255573D01*
X127902181Y-75274324D01*
X127905157Y-75290818D01*
X127908334Y-75297400D01*
X127907531Y-75303976D01*
X127910000Y-75317659D01*
X127910000Y-75330000D01*
X127957828Y-75330000D01*
X127957844Y-75329999D01*
X128020009Y-75323315D01*
X128042069Y-75322917D01*
X128059874Y-75324184D01*
X128080799Y-75331989D01*
X128141362Y-75338500D01*
X128260996Y-75338500D01*
X128265393Y-75338813D01*
X128294168Y-75349534D01*
X128323628Y-75358185D01*
X128328997Y-75362511D01*
X128330866Y-75363208D01*
X128332396Y-75365250D01*
X128344270Y-75374819D01*
X135338053Y-82368602D01*
X135371538Y-82429925D01*
X135371989Y-82432092D01*
X135402568Y-82585823D01*
X135402570Y-82585831D01*
X135463517Y-82732969D01*
X135551995Y-82865387D01*
X135552001Y-82865394D01*
X135664605Y-82977998D01*
X135664612Y-82978004D01*
X135797030Y-83066482D01*
X135797031Y-83066482D01*
X135797032Y-83066483D01*
X135944169Y-83127430D01*
X136100365Y-83158499D01*
X136100369Y-83158500D01*
X136100370Y-83158500D01*
X136259631Y-83158500D01*
X136259632Y-83158499D01*
X136415831Y-83127430D01*
X136562968Y-83066483D01*
X136695389Y-82978003D01*
X136808003Y-82865389D01*
X136896483Y-82732968D01*
X136957430Y-82585831D01*
X136988500Y-82429630D01*
X136988500Y-82270370D01*
X136957430Y-82114169D01*
X136896483Y-81967032D01*
X136827246Y-81863411D01*
X136808004Y-81834612D01*
X136807998Y-81834605D01*
X136695394Y-81722001D01*
X136695387Y-81721995D01*
X136562969Y-81633517D01*
X136415831Y-81572570D01*
X136415823Y-81572568D01*
X136262092Y-81541989D01*
X136200181Y-81509604D01*
X136198602Y-81508053D01*
X129325730Y-74635181D01*
X129292245Y-74573858D01*
X129297229Y-74504166D01*
X129339101Y-74448233D01*
X129404565Y-74423816D01*
X129413411Y-74423500D01*
X129523638Y-74423500D01*
X129523654Y-74423499D01*
X129550692Y-74420591D01*
X129584201Y-74416989D01*
X129721204Y-74365889D01*
X129838261Y-74278261D01*
X129925889Y-74161204D01*
X129976989Y-74024201D01*
X129980591Y-73990692D01*
X129983499Y-73963654D01*
X129983500Y-73963637D01*
X129983500Y-73496362D01*
X129983499Y-73496345D01*
X129976990Y-73435807D01*
X129976989Y-73435802D01*
X129976989Y-73435799D01*
X129976985Y-73435787D01*
X129976451Y-73433527D01*
X129976451Y-73430793D01*
X129976160Y-73428087D01*
X129976451Y-73428055D01*
X129976451Y-73381944D01*
X129976160Y-73381913D01*
X129976451Y-73379206D01*
X129976451Y-73376473D01*
X129976985Y-73374209D01*
X129976989Y-73374201D01*
X129976990Y-73374192D01*
X129983499Y-73313654D01*
X129983500Y-73313637D01*
X129983500Y-72846362D01*
X129983499Y-72846345D01*
X129976990Y-72785807D01*
X129976989Y-72785805D01*
X129976989Y-72785799D01*
X129976986Y-72785792D01*
X129976451Y-72783527D01*
X129976451Y-72780793D01*
X129976160Y-72778087D01*
X129976451Y-72778055D01*
X129976451Y-72731944D01*
X129976160Y-72731913D01*
X129976451Y-72729206D01*
X129976451Y-72726473D01*
X129976986Y-72724208D01*
X129976989Y-72724201D01*
X129976990Y-72724192D01*
X129983499Y-72663654D01*
X129983500Y-72663637D01*
X129983500Y-72403500D01*
X130003185Y-72336461D01*
X130055989Y-72290706D01*
X130107500Y-72279500D01*
X131377146Y-72279500D01*
X131444185Y-72299185D01*
X131489940Y-72351989D01*
X131499884Y-72421147D01*
X131484533Y-72465500D01*
X131382699Y-72641880D01*
X131382691Y-72641897D01*
X131276521Y-72898215D01*
X131204713Y-73166206D01*
X131168501Y-73441267D01*
X131168500Y-73441283D01*
X131168500Y-73718716D01*
X131168501Y-73718732D01*
X131204713Y-73993793D01*
X131276521Y-74261784D01*
X131382691Y-74518102D01*
X131382699Y-74518119D01*
X131449049Y-74633039D01*
X131521419Y-74758387D01*
X131521421Y-74758390D01*
X131521422Y-74758391D01*
X131690315Y-74978498D01*
X131690321Y-74978505D01*
X131886494Y-75174678D01*
X131886501Y-75174684D01*
X131917061Y-75198133D01*
X132106613Y-75343581D01*
X132260154Y-75432228D01*
X132346880Y-75482300D01*
X132346885Y-75482302D01*
X132346888Y-75482304D01*
X132346892Y-75482305D01*
X132346897Y-75482308D01*
X132448510Y-75524397D01*
X132603214Y-75588478D01*
X132871205Y-75660286D01*
X133146277Y-75696500D01*
X133146284Y-75696500D01*
X133423716Y-75696500D01*
X133423723Y-75696500D01*
X133698795Y-75660286D01*
X133966786Y-75588478D01*
X134223112Y-75482304D01*
X134463387Y-75343581D01*
X134683500Y-75174683D01*
X134879683Y-74978500D01*
X135048581Y-74758387D01*
X135187304Y-74518112D01*
X135293478Y-74261786D01*
X135365286Y-73993795D01*
X135401500Y-73718723D01*
X135401500Y-73441277D01*
X135365286Y-73166205D01*
X135293478Y-72898214D01*
X135216138Y-72711500D01*
X135187308Y-72641897D01*
X135187300Y-72641880D01*
X135085467Y-72465500D01*
X135068994Y-72397600D01*
X135091847Y-72331573D01*
X135146768Y-72288382D01*
X135192854Y-72279500D01*
X139719585Y-72279500D01*
X139786624Y-72299185D01*
X139807266Y-72315819D01*
X141530181Y-74038734D01*
X141563666Y-74100057D01*
X141566500Y-74126415D01*
X141566500Y-86368383D01*
X141546815Y-86435422D01*
X141515386Y-86468701D01*
X141439296Y-86523984D01*
X141352536Y-86587019D01*
X141352534Y-86587021D01*
X141352533Y-86587021D01*
X141276231Y-86663324D01*
X141214908Y-86696809D01*
X141145216Y-86691825D01*
X141100869Y-86663324D01*
X140445625Y-86008080D01*
X140445623Y-86008078D01*
X140306869Y-85927968D01*
X140229487Y-85907234D01*
X140229486Y-85907233D01*
X140172840Y-85892055D01*
X140152107Y-85886500D01*
X132989889Y-85886500D01*
X132912508Y-85907233D01*
X132912508Y-85907234D01*
X132851475Y-85923587D01*
X132835123Y-85927969D01*
X132809500Y-85942763D01*
X132741599Y-85959236D01*
X132675573Y-85936383D01*
X132632382Y-85881462D01*
X132623500Y-85835376D01*
X132623500Y-82734891D01*
X132623500Y-82734889D01*
X132582032Y-82580128D01*
X132501921Y-82441372D01*
X132388628Y-82328079D01*
X124938393Y-74877844D01*
X125740000Y-74877844D01*
X125746401Y-74937372D01*
X125746403Y-74937379D01*
X125796645Y-75072086D01*
X125796649Y-75072093D01*
X125882809Y-75187187D01*
X125882812Y-75187190D01*
X125997906Y-75273350D01*
X125997913Y-75273354D01*
X126132620Y-75323596D01*
X126132627Y-75323598D01*
X126192155Y-75329999D01*
X126192172Y-75330000D01*
X126240000Y-75330000D01*
X126610000Y-75330000D01*
X126657828Y-75330000D01*
X126657844Y-75329999D01*
X126717369Y-75323598D01*
X126721477Y-75322628D01*
X126778523Y-75322628D01*
X126782630Y-75323598D01*
X126842155Y-75329999D01*
X126842172Y-75330000D01*
X126890000Y-75330000D01*
X126890000Y-74690000D01*
X126610000Y-74690000D01*
X126610000Y-75330000D01*
X126240000Y-75330000D01*
X126240000Y-74690000D01*
X125740000Y-74690000D01*
X125740000Y-74877844D01*
X124938393Y-74877844D01*
X123624819Y-73564270D01*
X123591334Y-73502947D01*
X123588500Y-73476589D01*
X123588500Y-72131362D01*
X123588499Y-72131345D01*
X123583187Y-72081943D01*
X123581989Y-72070799D01*
X123530889Y-71933796D01*
X123443261Y-71816739D01*
X123326204Y-71729111D01*
X123189203Y-71678011D01*
X123128654Y-71671500D01*
X123128638Y-71671500D01*
X121331362Y-71671500D01*
X121331345Y-71671500D01*
X121270797Y-71678011D01*
X121270795Y-71678011D01*
X121133795Y-71729111D01*
X121016739Y-71816739D01*
X120929111Y-71933795D01*
X120878011Y-72070795D01*
X120878011Y-72070797D01*
X120871500Y-72131345D01*
X120871500Y-72297500D01*
X120851815Y-72364539D01*
X120799011Y-72410294D01*
X120747500Y-72421500D01*
X119609889Y-72421500D01*
X119532508Y-72442233D01*
X119532508Y-72442234D01*
X119455127Y-72462968D01*
X119455125Y-72462968D01*
X119455125Y-72462969D01*
X119316372Y-72543078D01*
X119211397Y-72648054D01*
X119150074Y-72681538D01*
X119147907Y-72681989D01*
X118994176Y-72712568D01*
X118994168Y-72712570D01*
X118847030Y-72773517D01*
X118714612Y-72861995D01*
X118714605Y-72862001D01*
X118602001Y-72974605D01*
X118601995Y-72974612D01*
X118513517Y-73107030D01*
X118452570Y-73254168D01*
X118452568Y-73254176D01*
X118421500Y-73410365D01*
X118421500Y-73569634D01*
X118452568Y-73725823D01*
X118452570Y-73725831D01*
X118513517Y-73872969D01*
X118601995Y-74005387D01*
X118602001Y-74005394D01*
X118714605Y-74117998D01*
X118714612Y-74118004D01*
X118847030Y-74206482D01*
X118847031Y-74206482D01*
X118847032Y-74206483D01*
X118994169Y-74267430D01*
X119144986Y-74297429D01*
X119150365Y-74298499D01*
X119150369Y-74298500D01*
X119150370Y-74298500D01*
X119309631Y-74298500D01*
X119309632Y-74298499D01*
X119465831Y-74267430D01*
X119612968Y-74206483D01*
X119745389Y-74118003D01*
X119858003Y-74005389D01*
X119946483Y-73872968D01*
X120007430Y-73725831D01*
X120007430Y-73725829D01*
X120009761Y-73720203D01*
X120011015Y-73720722D01*
X120045522Y-73668067D01*
X120109334Y-73639610D01*
X120125886Y-73638500D01*
X120461589Y-73638500D01*
X120528628Y-73658185D01*
X120574383Y-73710989D01*
X120584327Y-73780147D01*
X120555302Y-73843703D01*
X120549270Y-73850181D01*
X119204270Y-75195181D01*
X119142947Y-75228666D01*
X119116589Y-75231500D01*
X119110111Y-75231500D01*
X118949889Y-75231500D01*
X118795128Y-75272968D01*
X118795127Y-75272968D01*
X118795125Y-75272969D01*
X118795124Y-75272969D01*
X118656375Y-75353076D01*
X118656369Y-75353081D01*
X118543081Y-75466369D01*
X118543076Y-75466375D01*
X118462969Y-75605124D01*
X118462969Y-75605125D01*
X118462968Y-75605127D01*
X118462968Y-75605128D01*
X118421500Y-75759889D01*
X118421500Y-87750111D01*
X118437536Y-87809959D01*
X118442234Y-87827491D01*
X118462968Y-87904874D01*
X118462969Y-87904875D01*
X118489079Y-87950099D01*
X118543078Y-88043627D01*
X118543080Y-88043629D01*
X121823914Y-91324463D01*
X121857399Y-91385786D01*
X121858706Y-91431542D01*
X121831500Y-91603315D01*
X121831500Y-91796684D01*
X121861750Y-91987675D01*
X121921502Y-92171577D01*
X121921503Y-92171580D01*
X122009294Y-92343877D01*
X122122946Y-92500307D01*
X122122950Y-92500312D01*
X122259687Y-92637049D01*
X122259692Y-92637053D01*
X122396139Y-92736186D01*
X122416126Y-92750708D01*
X122528756Y-92808095D01*
X122588419Y-92838496D01*
X122588422Y-92838497D01*
X122680373Y-92868373D01*
X122772326Y-92898250D01*
X122963315Y-92928500D01*
X122963316Y-92928500D01*
X123156684Y-92928500D01*
X123156685Y-92928500D01*
X123328459Y-92901293D01*
X123397750Y-92910247D01*
X123435536Y-92936085D01*
X125029270Y-94529819D01*
X125062755Y-94591142D01*
X125057771Y-94660834D01*
X125015899Y-94716767D01*
X124950435Y-94741184D01*
X124941589Y-94741500D01*
X117912500Y-94741500D01*
X117845461Y-94721815D01*
X117799706Y-94669011D01*
X117788500Y-94617500D01*
X117788500Y-73143411D01*
X117808185Y-73076372D01*
X117824819Y-73055730D01*
X120845730Y-70034819D01*
X120907053Y-70001334D01*
X120933411Y-69998500D01*
X125681589Y-69998500D01*
X125748628Y-70018185D01*
G37*
%TD.AperFunction*%
%TA.AperFunction,Conductor*%
G36*
X156484075Y-87742993D02*
G01*
X156549901Y-87857007D01*
X156642993Y-87950099D01*
X156757007Y-88015925D01*
X156820590Y-88032962D01*
X156308372Y-88545181D01*
X156247049Y-88578666D01*
X156220691Y-88581500D01*
X155463307Y-88581500D01*
X155396268Y-88561815D01*
X155350513Y-88509011D01*
X155340569Y-88439853D01*
X155369594Y-88376297D01*
X155370957Y-88374832D01*
X155372972Y-88372472D01*
X155372981Y-88372464D01*
X155489787Y-88211694D01*
X155574286Y-88045855D01*
X155622258Y-87995062D01*
X155690079Y-87978267D01*
X155756214Y-88000804D01*
X155795253Y-88045857D01*
X155877481Y-88207236D01*
X155903457Y-88242988D01*
X155903457Y-88242989D01*
X156467037Y-87679409D01*
X156484075Y-87742993D01*
G37*
%TD.AperFunction*%
%TA.AperFunction,Conductor*%
G36*
X156197380Y-86428185D02*
G01*
X156243135Y-86480989D01*
X156244979Y-86491426D01*
X156820591Y-87067037D01*
X156757007Y-87084075D01*
X156642993Y-87149901D01*
X156549901Y-87242993D01*
X156484075Y-87357007D01*
X156467037Y-87420590D01*
X155903457Y-86857010D01*
X155903456Y-86857010D01*
X155877483Y-86892760D01*
X155877479Y-86892767D01*
X155795253Y-87054142D01*
X155747278Y-87104937D01*
X155679457Y-87121732D01*
X155613323Y-87099194D01*
X155574285Y-87054142D01*
X155489787Y-86888306D01*
X155372981Y-86727536D01*
X155265626Y-86620181D01*
X155232141Y-86558858D01*
X155237125Y-86489166D01*
X155278997Y-86433233D01*
X155344461Y-86408816D01*
X155353307Y-86408500D01*
X156130341Y-86408500D01*
X156197380Y-86428185D01*
G37*
%TD.AperFunction*%
%TA.AperFunction,Conductor*%
G36*
X158613732Y-86428185D02*
G01*
X158659487Y-86480989D01*
X158669431Y-86550147D01*
X158640406Y-86613703D01*
X158634374Y-86620181D01*
X158527021Y-86727533D01*
X158410213Y-86888305D01*
X158325715Y-87054141D01*
X158277740Y-87104937D01*
X158209919Y-87121732D01*
X158143784Y-87099194D01*
X158104745Y-87054141D01*
X158022520Y-86892768D01*
X158022512Y-86892755D01*
X157996542Y-86857010D01*
X157996541Y-86857009D01*
X157432962Y-87420590D01*
X157415925Y-87357007D01*
X157350099Y-87242993D01*
X157257007Y-87149901D01*
X157142993Y-87084075D01*
X157079409Y-87067037D01*
X157657161Y-86489285D01*
X157660403Y-86473853D01*
X157709454Y-86424096D01*
X157769658Y-86408500D01*
X158546693Y-86408500D01*
X158613732Y-86428185D01*
G37*
%TD.AperFunction*%
%TA.AperFunction,Conductor*%
G36*
X111451628Y-46755185D02*
G01*
X111497383Y-46807989D01*
X111507327Y-46877147D01*
X111478302Y-46940703D01*
X111472270Y-46947181D01*
X108865580Y-49553870D01*
X108865576Y-49553876D01*
X108785467Y-49692626D01*
X108785468Y-49692626D01*
X108785468Y-49692627D01*
X108744000Y-49847389D01*
X108744000Y-68033593D01*
X108724315Y-68100632D01*
X108676296Y-68144077D01*
X108593428Y-68186301D01*
X108408993Y-68320301D01*
X108247801Y-68481493D01*
X108247801Y-68481494D01*
X108247799Y-68481496D01*
X108245523Y-68484629D01*
X108182818Y-68570935D01*
X108127488Y-68613600D01*
X108057874Y-68619579D01*
X107996079Y-68586973D01*
X107982182Y-68570935D01*
X107917201Y-68481496D01*
X107756004Y-68320299D01*
X107571574Y-68186303D01*
X107571570Y-68186301D01*
X107368458Y-68082809D01*
X107151644Y-68012362D01*
X107142110Y-68010852D01*
X106926484Y-67976700D01*
X106698516Y-67976700D01*
X106585936Y-67994531D01*
X106473355Y-68012362D01*
X106256541Y-68082809D01*
X106053425Y-68186303D01*
X105868993Y-68320301D01*
X105707801Y-68481493D01*
X105707801Y-68481494D01*
X105707799Y-68481496D01*
X105705523Y-68484629D01*
X105637564Y-68578166D01*
X105582234Y-68620831D01*
X105512620Y-68626810D01*
X105461273Y-68599717D01*
X105452059Y-68598991D01*
X104761994Y-69289056D01*
X104745881Y-69228919D01*
X104679002Y-69113080D01*
X104584420Y-69018498D01*
X104468581Y-68951619D01*
X104408440Y-68935504D01*
X105098507Y-68245439D01*
X105027120Y-68193573D01*
X104825188Y-68090683D01*
X104609657Y-68020653D01*
X104385814Y-67985200D01*
X104159186Y-67985200D01*
X103935344Y-68020653D01*
X103935341Y-68020653D01*
X103719811Y-68090683D01*
X103517876Y-68193575D01*
X103446492Y-68245438D01*
X103446491Y-68245439D01*
X104136557Y-68935504D01*
X104076419Y-68951619D01*
X103960580Y-69018498D01*
X103865998Y-69113080D01*
X103799119Y-69228919D01*
X103783004Y-69289057D01*
X103217119Y-68723172D01*
X103183634Y-68661849D01*
X103180800Y-68635491D01*
X103180800Y-68436562D01*
X103180799Y-68436545D01*
X103177457Y-68405470D01*
X103174289Y-68375999D01*
X103173747Y-68374547D01*
X103159383Y-68336034D01*
X103125592Y-68245439D01*
X103123189Y-68238996D01*
X103035561Y-68121939D01*
X102918504Y-68034311D01*
X102881886Y-68020653D01*
X102781503Y-67983211D01*
X102720954Y-67976700D01*
X102720938Y-67976700D01*
X100744062Y-67976700D01*
X100744045Y-67976700D01*
X100683497Y-67983211D01*
X100683495Y-67983211D01*
X100546495Y-68034311D01*
X100429439Y-68121939D01*
X100341811Y-68238995D01*
X100315681Y-68309051D01*
X100273809Y-68364984D01*
X100208345Y-68389400D01*
X100140072Y-68374547D01*
X100090667Y-68325142D01*
X100075500Y-68265716D01*
X100075500Y-47428092D01*
X100076097Y-47415938D01*
X100087494Y-47300222D01*
X100092234Y-47276389D01*
X100124216Y-47170959D01*
X100133508Y-47148526D01*
X100185442Y-47051365D01*
X100198938Y-47031166D01*
X100268827Y-46946006D01*
X100286006Y-46928827D01*
X100371166Y-46858938D01*
X100391365Y-46845442D01*
X100488526Y-46793508D01*
X100510959Y-46784216D01*
X100616389Y-46752234D01*
X100640220Y-46747494D01*
X100755939Y-46736097D01*
X100768093Y-46735500D01*
X100786531Y-46735500D01*
X111384589Y-46735500D01*
X111451628Y-46755185D01*
G37*
%TD.AperFunction*%
%TA.AperFunction,Conductor*%
G36*
X114486763Y-47578185D02*
G01*
X114532518Y-47630989D01*
X114542462Y-47700147D01*
X114513437Y-47763703D01*
X114476019Y-47792985D01*
X114401151Y-47831132D01*
X114197350Y-47979201D01*
X114197345Y-47979205D01*
X114019205Y-48157345D01*
X114019201Y-48157350D01*
X113871132Y-48361151D01*
X113756760Y-48585616D01*
X113678910Y-48825214D01*
X113639500Y-49074038D01*
X113639500Y-49325961D01*
X113678910Y-49574785D01*
X113756760Y-49814383D01*
X113871132Y-50038848D01*
X114019201Y-50242649D01*
X114019205Y-50242654D01*
X114197345Y-50420794D01*
X114197350Y-50420798D01*
X114359504Y-50538609D01*
X114401155Y-50568870D01*
X114523071Y-50630989D01*
X114625616Y-50683239D01*
X114625618Y-50683239D01*
X114625621Y-50683241D01*
X114865215Y-50761090D01*
X115114038Y-50800500D01*
X115114039Y-50800500D01*
X115365961Y-50800500D01*
X115365962Y-50800500D01*
X115614785Y-50761090D01*
X115854379Y-50683241D01*
X116078845Y-50568870D01*
X116282656Y-50420793D01*
X116460793Y-50242656D01*
X116608870Y-50038845D01*
X116723241Y-49814379D01*
X116801090Y-49574785D01*
X116840500Y-49325962D01*
X116840500Y-49074038D01*
X116801090Y-48825215D01*
X116723241Y-48585621D01*
X116723239Y-48585618D01*
X116723239Y-48585616D01*
X116673498Y-48487994D01*
X116608870Y-48361155D01*
X116565416Y-48301345D01*
X117437500Y-48301345D01*
X117437500Y-50098654D01*
X117444011Y-50159202D01*
X117444011Y-50159204D01*
X117475138Y-50242656D01*
X117495111Y-50296204D01*
X117582739Y-50413261D01*
X117699796Y-50500889D01*
X117836799Y-50551989D01*
X117864050Y-50554918D01*
X117897345Y-50558499D01*
X117897362Y-50558500D01*
X119694638Y-50558500D01*
X119694654Y-50558499D01*
X119721692Y-50555591D01*
X119755201Y-50551989D01*
X119892204Y-50500889D01*
X120009261Y-50413261D01*
X120096889Y-50296204D01*
X120141957Y-50175371D01*
X120183827Y-50119442D01*
X120249291Y-50095025D01*
X120317564Y-50109877D01*
X120345818Y-50131028D01*
X120450996Y-50236206D01*
X120623991Y-50361894D01*
X120717438Y-50409507D01*
X120814516Y-50458972D01*
X120814519Y-50458973D01*
X120907397Y-50489150D01*
X121017884Y-50525049D01*
X121229084Y-50558500D01*
X121229085Y-50558500D01*
X121442915Y-50558500D01*
X121442916Y-50558500D01*
X121654116Y-50525049D01*
X121857483Y-50458972D01*
X122048009Y-50361894D01*
X122221004Y-50236206D01*
X122372206Y-50085004D01*
X122497894Y-49912009D01*
X122497896Y-49912004D01*
X122500270Y-49908132D01*
X122552080Y-49861254D01*
X122621009Y-49849829D01*
X122685173Y-49877483D01*
X122711730Y-49908132D01*
X122714103Y-49912005D01*
X122714105Y-49912008D01*
X122714106Y-49912009D01*
X122839794Y-50085004D01*
X122990996Y-50236206D01*
X123163991Y-50361894D01*
X123257438Y-50409507D01*
X123354516Y-50458972D01*
X123354519Y-50458973D01*
X123447397Y-50489150D01*
X123557884Y-50525049D01*
X123769084Y-50558500D01*
X123769085Y-50558500D01*
X123982915Y-50558500D01*
X123982916Y-50558500D01*
X124194116Y-50525049D01*
X124397483Y-50458972D01*
X124588009Y-50361894D01*
X124761004Y-50236206D01*
X124912206Y-50085004D01*
X125037894Y-49912009D01*
X125040283Y-49907319D01*
X125088254Y-49856522D01*
X125156074Y-49839724D01*
X125222210Y-49862258D01*
X125258201Y-49903788D01*
X125258832Y-49903402D01*
X125261164Y-49907207D01*
X125261251Y-49907308D01*
X125261376Y-49907554D01*
X125386272Y-50079459D01*
X125386276Y-50079464D01*
X125536535Y-50229723D01*
X125536540Y-50229727D01*
X125708442Y-50354620D01*
X125897782Y-50451095D01*
X126099871Y-50516757D01*
X126166000Y-50527231D01*
X126166000Y-49633012D01*
X126223007Y-49665925D01*
X126350174Y-49700000D01*
X126481826Y-49700000D01*
X126608993Y-49665925D01*
X126666000Y-49633012D01*
X126666000Y-50527230D01*
X126732126Y-50516757D01*
X126732129Y-50516757D01*
X126934217Y-50451095D01*
X127123557Y-50354620D01*
X127295459Y-50229727D01*
X127295464Y-50229723D01*
X127445723Y-50079464D01*
X127445727Y-50079459D01*
X127570619Y-49907560D01*
X127570738Y-49907327D01*
X127570808Y-49907252D01*
X127573168Y-49903402D01*
X127573976Y-49903897D01*
X127618707Y-49856526D01*
X127686526Y-49839723D01*
X127752663Y-49862254D01*
X127791712Y-49907311D01*
X127794105Y-49912008D01*
X127836002Y-49969674D01*
X127919794Y-50085004D01*
X128070996Y-50236206D01*
X128243991Y-50361894D01*
X128337438Y-50409507D01*
X128434516Y-50458972D01*
X128434519Y-50458973D01*
X128527397Y-50489150D01*
X128637884Y-50525049D01*
X128849084Y-50558500D01*
X128849085Y-50558500D01*
X129062915Y-50558500D01*
X129062916Y-50558500D01*
X129274116Y-50525049D01*
X129477483Y-50458972D01*
X129668009Y-50361894D01*
X129841004Y-50236206D01*
X129992206Y-50085004D01*
X130117894Y-49912009D01*
X130117896Y-49912004D01*
X130120270Y-49908132D01*
X130172080Y-49861254D01*
X130241009Y-49849829D01*
X130305173Y-49877483D01*
X130331730Y-49908132D01*
X130334103Y-49912005D01*
X130334105Y-49912008D01*
X130334106Y-49912009D01*
X130459794Y-50085004D01*
X130610996Y-50236206D01*
X130693579Y-50296206D01*
X130783992Y-50361895D01*
X130815863Y-50378133D01*
X130842136Y-50391520D01*
X130892932Y-50439494D01*
X130909728Y-50507314D01*
X130887191Y-50573450D01*
X130873523Y-50589686D01*
X129098030Y-52365181D01*
X129036707Y-52398666D01*
X129010349Y-52401500D01*
X125094504Y-52401500D01*
X125027465Y-52381815D01*
X124984018Y-52333793D01*
X124982029Y-52329889D01*
X124979129Y-52324197D01*
X124979127Y-52324194D01*
X124979126Y-52324192D01*
X124858073Y-52157576D01*
X124858069Y-52157571D01*
X124712428Y-52011930D01*
X124712423Y-52011926D01*
X124545806Y-51890873D01*
X124545805Y-51890872D01*
X124545803Y-51890871D01*
X124488496Y-51861671D01*
X124362294Y-51797367D01*
X124166408Y-51733719D01*
X123990794Y-51705905D01*
X123962981Y-51701500D01*
X123757019Y-51701500D01*
X123732550Y-51705375D01*
X123553591Y-51733719D01*
X123357705Y-51797367D01*
X123174193Y-51890873D01*
X123007576Y-52011926D01*
X123007571Y-52011930D01*
X122861930Y-52157571D01*
X122861926Y-52157576D01*
X122740873Y-52324193D01*
X122647367Y-52507705D01*
X122583719Y-52703591D01*
X122551500Y-52907019D01*
X122551500Y-53112980D01*
X122583719Y-53316408D01*
X122647367Y-53512294D01*
X122701482Y-53618499D01*
X122728958Y-53672423D01*
X122740873Y-53695806D01*
X122861926Y-53862423D01*
X122861930Y-53862428D01*
X123007571Y-54008069D01*
X123007576Y-54008073D01*
X123041382Y-54032634D01*
X123174197Y-54129129D01*
X123286362Y-54186280D01*
X123357705Y-54222632D01*
X123357707Y-54222632D01*
X123357710Y-54222634D01*
X123462707Y-54256749D01*
X123553591Y-54286280D01*
X123655305Y-54302390D01*
X123757019Y-54318500D01*
X123757020Y-54318500D01*
X123962980Y-54318500D01*
X123962981Y-54318500D01*
X124166408Y-54286280D01*
X124362290Y-54222634D01*
X124545803Y-54129129D01*
X124712430Y-54008068D01*
X124858068Y-53862430D01*
X124979129Y-53695803D01*
X124984018Y-53686206D01*
X125031992Y-53635410D01*
X125094504Y-53618500D01*
X129393869Y-53618500D01*
X129393870Y-53618500D01*
X129393871Y-53618500D01*
X129503463Y-53589135D01*
X129548633Y-53577032D01*
X129687387Y-53496922D01*
X129831631Y-53352677D01*
X129892952Y-53319194D01*
X129962643Y-53324178D01*
X130018577Y-53366049D01*
X130029795Y-53384065D01*
X130040873Y-53405806D01*
X130161926Y-53572423D01*
X130161930Y-53572428D01*
X130307571Y-53718069D01*
X130307576Y-53718073D01*
X130368629Y-53762430D01*
X130474197Y-53839129D01*
X130591128Y-53898709D01*
X130657705Y-53932632D01*
X130657707Y-53932632D01*
X130657710Y-53932634D01*
X130677700Y-53939129D01*
X130853591Y-53996280D01*
X130928024Y-54008069D01*
X131057019Y-54028500D01*
X131057020Y-54028500D01*
X131262980Y-54028500D01*
X131262981Y-54028500D01*
X131466408Y-53996280D01*
X131662290Y-53932634D01*
X131845803Y-53839129D01*
X132012430Y-53718068D01*
X132158068Y-53572430D01*
X132279129Y-53405803D01*
X132284018Y-53396206D01*
X132331992Y-53345410D01*
X132394504Y-53328500D01*
X133136109Y-53328500D01*
X133136110Y-53328500D01*
X133136111Y-53328500D01*
X133245703Y-53299135D01*
X133290873Y-53287032D01*
X133429627Y-53206922D01*
X136093668Y-50542879D01*
X136154989Y-50509396D01*
X136219665Y-50512630D01*
X136232364Y-50516757D01*
X136257883Y-50525049D01*
X136343498Y-50538609D01*
X136469084Y-50558500D01*
X136469085Y-50558500D01*
X136682915Y-50558500D01*
X136682916Y-50558500D01*
X136894116Y-50525049D01*
X137097483Y-50458972D01*
X137288009Y-50361894D01*
X137461004Y-50236206D01*
X137612206Y-50085004D01*
X137737894Y-49912009D01*
X137737896Y-49912004D01*
X137740270Y-49908132D01*
X137792080Y-49861254D01*
X137861009Y-49849829D01*
X137925173Y-49877483D01*
X137951730Y-49908132D01*
X137954103Y-49912005D01*
X137954105Y-49912008D01*
X137954106Y-49912009D01*
X138079794Y-50085004D01*
X138079796Y-50085006D01*
X138095181Y-50100391D01*
X138128666Y-50161714D01*
X138131500Y-50188072D01*
X138131500Y-51675495D01*
X138111815Y-51742534D01*
X138063802Y-51785976D01*
X138054195Y-51790871D01*
X138054193Y-51790872D01*
X137887576Y-51911926D01*
X137887571Y-51911930D01*
X137741930Y-52057571D01*
X137741926Y-52057576D01*
X137620873Y-52224193D01*
X137527367Y-52407705D01*
X137463719Y-52603591D01*
X137431500Y-52807019D01*
X137431500Y-53012980D01*
X137463719Y-53216408D01*
X137527367Y-53412294D01*
X137570487Y-53496920D01*
X137617473Y-53589135D01*
X137620873Y-53595806D01*
X137741926Y-53762423D01*
X137741930Y-53762428D01*
X137887571Y-53908069D01*
X137887576Y-53908073D01*
X138008984Y-53996280D01*
X138054197Y-54029129D01*
X138171128Y-54088709D01*
X138237705Y-54122632D01*
X138237707Y-54122632D01*
X138237710Y-54122634D01*
X138257700Y-54129129D01*
X138433591Y-54186280D01*
X138535305Y-54202390D01*
X138637019Y-54218500D01*
X138637020Y-54218500D01*
X138842980Y-54218500D01*
X138842981Y-54218500D01*
X139046408Y-54186280D01*
X139242290Y-54122634D01*
X139425803Y-54029129D01*
X139592430Y-53908068D01*
X139738068Y-53762430D01*
X139859129Y-53595803D01*
X139952634Y-53412290D01*
X140016280Y-53216408D01*
X140048500Y-53012981D01*
X140048500Y-52807019D01*
X140032119Y-52703592D01*
X140016280Y-52603591D01*
X139983707Y-52503343D01*
X139952634Y-52407710D01*
X139952632Y-52407707D01*
X139952632Y-52407705D01*
X139895627Y-52295828D01*
X139859129Y-52224197D01*
X139843661Y-52202908D01*
X139738073Y-52057576D01*
X139738069Y-52057571D01*
X139592428Y-51911930D01*
X139592423Y-51911926D01*
X139425806Y-51790872D01*
X139425804Y-51790871D01*
X139416198Y-51785976D01*
X139365405Y-51737998D01*
X139348500Y-51675495D01*
X139348500Y-50642958D01*
X139368185Y-50575919D01*
X139420989Y-50530164D01*
X139434179Y-50525028D01*
X139637483Y-50458972D01*
X139828009Y-50361894D01*
X140001004Y-50236206D01*
X140152206Y-50085004D01*
X140277894Y-49912009D01*
X140277896Y-49912004D01*
X140280270Y-49908132D01*
X140332080Y-49861254D01*
X140401009Y-49849829D01*
X140465173Y-49877483D01*
X140491730Y-49908132D01*
X140494103Y-49912005D01*
X140494105Y-49912008D01*
X140494106Y-49912009D01*
X140619794Y-50085004D01*
X140770996Y-50236206D01*
X140943991Y-50361894D01*
X141037438Y-50409507D01*
X141134516Y-50458972D01*
X141134519Y-50458973D01*
X141227397Y-50489150D01*
X141337884Y-50525049D01*
X141549084Y-50558500D01*
X141549085Y-50558500D01*
X141762915Y-50558500D01*
X141762916Y-50558500D01*
X141974116Y-50525049D01*
X142177483Y-50458972D01*
X142368009Y-50361894D01*
X142541004Y-50236206D01*
X142692206Y-50085004D01*
X142817894Y-49912009D01*
X142914972Y-49721483D01*
X142981049Y-49518116D01*
X143014500Y-49306916D01*
X143014500Y-49093084D01*
X142981049Y-48881884D01*
X142914972Y-48678517D01*
X142914972Y-48678516D01*
X142865507Y-48581438D01*
X142817894Y-48487991D01*
X142692206Y-48314996D01*
X142541004Y-48163794D01*
X142368009Y-48038106D01*
X142177483Y-47941027D01*
X142177480Y-47941026D01*
X141974117Y-47874951D01*
X141868516Y-47858225D01*
X141762916Y-47841500D01*
X141549084Y-47841500D01*
X141478684Y-47852650D01*
X141337882Y-47874951D01*
X141134519Y-47941026D01*
X141134516Y-47941027D01*
X140943990Y-48038106D01*
X140770993Y-48163796D01*
X140619796Y-48314993D01*
X140494105Y-48487991D01*
X140491727Y-48491873D01*
X140439914Y-48538748D01*
X140370984Y-48550169D01*
X140306822Y-48522512D01*
X140280273Y-48491873D01*
X140277894Y-48487991D01*
X140185742Y-48361155D01*
X140152206Y-48314996D01*
X140001004Y-48163794D01*
X139828009Y-48038106D01*
X139637483Y-47941027D01*
X139637480Y-47941026D01*
X139434117Y-47874951D01*
X139328516Y-47858225D01*
X139222916Y-47841500D01*
X139009084Y-47841500D01*
X138938684Y-47852650D01*
X138797882Y-47874951D01*
X138594519Y-47941026D01*
X138594516Y-47941027D01*
X138403990Y-48038106D01*
X138230993Y-48163796D01*
X138079796Y-48314993D01*
X137954105Y-48487991D01*
X137951727Y-48491873D01*
X137899914Y-48538748D01*
X137830984Y-48550169D01*
X137766822Y-48522512D01*
X137740273Y-48491873D01*
X137737894Y-48487991D01*
X137645742Y-48361155D01*
X137612206Y-48314996D01*
X137461004Y-48163794D01*
X137288009Y-48038106D01*
X137097483Y-47941027D01*
X137097480Y-47941026D01*
X136894117Y-47874951D01*
X136788516Y-47858225D01*
X136682916Y-47841500D01*
X136469084Y-47841500D01*
X136398684Y-47852650D01*
X136257882Y-47874951D01*
X136054519Y-47941026D01*
X136054516Y-47941027D01*
X135863990Y-48038106D01*
X135690993Y-48163796D01*
X135539796Y-48314993D01*
X135414105Y-48487991D01*
X135411727Y-48491873D01*
X135359914Y-48538748D01*
X135290984Y-48550169D01*
X135226822Y-48522512D01*
X135200273Y-48491873D01*
X135197894Y-48487991D01*
X135105742Y-48361155D01*
X135072206Y-48314996D01*
X134921004Y-48163794D01*
X134748009Y-48038106D01*
X134557483Y-47941027D01*
X134557480Y-47941026D01*
X134354117Y-47874951D01*
X134248516Y-47858225D01*
X134142916Y-47841500D01*
X133929084Y-47841500D01*
X133858684Y-47852650D01*
X133717882Y-47874951D01*
X133514519Y-47941026D01*
X133514516Y-47941027D01*
X133323990Y-48038106D01*
X133150993Y-48163796D01*
X132999796Y-48314993D01*
X132874105Y-48487991D01*
X132871727Y-48491873D01*
X132819914Y-48538748D01*
X132750984Y-48550169D01*
X132686822Y-48522512D01*
X132660273Y-48491873D01*
X132657894Y-48487991D01*
X132565742Y-48361155D01*
X132532206Y-48314996D01*
X132381004Y-48163794D01*
X132208009Y-48038106D01*
X132017483Y-47941027D01*
X132017480Y-47941026D01*
X131814117Y-47874951D01*
X131708516Y-47858225D01*
X131602916Y-47841500D01*
X131389084Y-47841500D01*
X131318684Y-47852650D01*
X131177882Y-47874951D01*
X130974519Y-47941026D01*
X130974516Y-47941027D01*
X130783990Y-48038106D01*
X130610993Y-48163796D01*
X130459796Y-48314993D01*
X130334105Y-48487991D01*
X130331727Y-48491873D01*
X130279914Y-48538748D01*
X130210984Y-48550169D01*
X130146822Y-48522512D01*
X130120273Y-48491873D01*
X130117894Y-48487991D01*
X130025742Y-48361155D01*
X129992206Y-48314996D01*
X129841004Y-48163794D01*
X129668009Y-48038106D01*
X129477483Y-47941027D01*
X129477480Y-47941026D01*
X129274117Y-47874951D01*
X129168516Y-47858225D01*
X129062916Y-47841500D01*
X128849084Y-47841500D01*
X128778684Y-47852650D01*
X128637882Y-47874951D01*
X128434519Y-47941026D01*
X128434516Y-47941027D01*
X128243990Y-48038106D01*
X128070993Y-48163796D01*
X127919796Y-48314993D01*
X127794103Y-48487994D01*
X127791709Y-48492693D01*
X127743731Y-48543485D01*
X127675908Y-48560275D01*
X127609775Y-48537732D01*
X127573800Y-48496210D01*
X127573168Y-48496598D01*
X127570829Y-48492781D01*
X127570743Y-48492682D01*
X127570620Y-48492441D01*
X127445727Y-48320540D01*
X127445723Y-48320535D01*
X127295464Y-48170276D01*
X127295459Y-48170272D01*
X127123557Y-48045379D01*
X126934215Y-47948903D01*
X126732124Y-47883241D01*
X126666000Y-47872768D01*
X126666000Y-48766988D01*
X126608993Y-48734075D01*
X126481826Y-48700000D01*
X126350174Y-48700000D01*
X126223007Y-48734075D01*
X126166000Y-48766988D01*
X126166000Y-47872768D01*
X126165999Y-47872768D01*
X126099875Y-47883241D01*
X125897784Y-47948903D01*
X125708442Y-48045379D01*
X125536540Y-48170272D01*
X125536535Y-48170276D01*
X125386276Y-48320535D01*
X125386272Y-48320540D01*
X125261376Y-48492446D01*
X125261374Y-48492448D01*
X125261246Y-48492701D01*
X125261172Y-48492779D01*
X125258832Y-48496598D01*
X125258029Y-48496106D01*
X125213264Y-48543489D01*
X125145441Y-48560274D01*
X125079309Y-48537727D01*
X125040285Y-48492683D01*
X125037895Y-48487992D01*
X124945742Y-48361155D01*
X124912206Y-48314996D01*
X124761004Y-48163794D01*
X124588009Y-48038106D01*
X124397483Y-47941027D01*
X124397480Y-47941026D01*
X124194117Y-47874951D01*
X124088516Y-47858225D01*
X123982916Y-47841500D01*
X123769084Y-47841500D01*
X123698684Y-47852650D01*
X123557882Y-47874951D01*
X123354519Y-47941026D01*
X123354516Y-47941027D01*
X123163990Y-48038106D01*
X122990993Y-48163796D01*
X122839796Y-48314993D01*
X122714105Y-48487991D01*
X122711727Y-48491873D01*
X122659914Y-48538748D01*
X122590984Y-48550169D01*
X122526822Y-48522512D01*
X122500273Y-48491873D01*
X122497894Y-48487991D01*
X122405742Y-48361155D01*
X122372206Y-48314996D01*
X122221004Y-48163794D01*
X122048009Y-48038106D01*
X121857483Y-47941027D01*
X121857480Y-47941026D01*
X121654117Y-47874951D01*
X121548516Y-47858225D01*
X121442916Y-47841500D01*
X121229084Y-47841500D01*
X121158684Y-47852650D01*
X121017882Y-47874951D01*
X120814519Y-47941026D01*
X120814516Y-47941027D01*
X120623990Y-48038106D01*
X120450997Y-48163793D01*
X120345818Y-48268972D01*
X120284495Y-48302456D01*
X120214803Y-48297472D01*
X120158870Y-48255600D01*
X120141958Y-48224629D01*
X120096889Y-48103796D01*
X120009261Y-47986739D01*
X119892204Y-47899111D01*
X119866069Y-47889363D01*
X119755203Y-47848011D01*
X119694654Y-47841500D01*
X119694638Y-47841500D01*
X117897362Y-47841500D01*
X117897345Y-47841500D01*
X117836797Y-47848011D01*
X117836795Y-47848011D01*
X117699795Y-47899111D01*
X117582739Y-47986739D01*
X117495111Y-48103795D01*
X117444011Y-48240795D01*
X117444011Y-48240797D01*
X117437500Y-48301345D01*
X116565416Y-48301345D01*
X116562602Y-48297472D01*
X116460798Y-48157350D01*
X116460794Y-48157345D01*
X116282654Y-47979205D01*
X116282649Y-47979201D01*
X116078848Y-47831132D01*
X116078847Y-47831131D01*
X116078845Y-47831130D01*
X116003980Y-47792984D01*
X115953185Y-47745010D01*
X115936390Y-47677189D01*
X115958927Y-47611055D01*
X116013642Y-47567603D01*
X116060276Y-47558500D01*
X160946589Y-47558500D01*
X160976029Y-47567144D01*
X161006016Y-47573668D01*
X161011031Y-47577422D01*
X161013628Y-47578185D01*
X161034270Y-47594819D01*
X161069270Y-47629819D01*
X161102755Y-47691142D01*
X161097771Y-47760834D01*
X161055899Y-47816767D01*
X160990435Y-47841184D01*
X160981589Y-47841500D01*
X160853084Y-47841500D01*
X160782684Y-47852650D01*
X160641882Y-47874951D01*
X160438519Y-47941026D01*
X160438516Y-47941027D01*
X160247990Y-48038106D01*
X160074993Y-48163796D01*
X159923796Y-48314993D01*
X159798105Y-48487991D01*
X159795727Y-48491873D01*
X159743914Y-48538748D01*
X159674984Y-48550169D01*
X159610822Y-48522512D01*
X159584273Y-48491873D01*
X159581894Y-48487991D01*
X159489742Y-48361155D01*
X159456206Y-48314996D01*
X159305004Y-48163794D01*
X159132009Y-48038106D01*
X158941483Y-47941027D01*
X158941480Y-47941026D01*
X158738117Y-47874951D01*
X158632516Y-47858225D01*
X158526916Y-47841500D01*
X158313084Y-47841500D01*
X158242684Y-47852650D01*
X158101882Y-47874951D01*
X157898519Y-47941026D01*
X157898516Y-47941027D01*
X157707990Y-48038106D01*
X157534993Y-48163796D01*
X157383796Y-48314993D01*
X157258105Y-48487991D01*
X157255727Y-48491873D01*
X157203914Y-48538748D01*
X157134984Y-48550169D01*
X157070822Y-48522512D01*
X157044273Y-48491873D01*
X157041894Y-48487991D01*
X156949742Y-48361155D01*
X156916206Y-48314996D01*
X156765004Y-48163794D01*
X156592009Y-48038106D01*
X156401483Y-47941027D01*
X156401480Y-47941026D01*
X156198117Y-47874951D01*
X156092516Y-47858225D01*
X155986916Y-47841500D01*
X155773084Y-47841500D01*
X155702684Y-47852650D01*
X155561882Y-47874951D01*
X155358519Y-47941026D01*
X155358516Y-47941027D01*
X155167990Y-48038106D01*
X154994993Y-48163796D01*
X154843796Y-48314993D01*
X154718105Y-48487991D01*
X154715727Y-48491873D01*
X154663914Y-48538748D01*
X154594984Y-48550169D01*
X154530822Y-48522512D01*
X154504273Y-48491873D01*
X154501894Y-48487991D01*
X154409742Y-48361155D01*
X154376206Y-48314996D01*
X154225004Y-48163794D01*
X154052009Y-48038106D01*
X153861483Y-47941027D01*
X153861480Y-47941026D01*
X153658117Y-47874951D01*
X153552516Y-47858225D01*
X153446916Y-47841500D01*
X153233084Y-47841500D01*
X153162684Y-47852650D01*
X153021882Y-47874951D01*
X152818519Y-47941026D01*
X152818516Y-47941027D01*
X152627990Y-48038106D01*
X152454993Y-48163796D01*
X152303796Y-48314993D01*
X152178105Y-48487991D01*
X152175727Y-48491873D01*
X152123914Y-48538748D01*
X152054984Y-48550169D01*
X151990822Y-48522512D01*
X151964273Y-48491873D01*
X151961894Y-48487991D01*
X151869742Y-48361155D01*
X151836206Y-48314996D01*
X151685004Y-48163794D01*
X151512009Y-48038106D01*
X151321483Y-47941027D01*
X151321480Y-47941026D01*
X151118117Y-47874951D01*
X151012516Y-47858225D01*
X150906916Y-47841500D01*
X150693084Y-47841500D01*
X150622684Y-47852650D01*
X150481882Y-47874951D01*
X150278519Y-47941026D01*
X150278516Y-47941027D01*
X150087990Y-48038106D01*
X149914993Y-48163796D01*
X149763796Y-48314993D01*
X149638105Y-48487991D01*
X149635727Y-48491873D01*
X149583914Y-48538748D01*
X149514984Y-48550169D01*
X149450822Y-48522512D01*
X149424273Y-48491873D01*
X149421894Y-48487991D01*
X149329742Y-48361155D01*
X149296206Y-48314996D01*
X149145004Y-48163794D01*
X148972009Y-48038106D01*
X148781483Y-47941027D01*
X148781480Y-47941026D01*
X148578117Y-47874951D01*
X148472516Y-47858225D01*
X148366916Y-47841500D01*
X148153084Y-47841500D01*
X148082684Y-47852650D01*
X147941882Y-47874951D01*
X147738519Y-47941026D01*
X147738516Y-47941027D01*
X147547990Y-48038106D01*
X147374997Y-48163793D01*
X147269818Y-48268972D01*
X147208495Y-48302456D01*
X147138803Y-48297472D01*
X147082870Y-48255600D01*
X147065958Y-48224629D01*
X147020889Y-48103796D01*
X146933261Y-47986739D01*
X146816204Y-47899111D01*
X146790069Y-47889363D01*
X146679203Y-47848011D01*
X146618654Y-47841500D01*
X146618638Y-47841500D01*
X144821362Y-47841500D01*
X144821345Y-47841500D01*
X144760797Y-47848011D01*
X144760795Y-47848011D01*
X144623795Y-47899111D01*
X144506739Y-47986739D01*
X144419111Y-48103795D01*
X144368011Y-48240795D01*
X144368011Y-48240797D01*
X144361500Y-48301345D01*
X144361500Y-50098654D01*
X144368011Y-50159202D01*
X144368011Y-50159204D01*
X144399138Y-50242656D01*
X144419111Y-50296204D01*
X144506739Y-50413261D01*
X144623796Y-50500889D01*
X144760799Y-50551989D01*
X144788050Y-50554918D01*
X144821345Y-50558499D01*
X144821362Y-50558500D01*
X145741589Y-50558500D01*
X145808628Y-50578185D01*
X145854383Y-50630989D01*
X145864327Y-50700147D01*
X145835302Y-50763703D01*
X145829270Y-50770181D01*
X145643080Y-50956370D01*
X145643076Y-50956376D01*
X145562967Y-51095126D01*
X145562968Y-51095126D01*
X145562968Y-51095127D01*
X145521500Y-51249889D01*
X145521500Y-51675495D01*
X145501815Y-51742534D01*
X145453802Y-51785976D01*
X145444195Y-51790871D01*
X145444193Y-51790872D01*
X145277576Y-51911926D01*
X145277571Y-51911930D01*
X145131930Y-52057571D01*
X145131926Y-52057576D01*
X145010873Y-52224193D01*
X144917367Y-52407705D01*
X144853719Y-52603591D01*
X144821500Y-52807019D01*
X144821500Y-53012980D01*
X144853719Y-53216408D01*
X144917367Y-53412294D01*
X144960487Y-53496920D01*
X145007473Y-53589135D01*
X145010873Y-53595806D01*
X145131926Y-53762423D01*
X145131930Y-53762428D01*
X145277571Y-53908069D01*
X145277576Y-53908073D01*
X145398984Y-53996280D01*
X145444197Y-54029129D01*
X145561128Y-54088709D01*
X145627705Y-54122632D01*
X145627707Y-54122632D01*
X145627710Y-54122634D01*
X145647700Y-54129129D01*
X145823591Y-54186280D01*
X145925305Y-54202390D01*
X146027019Y-54218500D01*
X146027020Y-54218500D01*
X146232980Y-54218500D01*
X146232981Y-54218500D01*
X146436408Y-54186280D01*
X146632290Y-54122634D01*
X146815803Y-54029129D01*
X146982430Y-53908068D01*
X147128068Y-53762430D01*
X147249129Y-53595803D01*
X147342634Y-53412290D01*
X147406280Y-53216408D01*
X147438500Y-53012981D01*
X147438500Y-52807019D01*
X147422119Y-52703592D01*
X147406280Y-52603591D01*
X147373707Y-52503343D01*
X147342634Y-52407710D01*
X147342632Y-52407707D01*
X147342632Y-52407705D01*
X147285627Y-52295828D01*
X147249129Y-52224197D01*
X147233661Y-52202908D01*
X147128073Y-52057576D01*
X147128069Y-52057571D01*
X146982428Y-51911930D01*
X146982423Y-51911926D01*
X146815806Y-51790872D01*
X146815804Y-51790871D01*
X146806198Y-51785976D01*
X146795138Y-51775528D01*
X146781297Y-51769208D01*
X146770253Y-51752023D01*
X146755405Y-51737998D01*
X146751164Y-51722321D01*
X146743523Y-51710430D01*
X146738500Y-51675495D01*
X146738500Y-51633410D01*
X146758185Y-51566371D01*
X146774814Y-51545733D01*
X147777668Y-50542879D01*
X147838989Y-50509396D01*
X147903665Y-50512630D01*
X147916364Y-50516757D01*
X147941883Y-50525049D01*
X148027498Y-50538609D01*
X148153084Y-50558500D01*
X148153085Y-50558500D01*
X148366915Y-50558500D01*
X148366916Y-50558500D01*
X148578116Y-50525049D01*
X148781483Y-50458972D01*
X148972009Y-50361894D01*
X149145004Y-50236206D01*
X149296206Y-50085004D01*
X149421894Y-49912009D01*
X149421896Y-49912004D01*
X149424270Y-49908132D01*
X149476080Y-49861254D01*
X149545009Y-49849829D01*
X149609173Y-49877483D01*
X149635730Y-49908132D01*
X149638103Y-49912005D01*
X149638105Y-49912008D01*
X149638106Y-49912009D01*
X149763794Y-50085004D01*
X149914996Y-50236206D01*
X150087991Y-50361894D01*
X150278517Y-50458972D01*
X150279681Y-50459350D01*
X150280206Y-50459671D01*
X150283017Y-50460836D01*
X150282832Y-50461281D01*
X150329053Y-50489603D01*
X152216798Y-52377347D01*
X152250283Y-52438670D01*
X152247049Y-52503343D01*
X152243721Y-52513586D01*
X152243720Y-52513590D01*
X152211500Y-52717019D01*
X152211500Y-52922980D01*
X152243719Y-53126408D01*
X152307367Y-53322294D01*
X152371671Y-53448496D01*
X152396346Y-53496923D01*
X152400873Y-53505806D01*
X152521926Y-53672423D01*
X152521930Y-53672428D01*
X152667571Y-53818069D01*
X152667576Y-53818073D01*
X152728629Y-53862430D01*
X152834197Y-53939129D01*
X152946362Y-53996280D01*
X153017705Y-54032632D01*
X153017707Y-54032632D01*
X153017710Y-54032634D01*
X153122707Y-54066749D01*
X153213591Y-54096280D01*
X153315305Y-54112390D01*
X153417019Y-54128500D01*
X153417020Y-54128500D01*
X153622980Y-54128500D01*
X153622981Y-54128500D01*
X153826408Y-54096280D01*
X154022290Y-54032634D01*
X154205803Y-53939129D01*
X154372430Y-53818068D01*
X154518068Y-53672430D01*
X154639129Y-53505803D01*
X154732634Y-53322290D01*
X154796280Y-53126408D01*
X154828500Y-52922981D01*
X154828500Y-52717019D01*
X154796280Y-52513592D01*
X154796279Y-52513590D01*
X154748058Y-52365181D01*
X154732634Y-52317710D01*
X154732632Y-52317707D01*
X154732632Y-52317705D01*
X154698709Y-52251128D01*
X154639129Y-52134197D01*
X154573447Y-52043793D01*
X154518073Y-51967576D01*
X154518069Y-51967571D01*
X154372428Y-51821930D01*
X154372423Y-51821926D01*
X154205806Y-51700873D01*
X154205805Y-51700872D01*
X154205803Y-51700871D01*
X154148496Y-51671671D01*
X154022294Y-51607367D01*
X153826408Y-51543719D01*
X153628101Y-51512311D01*
X153622981Y-51511500D01*
X153417019Y-51511500D01*
X153349210Y-51522240D01*
X153213590Y-51543720D01*
X153213586Y-51543721D01*
X153203343Y-51547049D01*
X153133501Y-51549042D01*
X153077347Y-51516798D01*
X151828560Y-50268011D01*
X151795075Y-50206688D01*
X151800059Y-50136996D01*
X151828566Y-50092643D01*
X151836206Y-50085004D01*
X151961894Y-49912009D01*
X151961896Y-49912004D01*
X151964270Y-49908132D01*
X152016080Y-49861254D01*
X152085009Y-49849829D01*
X152149173Y-49877483D01*
X152175730Y-49908132D01*
X152178103Y-49912005D01*
X152178105Y-49912008D01*
X152178106Y-49912009D01*
X152303794Y-50085004D01*
X152454996Y-50236206D01*
X152627991Y-50361894D01*
X152721438Y-50409507D01*
X152818516Y-50458972D01*
X152818519Y-50458973D01*
X152911397Y-50489150D01*
X153021884Y-50525049D01*
X153233084Y-50558500D01*
X153233085Y-50558500D01*
X153446915Y-50558500D01*
X153446916Y-50558500D01*
X153658116Y-50525049D01*
X153861483Y-50458972D01*
X154052009Y-50361894D01*
X154225004Y-50236206D01*
X154376206Y-50085004D01*
X154501894Y-49912009D01*
X154501896Y-49912004D01*
X154504270Y-49908132D01*
X154556080Y-49861254D01*
X154625009Y-49849829D01*
X154689173Y-49877483D01*
X154715730Y-49908132D01*
X154718103Y-49912005D01*
X154718105Y-49912008D01*
X154718106Y-49912009D01*
X154843794Y-50085004D01*
X154994996Y-50236206D01*
X155167991Y-50361894D01*
X155261438Y-50409507D01*
X155358516Y-50458972D01*
X155358519Y-50458973D01*
X155451397Y-50489150D01*
X155561884Y-50525049D01*
X155773084Y-50558500D01*
X155773085Y-50558500D01*
X155986915Y-50558500D01*
X155986916Y-50558500D01*
X156198116Y-50525049D01*
X156236334Y-50512630D01*
X156306174Y-50510636D01*
X156362332Y-50542881D01*
X159316373Y-53496922D01*
X159366180Y-53525678D01*
X159455128Y-53577032D01*
X159609889Y-53618500D01*
X159609890Y-53618500D01*
X159770110Y-53618500D01*
X159875496Y-53618500D01*
X159942535Y-53638185D01*
X159985982Y-53686207D01*
X159990873Y-53695807D01*
X160111926Y-53862423D01*
X160111930Y-53862428D01*
X160257571Y-54008069D01*
X160257576Y-54008073D01*
X160291382Y-54032634D01*
X160424197Y-54129129D01*
X160536362Y-54186280D01*
X160607705Y-54222632D01*
X160607707Y-54222632D01*
X160607710Y-54222634D01*
X160712707Y-54256749D01*
X160803591Y-54286280D01*
X160905305Y-54302390D01*
X161007019Y-54318500D01*
X161007020Y-54318500D01*
X161212980Y-54318500D01*
X161212981Y-54318500D01*
X161416408Y-54286280D01*
X161612290Y-54222634D01*
X161795803Y-54129129D01*
X161962430Y-54008068D01*
X162108068Y-53862430D01*
X162229129Y-53695803D01*
X162322634Y-53512290D01*
X162386280Y-53316408D01*
X162418500Y-53112981D01*
X162418500Y-52907019D01*
X162386280Y-52703592D01*
X162322634Y-52507710D01*
X162322632Y-52507707D01*
X162322632Y-52507705D01*
X162271681Y-52407710D01*
X162229129Y-52324197D01*
X162156475Y-52224197D01*
X162108073Y-52157576D01*
X162108069Y-52157571D01*
X161962428Y-52011930D01*
X161962423Y-52011926D01*
X161795806Y-51890873D01*
X161795805Y-51890872D01*
X161795803Y-51890871D01*
X161738496Y-51861671D01*
X161612294Y-51797367D01*
X161416408Y-51733719D01*
X161240794Y-51705905D01*
X161212981Y-51701500D01*
X161007019Y-51701500D01*
X160982550Y-51705375D01*
X160803591Y-51733719D01*
X160607705Y-51797367D01*
X160424193Y-51890873D01*
X160257576Y-52011926D01*
X160257571Y-52011930D01*
X160111930Y-52157571D01*
X160023133Y-52279790D01*
X159967803Y-52322455D01*
X159898189Y-52328434D01*
X159836394Y-52295828D01*
X159835134Y-52294585D01*
X158310730Y-50770181D01*
X158277245Y-50708858D01*
X158282229Y-50639166D01*
X158324101Y-50583233D01*
X158389565Y-50558816D01*
X158398411Y-50558500D01*
X158526915Y-50558500D01*
X158526916Y-50558500D01*
X158738116Y-50525049D01*
X158941483Y-50458972D01*
X159132009Y-50361894D01*
X159305004Y-50236206D01*
X159456206Y-50085004D01*
X159581894Y-49912009D01*
X159581896Y-49912004D01*
X159584270Y-49908132D01*
X159636080Y-49861254D01*
X159705009Y-49849829D01*
X159769173Y-49877483D01*
X159795730Y-49908132D01*
X159798103Y-49912005D01*
X159798105Y-49912008D01*
X159798106Y-49912009D01*
X159923794Y-50085004D01*
X160074996Y-50236206D01*
X160247991Y-50361894D01*
X160341438Y-50409507D01*
X160438516Y-50458972D01*
X160438519Y-50458973D01*
X160531397Y-50489150D01*
X160641884Y-50525049D01*
X160853084Y-50558500D01*
X160853085Y-50558500D01*
X161066915Y-50558500D01*
X161066916Y-50558500D01*
X161278116Y-50525049D01*
X161316334Y-50512630D01*
X161386174Y-50510636D01*
X161442332Y-50542881D01*
X163525181Y-52625730D01*
X163558666Y-52687053D01*
X163561500Y-52713411D01*
X163561500Y-66846589D01*
X163541815Y-66913628D01*
X163525181Y-66934270D01*
X163238270Y-67221181D01*
X163176947Y-67254666D01*
X163150589Y-67257500D01*
X162584000Y-67257500D01*
X162516961Y-67237815D01*
X162471206Y-67185011D01*
X162460000Y-67133500D01*
X162460000Y-66620000D01*
X161435278Y-66620000D01*
X161479333Y-66543694D01*
X161510000Y-66429244D01*
X161510000Y-66310756D01*
X161479333Y-66196306D01*
X161435278Y-66120000D01*
X162460000Y-66120000D01*
X162460000Y-65422172D01*
X162459999Y-65422155D01*
X162453598Y-65362627D01*
X162453596Y-65362620D01*
X162403354Y-65227913D01*
X162403350Y-65227906D01*
X162317190Y-65112812D01*
X162317187Y-65112809D01*
X162202093Y-65026649D01*
X162202087Y-65026646D01*
X162130269Y-64999859D01*
X162074336Y-64957987D01*
X162049919Y-64892522D01*
X162064771Y-64824250D01*
X162085920Y-64795998D01*
X162134343Y-64747576D01*
X162264657Y-64568215D01*
X162365308Y-64370676D01*
X162433818Y-64159824D01*
X162468500Y-63940851D01*
X162468500Y-63719149D01*
X162433818Y-63500176D01*
X162365308Y-63289324D01*
X162365306Y-63289321D01*
X162365306Y-63289319D01*
X162264656Y-63091784D01*
X162134343Y-62912424D01*
X161977576Y-62755657D01*
X161798215Y-62625343D01*
X161798216Y-62625343D01*
X161798214Y-62625342D01*
X161786201Y-62619221D01*
X161735407Y-62571245D01*
X161718500Y-62508738D01*
X161718500Y-61864504D01*
X161738185Y-61797465D01*
X161786205Y-61754018D01*
X161795803Y-61749129D01*
X161962430Y-61628068D01*
X162108068Y-61482430D01*
X162229129Y-61315803D01*
X162322634Y-61132290D01*
X162386280Y-60936408D01*
X162418500Y-60732981D01*
X162418500Y-60527019D01*
X162386280Y-60323592D01*
X162322634Y-60127710D01*
X162322632Y-60127707D01*
X162322632Y-60127705D01*
X162271681Y-60027710D01*
X162229129Y-59944197D01*
X162156475Y-59844197D01*
X162108073Y-59777576D01*
X162108069Y-59777571D01*
X161962428Y-59631930D01*
X161962423Y-59631926D01*
X161795806Y-59510873D01*
X161795805Y-59510872D01*
X161795803Y-59510871D01*
X161738496Y-59481671D01*
X161612294Y-59417367D01*
X161416408Y-59353719D01*
X161240794Y-59325905D01*
X161212981Y-59321500D01*
X161007019Y-59321500D01*
X160982550Y-59325375D01*
X160803591Y-59353719D01*
X160607705Y-59417367D01*
X160424193Y-59510873D01*
X160257576Y-59631926D01*
X160257571Y-59631930D01*
X160111930Y-59777571D01*
X160111926Y-59777576D01*
X159990873Y-59944193D01*
X159897367Y-60127705D01*
X159833719Y-60323591D01*
X159801500Y-60527019D01*
X159801500Y-60732980D01*
X159833719Y-60936408D01*
X159897367Y-61132294D01*
X159961671Y-61258496D01*
X159978958Y-61292423D01*
X159990873Y-61315806D01*
X160111926Y-61482423D01*
X160111930Y-61482428D01*
X160257571Y-61628069D01*
X160257576Y-61628073D01*
X160424192Y-61749126D01*
X160424194Y-61749127D01*
X160424197Y-61749129D01*
X160433793Y-61754018D01*
X160484590Y-61801992D01*
X160501500Y-61864504D01*
X160501500Y-62457785D01*
X160481815Y-62524824D01*
X160433796Y-62568269D01*
X160321787Y-62625341D01*
X160310387Y-62633624D01*
X160142424Y-62755657D01*
X160142422Y-62755659D01*
X160142421Y-62755659D01*
X159985659Y-62912421D01*
X159985659Y-62912422D01*
X159985657Y-62912424D01*
X159953446Y-62956759D01*
X159855343Y-63091784D01*
X159754693Y-63289319D01*
X159686182Y-63500175D01*
X159651500Y-63719149D01*
X159651500Y-63940850D01*
X159686182Y-64159824D01*
X159754693Y-64370680D01*
X159854195Y-64565961D01*
X159855343Y-64568215D01*
X159985657Y-64747576D01*
X159985659Y-64747578D01*
X160034077Y-64795996D01*
X160067562Y-64857319D01*
X160062578Y-64927011D01*
X160020706Y-64982944D01*
X159989731Y-64999858D01*
X159917915Y-65026644D01*
X159917906Y-65026649D01*
X159802812Y-65112809D01*
X159802809Y-65112812D01*
X159716649Y-65227906D01*
X159716645Y-65227913D01*
X159666403Y-65362620D01*
X159666401Y-65362627D01*
X159660000Y-65422155D01*
X159660000Y-66120000D01*
X160684722Y-66120000D01*
X160640667Y-66196306D01*
X160610000Y-66310756D01*
X160610000Y-66429244D01*
X160640667Y-66543694D01*
X160684722Y-66620000D01*
X159660000Y-66620000D01*
X159660000Y-67133500D01*
X159640315Y-67200539D01*
X159587511Y-67246294D01*
X159536000Y-67257500D01*
X155114000Y-67257500D01*
X155046961Y-67237815D01*
X155001206Y-67185011D01*
X154990000Y-67133500D01*
X154990000Y-66620000D01*
X153965278Y-66620000D01*
X154009333Y-66543694D01*
X154040000Y-66429244D01*
X154040000Y-66310756D01*
X154009333Y-66196306D01*
X153965278Y-66120000D01*
X154990000Y-66120000D01*
X154990000Y-65422172D01*
X154989999Y-65422155D01*
X154983598Y-65362627D01*
X154983596Y-65362620D01*
X154933354Y-65227913D01*
X154933350Y-65227906D01*
X154847190Y-65112812D01*
X154847187Y-65112809D01*
X154732093Y-65026649D01*
X154732087Y-65026646D01*
X154660269Y-64999859D01*
X154604336Y-64957987D01*
X154579919Y-64892522D01*
X154594771Y-64824250D01*
X154615920Y-64795998D01*
X154664343Y-64747576D01*
X154794657Y-64568215D01*
X154895308Y-64370676D01*
X154963818Y-64159824D01*
X154998500Y-63940851D01*
X154998500Y-63719149D01*
X154963818Y-63500176D01*
X154895308Y-63289324D01*
X154895306Y-63289321D01*
X154895306Y-63289319D01*
X154794656Y-63091784D01*
X154664343Y-62912424D01*
X154507576Y-62755657D01*
X154328215Y-62625343D01*
X154288500Y-62605107D01*
X154196205Y-62558080D01*
X154145409Y-62510105D01*
X154128500Y-62447595D01*
X154128500Y-61674504D01*
X154148185Y-61607465D01*
X154196205Y-61564018D01*
X154205803Y-61559129D01*
X154372430Y-61438068D01*
X154518068Y-61292430D01*
X154639129Y-61125803D01*
X154732634Y-60942290D01*
X154796280Y-60746408D01*
X154828500Y-60542981D01*
X154828500Y-60337019D01*
X154796280Y-60133592D01*
X154732634Y-59937710D01*
X154732632Y-59937707D01*
X154732632Y-59937705D01*
X154698709Y-59871128D01*
X154639129Y-59754197D01*
X154566475Y-59654197D01*
X154518073Y-59587576D01*
X154518069Y-59587571D01*
X154372428Y-59441930D01*
X154372423Y-59441926D01*
X154205806Y-59320873D01*
X154205805Y-59320872D01*
X154205803Y-59320871D01*
X154148496Y-59291671D01*
X154022294Y-59227367D01*
X153826408Y-59163719D01*
X153650794Y-59135905D01*
X153622981Y-59131500D01*
X153417019Y-59131500D01*
X153392550Y-59135375D01*
X153213591Y-59163719D01*
X153017705Y-59227367D01*
X152834193Y-59320873D01*
X152667576Y-59441926D01*
X152667571Y-59441930D01*
X152521930Y-59587571D01*
X152521926Y-59587576D01*
X152400873Y-59754193D01*
X152307367Y-59937705D01*
X152243719Y-60133591D01*
X152211500Y-60337019D01*
X152211500Y-60542980D01*
X152243719Y-60746408D01*
X152307367Y-60942294D01*
X152400873Y-61125806D01*
X152521926Y-61292423D01*
X152521930Y-61292428D01*
X152667571Y-61438069D01*
X152667576Y-61438073D01*
X152834192Y-61559126D01*
X152834194Y-61559127D01*
X152834197Y-61559129D01*
X152843793Y-61564018D01*
X152894590Y-61611992D01*
X152911500Y-61674504D01*
X152911500Y-62519305D01*
X152891815Y-62586344D01*
X152855385Y-62622008D01*
X152855727Y-62622479D01*
X152852537Y-62624796D01*
X152852306Y-62625023D01*
X152851790Y-62625338D01*
X152723670Y-62718424D01*
X152672424Y-62755657D01*
X152672422Y-62755659D01*
X152672421Y-62755659D01*
X152515659Y-62912421D01*
X152515659Y-62912422D01*
X152515657Y-62912424D01*
X152483446Y-62956759D01*
X152385343Y-63091784D01*
X152284693Y-63289319D01*
X152216182Y-63500175D01*
X152181500Y-63719149D01*
X152181500Y-63940850D01*
X152216182Y-64159824D01*
X152284693Y-64370680D01*
X152384195Y-64565961D01*
X152385343Y-64568215D01*
X152515657Y-64747576D01*
X152515659Y-64747578D01*
X152564077Y-64795996D01*
X152597562Y-64857319D01*
X152592578Y-64927011D01*
X152550706Y-64982944D01*
X152519731Y-64999858D01*
X152447915Y-65026644D01*
X152447906Y-65026649D01*
X152332812Y-65112809D01*
X152332809Y-65112812D01*
X152246649Y-65227906D01*
X152246645Y-65227913D01*
X152196403Y-65362620D01*
X152196401Y-65362627D01*
X152190000Y-65422155D01*
X152190000Y-66120000D01*
X153214722Y-66120000D01*
X153170667Y-66196306D01*
X153140000Y-66310756D01*
X153140000Y-66429244D01*
X153170667Y-66543694D01*
X153214722Y-66620000D01*
X152190000Y-66620000D01*
X152190000Y-67133500D01*
X152170315Y-67200539D01*
X152117511Y-67246294D01*
X152066000Y-67257500D01*
X147644000Y-67257500D01*
X147576961Y-67237815D01*
X147531206Y-67185011D01*
X147520000Y-67133500D01*
X147520000Y-66620000D01*
X146495278Y-66620000D01*
X146539333Y-66543694D01*
X146570000Y-66429244D01*
X146570000Y-66310756D01*
X146539333Y-66196306D01*
X146495278Y-66120000D01*
X147520000Y-66120000D01*
X147520000Y-65422172D01*
X147519999Y-65422155D01*
X147513598Y-65362627D01*
X147513596Y-65362620D01*
X147463354Y-65227913D01*
X147463350Y-65227906D01*
X147377190Y-65112812D01*
X147377187Y-65112809D01*
X147262093Y-65026649D01*
X147262087Y-65026646D01*
X147190269Y-64999859D01*
X147134336Y-64957987D01*
X147109919Y-64892522D01*
X147124771Y-64824250D01*
X147145920Y-64795998D01*
X147194343Y-64747576D01*
X147324657Y-64568215D01*
X147425308Y-64370676D01*
X147493818Y-64159824D01*
X147528500Y-63940851D01*
X147528500Y-63719149D01*
X147493818Y-63500176D01*
X147425308Y-63289324D01*
X147425306Y-63289321D01*
X147425306Y-63289319D01*
X147324656Y-63091784D01*
X147194343Y-62912424D01*
X147037576Y-62755657D01*
X146858215Y-62625343D01*
X146858214Y-62625342D01*
X146858212Y-62625341D01*
X146806204Y-62598841D01*
X146755409Y-62550866D01*
X146738500Y-62488357D01*
X146738500Y-61764504D01*
X146758185Y-61697465D01*
X146806205Y-61654018D01*
X146815803Y-61649129D01*
X146982430Y-61528068D01*
X147128068Y-61382430D01*
X147249129Y-61215803D01*
X147342634Y-61032290D01*
X147406280Y-60836408D01*
X147438500Y-60632981D01*
X147438500Y-60427019D01*
X147422119Y-60323592D01*
X147406280Y-60223591D01*
X147342632Y-60027705D01*
X147296774Y-59937705D01*
X147249129Y-59844197D01*
X147200722Y-59777570D01*
X147128073Y-59677576D01*
X147128069Y-59677571D01*
X146982428Y-59531930D01*
X146982423Y-59531926D01*
X146815806Y-59410873D01*
X146815805Y-59410872D01*
X146815803Y-59410871D01*
X146745436Y-59375017D01*
X146632294Y-59317367D01*
X146436408Y-59253719D01*
X146260794Y-59225905D01*
X146232981Y-59221500D01*
X146027019Y-59221500D01*
X146002550Y-59225375D01*
X145823591Y-59253719D01*
X145627705Y-59317367D01*
X145444193Y-59410873D01*
X145277576Y-59531926D01*
X145277571Y-59531930D01*
X145131930Y-59677571D01*
X145131926Y-59677576D01*
X145010873Y-59844193D01*
X144917367Y-60027705D01*
X144853719Y-60223591D01*
X144821500Y-60427019D01*
X144821500Y-60632980D01*
X144853719Y-60836408D01*
X144917367Y-61032294D01*
X144965013Y-61125803D01*
X144998958Y-61192423D01*
X145010873Y-61215806D01*
X145131926Y-61382423D01*
X145131930Y-61382428D01*
X145277571Y-61528069D01*
X145277576Y-61528073D01*
X145444192Y-61649126D01*
X145444194Y-61649127D01*
X145444197Y-61649129D01*
X145453793Y-61654018D01*
X145504590Y-61701992D01*
X145521500Y-61764504D01*
X145521500Y-62478166D01*
X145501815Y-62545205D01*
X145453796Y-62588650D01*
X145381787Y-62625341D01*
X145370387Y-62633624D01*
X145202424Y-62755657D01*
X145202422Y-62755659D01*
X145202421Y-62755659D01*
X145045659Y-62912421D01*
X145045659Y-62912422D01*
X145045657Y-62912424D01*
X145013446Y-62956759D01*
X144915343Y-63091784D01*
X144814693Y-63289319D01*
X144746182Y-63500175D01*
X144711500Y-63719149D01*
X144711500Y-63940850D01*
X144746182Y-64159824D01*
X144814693Y-64370680D01*
X144914195Y-64565961D01*
X144915343Y-64568215D01*
X145045657Y-64747576D01*
X145045659Y-64747578D01*
X145094077Y-64795996D01*
X145127562Y-64857319D01*
X145122578Y-64927011D01*
X145080706Y-64982944D01*
X145049731Y-64999858D01*
X144977915Y-65026644D01*
X144977906Y-65026649D01*
X144862812Y-65112809D01*
X144862809Y-65112812D01*
X144776649Y-65227906D01*
X144776645Y-65227913D01*
X144726403Y-65362620D01*
X144726401Y-65362627D01*
X144720000Y-65422155D01*
X144720000Y-66120000D01*
X145744722Y-66120000D01*
X145700667Y-66196306D01*
X145670000Y-66310756D01*
X145670000Y-66429244D01*
X145700667Y-66543694D01*
X145744722Y-66620000D01*
X144720000Y-66620000D01*
X144720000Y-67133500D01*
X144700315Y-67200539D01*
X144647511Y-67246294D01*
X144596000Y-67257500D01*
X140174000Y-67257500D01*
X140106961Y-67237815D01*
X140061206Y-67185011D01*
X140050000Y-67133500D01*
X140050000Y-66620000D01*
X139025278Y-66620000D01*
X139069333Y-66543694D01*
X139100000Y-66429244D01*
X139100000Y-66310756D01*
X139069333Y-66196306D01*
X139025278Y-66120000D01*
X140050000Y-66120000D01*
X140050000Y-65422172D01*
X140049999Y-65422155D01*
X140043598Y-65362627D01*
X140043596Y-65362620D01*
X139993354Y-65227913D01*
X139993350Y-65227906D01*
X139907190Y-65112812D01*
X139907187Y-65112809D01*
X139792093Y-65026649D01*
X139792087Y-65026646D01*
X139720269Y-64999859D01*
X139664336Y-64957987D01*
X139639919Y-64892522D01*
X139654771Y-64824250D01*
X139675920Y-64795998D01*
X139724343Y-64747576D01*
X139854657Y-64568215D01*
X139955308Y-64370676D01*
X140023818Y-64159824D01*
X140058500Y-63940851D01*
X140058500Y-63719149D01*
X140023818Y-63500176D01*
X139955308Y-63289324D01*
X139955306Y-63289321D01*
X139955306Y-63289319D01*
X139854656Y-63091784D01*
X139724343Y-62912424D01*
X139567576Y-62755657D01*
X139459612Y-62677216D01*
X139399614Y-62633624D01*
X139356948Y-62578293D01*
X139348500Y-62533306D01*
X139348500Y-61764504D01*
X139368185Y-61697465D01*
X139416205Y-61654018D01*
X139425803Y-61649129D01*
X139592430Y-61528068D01*
X139738068Y-61382430D01*
X139859129Y-61215803D01*
X139952634Y-61032290D01*
X140016280Y-60836408D01*
X140048500Y-60632981D01*
X140048500Y-60427019D01*
X140032119Y-60323592D01*
X140016280Y-60223591D01*
X139952632Y-60027705D01*
X139906774Y-59937705D01*
X139859129Y-59844197D01*
X139810722Y-59777570D01*
X139738073Y-59677576D01*
X139738069Y-59677571D01*
X139592428Y-59531930D01*
X139592423Y-59531926D01*
X139425806Y-59410873D01*
X139425805Y-59410872D01*
X139425803Y-59410871D01*
X139355436Y-59375017D01*
X139242294Y-59317367D01*
X139046408Y-59253719D01*
X138870794Y-59225905D01*
X138842981Y-59221500D01*
X138637019Y-59221500D01*
X138612550Y-59225375D01*
X138433591Y-59253719D01*
X138237705Y-59317367D01*
X138054193Y-59410873D01*
X137887576Y-59531926D01*
X137887571Y-59531930D01*
X137741930Y-59677571D01*
X137741926Y-59677576D01*
X137620873Y-59844193D01*
X137527367Y-60027705D01*
X137463719Y-60223591D01*
X137431500Y-60427019D01*
X137431500Y-60632980D01*
X137463719Y-60836408D01*
X137527367Y-61032294D01*
X137575013Y-61125803D01*
X137608958Y-61192423D01*
X137620873Y-61215806D01*
X137741926Y-61382423D01*
X137741930Y-61382428D01*
X137887571Y-61528069D01*
X137887576Y-61528073D01*
X138054192Y-61649126D01*
X138054194Y-61649127D01*
X138054197Y-61649129D01*
X138063793Y-61654018D01*
X138114590Y-61701992D01*
X138131500Y-61764504D01*
X138131500Y-62437405D01*
X138111815Y-62504444D01*
X138063795Y-62547890D01*
X137911784Y-62625343D01*
X137891501Y-62640080D01*
X137732424Y-62755657D01*
X137732422Y-62755659D01*
X137732421Y-62755659D01*
X137575659Y-62912421D01*
X137575659Y-62912422D01*
X137575657Y-62912424D01*
X137543446Y-62956759D01*
X137445343Y-63091784D01*
X137344693Y-63289319D01*
X137276182Y-63500175D01*
X137241500Y-63719149D01*
X137241500Y-63940850D01*
X137276182Y-64159824D01*
X137344693Y-64370680D01*
X137444195Y-64565961D01*
X137445343Y-64568215D01*
X137575657Y-64747576D01*
X137575659Y-64747578D01*
X137624077Y-64795996D01*
X137657562Y-64857319D01*
X137652578Y-64927011D01*
X137610706Y-64982944D01*
X137579731Y-64999858D01*
X137507915Y-65026644D01*
X137507906Y-65026649D01*
X137392812Y-65112809D01*
X137392809Y-65112812D01*
X137306649Y-65227906D01*
X137306645Y-65227913D01*
X137256403Y-65362620D01*
X137256401Y-65362627D01*
X137250000Y-65422155D01*
X137250000Y-66120000D01*
X138274722Y-66120000D01*
X138230667Y-66196306D01*
X138200000Y-66310756D01*
X138200000Y-66429244D01*
X138230667Y-66543694D01*
X138274722Y-66620000D01*
X137250000Y-66620000D01*
X137250000Y-67133500D01*
X137230315Y-67200539D01*
X137177511Y-67246294D01*
X137126000Y-67257500D01*
X132704000Y-67257500D01*
X132636961Y-67237815D01*
X132591206Y-67185011D01*
X132580000Y-67133500D01*
X132580000Y-66620000D01*
X131555278Y-66620000D01*
X131599333Y-66543694D01*
X131630000Y-66429244D01*
X131630000Y-66310756D01*
X131599333Y-66196306D01*
X131555278Y-66120000D01*
X132580000Y-66120000D01*
X132580000Y-65422172D01*
X132579999Y-65422155D01*
X132573598Y-65362627D01*
X132573596Y-65362620D01*
X132523354Y-65227913D01*
X132523350Y-65227906D01*
X132437190Y-65112812D01*
X132437187Y-65112809D01*
X132322093Y-65026649D01*
X132322087Y-65026646D01*
X132250269Y-64999859D01*
X132194336Y-64957987D01*
X132169919Y-64892522D01*
X132184771Y-64824250D01*
X132205920Y-64795998D01*
X132254343Y-64747576D01*
X132384657Y-64568215D01*
X132485308Y-64370676D01*
X132553818Y-64159824D01*
X132588500Y-63940851D01*
X132588500Y-63719149D01*
X132553818Y-63500176D01*
X132485308Y-63289324D01*
X132485306Y-63289321D01*
X132485306Y-63289319D01*
X132384656Y-63091784D01*
X132254343Y-62912424D01*
X132097576Y-62755657D01*
X131918215Y-62625343D01*
X131918214Y-62625342D01*
X131918212Y-62625341D01*
X131836204Y-62583555D01*
X131785409Y-62535581D01*
X131768500Y-62473071D01*
X131768500Y-61574504D01*
X131788185Y-61507465D01*
X131836205Y-61464018D01*
X131845803Y-61459129D01*
X132012430Y-61338068D01*
X132158068Y-61192430D01*
X132279129Y-61025803D01*
X132372634Y-60842290D01*
X132436280Y-60646408D01*
X132468500Y-60442981D01*
X132468500Y-60237019D01*
X132452119Y-60133592D01*
X132436280Y-60033591D01*
X132405124Y-59937705D01*
X132372634Y-59837710D01*
X132372632Y-59837707D01*
X132372632Y-59837705D01*
X132330080Y-59754193D01*
X132279129Y-59654197D01*
X132190299Y-59531932D01*
X132158073Y-59487576D01*
X132158069Y-59487571D01*
X132012428Y-59341930D01*
X132012423Y-59341926D01*
X131845806Y-59220873D01*
X131845805Y-59220872D01*
X131845803Y-59220871D01*
X131788496Y-59191671D01*
X131662294Y-59127367D01*
X131466408Y-59063719D01*
X131290794Y-59035905D01*
X131262981Y-59031500D01*
X131057019Y-59031500D01*
X131032550Y-59035375D01*
X130853591Y-59063719D01*
X130657705Y-59127367D01*
X130474193Y-59220873D01*
X130307576Y-59341926D01*
X130307571Y-59341930D01*
X130161930Y-59487571D01*
X130161926Y-59487576D01*
X130040873Y-59654193D01*
X129947367Y-59837705D01*
X129883719Y-60033591D01*
X129851500Y-60237019D01*
X129851500Y-60442980D01*
X129883719Y-60646408D01*
X129947367Y-60842294D01*
X130040873Y-61025806D01*
X130161926Y-61192423D01*
X130161930Y-61192428D01*
X130307571Y-61338069D01*
X130307576Y-61338073D01*
X130474192Y-61459126D01*
X130474194Y-61459127D01*
X130474197Y-61459129D01*
X130483793Y-61464018D01*
X130534590Y-61511992D01*
X130551500Y-61574504D01*
X130551500Y-62493452D01*
X130531815Y-62560491D01*
X130483797Y-62603936D01*
X130441784Y-62625343D01*
X130421501Y-62640080D01*
X130262424Y-62755657D01*
X130262422Y-62755659D01*
X130262421Y-62755659D01*
X130105659Y-62912421D01*
X130105659Y-62912422D01*
X130105657Y-62912424D01*
X130073446Y-62956759D01*
X129975343Y-63091784D01*
X129874693Y-63289319D01*
X129806182Y-63500175D01*
X129771500Y-63719149D01*
X129771500Y-63940850D01*
X129806182Y-64159824D01*
X129874693Y-64370680D01*
X129974195Y-64565961D01*
X129975343Y-64568215D01*
X130105657Y-64747576D01*
X130105659Y-64747578D01*
X130154077Y-64795996D01*
X130187562Y-64857319D01*
X130182578Y-64927011D01*
X130140706Y-64982944D01*
X130109731Y-64999858D01*
X130037915Y-65026644D01*
X130037906Y-65026649D01*
X129922812Y-65112809D01*
X129922809Y-65112812D01*
X129836649Y-65227906D01*
X129836645Y-65227913D01*
X129786403Y-65362620D01*
X129786401Y-65362627D01*
X129780000Y-65422155D01*
X129780000Y-66120000D01*
X130804722Y-66120000D01*
X130760667Y-66196306D01*
X130730000Y-66310756D01*
X130730000Y-66429244D01*
X130760667Y-66543694D01*
X130804722Y-66620000D01*
X129780000Y-66620000D01*
X129780000Y-67133500D01*
X129760315Y-67200539D01*
X129707511Y-67246294D01*
X129656000Y-67257500D01*
X125234000Y-67257500D01*
X125166961Y-67237815D01*
X125121206Y-67185011D01*
X125110000Y-67133500D01*
X125110000Y-66620000D01*
X124085278Y-66620000D01*
X124129333Y-66543694D01*
X124160000Y-66429244D01*
X124160000Y-66310756D01*
X124129333Y-66196306D01*
X124085278Y-66120000D01*
X125110000Y-66120000D01*
X125110000Y-65422172D01*
X125109999Y-65422155D01*
X125103598Y-65362627D01*
X125103596Y-65362620D01*
X125053354Y-65227913D01*
X125053350Y-65227906D01*
X124967190Y-65112812D01*
X124967187Y-65112809D01*
X124852093Y-65026649D01*
X124852087Y-65026646D01*
X124780269Y-64999859D01*
X124724336Y-64957987D01*
X124699919Y-64892522D01*
X124714771Y-64824250D01*
X124735920Y-64795998D01*
X124784343Y-64747576D01*
X124914657Y-64568215D01*
X125015308Y-64370676D01*
X125083818Y-64159824D01*
X125118500Y-63940851D01*
X125118500Y-63719149D01*
X125083818Y-63500176D01*
X125015308Y-63289324D01*
X125015306Y-63289321D01*
X125015306Y-63289319D01*
X124914656Y-63091784D01*
X124784343Y-62912424D01*
X124627576Y-62755657D01*
X124618900Y-62749353D01*
X124519614Y-62677216D01*
X124476948Y-62621886D01*
X124468500Y-62576899D01*
X124468500Y-61864504D01*
X124488185Y-61797465D01*
X124536205Y-61754018D01*
X124545803Y-61749129D01*
X124712430Y-61628068D01*
X124858068Y-61482430D01*
X124979129Y-61315803D01*
X125072634Y-61132290D01*
X125136280Y-60936408D01*
X125168500Y-60732981D01*
X125168500Y-60527019D01*
X125136280Y-60323592D01*
X125072634Y-60127710D01*
X125072632Y-60127707D01*
X125072632Y-60127705D01*
X125021681Y-60027710D01*
X124979129Y-59944197D01*
X124906475Y-59844197D01*
X124858073Y-59777576D01*
X124858069Y-59777571D01*
X124712428Y-59631930D01*
X124712423Y-59631926D01*
X124545806Y-59510873D01*
X124545805Y-59510872D01*
X124545803Y-59510871D01*
X124488496Y-59481671D01*
X124362294Y-59417367D01*
X124166408Y-59353719D01*
X123990794Y-59325905D01*
X123962981Y-59321500D01*
X123757019Y-59321500D01*
X123732550Y-59325375D01*
X123553591Y-59353719D01*
X123357705Y-59417367D01*
X123174193Y-59510873D01*
X123007576Y-59631926D01*
X123007571Y-59631930D01*
X122861930Y-59777571D01*
X122861926Y-59777576D01*
X122740873Y-59944193D01*
X122647367Y-60127705D01*
X122583719Y-60323591D01*
X122551500Y-60527019D01*
X122551500Y-60732980D01*
X122583719Y-60936408D01*
X122647367Y-61132294D01*
X122711671Y-61258496D01*
X122728958Y-61292423D01*
X122740873Y-61315806D01*
X122861926Y-61482423D01*
X122861930Y-61482428D01*
X123007571Y-61628069D01*
X123007576Y-61628073D01*
X123174192Y-61749126D01*
X123174194Y-61749127D01*
X123174197Y-61749129D01*
X123183793Y-61754018D01*
X123234590Y-61801992D01*
X123251500Y-61864504D01*
X123251500Y-62407900D01*
X123231815Y-62474939D01*
X123179011Y-62520694D01*
X123173776Y-62522733D01*
X123173817Y-62522831D01*
X123169325Y-62524690D01*
X122971784Y-62625343D01*
X122951501Y-62640080D01*
X122792424Y-62755657D01*
X122792422Y-62755659D01*
X122792421Y-62755659D01*
X122635659Y-62912421D01*
X122635659Y-62912422D01*
X122635657Y-62912424D01*
X122603446Y-62956759D01*
X122505343Y-63091784D01*
X122404693Y-63289319D01*
X122336182Y-63500175D01*
X122301500Y-63719149D01*
X122301500Y-63940850D01*
X122336182Y-64159824D01*
X122404693Y-64370680D01*
X122504195Y-64565961D01*
X122505343Y-64568215D01*
X122635657Y-64747576D01*
X122635659Y-64747578D01*
X122684077Y-64795996D01*
X122717562Y-64857319D01*
X122712578Y-64927011D01*
X122670706Y-64982944D01*
X122639731Y-64999858D01*
X122567915Y-65026644D01*
X122567906Y-65026649D01*
X122452812Y-65112809D01*
X122452809Y-65112812D01*
X122366649Y-65227906D01*
X122366645Y-65227913D01*
X122316403Y-65362620D01*
X122316401Y-65362627D01*
X122310000Y-65422155D01*
X122310000Y-66120000D01*
X123334722Y-66120000D01*
X123290667Y-66196306D01*
X123260000Y-66310756D01*
X123260000Y-66429244D01*
X123290667Y-66543694D01*
X123334722Y-66620000D01*
X122310000Y-66620000D01*
X122310000Y-67133500D01*
X122290315Y-67200539D01*
X122237511Y-67246294D01*
X122186000Y-67257500D01*
X113371389Y-67257500D01*
X113294008Y-67278233D01*
X113294008Y-67278234D01*
X113216627Y-67298968D01*
X113216625Y-67298968D01*
X113216625Y-67298969D01*
X113077873Y-67379078D01*
X113077870Y-67379080D01*
X112446097Y-68010852D01*
X112384774Y-68044337D01*
X112320099Y-68041102D01*
X112231645Y-68012362D01*
X112231641Y-68012361D01*
X112058678Y-67984966D01*
X112006484Y-67976700D01*
X111778516Y-67976700D01*
X111665936Y-67994531D01*
X111553355Y-68012362D01*
X111336541Y-68082809D01*
X111133425Y-68186303D01*
X110948993Y-68320301D01*
X110787801Y-68481493D01*
X110787801Y-68481494D01*
X110787799Y-68481496D01*
X110785523Y-68484629D01*
X110722818Y-68570935D01*
X110667488Y-68613600D01*
X110597874Y-68619579D01*
X110536079Y-68586973D01*
X110522182Y-68570935D01*
X110457201Y-68481496D01*
X110296004Y-68320299D01*
X110111574Y-68186303D01*
X110111573Y-68186302D01*
X110111571Y-68186301D01*
X110028704Y-68144077D01*
X109977908Y-68096102D01*
X109961000Y-68033593D01*
X109961000Y-50230911D01*
X109980685Y-50163872D01*
X109997319Y-50143230D01*
X112545730Y-47594819D01*
X112607053Y-47561334D01*
X112633411Y-47558500D01*
X114419724Y-47558500D01*
X114486763Y-47578185D01*
G37*
%TD.AperFunction*%
%TD*%
M02*
